<svg width="621" height="189" viewBox="0 0 621 189" fill="none" xmlns="http://www.w3.org/2000/svg">
<g clip-path="url(#clip0_1944_1952)">
<path d="M149.552 144.663V159.043H123.668V201.32H108.425V159.043H0V144.663L76.5017 0H93.1825L16.9684 144.663H108.425V81.3909H123.668V144.663H149.552Z" fill="#003366"/>
<path d="M621.116 144.663V159.043H595.232V201.32H579.989V159.043H471.564V144.663L548.065 0H564.746L488.532 144.663H579.989V81.3909H595.232V144.663H621.116Z" fill="#003366"/>
<path d="M227 -1H226V0V202V203H227H237.4H238.4V202V10.6428H319.6V202V203H320.6H331H332V202V0V-1H331H227Z" fill="url(#paint0_linear_1944_1952)" stroke="#08437F" stroke-width="2"/>
<path d="M326.629 201.19V9.04414L394.946 0V209.38L326.629 201.19Z" fill="url(#paint1_linear_1944_1952)"/>
<ellipse cx="383.947" cy="111.82" rx="2" ry="6.5" fill="#D9D9D9"/>
<path opacity="0.2" d="M275.048 104.927C275.048 102.335 275.577 99.9816 276.635 97.866C277.693 95.6976 278.962 93.8729 280.443 92.392C281.924 90.9111 283.405 89.4831 284.886 88.108C286.367 86.7329 287.636 85.2256 288.694 83.586C289.751 81.8936 290.28 80.0953 290.28 78.1913C290.28 75.1238 289.223 72.8231 287.107 71.2893C285.044 69.7027 282.373 68.9093 279.094 68.9093C272.589 68.9093 268.569 71.5802 267.036 76.922L262.355 74.304C263.571 70.7604 265.687 68.0896 268.702 66.2913C271.769 64.4402 275.233 63.5147 279.094 63.5147C283.749 63.5147 287.689 64.8104 290.915 67.402C294.194 69.9407 295.834 73.5371 295.834 78.1913C295.834 80.4656 295.305 82.5811 294.247 84.538C293.189 86.4949 291.92 88.2138 290.439 89.6947C288.958 91.1227 287.477 92.5507 285.996 93.9787C284.515 95.4067 283.246 97.0727 282.188 98.9767C281.131 100.828 280.602 102.811 280.602 104.927H275.048ZM280.919 119.524C280.073 120.37 279.041 120.793 277.825 120.793C276.609 120.793 275.577 120.37 274.731 119.524C273.885 118.678 273.462 117.646 273.462 116.43C273.462 115.214 273.885 114.182 274.731 113.336C275.577 112.49 276.609 112.067 277.825 112.067C279.041 112.067 280.073 112.49 280.919 113.336C281.765 114.182 282.188 115.214 282.188 116.43C282.188 117.646 281.765 118.678 280.919 119.524Z" fill="black"/>
</g>
<defs>
<linearGradient id="paint0_linear_1944_1952" x1="279" y1="0" x2="279" y2="202" gradientUnits="userSpaceOnUse">
<stop stop-color="#003366"/>
<stop offset="1" stop-color="#0A4886"/>
</linearGradient>
<linearGradient id="paint1_linear_1944_1952" x1="360.788" y1="0" x2="360.788" y2="209.38" gradientUnits="userSpaceOnUse">
<stop stop-color="#003366"/>
<stop offset="1" stop-color="#0A4886"/>
</linearGradient>
<clipPath id="clip0_1944_1952">
<rect width="621" height="189" fill="white"/>
</clipPath>
</defs>
</svg>
