<svg width="357" height="326" viewBox="0 0 357 326" fill="none" xmlns="http://www.w3.org/2000/svg">
<path d="M223.904 163.495C190.416 163.188 160.118 162.902 138.147 162.699C127.189 162.65 118.318 162.609 112.162 162.581C109.112 162.581 106.739 162.595 105.099 162.595C104.31 162.602 103.696 162.615 103.263 162.615C102.851 162.622 102.635 162.636 102.635 162.65C102.635 162.664 102.844 162.678 103.263 162.692C103.703 162.699 104.31 162.713 105.099 162.734C106.739 162.755 109.112 162.783 112.162 162.818C118.325 162.853 127.189 162.895 138.147 162.951C160.111 162.964 190.416 162.985 223.904 163.006C257.378 163.006 287.683 163.048 309.626 163.202C320.598 163.279 329.476 163.376 335.611 163.495C338.682 163.551 341.062 163.614 342.675 163.669C344.287 163.732 345.138 163.788 345.138 163.851C345.138 163.907 344.287 163.963 342.675 164.004C341.062 164.046 338.675 164.088 335.604 164.109C329.469 164.165 320.584 164.172 309.619 164.144C287.676 164.081 257.371 163.83 223.897 163.495H223.904Z" fill="#EFF5FB"/>
<path d="M223.233 170.754C190.206 165.443 160.313 160.634 138.648 157.151C127.83 155.462 119.078 154.101 112.992 153.152C109.977 152.705 107.631 152.356 106.012 152.112C105.23 152.007 104.623 151.923 104.191 151.861C103.779 151.812 103.569 151.791 103.569 151.798C103.569 151.812 103.772 151.854 104.184 151.93C104.616 152.007 105.21 152.112 105.991 152.244C107.61 152.51 109.949 152.894 112.957 153.389C119.036 154.338 127.788 155.713 138.607 157.409C160.306 160.704 190.241 165.247 223.317 170.266C256.379 175.256 286.321 179.828 307.965 183.255C318.79 184.971 327.542 186.395 333.586 187.428C336.609 187.945 338.954 188.357 340.538 188.664C342.122 188.971 342.953 189.152 342.939 189.208C342.932 189.264 342.081 189.194 340.482 188.999C338.877 188.803 336.518 188.482 333.482 188.049C327.41 187.184 318.636 185.872 307.804 184.204C286.14 180.868 256.239 176.08 223.233 170.747V170.754Z" fill="#EFF5FB"/>
<path d="M221.391 177.831C189.648 167.585 160.913 158.309 140.093 151.588C129.687 148.287 121.262 145.613 115.414 143.757C112.51 142.857 110.249 142.159 108.685 141.677C107.932 141.454 107.345 141.279 106.927 141.154C106.529 141.042 106.326 140.986 106.319 141C106.319 141.014 106.515 141.091 106.899 141.223C107.31 141.363 107.883 141.558 108.63 141.81C110.179 142.319 112.433 143.052 115.323 143.994C121.172 145.858 129.589 148.538 139.996 151.846C160.885 158.379 189.697 167.397 221.544 177.363C253.378 187.295 282.196 196.341 303.009 203.006C313.416 206.335 321.833 209.071 327.626 211.005C330.523 211.968 332.77 212.736 334.284 213.273C335.799 213.81 336.588 214.124 336.567 214.18C336.546 214.236 335.722 214.034 334.173 213.601C332.623 213.161 330.341 212.491 327.417 211.605C321.561 209.832 313.116 207.208 302.688 203.92C281.84 197.346 253.099 188.091 221.377 177.824L221.391 177.831Z" fill="#EFF5FB"/>
<path d="M218.417 184.532C188.74 169.61 161.89 156.112 142.424 146.326C132.687 141.489 124.807 137.574 119.335 134.859C116.613 133.533 114.499 132.5 113.033 131.788C112.321 131.453 111.777 131.195 111.386 131.006C111.016 130.832 110.82 130.755 110.813 130.762C110.813 130.776 110.988 130.881 111.351 131.069C111.735 131.271 112.272 131.551 112.963 131.914C114.415 132.646 116.516 133.714 119.217 135.082C124.689 137.804 132.562 141.727 142.298 146.571C161.855 156.188 188.838 169.449 218.647 184.113C248.457 198.742 275.432 212.031 294.898 221.768C304.635 226.633 312.494 230.604 317.903 233.389C320.611 234.778 322.705 235.874 324.115 236.634C325.525 237.395 326.25 237.821 326.222 237.87C326.195 237.919 325.413 237.597 323.954 236.934C322.495 236.264 320.353 235.259 317.61 233.94C312.117 231.302 304.202 227.435 294.452 222.605C274.937 212.96 248.066 199.475 218.424 184.539L218.417 184.532Z" fill="#EFF5FB"/>
<path d="M214.384 190.702C187.499 171.508 163.168 154.136 145.538 141.545C136.709 135.305 129.562 130.252 124.599 126.748C122.128 125.031 120.202 123.691 118.876 122.763C118.227 122.323 117.731 121.988 117.375 121.744C117.033 121.521 116.859 121.409 116.845 121.416C116.838 121.423 116.998 121.556 117.327 121.8C117.676 122.058 118.157 122.414 118.785 122.875C120.097 123.817 122.003 125.185 124.446 126.944C129.408 130.454 136.548 135.508 145.377 141.754C163.133 154.192 187.624 171.347 214.684 190.304C241.75 209.232 266.235 226.416 283.879 238.951C292.701 245.219 299.82 250.321 304.713 253.887C307.156 255.667 309.047 257.063 310.317 258.026C311.588 258.989 312.237 259.52 312.195 259.569C312.16 259.617 311.441 259.178 310.108 258.298C308.775 257.419 306.828 256.1 304.329 254.39C299.332 250.963 292.15 245.952 283.293 239.719C265.586 227.26 241.241 209.902 214.384 190.695V190.702Z" fill="#EFF5FB"/>
<path d="M209.399 196.187C185.948 173.204 164.724 152.412 149.341 137.336C141.628 129.854 135.389 123.796 131.047 119.587C128.884 117.521 127.202 115.909 126.036 114.799C125.471 114.269 125.031 113.857 124.717 113.571C124.417 113.299 124.256 113.159 124.249 113.166C124.242 113.173 124.382 113.327 124.661 113.62C124.961 113.927 125.38 114.346 125.931 114.897C127.076 116.028 128.73 117.661 130.866 119.762C135.2 123.97 141.44 130.036 149.145 137.525C164.668 152.461 186.088 173.071 209.755 195.852C233.43 218.599 254.836 239.23 270.233 254.257C277.938 261.767 284.143 267.874 288.394 272.125C290.522 274.253 292.163 275.915 293.258 277.052C294.354 278.19 294.913 278.811 294.871 278.853C294.829 278.895 294.187 278.357 293.014 277.289C291.842 276.222 290.125 274.63 287.94 272.564C283.564 268.432 277.268 262.402 269.535 254.927C254.061 239.97 232.816 219.185 209.399 196.201V196.187Z" fill="#EFF5FB"/>
<path d="M203.593 200.863C184.148 174.655 166.545 150.938 153.787 133.748C147.38 125.205 142.194 118.281 138.592 113.479C136.792 111.113 135.389 109.271 134.419 108C133.944 107.393 133.581 106.926 133.316 106.584C133.065 106.269 132.932 106.109 132.918 106.116C132.904 106.123 133.023 106.297 133.253 106.625C133.504 106.967 133.846 107.456 134.3 108.077C135.249 109.361 136.624 111.225 138.383 113.619C141.985 118.428 147.163 125.344 153.564 133.894C166.483 150.973 184.308 174.536 203.998 200.57C223.701 226.582 241.513 250.159 254.292 267.301C260.685 275.872 265.829 282.83 269.34 287.667C271.099 290.082 272.446 291.974 273.346 293.265C274.246 294.556 274.693 295.254 274.644 295.289C274.595 295.324 274.051 294.696 273.06 293.467C272.069 292.239 270.638 290.41 268.809 288.037C265.152 283.298 259.917 276.409 253.482 267.859C240.619 250.773 222.996 227.064 203.579 200.856L203.593 200.863Z" fill="#EFF5FB"/>
<path d="M197.096 204.618C182.153 175.806 168.627 149.738 158.82 130.837C153.879 121.436 149.887 113.821 147.109 108.538C145.713 105.927 144.624 103.896 143.877 102.493C143.507 101.823 143.221 101.3 143.019 100.93C142.823 100.581 142.712 100.407 142.705 100.407C142.691 100.407 142.774 100.602 142.949 100.958C143.137 101.335 143.403 101.865 143.745 102.549C144.47 103.959 145.524 106.011 146.878 108.635C149.649 113.926 153.642 121.541 158.576 130.949C168.557 149.759 182.334 175.709 197.55 204.388C212.786 233.038 226.536 259.002 236.377 277.861C241.297 287.29 245.241 294.933 247.928 300.237C249.268 302.89 250.301 304.955 250.978 306.365C251.655 307.775 251.983 308.529 251.927 308.557C251.871 308.585 251.439 307.88 250.657 306.519C249.882 305.158 248.758 303.134 247.342 300.517C244.501 295.289 240.446 287.695 235.483 278.287C225.559 259.477 212.011 233.408 197.096 204.604V204.618Z" fill="#EFF5FB"/>
<path d="M190.067 207.341C180.023 176.631 170.936 148.838 164.347 128.688C161.011 118.652 158.303 110.535 156.433 104.895C155.483 102.11 154.744 99.9396 154.227 98.439C153.969 97.7201 153.773 97.1618 153.634 96.7639C153.494 96.3871 153.417 96.1986 153.403 96.1986C153.39 96.1986 153.445 96.401 153.557 96.7849C153.683 97.1897 153.857 97.7481 154.08 98.4809C154.569 99.9885 155.274 102.166 156.174 104.965C158.045 110.604 160.746 118.729 164.075 128.765C170.852 148.852 180.212 176.561 190.548 207.187C200.906 237.785 210.238 265.508 216.868 285.616C220.184 295.666 222.829 303.818 224.616 309.465C225.509 312.285 226.186 314.483 226.626 315.977C227.065 317.47 227.268 318.266 227.205 318.287C227.149 318.308 226.828 317.547 226.284 316.081C225.739 314.616 224.965 312.452 223.987 309.653C222.033 304.063 219.276 295.946 215.919 285.902C209.198 265.822 200.083 238.029 190.067 207.327V207.341Z" fill="#EFF5FB"/>
<path d="M182.674 208.959C177.782 177.112 173.357 148.293 170.146 127.397C168.492 116.983 167.152 108.552 166.224 102.696C165.742 99.7996 165.365 97.5452 165.107 95.9888C164.974 95.242 164.87 94.6627 164.793 94.2509C164.716 93.86 164.674 93.6576 164.66 93.6646C164.646 93.6646 164.66 93.867 164.716 94.2648C164.772 94.6836 164.856 95.2629 164.96 96.0167C165.198 97.5801 165.533 99.8345 165.972 102.738C166.901 108.594 168.234 117.025 169.881 127.439C173.287 148.3 177.991 177.084 183.184 208.883C188.405 240.667 193.081 269.458 196.34 290.32C197.974 300.747 199.251 309.199 200.088 315.041C200.507 317.966 200.814 320.234 201.003 321.776C201.191 323.319 201.261 324.135 201.198 324.142C201.135 324.149 200.954 323.354 200.654 321.825C200.354 320.297 199.949 318.042 199.439 315.132C198.427 309.311 197.031 300.88 195.356 290.459C191.999 269.611 187.546 240.793 182.681 208.952L182.674 208.959Z" fill="#EFF5FB"/>
<path d="M175.11 209.456C175.41 177.266 175.682 148.134 175.885 127.014C175.933 116.482 175.968 107.953 175.996 102.027C175.989 99.0955 175.982 96.8132 175.975 95.2359C175.961 94.4751 175.954 93.8888 175.947 93.4701C175.94 93.0722 175.927 92.8698 175.913 92.8698C175.899 92.8698 175.885 93.0722 175.871 93.4701C175.864 93.8888 175.85 94.4751 175.829 95.2359C175.808 96.8132 175.78 99.0955 175.745 102.027C175.717 107.946 175.675 116.475 175.619 127.014C175.619 148.134 175.619 177.266 175.619 209.456C175.64 241.631 175.619 270.771 175.473 291.863C175.403 302.409 175.298 310.945 175.187 316.843C175.131 319.795 175.068 322.084 175.005 323.634C174.942 325.19 174.88 326 174.824 326C174.761 326 174.705 325.183 174.663 323.634C174.614 322.077 174.579 319.788 174.545 316.843C174.489 310.945 174.468 302.409 174.496 291.856C174.545 270.764 174.796 241.624 175.117 209.449L175.11 209.456Z" fill="#EFF5FB"/>
<path d="M167.551 208.82C173.057 177.063 178.034 148.328 181.642 127.494C183.387 117.095 184.804 108.677 185.788 102.829C186.256 99.9321 186.612 97.6708 186.863 96.1143C186.975 95.3606 187.058 94.7812 187.121 94.3625C187.177 93.9646 187.198 93.7622 187.184 93.7622C187.17 93.7622 187.121 93.9577 187.044 94.3485C186.968 94.7603 186.856 95.3396 186.716 96.0864C186.444 97.6429 186.046 99.8903 185.53 102.78C184.546 108.629 183.122 117.046 181.37 127.438C177.957 148.3 173.253 177.077 168.053 208.882C162.881 240.674 158.149 269.458 154.59 290.271C152.817 300.677 151.337 309.094 150.269 314.908C149.739 317.812 149.306 320.066 148.992 321.595C148.678 323.116 148.482 323.912 148.427 323.905C148.364 323.898 148.441 323.081 148.643 321.539C148.845 319.996 149.18 317.728 149.627 314.811C150.52 308.976 151.882 300.538 153.612 290.124C157.067 269.29 162.03 240.549 167.558 208.813L167.551 208.82Z" fill="#EFF5FB"/>
<path d="M160.195 207.055C170.831 176.526 180.463 148.908 187.436 128.884C190.863 118.882 193.64 110.779 195.567 105.153C196.502 102.362 197.228 100.184 197.73 98.6835C197.961 97.9576 198.142 97.3992 198.275 96.9944C198.394 96.6105 198.449 96.4151 198.435 96.4081C198.421 96.4081 198.345 96.5966 198.205 96.9665C198.059 97.3643 197.856 97.9157 197.598 98.6346C197.074 100.128 196.307 102.292 195.33 105.07C193.396 110.695 190.611 118.791 187.177 128.793C180.393 148.88 171.034 176.589 160.683 207.208C150.367 237.82 140.98 265.529 134.063 285.546C130.601 295.555 127.768 303.644 125.758 309.221C124.753 312.006 123.957 314.169 123.399 315.628C122.84 317.087 122.519 317.84 122.456 317.827C122.4 317.806 122.603 317.017 123.057 315.523C123.51 314.03 124.208 311.838 125.129 309.025C126.965 303.393 129.694 295.269 133.107 285.246C139.933 265.201 149.537 237.562 160.202 207.062L160.195 207.055Z" fill="#EFF5FB"/>
<path d="M153.221 204.193C168.722 175.654 182.751 149.829 192.914 131.11C197.939 121.751 202.008 114.171 204.828 108.908C206.209 106.291 207.277 104.253 208.024 102.85C208.373 102.166 208.645 101.643 208.834 101.266C209.015 100.91 209.099 100.722 209.085 100.715C209.071 100.715 208.966 100.882 208.764 101.231C208.555 101.601 208.268 102.117 207.892 102.787C207.131 104.183 206.021 106.2 204.604 108.797C201.778 114.059 197.701 121.632 192.669 130.992C182.682 149.802 168.897 175.744 153.668 204.416C138.466 233.088 124.661 259.024 114.554 277.743C109.501 287.103 105.376 294.662 102.48 299.868C101.035 302.472 99.8974 304.482 99.1017 305.836C98.3131 307.19 97.8664 307.888 97.8175 307.86C97.7617 307.832 98.0967 307.085 98.7946 305.675C99.4856 304.272 100.533 302.213 101.908 299.575C104.643 294.292 108.664 286.684 113.682 277.303C123.705 258.535 137.712 232.697 153.228 204.186L153.221 204.193Z" fill="#EFF5FB"/>
<path d="M146.801 200.32C166.749 174.46 184.805 151.065 197.891 134.105C204.375 125.611 209.624 118.736 213.274 113.969C215.061 111.589 216.45 109.739 217.413 108.462C217.867 107.841 218.223 107.359 218.474 107.017C218.711 106.689 218.823 106.515 218.816 106.508C218.809 106.501 218.67 106.654 218.411 106.968C218.146 107.303 217.776 107.764 217.295 108.371C216.31 109.635 214.894 111.463 213.065 113.815C209.415 118.589 204.159 125.457 197.668 133.944C184.742 151.016 166.909 174.572 147.206 200.606C127.531 226.639 109.677 250.181 96.6465 267.155C90.1346 275.642 84.8302 282.489 81.1241 287.194C79.2745 289.546 77.8227 291.36 76.8177 292.582C75.8196 293.803 75.2682 294.424 75.2194 294.39C75.1705 294.355 75.6242 293.664 76.5385 292.379C77.4528 291.095 78.8208 289.225 80.6006 286.817C84.1601 282.015 89.3739 275.098 95.8509 266.59C108.805 249.56 126.84 226.144 146.801 200.313V200.32Z" fill="#EFF5FB"/>
<path d="M141.091 195.531C164.982 172.974 186.598 152.558 202.274 137.755C210.056 130.336 216.351 124.333 220.728 120.16C222.877 118.08 224.552 116.46 225.711 115.344C226.262 114.799 226.688 114.381 226.988 114.073C227.274 113.787 227.414 113.634 227.407 113.627C227.4 113.62 227.239 113.752 226.932 114.025C226.618 114.318 226.179 114.716 225.599 115.246C224.427 116.349 222.724 117.94 220.546 119.992C216.17 124.159 209.867 130.161 202.085 137.573C186.556 152.51 165.129 173.113 141.454 195.88C117.807 218.655 96.3594 239.244 80.7392 254.062C72.9291 261.474 66.5848 267.441 62.1597 271.531C59.9472 273.576 58.2233 275.154 57.0368 276.215C55.8503 277.269 55.2081 277.806 55.1663 277.764C55.1244 277.722 55.6827 277.108 56.7925 275.977C57.9022 274.847 59.5564 273.2 61.7061 271.092C66.0055 266.876 72.2661 260.832 80.0413 253.392C95.5917 238.504 117.193 218.075 141.091 195.538V195.531Z" fill="#EFF5FB"/>
<path d="M136.221 189.955C163.469 171.243 188.128 154.31 206.003 142.033C214.888 135.871 222.083 130.88 227.074 127.411C229.538 125.68 231.45 124.326 232.776 123.398C233.411 122.944 233.9 122.589 234.249 122.337C234.577 122.093 234.744 121.967 234.737 121.953C234.73 121.946 234.549 122.051 234.207 122.274C233.851 122.512 233.348 122.847 232.699 123.279C231.359 124.194 229.426 125.513 226.934 127.209C221.937 130.671 214.741 135.654 205.849 141.817C188.093 154.248 163.595 171.396 136.521 190.346C109.476 209.309 84.9637 226.437 67.138 238.742C58.2252 244.891 50.9874 249.839 45.9622 253.224C43.4495 254.913 41.4883 256.218 40.1412 257.084C38.8012 257.949 38.0753 258.382 38.0404 258.333C38.0055 258.284 38.6546 257.761 39.9388 256.812C41.2161 255.863 43.1215 254.481 45.5853 252.722C50.5128 249.204 57.6808 244.165 66.5657 237.974C84.3356 225.599 108.98 208.639 136.235 189.955H136.221Z" fill="#EFF5FB"/>
<path d="M132.317 183.708C162.273 169.324 189.389 156.307 209.036 146.871C218.814 142.117 226.729 138.265 232.229 135.599C234.944 134.259 237.052 133.212 238.511 132.486C239.208 132.13 239.746 131.858 240.137 131.655C240.5 131.467 240.681 131.362 240.681 131.348C240.681 131.334 240.479 131.418 240.102 131.585C239.711 131.767 239.16 132.018 238.448 132.353C236.982 133.051 234.853 134.063 232.117 135.368C226.617 138.034 218.703 141.88 208.917 146.626C189.354 156.237 162.371 169.491 132.554 184.141C102.759 198.805 75.762 212.045 56.1496 221.517C46.3503 226.256 38.3937 230.052 32.8798 232.635C30.1229 233.926 27.9732 234.917 26.5075 235.566C25.0418 236.222 24.2532 236.536 24.2322 236.481C24.2043 236.425 24.9371 236.006 26.354 235.259C27.7708 234.512 29.8717 233.438 32.5937 232.07C38.0307 229.334 45.9315 225.432 55.7099 220.658C75.2735 211.103 102.375 198.058 132.331 183.708H132.317Z" fill="#EFF5FB"/>
<path d="M129.484 176.952C161.422 167.278 190.324 158.519 211.277 152.175C221.711 148.957 230.156 146.354 236.026 144.546C238.923 143.632 241.184 142.913 242.74 142.424C243.487 142.18 244.066 141.991 244.478 141.852C244.869 141.719 245.065 141.642 245.065 141.635C245.065 141.621 244.855 141.67 244.457 141.782C244.039 141.901 243.452 142.068 242.699 142.285C241.135 142.752 238.867 143.429 235.949 144.302C230.08 146.102 221.634 148.699 211.193 151.909C190.303 158.442 161.485 167.453 129.637 177.405C97.8176 187.379 68.9852 196.369 48.0745 202.755C37.6192 205.952 29.1461 208.499 23.2693 210.216C20.3309 211.075 18.0486 211.724 16.4922 212.15C14.9358 212.575 14.1122 212.764 14.0912 212.708C14.0703 212.652 14.859 212.345 16.3805 211.822C17.902 211.298 20.1564 210.551 23.0669 209.609C28.8878 207.732 37.3261 205.072 47.7674 201.834C68.6502 195.357 97.5524 186.577 129.484 176.931V176.952Z" fill="#EFF5FB"/>
<path d="M127.788 169.847C160.913 165.122 190.89 160.85 212.617 157.751C223.449 156.153 232.216 154.862 238.302 153.961C241.317 153.494 243.662 153.131 245.281 152.879C246.063 152.747 246.663 152.649 247.089 152.579C247.494 152.509 247.703 152.461 247.703 152.454C247.703 152.44 247.487 152.454 247.075 152.509C246.642 152.565 246.035 152.642 245.253 152.74C243.634 152.963 241.282 153.291 238.26 153.717C232.174 154.61 223.401 155.895 212.568 157.486C190.869 160.773 160.934 165.317 127.858 170.328C94.8028 175.367 64.8537 179.883 43.1614 183.024C32.3152 184.594 23.528 185.83 17.4488 186.639C14.4057 187.044 12.0467 187.344 10.4414 187.526C8.83607 187.707 7.99154 187.777 7.97758 187.714C7.9706 187.658 8.80117 187.477 10.3855 187.191C11.9769 186.905 14.322 186.507 17.3511 186.018C23.4023 185.041 32.1686 183.694 43.0148 182.075C64.7002 178.836 94.6772 174.537 127.788 169.84V169.847Z" fill="#EFF5FB"/>
<path d="M127.265 162.581C160.752 162.853 191.057 163.097 213.022 163.272C223.98 163.307 232.851 163.342 239.007 163.363C242.057 163.349 244.43 163.342 246.07 163.342C246.859 163.328 247.473 163.321 247.906 163.314C248.317 163.307 248.534 163.293 248.534 163.279C248.534 163.265 248.324 163.251 247.906 163.244C247.466 163.237 246.859 163.223 246.07 163.202C244.43 163.181 242.057 163.16 239.007 163.125C232.844 163.097 223.973 163.063 213.022 163.021C191.057 163.035 160.752 163.049 127.265 163.07C93.7908 163.111 63.4857 163.104 41.5421 162.979C30.5703 162.916 21.6923 162.825 15.5573 162.721C12.4863 162.665 10.1063 162.609 8.49404 162.553C6.88177 162.497 6.03027 162.434 6.03027 162.379C6.03027 162.323 6.88177 162.267 8.49404 162.218C10.1133 162.169 12.4933 162.134 15.5643 162.099C21.6993 162.037 30.5842 162.016 41.5491 162.037C63.4927 162.071 93.7978 162.288 127.272 162.588L127.265 162.581Z" fill="#EFF5FB"/>
<path d="M127.927 155.315C160.961 160.584 190.862 165.358 212.526 168.813C223.344 170.488 232.104 171.842 238.183 172.785C241.198 173.231 243.543 173.573 245.169 173.811C245.951 173.915 246.558 173.999 246.991 174.055C247.403 174.104 247.612 174.125 247.612 174.111C247.612 174.097 247.41 174.055 246.998 173.978C246.565 173.901 245.965 173.797 245.19 173.664C243.571 173.399 241.233 173.022 238.225 172.533C232.145 171.591 223.386 170.23 212.568 168.548C190.869 165.282 160.926 160.773 127.843 155.796C94.7745 150.841 64.8324 146.311 43.1749 142.905C32.3497 141.202 23.5904 139.792 17.5461 138.766C14.524 138.257 12.1789 137.845 10.5945 137.545C9.01015 137.245 8.17959 137.056 8.18657 137.001C8.19355 136.945 9.04505 137.015 10.6503 137.21C12.2556 137.405 14.6147 137.719 17.6508 138.152C23.723 139.011 32.4962 140.309 43.3354 141.97C65.0069 145.278 94.9071 150.031 127.927 155.322V155.315Z" fill="#EFF5FB"/>
<path d="M129.758 148.238C161.515 158.449 190.256 167.683 211.09 174.376C221.497 177.664 229.928 180.33 235.777 182.179C238.68 183.073 240.942 183.771 242.505 184.252C243.259 184.476 243.845 184.65 244.264 184.769C244.662 184.881 244.864 184.936 244.871 184.922C244.871 184.908 244.676 184.832 244.292 184.699C243.88 184.559 243.308 184.364 242.561 184.113C241.004 183.61 238.757 182.877 235.867 181.935C230.019 180.079 221.594 177.412 211.188 174.111C190.291 167.599 161.466 158.617 129.604 148.692C97.7566 138.795 68.9312 129.791 48.1043 123.147C37.6908 119.824 29.2735 117.102 23.4735 115.176C20.5701 114.213 18.3227 113.452 16.8081 112.915C15.2935 112.377 14.5049 112.07 14.5258 112.014C14.5467 111.959 15.3703 112.161 16.9198 112.594C18.4692 113.026 20.7515 113.696 23.676 114.583C29.5318 116.349 37.984 118.959 48.4114 122.239C69.2662 128.793 98.0218 138.006 129.758 148.231V148.238Z" fill="#EFF5FB"/>
<path d="M132.728 141.53C162.426 156.411 189.297 169.881 208.77 179.646C218.513 184.468 226.4 188.377 231.872 191.085C234.594 192.411 236.716 193.437 238.174 194.149C238.886 194.484 239.431 194.742 239.822 194.931C240.199 195.105 240.387 195.182 240.394 195.175C240.394 195.161 240.219 195.056 239.857 194.868C239.473 194.665 238.935 194.393 238.237 194.03C236.786 193.297 234.685 192.237 231.984 190.869C226.512 188.154 218.625 184.245 208.888 179.408C189.318 169.818 162.321 156.585 132.491 141.963C102.66 127.369 75.6702 114.115 56.1904 104.406C46.447 99.5555 38.5811 95.5911 33.1719 92.8133C30.4639 91.4244 28.37 90.3286 26.9602 89.5748C25.5503 88.814 24.8244 88.3883 24.8523 88.3394C24.8803 88.2906 25.662 88.6116 27.1207 89.2747C28.5794 89.9377 30.7221 90.9428 33.4721 92.2619C38.9649 94.8932 46.8867 98.7529 56.6441 103.569C76.1728 113.193 103.058 126.643 132.728 141.544V141.53Z" fill="#EFF5FB"/>
<path d="M136.75 135.361C163.656 154.527 188.008 171.864 205.659 184.434C214.495 190.66 221.649 195.706 226.618 199.21C229.096 200.927 231.015 202.26 232.348 203.188C232.998 203.628 233.493 203.963 233.849 204.207C234.191 204.43 234.366 204.542 234.379 204.535C234.386 204.528 234.226 204.395 233.898 204.151C233.549 203.893 233.067 203.544 232.439 203.076C231.127 202.134 229.222 200.766 226.772 199.014C221.809 195.511 214.655 190.464 205.826 184.225C188.056 171.808 163.544 154.68 136.45 135.759C109.355 116.865 84.8572 99.7096 67.192 87.1954C58.3629 80.9417 51.2368 75.8397 46.3372 72.2871C43.8874 70.5073 41.9959 69.1114 40.7257 68.1552C39.4554 67.192 38.8063 66.6616 38.8412 66.6197C38.8761 66.5709 39.595 67.0106 40.935 67.883C42.2681 68.7624 44.2224 70.0746 46.7211 71.7846C51.7184 75.2045 58.9143 80.2088 67.7713 86.4346C85.4923 98.8721 109.865 116.202 136.743 135.375L136.75 135.361Z" fill="#EFF5FB"/>
<path d="M141.727 129.86C165.206 152.816 186.458 173.587 201.862 188.642C209.582 196.117 215.835 202.168 220.177 206.37C222.34 208.436 224.029 210.041 225.195 211.158C225.76 211.688 226.2 212.093 226.514 212.386C226.814 212.658 226.975 212.798 226.982 212.784C226.989 212.777 226.849 212.624 226.57 212.33C226.27 212.023 225.844 211.605 225.299 211.053C224.155 209.922 222.494 208.296 220.358 206.195C216.017 201.994 209.777 195.935 202.058 188.453C186.514 173.531 165.066 152.949 141.371 130.202C117.668 107.484 96.2342 86.8805 80.8164 71.8745C73.104 64.3715 66.8923 58.2714 62.6278 54.0278C60.499 51.9061 58.8518 50.2449 57.7561 49.1073C56.6603 47.9696 56.1019 47.3484 56.1438 47.3066C56.1857 47.2647 56.8278 47.8021 58.0004 48.87C59.1799 49.9378 60.8899 51.5292 63.0814 53.5881C67.4646 57.713 73.7601 63.7364 81.5074 71.2044C97.0019 86.1406 118.269 106.905 141.72 129.86H141.727Z" fill="#EFF5FB"/>
<path d="M147.532 125.177C167.011 151.365 184.642 175.06 197.421 192.237C203.842 200.773 209.035 207.689 212.643 212.484C214.451 214.85 215.854 216.693 216.824 217.963C217.299 218.57 217.669 219.038 217.927 219.373C218.178 219.687 218.311 219.848 218.325 219.841C218.339 219.834 218.22 219.659 217.99 219.331C217.739 218.989 217.397 218.508 216.943 217.879C215.994 216.595 214.619 214.732 212.853 212.345C209.251 207.543 204.059 200.626 197.644 192.083C184.704 175.018 166.851 151.476 147.12 125.464C127.382 99.4788 109.542 75.916 96.7345 58.7882C90.3273 50.2243 85.1765 43.2727 81.6588 38.4359C79.8999 36.021 78.5459 34.1365 77.6456 32.8453C76.7452 31.5541 76.2985 30.8631 76.3474 30.8282C76.3962 30.7933 76.9406 31.4215 77.9317 32.6499C78.9228 33.8783 80.3606 35.7069 82.1892 38.073C85.8535 42.8051 91.1021 49.6939 97.5442 58.2298C110.428 75.3018 128.087 98.9902 147.532 125.177Z" fill="#EFF5FB"/>
<path d="M154.024 121.423C169.009 150.213 182.563 176.268 192.397 195.154C197.346 204.549 201.359 212.157 204.137 217.44C205.533 220.05 206.621 222.074 207.375 223.477C207.745 224.147 208.031 224.664 208.234 225.041C208.429 225.39 208.541 225.564 208.548 225.564C208.562 225.564 208.478 225.369 208.296 225.013C208.108 224.636 207.843 224.105 207.501 223.421C206.775 222.012 205.714 219.967 204.36 217.335C201.582 212.052 197.576 204.437 192.634 195.036C182.626 176.24 168.82 150.304 153.563 121.646C138.292 93.0161 124.5 67.0662 114.638 48.2215C109.704 38.7992 105.746 31.1566 103.059 25.8591C101.712 23.2069 100.679 21.141 100.002 19.7311C99.3252 18.3212 98.9902 17.5675 99.046 17.5395C99.1019 17.5116 99.5346 18.2166 100.316 19.5776C101.098 20.9386 102.215 22.9626 103.639 25.573C106.486 30.8006 110.548 38.3874 115.525 47.7888C125.478 66.5916 139.06 92.6392 154.01 121.43L154.024 121.423Z" fill="#EFF5FB"/>
<path d="M161.052 118.693C171.138 149.389 180.26 177.175 186.877 197.311C190.227 207.34 192.942 215.457 194.826 221.097C195.783 223.882 196.522 226.052 197.039 227.546C197.297 228.265 197.493 228.823 197.632 229.214C197.772 229.591 197.849 229.779 197.862 229.772C197.876 229.772 197.821 229.57 197.709 229.186C197.583 228.781 197.409 228.223 197.185 227.49C196.697 225.982 195.992 223.805 195.078 221.006C193.2 215.367 190.492 207.242 187.149 197.213C180.344 177.133 170.949 149.438 160.571 118.826C150.171 88.2416 140.805 60.5259 134.146 40.4248C130.817 30.3743 128.158 22.2292 126.371 16.5898C125.478 13.7701 124.794 11.5715 124.354 10.0779C123.914 8.58427 123.712 7.7886 123.768 7.76766C123.824 7.74672 124.145 8.50749 124.689 9.97319C125.234 11.4389 126.015 13.6025 126.992 16.3944C128.954 21.985 131.718 30.0952 135.096 40.1317C141.845 60.2048 150.995 87.9833 161.052 118.672V118.693Z" fill="#EFF5FB"/>
<path d="M168.439 117.06C173.373 148.901 177.84 177.719 181.079 198.602C182.747 209.016 184.101 217.44 185.036 223.296C185.524 226.192 185.901 228.447 186.167 230.003C186.299 230.75 186.404 231.329 186.481 231.741C186.557 232.132 186.599 232.334 186.613 232.327C186.627 232.327 186.613 232.125 186.557 231.727C186.502 231.308 186.418 230.729 186.313 229.975C186.076 228.419 185.734 226.157 185.294 223.254C184.359 217.398 183.019 208.974 181.358 198.56C177.924 177.705 173.185 148.929 167.943 117.13C162.681 85.3524 157.969 56.5688 154.682 35.714C153.035 25.2866 151.751 16.8414 150.906 10.9995C150.48 8.07512 150.173 5.80677 149.985 4.2643C149.796 2.72182 149.727 1.90522 149.782 1.89824C149.845 1.89126 150.034 2.68692 150.334 4.21544C150.634 5.74396 151.046 7.99834 151.555 10.9088C152.574 16.7297 153.984 25.154 155.673 35.5744C159.051 56.4153 163.546 85.2337 168.453 117.067L168.439 117.06Z" fill="#EFF5FB"/>
<path d="M176.002 116.558C175.743 148.747 175.506 177.88 175.338 199C175.304 209.532 175.283 218.061 175.262 223.987C175.276 226.918 175.283 229.2 175.29 230.778C175.304 231.538 175.311 232.125 175.318 232.543C175.332 232.941 175.338 233.144 175.352 233.144C175.366 233.144 175.38 232.941 175.394 232.543C175.401 232.125 175.415 231.538 175.436 230.778C175.457 229.2 175.478 226.918 175.513 223.987C175.534 218.068 175.569 209.539 175.604 199C175.576 177.88 175.541 148.747 175.499 116.558C175.436 84.3822 175.422 55.2427 175.541 34.1506C175.597 23.6045 175.687 15.0686 175.792 9.17088C175.848 6.21854 175.904 3.92926 175.96 2.3798C176.016 0.81639 176.078 -0.000213623 176.141 -0.000213623C176.204 -0.000213623 176.26 0.81639 176.309 2.36584C176.358 3.92228 176.399 6.21156 176.434 9.15692C176.504 15.0546 176.532 23.5906 176.518 34.1436C176.497 55.2357 176.288 84.3752 176.002 116.551V116.558Z" fill="#EFF5FB"/>
<path d="M183.555 117.186C178.097 148.95 173.148 177.692 169.568 198.526C167.837 208.925 166.434 217.35 165.457 223.198C164.996 226.102 164.64 228.356 164.389 229.913C164.277 230.666 164.193 231.246 164.13 231.665C164.075 232.062 164.054 232.265 164.068 232.265C164.082 232.265 164.13 232.069 164.207 231.678C164.284 231.267 164.396 230.687 164.535 229.941C164.808 228.384 165.205 226.137 165.708 223.24C166.685 217.391 168.095 208.974 169.84 198.575C173.225 177.713 177.894 148.922 183.052 117.117C188.182 85.3179 192.872 56.5344 196.404 35.7145C198.163 25.301 199.635 16.8837 200.689 11.0767C201.22 8.17326 201.645 5.91887 201.959 4.39036C202.274 2.86882 202.462 2.06618 202.525 2.08014C202.588 2.08711 202.511 2.90372 202.308 4.44619C202.106 5.98867 201.778 8.25701 201.338 11.1745C200.452 17.0093 199.105 25.4476 197.388 35.868C193.961 56.7019 189.04 85.4575 183.555 117.2V117.186Z" fill="#EFF5FB"/>
<path d="M190.918 118.937C180.323 149.473 170.733 177.112 163.782 197.143C160.369 207.152 157.605 215.255 155.678 220.88C154.75 223.672 154.024 225.85 153.529 227.35C153.298 228.076 153.117 228.635 152.991 229.039C152.873 229.423 152.824 229.619 152.831 229.626C152.845 229.626 152.921 229.437 153.061 229.067C153.208 228.67 153.41 228.118 153.668 227.399C154.192 225.906 154.953 223.742 155.93 220.964C157.856 215.339 160.627 207.235 164.047 197.234C170.803 177.14 180.128 149.417 190.429 118.791C200.703 88.1648 210.049 60.4491 216.945 40.4249C220.393 30.4092 223.219 22.32 225.215 16.7433C226.213 13.9515 227.009 11.7949 227.567 10.3361C228.126 8.87741 228.447 8.12362 228.503 8.13758C228.559 8.15852 228.356 8.94721 227.902 10.4408C227.449 11.9344 226.758 14.126 225.844 16.9388C224.015 22.5712 221.3 30.6954 217.894 40.725C211.096 60.7841 201.527 88.43 190.904 118.944L190.918 118.937Z" fill="#EFF5FB"/>
<path d="M197.891 121.792C182.431 150.345 168.437 176.191 158.296 194.924C153.285 204.29 149.23 211.877 146.41 217.139C145.035 219.757 143.967 221.795 143.227 223.205C142.878 223.889 142.613 224.412 142.418 224.789C142.236 225.145 142.153 225.333 142.167 225.34C142.18 225.34 142.285 225.173 142.488 224.824C142.697 224.454 142.983 223.937 143.36 223.267C144.121 221.872 145.224 219.847 146.64 217.251C149.46 211.989 153.522 204.409 158.541 195.042C168.507 176.225 182.25 150.262 197.444 121.569C212.604 92.883 226.374 66.9261 236.46 48.1931C241.499 38.8266 245.617 31.2608 248.507 26.0541C249.951 23.4507 251.082 21.4336 251.871 20.0796C252.659 18.7256 253.099 18.0206 253.155 18.0485C253.211 18.0765 252.876 18.8302 252.185 20.2331C251.494 21.636 250.447 23.695 249.086 26.3402C246.357 31.6237 242.344 39.2384 237.339 48.6258C227.338 67.4007 213.365 93.2599 197.891 121.792Z" fill="#EFF5FB"/>
<path d="M204.318 125.652C184.406 151.532 166.377 174.955 153.319 191.93C146.849 200.431 141.607 207.312 137.964 212.086C136.177 214.466 134.788 216.316 133.832 217.593C133.378 218.214 133.022 218.696 132.771 219.038C132.534 219.366 132.422 219.54 132.429 219.547C132.436 219.554 132.576 219.401 132.827 219.087C133.092 218.752 133.462 218.284 133.944 217.684C134.921 216.421 136.345 214.592 138.166 212.233C141.809 207.459 147.051 200.577 153.535 192.083C166.44 174.99 184.238 151.413 203.906 125.359C223.547 99.3043 241.365 75.7344 254.375 58.7463C260.88 50.2522 266.178 43.3983 269.87 38.6941C271.719 36.342 273.171 34.5204 274.169 33.2989C275.167 32.0775 275.719 31.4563 275.767 31.4912C275.816 31.5261 275.363 32.2171 274.455 33.5013C273.548 34.7856 272.18 36.6631 270.4 39.064C266.841 43.8729 261.641 50.7896 255.178 59.3116C242.252 76.3556 224.245 99.7929 204.318 125.652Z" fill="#EFF5FB"/>
<path d="M210.041 130.433C186.178 153.019 164.591 173.462 148.936 188.279C141.167 195.705 134.879 201.722 130.51 205.895C128.36 207.982 126.692 209.602 125.533 210.718C124.982 211.263 124.556 211.688 124.256 211.989C123.97 212.275 123.83 212.428 123.837 212.442C123.844 212.449 124.005 212.317 124.305 212.044C124.619 211.751 125.059 211.346 125.631 210.823C126.803 209.72 128.499 208.122 130.684 206.07C135.053 201.896 141.349 195.887 149.124 188.468C164.632 173.517 186.032 152.886 209.678 130.091C233.297 107.289 254.717 86.6712 270.316 71.8397C278.113 64.4205 284.457 58.446 288.868 54.3421C291.073 52.2901 292.797 50.7127 293.984 49.6518C295.17 48.5979 295.813 48.0605 295.854 48.1024C295.896 48.1443 295.338 48.7585 294.228 49.8891C293.118 51.0198 291.464 52.667 289.322 54.7818C285.029 58.9974 278.776 65.0556 271.007 72.5098C255.478 87.4111 233.897 107.875 210.034 130.433H210.041Z" fill="#EFF5FB"/>
<path d="M214.913 136.009C187.686 154.756 163.048 171.716 145.195 184.014C136.317 190.191 129.135 195.189 124.144 198.664C121.688 200.402 119.775 201.756 118.449 202.685C117.814 203.145 117.332 203.494 116.983 203.745C116.655 203.99 116.488 204.115 116.502 204.129C116.509 204.136 116.69 204.032 117.032 203.808C117.388 203.571 117.891 203.236 118.54 202.803C119.873 201.889 121.813 200.563 124.298 198.867C129.288 195.398 136.484 190.401 145.362 184.231C163.104 171.779 187.581 154.603 214.627 135.618C241.645 116.627 266.136 99.4645 283.948 87.1386C292.853 80.9757 300.084 76.0202 305.102 72.6282C307.615 70.9322 309.576 69.634 310.916 68.7615C312.256 67.8961 312.982 67.4634 313.017 67.5122C313.052 67.5611 312.403 68.0845 311.126 69.0337C309.849 69.983 307.95 71.3649 305.486 73.1307C300.566 76.6554 293.405 81.7016 284.527 87.8994C266.778 100.302 242.147 117.283 214.92 136.002L214.913 136.009Z" fill="#EFF5FB"/>
<path d="M218.829 142.249C188.887 156.669 161.8 169.72 142.159 179.185C132.388 183.952 124.473 187.811 118.98 190.485C116.272 191.832 114.158 192.879 112.706 193.604C112.008 193.96 111.47 194.24 111.08 194.435C110.717 194.623 110.535 194.728 110.542 194.742C110.542 194.756 110.745 194.672 111.115 194.505C111.505 194.323 112.057 194.065 112.769 193.737C114.234 193.032 116.363 192.02 119.099 190.715C124.592 188.042 132.507 184.189 142.285 179.429C161.835 169.797 188.804 156.508 218.599 141.823C248.374 127.124 275.357 113.849 294.948 104.357C304.747 99.6111 312.69 95.8003 318.204 93.2109C320.961 91.9127 323.111 90.9216 324.576 90.2656C326.042 89.6095 326.824 89.2954 326.852 89.3443C326.879 89.4001 326.147 89.8189 324.737 90.5657C323.32 91.3125 321.219 92.3943 318.504 93.7623C313.067 96.5053 305.18 100.414 295.402 105.202C275.852 114.778 248.765 127.857 218.829 142.249Z" fill="#EFF5FB"/>
<path d="M221.671 149.006C189.746 158.721 160.851 167.508 139.912 173.881C129.485 177.112 121.04 179.723 115.177 181.537C112.281 182.459 110.026 183.17 108.47 183.666C107.723 183.91 107.144 184.106 106.732 184.238C106.341 184.371 106.146 184.448 106.146 184.462C106.146 184.476 106.355 184.427 106.753 184.315C107.171 184.196 107.758 184.029 108.512 183.806C110.075 183.338 112.343 182.654 115.254 181.775C121.117 179.967 129.562 177.357 139.996 174.132C160.879 167.578 189.683 158.526 221.517 148.531C253.323 138.515 282.141 129.491 303.052 123.077C313.5 119.866 321.973 117.312 327.843 115.588C330.774 114.722 333.064 114.073 334.613 113.647C336.17 113.222 336.993 113.026 337.014 113.082C337.035 113.138 336.246 113.445 334.725 113.968C333.203 114.492 330.949 115.246 328.045 116.188C322.232 118.072 313.793 120.746 303.359 123.991C282.483 130.496 253.595 139.311 221.678 148.992L221.671 149.006Z" fill="#EFF5FB"/>
<path d="M223.38 156.103C190.262 160.87 160.292 165.177 138.564 168.304C127.732 169.916 118.966 171.221 112.88 172.121C109.865 172.589 107.526 172.959 105.907 173.21C105.126 173.343 104.525 173.44 104.1 173.51C103.695 173.58 103.485 173.629 103.485 173.636C103.485 173.65 103.702 173.636 104.107 173.58C104.539 173.524 105.146 173.447 105.928 173.343C107.547 173.112 109.9 172.784 112.922 172.359C119.008 171.458 127.774 170.16 138.606 168.555C160.299 165.24 190.227 160.661 223.303 155.608C256.351 150.527 286.293 145.976 307.985 142.807C318.832 141.223 327.619 139.974 333.691 139.157C336.727 138.752 339.093 138.445 340.698 138.264C342.304 138.082 343.148 138.012 343.162 138.068C343.169 138.124 342.346 138.306 340.754 138.599C339.163 138.885 336.818 139.283 333.796 139.778C327.744 140.762 318.978 142.123 308.139 143.75C286.46 147.016 256.49 151.35 223.38 156.089V156.103Z" fill="#EFF5FB"/>
<path d="M282.728 264.899C285.206 263.859 286.972 261.298 286.986 258.29C287 254.339 284.012 251.129 280.313 251.108C276.614 251.094 273.599 254.276 273.578 258.227C273.564 261.27 275.344 263.859 277.849 264.899C267.534 266.456 268.001 277.665 268.001 277.665L292.395 277.776C292.395 277.776 292.953 266.442 282.728 264.899Z" fill="#EFF5FB"/>
<path d="M167.202 198.197C168.8 197.234 170.496 196.501 172.248 196.006L173.288 191.008L181.733 190.862L182.947 195.817C184.72 196.25 186.444 196.927 188.07 197.834L192.335 195.035L198.414 200.905L195.769 205.267C196.732 206.866 197.465 208.562 197.96 210.321L202.958 211.36L203.104 219.806L198.149 221.02C197.716 222.786 197.039 224.517 196.132 226.143L198.931 230.415L193.068 236.494L188.706 233.848C187.107 234.812 185.411 235.545 183.652 236.04L182.612 241.037L174.167 241.184L172.953 236.229C171.18 235.796 169.456 235.119 167.83 234.211L163.565 237.01L157.486 231.14L160.131 226.778C159.168 225.18 158.435 223.484 157.94 221.725L152.942 220.685L152.796 212.24L157.751 211.025C158.184 209.26 158.861 207.529 159.768 205.902L156.97 201.631L162.832 195.552L167.195 198.197H167.202ZM171.703 209.448C168.228 213.05 168.325 218.787 171.927 222.262C175.528 225.738 181.265 225.634 184.741 222.039C188.217 218.438 188.119 212.701 184.518 209.225C180.916 205.749 175.179 205.854 171.703 209.448Z" fill="#E6F3FF"/>
<path d="M171.705 209.448C171.705 209.448 172.179 208.778 173.394 207.968C174.587 207.173 176.667 206.293 179.306 206.573C180.604 206.719 182.028 207.145 183.326 207.996C184.61 208.855 185.817 210.076 186.571 211.654C186.969 212.428 187.248 213.294 187.395 214.194C187.555 215.095 187.583 216.044 187.444 216.986C187.213 218.877 186.32 220.741 184.931 222.207C183.514 223.651 181.686 224.608 179.801 224.908C178.866 225.075 177.917 225.089 177.009 224.957C176.102 224.838 175.229 224.594 174.441 224.224C172.829 223.526 171.572 222.353 170.665 221.104C169.764 219.841 169.29 218.431 169.094 217.14C168.725 214.515 169.534 212.4 170.281 211.186C171.049 209.944 171.698 209.448 171.698 209.448C171.747 209.49 171.153 210.041 170.455 211.284C169.771 212.505 169.053 214.571 169.457 217.084C169.667 218.319 170.134 219.659 171.014 220.853C171.886 222.032 173.101 223.135 174.629 223.784C175.383 224.133 176.214 224.356 177.072 224.461C177.931 224.58 178.824 224.566 179.71 224.405C181.49 224.119 183.214 223.212 184.554 221.851C185.866 220.462 186.718 218.71 186.941 216.923C187.074 216.03 187.053 215.136 186.906 214.285C186.767 213.433 186.515 212.61 186.138 211.87C185.434 210.362 184.296 209.19 183.081 208.359C181.853 207.529 180.506 207.103 179.257 206.935C176.73 206.621 174.692 207.417 173.499 208.143C172.277 208.883 171.747 209.497 171.705 209.455V209.448Z" fill="#E6F3FF"/>
<path d="M167.202 198.197C167.202 198.197 167.104 198.155 166.923 198.051C166.72 197.932 166.441 197.771 166.085 197.569C165.324 197.115 164.221 196.466 162.798 195.629L162.902 195.615C161.409 197.178 159.448 199.237 157.074 201.722L157.088 201.561C157.94 202.853 158.889 204.283 159.901 205.819L159.95 205.896L159.908 205.979C159.078 207.48 158.38 209.19 157.926 211.067L157.905 211.165L157.807 211.193C156.265 211.577 154.59 211.989 152.852 212.421L152.991 212.24C153.047 214.899 153.103 217.719 153.159 220.685L152.998 220.49C154.548 220.811 156.251 221.16 157.996 221.523L158.121 221.551L158.156 221.676C158.624 223.309 159.343 225.04 160.334 226.667L160.404 226.785L160.334 226.904C159.517 228.258 158.617 229.752 157.696 231.273L157.661 230.987C159.573 232.83 161.632 234.812 163.747 236.843L163.447 236.815C164.773 235.942 166.232 234.986 167.711 234.016L167.837 233.932L167.969 234.002C169.456 234.833 171.201 235.545 173.03 235.991L173.176 236.026L173.211 236.173C173.595 237.722 174.007 239.418 174.433 241.128L174.181 240.933C176.854 240.884 179.723 240.835 182.626 240.779L182.375 240.982C182.703 239.404 183.059 237.701 183.415 235.984L183.45 235.831L183.604 235.789C185.265 235.321 186.989 234.588 188.587 233.625L188.727 233.541L188.859 233.625C190.325 234.512 191.777 235.398 193.221 236.27L192.9 236.312C194.883 234.26 196.837 232.236 198.77 230.24L198.742 230.561C197.8 229.123 196.872 227.7 195.95 226.29L195.867 226.157L195.943 226.025C196.837 224.419 197.507 222.709 197.94 220.964L197.974 220.818L198.121 220.783C199.796 220.371 201.45 219.966 203.076 219.568L202.888 219.813C202.839 216.93 202.79 214.117 202.748 211.368L202.937 211.598C201.241 211.242 199.58 210.893 197.94 210.551L197.8 210.523L197.765 210.39C197.263 208.597 196.523 206.922 195.601 205.393L195.532 205.274L195.601 205.156C196.509 203.662 197.395 202.21 198.254 200.801L198.289 201.066C196.153 199 194.143 197.046 192.223 195.189L192.468 195.21C190.967 196.187 189.55 197.108 188.196 197.995L188.098 198.058L188.001 198.002C186.298 197.053 184.595 196.41 182.927 195.992L182.829 195.964L182.808 195.866C182.375 194.065 181.977 192.439 181.607 190.904L181.761 191.022C178.488 191.064 175.703 191.099 173.316 191.134L173.427 191.043C173.002 193.039 172.646 194.673 172.353 196.034L172.339 196.082L172.29 196.096C170.503 196.592 169.247 197.178 168.43 197.583C168.039 197.785 167.739 197.946 167.523 198.058C167.32 198.169 167.223 198.218 167.223 198.211C167.223 198.211 167.32 198.141 167.502 198.023C167.697 197.904 167.99 197.723 168.395 197.513C169.205 197.08 170.454 196.473 172.248 195.943L172.192 196.006C172.464 194.638 172.799 192.997 173.197 191.001L173.218 190.911H173.309C175.696 190.855 178.481 190.792 181.754 190.722H181.873L181.901 190.841C182.285 192.369 182.682 193.996 183.129 195.796L183.003 195.671C184.699 196.082 186.437 196.731 188.175 197.688H187.98C189.334 196.801 190.744 195.873 192.237 194.889L192.37 194.805L192.482 194.917C194.408 196.766 196.425 198.714 198.568 200.773L198.693 200.891L198.603 201.038C197.744 202.455 196.872 203.906 195.964 205.407V205.177C196.907 206.733 197.667 208.45 198.191 210.279L198.016 210.111C199.65 210.453 201.318 210.795 203.014 211.144L203.202 211.186V211.375C203.258 214.117 203.307 216.937 203.363 219.82V220.015L203.174 220.064C201.541 220.462 199.894 220.874 198.219 221.285L198.4 221.104C197.96 222.891 197.284 224.643 196.362 226.29V226.025C197.277 227.434 198.212 228.858 199.154 230.289L199.266 230.464L199.126 230.61C197.2 232.606 195.245 234.637 193.263 236.689L193.117 236.836L192.942 236.731C191.497 235.859 190.046 234.972 188.58 234.086H188.845C187.205 235.077 185.439 235.824 183.736 236.305L183.918 236.11C183.562 237.827 183.206 239.53 182.878 241.107L182.836 241.31H182.626C179.723 241.366 176.854 241.414 174.181 241.456H173.979L173.93 241.261C173.511 239.551 173.099 237.855 172.716 236.305L172.897 236.487C171.02 236.026 169.24 235.293 167.711 234.442H167.969C166.49 235.398 165.031 236.354 163.698 237.227L163.538 237.331L163.398 237.199C161.29 235.161 159.238 233.172 157.326 231.322L157.193 231.196L157.291 231.036C158.212 229.521 159.119 228.028 159.943 226.681V226.911C158.938 225.243 158.198 223.47 157.731 221.802L157.891 221.955C156.146 221.586 154.443 221.23 152.894 220.909L152.733 220.874V220.713C152.684 217.747 152.642 214.927 152.601 212.268V212.121L152.74 212.086C154.478 211.668 156.153 211.263 157.703 210.886L157.577 211.012C158.052 209.106 158.77 207.375 159.622 205.854V206.014C158.624 204.472 157.689 203.034 156.844 201.736L156.788 201.645L156.858 201.568C159.259 199.105 161.248 197.073 162.756 195.524L162.805 195.475L162.86 195.51C164.256 196.376 165.331 197.046 166.078 197.513C166.427 197.737 166.699 197.911 166.902 198.037C167.09 198.155 167.181 198.218 167.181 198.225L167.202 198.197Z" fill="#E6F3FF"/>
<path d="M218.453 226.722C219.409 226.143 220.428 225.71 221.475 225.41L222.096 222.416L227.149 222.325L227.875 225.291C228.936 225.55 229.969 225.954 230.939 226.499L233.494 224.824L237.13 228.334L235.546 230.945C236.125 231.901 236.565 232.92 236.858 233.967L239.852 234.588L239.943 239.641L236.976 240.367C236.718 241.428 236.313 242.461 235.769 243.431L237.444 245.986L233.933 249.622L231.323 248.038C230.367 248.617 229.348 249.05 228.301 249.35L227.68 252.344L222.626 252.435L221.901 249.468C220.84 249.21 219.807 248.805 218.837 248.261L216.282 249.936L212.646 246.425L214.23 243.815C213.651 242.859 213.211 241.84 212.918 240.793L209.924 240.172L209.833 235.118L212.799 234.393C213.058 233.332 213.462 232.299 214.007 231.329L212.332 228.774L215.842 225.138L218.453 226.722ZM221.147 233.457C219.067 235.614 219.13 239.048 221.279 241.128C223.436 243.208 226.87 243.145 228.95 240.995C231.03 238.839 230.967 235.405 228.817 233.325C226.661 231.245 223.227 231.308 221.147 233.457Z" fill="#EFF5FB"/>
<path d="M221.145 233.457C221.145 233.457 221.432 233.059 222.157 232.571C222.869 232.096 224.119 231.566 225.696 231.733C226.471 231.824 227.322 232.075 228.104 232.585C228.872 233.094 229.598 233.827 230.051 234.776C230.289 235.244 230.456 235.76 230.547 236.298C230.645 236.835 230.658 237.401 230.575 237.966C230.435 239.097 229.905 240.213 229.067 241.093C228.223 241.958 227.12 242.531 225.996 242.705C225.438 242.803 224.865 242.81 224.328 242.733C223.784 242.663 223.26 242.517 222.793 242.293C221.829 241.874 221.076 241.177 220.531 240.43C219.994 239.669 219.708 238.831 219.596 238.057C219.373 236.486 219.861 235.223 220.308 234.49C220.769 233.75 221.159 233.45 221.159 233.45C221.187 233.478 220.831 233.806 220.413 234.553C220.001 235.286 219.575 236.521 219.812 238.022C219.938 238.762 220.217 239.564 220.741 240.276C221.264 240.981 221.99 241.644 222.904 242.028C223.358 242.237 223.853 242.37 224.363 242.433C224.879 242.503 225.41 242.496 225.94 242.398C227.008 242.223 228.041 241.679 228.844 240.869C229.632 240.039 230.135 238.992 230.268 237.917C230.344 237.387 230.337 236.849 230.247 236.34C230.163 235.83 230.009 235.335 229.786 234.895C229.367 233.995 228.683 233.29 227.957 232.794C227.225 232.299 226.415 232.04 225.668 231.943C224.154 231.754 222.939 232.229 222.22 232.662C221.487 233.108 221.173 233.471 221.145 233.443V233.457Z" fill="#EFF5FB"/>
<path d="M218.452 226.722C218.452 226.722 218.396 226.695 218.284 226.632C218.159 226.562 217.998 226.464 217.782 226.346C217.328 226.073 216.665 225.689 215.814 225.18H215.876C214.983 226.108 213.811 227.337 212.387 228.83V228.733C212.903 229.507 213.476 230.366 214.083 231.28L214.111 231.329L214.083 231.378C213.587 232.278 213.168 233.304 212.896 234.428L212.882 234.491L212.819 234.505C211.898 234.735 210.893 234.979 209.853 235.237L209.937 235.126C209.972 236.717 210 238.406 210.035 240.179L209.937 240.06C210.865 240.249 211.884 240.458 212.931 240.675L213.008 240.688L213.029 240.765C213.308 241.742 213.741 242.775 214.334 243.752L214.376 243.822L214.334 243.892C213.845 244.702 213.301 245.595 212.757 246.509L212.736 246.335C213.88 247.438 215.116 248.624 216.379 249.839L216.198 249.825C216.993 249.301 217.866 248.729 218.752 248.15L218.829 248.101L218.906 248.143C219.799 248.638 220.839 249.064 221.935 249.329L222.025 249.35L222.046 249.441C222.277 250.369 222.521 251.381 222.779 252.407L222.626 252.288C224.224 252.261 225.941 252.226 227.679 252.198L227.532 252.323C227.728 251.381 227.937 250.362 228.153 249.329L228.174 249.238L228.265 249.21C229.263 248.931 230.289 248.492 231.245 247.912L231.329 247.863L231.406 247.912C232.285 248.443 233.158 248.973 234.016 249.497L233.821 249.525C235.007 248.296 236.18 247.082 237.332 245.888L237.311 246.077C236.745 245.218 236.187 244.367 235.636 243.522L235.587 243.445L235.629 243.362C236.166 242.398 236.564 241.379 236.822 240.333L236.843 240.242L236.934 240.221C237.939 239.977 238.923 239.732 239.9 239.495L239.788 239.642C239.76 237.918 239.732 236.229 239.705 234.588L239.816 234.728C238.804 234.519 237.806 234.309 236.822 234.1L236.738 234.086L236.717 234.002C236.417 232.927 235.971 231.922 235.426 231.008L235.384 230.938L235.426 230.868C235.971 229.975 236.501 229.109 237.01 228.258L237.031 228.418C235.754 227.183 234.547 226.011 233.402 224.901L233.549 224.915C232.648 225.501 231.804 226.052 230.987 226.583L230.931 226.618L230.875 226.583C229.856 226.011 228.837 225.627 227.839 225.375L227.777 225.361L227.763 225.299C227.504 224.217 227.267 223.247 227.044 222.325L227.134 222.395C225.173 222.423 223.505 222.444 222.081 222.465L222.151 222.409C221.893 223.603 221.683 224.58 221.509 225.396V225.424L221.474 225.431C220.406 225.731 219.652 226.08 219.164 226.318C218.934 226.436 218.752 226.534 218.619 226.604C218.494 226.674 218.438 226.702 218.438 226.695C218.438 226.695 218.494 226.653 218.605 226.583C218.724 226.513 218.899 226.408 219.136 226.276C219.618 226.018 220.371 225.655 221.446 225.334L221.411 225.368C221.579 224.552 221.774 223.568 222.012 222.374L222.025 222.318H222.081C223.512 222.283 225.18 222.249 227.134 222.207H227.204L227.225 222.276C227.456 223.191 227.693 224.161 227.965 225.243L227.888 225.166C228.907 225.417 229.947 225.801 230.987 226.373H230.869C231.678 225.843 232.523 225.285 233.416 224.698L233.493 224.65L233.563 224.719C234.714 225.829 235.922 226.988 237.206 228.223L237.283 228.293L237.227 228.384C236.717 229.235 236.187 230.101 235.649 231.001V230.861C236.215 231.79 236.668 232.823 236.983 233.918L236.878 233.821C237.855 234.023 238.853 234.232 239.872 234.442L239.984 234.463V234.574C240.019 236.215 240.047 237.904 240.081 239.628V239.746L239.97 239.774C238.993 240.011 238.009 240.256 237.004 240.507L237.115 240.395C236.85 241.463 236.445 242.517 235.894 243.501V243.341C236.438 244.185 236.997 245.037 237.562 245.895L237.632 246L237.548 246.091C236.396 247.284 235.224 248.499 234.037 249.727L233.953 249.818L233.849 249.755C232.983 249.231 232.111 248.701 231.238 248.171H231.399C230.422 248.764 229.361 249.21 228.342 249.497L228.454 249.378C228.237 250.404 228.028 251.423 227.832 252.372L227.804 252.491H227.679C225.941 252.526 224.224 252.554 222.626 252.582H222.507L222.479 252.463C222.228 251.437 221.984 250.425 221.753 249.497L221.865 249.608C220.741 249.329 219.673 248.896 218.759 248.387H218.913C218.026 248.959 217.154 249.532 216.358 250.055L216.26 250.118L216.177 250.034C214.913 248.813 213.685 247.619 212.547 246.516L212.47 246.44L212.526 246.342C213.078 245.435 213.622 244.541 214.111 243.732V243.871C213.51 242.873 213.071 241.812 212.792 240.814L212.889 240.905C211.842 240.688 210.823 240.472 209.902 240.277L209.804 240.256V240.158C209.776 238.385 209.748 236.696 209.728 235.105V235.014L209.811 234.993C210.851 234.742 211.856 234.498 212.785 234.274L212.708 234.351C212.994 233.213 213.427 232.173 213.936 231.266V231.364C213.343 230.443 212.778 229.577 212.275 228.802L212.24 228.747L212.282 228.705C213.72 227.232 214.906 226.011 215.814 225.089L215.842 225.061L215.876 225.082C216.714 225.599 217.356 226.004 217.803 226.283C218.012 226.415 218.173 226.52 218.298 226.597C218.41 226.667 218.466 226.708 218.466 226.708L218.452 226.722Z" fill="#EFF5FB"/>
<path d="M301.126 171.174L268.101 183.627L278.057 210.031L311.082 197.578L301.126 171.174Z" fill="#E6F3FF"/>
<path d="M301.136 171.166C301.136 171.166 301.08 171.186 300.975 171.228C300.864 171.27 300.717 171.333 300.515 171.41C300.103 171.57 299.503 171.801 298.728 172.094C297.158 172.694 294.875 173.559 291.979 174.669C286.179 176.868 277.943 179.988 268.151 183.708L268.206 183.589C271.173 191.448 274.572 200.452 278.173 209.986L278.041 209.93C290.269 205.323 301.631 201.045 311.068 197.492L311.019 197.604C308.039 189.647 305.568 183.052 303.837 178.438C302.978 176.128 302.301 174.32 301.841 173.078C301.61 172.464 301.436 171.989 301.317 171.661C301.199 171.34 301.143 171.166 301.143 171.166C301.143 171.166 301.206 171.319 301.331 171.633C301.457 171.954 301.631 172.422 301.869 173.029C302.336 174.264 303.027 176.058 303.9 178.354C305.652 182.975 308.157 189.571 311.179 197.534L311.207 197.611L311.131 197.639C301.694 201.205 290.339 205.491 278.11 210.111L278.013 210.146L277.978 210.048C274.383 200.514 270.991 191.504 268.032 183.645L267.997 183.561L268.081 183.526C277.908 179.841 286.179 176.735 292 174.558C294.896 173.476 297.185 172.624 298.749 172.038C299.524 171.752 300.124 171.528 300.529 171.375C300.724 171.305 300.878 171.249 300.982 171.207C301.087 171.172 301.136 171.159 301.136 171.159V171.166Z" fill="#E6F3FF"/>
<path d="M300.576 173.284L269.869 184.863L278.572 207.943L309.279 196.364L300.576 173.284Z" fill="#D8EAFB"/>
<path d="M278.578 207.927L283.89 189.536L293.919 196.006L296.613 189.515L309.281 196.348L278.578 207.927Z" fill="#E6F3FF"/>
<path d="M292.69 184.21C293.193 185.543 292.523 187.037 291.183 187.539C289.85 188.042 288.356 187.372 287.853 186.032C287.351 184.699 288.021 183.205 289.361 182.702C290.694 182.2 292.188 182.87 292.69 184.21Z" fill="#E6F3FF"/>
<path d="M83.8441 186.053L31.6201 189.732L34.5617 231.485L86.7857 227.806L83.8441 186.053Z" fill="#E6F3FF"/>
<path d="M83.8524 186.046C83.8524 186.046 83.7617 186.06 83.6012 186.073C83.4267 186.087 83.1894 186.108 82.8683 186.136C82.2192 186.185 81.27 186.255 80.0346 186.353C77.5499 186.534 73.9345 186.806 69.342 187.141C60.1709 187.804 47.1332 188.747 31.6386 189.87L31.7642 189.724C32.6437 202.147 33.6557 216.393 34.7236 231.468L34.563 231.329C53.8963 229.975 71.8686 228.718 86.7908 227.671L86.6721 227.804C85.8137 215.227 85.1017 204.807 84.6062 197.52C84.3619 193.877 84.1735 191.015 84.0409 189.054C83.9781 188.084 83.9292 187.337 83.9013 186.82C83.8734 186.311 83.8594 186.046 83.8594 186.046C83.8594 186.046 83.8873 186.297 83.9292 186.792C83.9711 187.302 84.0269 188.042 84.0967 188.998C84.2433 190.952 84.4527 193.8 84.7249 197.429C85.2553 204.737 86.0161 215.185 86.9304 227.783V227.909L86.8117 227.916C71.8895 228.977 53.9242 230.247 34.5909 231.622L34.4374 231.636L34.4234 231.482C33.3695 216.399 32.3645 202.154 31.499 189.731V189.598L31.6246 189.591C47.1611 188.523 60.2337 187.623 69.4257 186.995C74.0043 186.688 77.6127 186.443 80.0905 186.276C81.3119 186.199 82.2541 186.136 82.9032 186.094C83.2173 186.073 83.4546 186.06 83.6221 186.053C83.7826 186.046 83.8594 186.046 83.8594 186.046H83.8524Z" fill="#E6F3FF"/>
<path d="M82.1632 188.809L33.6084 192.23L36.1797 228.726L84.7345 225.306L82.1632 188.809Z" fill="#D8EAFB"/>
<path d="M36.1875 228.726L51.5494 204.842L63.0517 218.299L69.6403 210.202L84.744 225.299L36.1875 228.726Z" fill="#E6F3FF"/>
<path d="M66.3189 201.01C66.4655 203.124 64.8742 204.953 62.7664 205.1C60.6516 205.246 58.8229 203.655 58.6764 201.547C58.5298 199.432 60.1211 197.604 62.2289 197.457C64.3437 197.311 66.1724 198.902 66.3189 201.01Z" fill="#E6F3FF"/>
<path d="M125.903 67.3176C126.371 68.4692 135.284 90.8176 135.284 90.8176L145.097 87.3349L155.517 95.7033L145.62 77.1797L136.875 80.0552L125.91 67.3106L125.903 67.3176Z" fill="#E6F3FF"/>
<path d="M150.13 41.968C150.13 42.8055 150.074 58.9771 150.074 58.9771L156.768 59.2702L160.976 67.1082L159.518 53.0724L153.606 52.6676L150.123 41.968H150.13Z" fill="#E6F3FF"/>
<path d="M226.192 64.9582C225.815 65.9213 217.893 90.6358 217.893 90.6358L212.672 86.7133L198.937 98.069L211.953 75.7834L216.86 79.0777L226.199 64.9582H226.192Z" fill="#E6F3FF"/>
<path d="M83.4726 102.382L48.1981 98.1732C45.7622 97.88 44.0173 95.6675 44.3105 93.2317L50.1314 44.4029C50.4245 41.9671 52.637 40.2222 55.0729 40.5153L77.4423 43.1815L92.6297 63.0941L88.4141 98.4873C88.1209 100.923 85.9084 102.668 83.4726 102.375V102.382Z" fill="#EFF5FB"/>
<path d="M77.4435 43.1882L75.8033 56.9309C75.5311 59.1992 77.1503 61.2582 79.4187 61.5234L92.6309 63.1008L77.4435 43.1882Z" fill="#B6D7F7"/>
<path d="M75.8381 58.1589C75.8381 58.1589 75.2658 61.4741 78.93 63.0166C79.0696 63.0725 79.2092 63.1213 79.3558 63.1632C81.0448 63.6797 92.1632 67.0508 92.1911 66.7925C92.226 66.5134 92.6308 63.1004 92.6308 63.1004L79.4186 61.523C79.4186 61.523 76.1312 61.0135 75.8381 58.1519V58.1589Z" fill="#A9CFF2"/>
<path d="M72.9141 56.0171C72.8931 56.1916 69.2219 55.8984 64.7131 55.361C60.2043 54.8236 56.568 54.2443 56.589 54.0698C56.6099 53.8953 60.2811 54.1884 64.7899 54.7259C69.2987 55.2633 72.935 55.8426 72.9141 56.0171Z" fill="#A1CBF1"/>
<path d="M82.5234 65.0411C82.5025 65.2155 76.4722 64.6432 69.0529 63.7568C61.6337 62.8704 55.6383 62.0119 55.6592 61.8375C55.6802 61.663 61.7105 62.2353 69.1297 63.1217C76.5489 64.0081 82.5444 64.8666 82.5234 65.0411Z" fill="#A1CBF1"/>
<path d="M84.1717 71.8194C84.1508 71.9939 77.5761 71.3587 69.4938 70.3955C61.4045 69.4324 54.8717 68.5041 54.8926 68.3296C54.9136 68.1551 61.4813 68.7903 69.5706 69.7534C77.6528 70.7166 84.1927 71.6449 84.1717 71.8194Z" fill="#A1CBF1"/>
<path d="M83.4471 77.9402C83.4262 78.1147 76.8515 77.4796 68.7692 76.5164C60.6799 75.5532 54.1471 74.6249 54.168 74.4505C54.189 74.276 60.7567 74.9111 68.846 75.8743C76.9282 76.8375 83.4681 77.7657 83.4471 77.9402Z" fill="#A1CBF1"/>
<path d="M82.7127 84.0605C82.6918 84.235 76.1171 83.5998 68.0348 82.6366C59.9455 81.6735 53.4127 80.7452 53.4336 80.5707C53.4546 80.3962 60.0223 81.0314 68.1116 81.9945C76.1939 82.9577 82.7337 83.886 82.7127 84.0605Z" fill="#A1CBF1"/>
<path d="M81.9803 90.1813C81.9594 90.3558 75.3847 89.7207 67.3024 88.7575C59.2131 87.7943 52.6803 86.866 52.7012 86.6916C52.7222 86.5171 59.2899 87.1522 67.3792 88.1154C75.4614 89.0786 82.0013 90.0068 81.9803 90.1813Z" fill="#A1CBF1"/>
<path d="M270.443 57.4285L263.504 78.5329L294.819 88.8288L301.758 67.7244L270.443 57.4285Z" fill="#C2E2FF"/>
<path d="M301.743 67.9878C301.743 67.9878 301.618 68.0576 301.36 68.1763C301.073 68.2949 300.703 68.4555 300.236 68.6509C299.224 69.0627 297.814 69.642 296.083 70.3539C292.537 71.7777 287.68 73.732 282.305 75.8886L282.194 75.9375L282.124 75.8328C282.075 75.756 282.019 75.6723 281.963 75.5815C278.767 70.668 275.87 66.215 273.756 62.9626C272.73 61.3573 271.899 60.0521 271.299 59.1169C271.027 58.6771 270.81 58.3282 270.643 58.0629C270.496 57.8187 270.419 57.693 270.433 57.6861C270.447 57.6791 270.531 57.7977 270.698 58.028C270.873 58.2863 271.11 58.6283 271.403 59.0471C272.018 59.9684 272.883 61.2596 273.944 62.8369C276.08 66.0754 278.997 70.5074 282.222 75.4071C282.278 75.4908 282.333 75.5746 282.382 75.6583L282.201 75.6025C287.589 73.4737 292.461 71.5544 296.013 70.1515C297.758 69.4745 299.182 68.9301 300.201 68.5322C300.676 68.3577 301.059 68.2112 301.346 68.1065C301.611 68.0088 301.75 67.9669 301.75 67.9739L301.743 67.9878Z" fill="#E6F3FF"/>
<path d="M263.495 78.8064C263.453 78.7366 266.754 76.6148 270.879 74.0743C275.004 71.5268 278.375 69.5236 278.417 69.5934C278.459 69.6632 275.157 71.785 271.032 74.3256C266.915 76.8661 263.536 78.8762 263.495 78.8064Z" fill="#E6F3FF"/>
<path d="M288.913 72.7489C288.989 72.721 290.371 76.3574 291.997 80.8731C293.624 85.3889 294.88 89.0671 294.803 89.095C294.726 89.1229 293.344 85.4866 291.718 80.9708C290.092 76.4551 288.836 72.7769 288.913 72.7489Z" fill="#E6F3FF"/>
<path d="M14.73 97.1187C17.2078 96.0788 18.9736 93.5173 18.9875 90.5091C19.0015 86.5587 16.0143 83.3481 12.3151 83.3272C8.61596 83.3133 5.60081 86.4959 5.57987 90.4463C5.56591 93.4894 7.34569 96.0788 9.85134 97.1187C-0.464396 98.6752 0.00323131 109.884 0.00323131 109.884L24.3967 109.996C24.3967 109.996 24.955 98.6612 14.723 97.1187H14.73Z" fill="#EFF5FB"/>
<path d="M27.1707 143.19C27.9245 142.736 28.7201 142.394 29.5437 142.157L30.0323 139.805L34.0036 139.735L34.5759 142.066C35.4065 142.268 36.2161 142.589 36.9839 143.015L38.994 141.703L41.8486 144.46L40.6063 146.512C41.0599 147.266 41.4019 148.061 41.6392 148.885L43.9913 149.374L44.0611 153.345L41.73 153.917C41.5275 154.748 41.2065 155.557 40.7807 156.325L42.0929 158.335L39.336 161.19L37.284 159.947C36.5302 160.401 35.7345 160.743 34.911 160.98L34.4224 163.333L30.451 163.402L29.8787 161.071C29.0482 160.869 28.2385 160.548 27.4708 160.122L25.4607 161.434L22.6061 158.677L23.8484 156.625C23.3947 155.871 23.0528 155.076 22.8154 154.252L20.4634 153.764L20.3936 149.792L22.7247 149.22C22.9271 148.389 23.2482 147.58 23.6739 146.812L22.3618 144.802L25.1187 141.947L27.1707 143.19ZM29.2855 148.48C27.6523 150.176 27.7011 152.87 29.3902 154.503C31.0862 156.137 33.7803 156.088 35.4135 154.399C37.0467 152.703 36.9978 150.009 35.3088 148.375C33.6128 146.742 30.9187 146.791 29.2855 148.48Z" fill="#EFF5FB"/>
<path d="M29.2932 148.48C29.2932 148.48 29.5166 148.166 30.0889 147.782C30.6473 147.412 31.6244 146.993 32.8668 147.126C33.4809 147.196 34.144 147.391 34.7582 147.796C35.3584 148.201 35.9308 148.773 36.2867 149.52C36.4752 149.883 36.6008 150.294 36.6776 150.713C36.7543 151.139 36.7683 151.579 36.6985 152.025C36.5938 152.919 36.1681 153.791 35.519 154.482C34.8559 155.159 33.9905 155.613 33.1041 155.752C32.6643 155.829 32.2177 155.836 31.7919 155.773C31.3662 155.718 30.9544 155.599 30.5844 155.431C29.8307 155.103 29.2374 154.552 28.8116 153.966C28.3859 153.372 28.1626 152.709 28.0718 152.102C27.8973 150.867 28.2812 149.876 28.6302 149.303C28.9931 148.717 29.3002 148.487 29.3002 148.487C29.3212 148.508 29.042 148.766 28.7139 149.352C28.3929 149.925 28.0509 150.895 28.2463 152.081C28.344 152.661 28.5674 153.296 28.9792 153.854C29.3909 154.412 29.9633 154.929 30.6822 155.229C31.0381 155.39 31.429 155.501 31.8268 155.55C32.2316 155.606 32.6504 155.599 33.0692 155.522C33.9067 155.39 34.7163 154.957 35.3445 154.322C35.9587 153.673 36.3635 152.842 36.4682 152.004C36.531 151.586 36.524 151.167 36.4542 150.762C36.3914 150.357 36.2728 149.973 36.0913 149.624C35.7633 148.913 35.2258 148.368 34.6535 147.97C34.0742 147.579 33.4391 147.377 32.8528 147.3C31.6663 147.154 30.7101 147.524 30.1447 147.866C29.5724 148.215 29.3212 148.501 29.3002 148.48H29.2932Z" fill="#EFF5FB"/>
<path d="M27.1713 143.189C27.1713 143.189 27.1294 143.168 27.0387 143.119C26.941 143.063 26.8153 142.986 26.6478 142.889C26.2919 142.679 25.7754 142.372 25.0984 141.974H25.1472C24.4423 142.707 23.521 143.67 22.4043 144.843V144.766C22.8161 145.373 23.2558 146.044 23.7374 146.769L23.7583 146.804L23.7374 146.839C23.3465 147.544 23.0185 148.347 22.8021 149.233L22.7882 149.282L22.7393 149.296C22.0134 149.477 21.2247 149.673 20.4081 149.875L20.471 149.792C20.4989 151.041 20.5198 152.367 20.5477 153.763L20.471 153.672C21.1968 153.819 21.9995 153.986 22.8231 154.154L22.8859 154.168L22.8998 154.223C23.1162 154.991 23.4582 155.808 23.9258 156.569L23.9607 156.624L23.9258 156.68C23.542 157.315 23.1162 158.02 22.6835 158.732L22.6695 158.6C23.5699 159.465 24.54 160.4 25.5311 161.357L25.3915 161.343C26.0197 160.931 26.7037 160.484 27.3946 160.023L27.4505 159.982L27.5133 160.017C28.2113 160.407 29.0348 160.742 29.8933 160.952L29.9631 160.966L29.9771 161.036C30.1585 161.768 30.354 162.564 30.5494 163.367L30.4307 163.276C31.6871 163.255 33.0341 163.227 34.4021 163.206L34.2834 163.304C34.437 162.564 34.6045 161.761 34.772 160.952L34.786 160.882L34.8558 160.861C35.6375 160.638 36.4471 160.296 37.2009 159.842L37.2637 159.8L37.3265 159.835C38.0175 160.254 38.7015 160.666 39.3785 161.077L39.2249 161.098C40.1602 160.135 41.0745 159.179 41.9818 158.244L41.9679 158.397C41.5282 157.72 41.0885 157.05 40.6557 156.387L40.6139 156.324L40.6488 156.262C41.0675 155.508 41.3816 154.705 41.584 153.882L41.598 153.812L41.6678 153.798C42.4565 153.602 43.2312 153.414 43.9989 153.225L43.9082 153.337C43.8873 151.983 43.8663 150.657 43.8454 149.366L43.9361 149.47C43.1404 149.303 42.3587 149.142 41.584 148.982L41.5212 148.968L41.5003 148.905C41.263 148.061 40.914 147.272 40.4812 146.553L40.4464 146.497L40.4812 146.441C40.907 145.736 41.3258 145.059 41.7306 144.389L41.7445 144.515C40.7395 143.545 39.7973 142.624 38.8899 141.751L39.0086 141.765C38.3036 142.226 37.6406 142.658 36.9985 143.077L36.9566 143.105L36.9077 143.077C36.1051 142.631 35.3094 142.33 34.5207 142.128L34.4719 142.114L34.4579 142.065C34.2555 141.221 34.0671 140.453 33.8926 139.734L33.9624 139.79C32.4269 139.811 31.1147 139.825 29.991 139.839L30.0469 139.797C29.8445 140.732 29.677 141.507 29.5443 142.142V142.163H29.5164C28.6789 142.4 28.0856 142.672 27.7017 142.861C27.5203 142.959 27.3807 143.028 27.276 143.084C27.1783 143.14 27.1364 143.161 27.1364 143.154C27.1364 143.154 27.1853 143.119 27.269 143.063C27.3597 143.007 27.4993 142.924 27.6878 142.819C28.0647 142.617 28.6579 142.33 29.5025 142.079L29.4745 142.107C29.6072 141.465 29.7607 140.69 29.9492 139.755V139.713H30.005C31.1287 139.685 32.4339 139.657 33.9763 139.629H34.0322L34.0461 139.685C34.2276 140.404 34.416 141.165 34.6254 142.016L34.5696 141.96C35.3653 142.156 36.1888 142.456 37.0054 142.91H36.9147C37.5499 142.491 38.2129 142.058 38.9178 141.591L38.9807 141.549L39.0365 141.598C39.9438 142.47 40.893 143.384 41.8981 144.347L41.9539 144.403L41.9121 144.473C41.5072 145.143 41.0954 145.82 40.6697 146.525V146.413C41.1164 147.146 41.4723 147.956 41.7166 148.814L41.6329 148.738C42.4006 148.898 43.1893 149.059 43.985 149.226L44.0757 149.247V149.338C44.1036 150.629 44.1246 151.955 44.1525 153.309V153.4L44.0617 153.421C43.294 153.609 42.5193 153.798 41.7306 153.993L41.8143 153.909C41.605 154.747 41.2909 155.571 40.8581 156.345V156.22C41.2909 156.883 41.7236 157.553 42.1703 158.223L42.2261 158.307L42.1563 158.376C41.249 159.319 40.3277 160.268 39.3994 161.231L39.3296 161.301L39.2459 161.252C38.5689 160.84 37.8849 160.428 37.1939 160.01H37.3195C36.5518 160.477 35.7212 160.826 34.9186 161.049L35.0023 160.959C34.8348 161.768 34.6673 162.564 34.5138 163.311L34.4928 163.409H34.3951C33.0271 163.436 31.6801 163.457 30.4238 163.478H30.326L30.3051 163.388C30.1097 162.585 29.9143 161.789 29.7328 161.056L29.8165 161.14C28.9301 160.924 28.0926 160.582 27.3807 160.177H27.4993C26.8014 160.631 26.1174 161.077 25.4892 161.489L25.4125 161.538L25.3496 161.475C24.3586 160.519 23.3954 159.584 22.495 158.711L22.4322 158.649L22.4741 158.572C22.9068 157.86 23.3326 157.155 23.7234 156.52V156.631C23.2488 155.85 22.9068 155.012 22.6835 154.23L22.7602 154.3C21.9367 154.126 21.141 153.958 20.4081 153.805L20.3314 153.791V153.714C20.3104 152.318 20.2895 150.992 20.2686 149.743V149.673L20.3384 149.659C21.155 149.463 21.9436 149.268 22.6695 149.094L22.6137 149.149C22.837 148.256 23.179 147.439 23.5768 146.727V146.804C23.1092 146.078 22.6695 145.401 22.2717 144.794L22.2438 144.752L22.2787 144.717C23.4093 143.559 24.3446 142.603 25.0565 141.877L25.0774 141.856L25.1054 141.87C25.7614 142.275 26.264 142.589 26.6199 142.812C26.7874 142.917 26.9131 143 27.0108 143.056C27.0945 143.112 27.1434 143.14 27.1434 143.147L27.1713 143.189Z" fill="#EFF5FB"/>
<path d="M340.07 275.377C340.824 274.924 341.62 274.582 342.443 274.344L342.932 271.992L346.903 271.923L347.475 274.254C348.306 274.456 349.116 274.777 349.883 275.203L351.893 273.891L354.748 276.648L353.506 278.7C353.959 279.453 354.301 280.249 354.539 281.073L356.891 281.561L356.961 285.533L354.629 286.105C354.427 286.936 354.106 287.745 353.68 288.513L354.992 290.523L352.235 293.378L350.183 292.135C349.43 292.589 348.634 292.931 347.81 293.168L347.322 295.52L343.35 295.59L342.778 293.259C341.948 293.057 341.138 292.736 340.37 292.31L338.36 293.622L335.505 290.865L336.748 288.813C336.294 288.059 335.952 287.264 335.715 286.44L333.363 285.951L333.293 281.98L335.624 281.408C335.827 280.577 336.148 279.768 336.573 279L335.261 276.99L338.018 274.135L340.07 275.377ZM342.185 280.668C340.552 282.364 340.601 285.058 342.29 286.691C343.986 288.324 346.68 288.276 348.313 286.587C349.946 284.897 349.897 282.196 348.208 280.563C346.512 278.93 343.818 278.979 342.185 280.668Z" fill="#EFF5FB"/>
<path d="M342.184 280.668C342.184 280.668 342.407 280.354 342.98 279.97C343.538 279.6 344.515 279.182 345.757 279.314C346.372 279.384 347.035 279.579 347.649 279.984C348.249 280.389 348.821 280.961 349.177 281.708C349.366 282.071 349.491 282.483 349.568 282.902C349.645 283.327 349.659 283.767 349.589 284.214C349.484 285.107 349.059 285.98 348.41 286.671C347.747 287.348 346.881 287.801 345.995 287.941C345.555 288.018 345.108 288.025 344.683 287.962C344.257 287.906 343.845 287.787 343.475 287.62C342.721 287.292 342.128 286.74 341.702 286.154C341.277 285.561 341.053 284.898 340.962 284.291C340.788 283.055 341.172 282.064 341.521 281.492C341.884 280.905 342.191 280.675 342.191 280.675C342.212 280.696 341.933 280.954 341.605 281.541C341.283 282.113 340.942 283.083 341.137 284.27C341.235 284.849 341.458 285.484 341.87 286.042C342.282 286.601 342.854 287.117 343.573 287.417C343.929 287.578 344.32 287.69 344.717 287.738C345.122 287.794 345.541 287.787 345.96 287.711C346.797 287.578 347.607 287.145 348.235 286.51C348.849 285.861 349.254 285.03 349.359 284.193C349.422 283.774 349.415 283.355 349.345 282.95C349.282 282.546 349.163 282.162 348.982 281.813C348.654 281.101 348.116 280.557 347.544 280.159C346.965 279.768 346.33 279.565 345.743 279.489C344.557 279.342 343.601 279.712 343.035 280.054C342.463 280.403 342.212 280.689 342.191 280.668H342.184Z" fill="#EFF5FB"/>
<circle cx="164.965" cy="149.201" r="95.1506" fill="#E6F3FF"/>
<mask id="mask0_1908_3554" style="mask-type:alpha" maskUnits="userSpaceOnUse" x="69" y="54" width="192" height="191">
<circle cx="164.964" cy="149.201" r="95.1506" fill="#E6F3FF"/>
</mask>
<g mask="url(#mask0_1908_3554)">
<path d="M194.81 146.347C194.81 145.187 195.75 144.247 196.91 144.247H206.326V148.447H196.91C195.75 148.447 194.81 147.507 194.81 146.347Z" stroke="#03386E" stroke-width="0.676724"/>
<path fill-rule="evenodd" clip-rule="evenodd" d="M227.422 249.982H235.804V132.745C235.804 99.855 209.142 73.1928 176.252 73.1928H167.87C200.76 73.1928 227.422 99.855 227.422 132.745V249.982Z" fill="#03386E"/>
<path d="M202.038 171.484L200.214 170.856L200.457 170.152L203.016 171.034L201.474 175.513L200.738 175.259L202.038 171.484ZM196.252 169.363C196.854 169.069 197.48 169.034 198.128 169.257C198.776 169.481 199.25 169.894 199.548 170.498C199.84 171.104 199.874 171.731 199.651 172.38C199.428 173.028 199.015 173.499 198.413 173.793C197.805 174.089 197.177 174.126 196.529 173.903C195.88 173.679 195.41 173.265 195.118 172.658C194.82 172.055 194.782 171.429 195.006 170.78C195.229 170.132 195.644 169.659 196.252 169.363ZM198.857 170.818C198.655 170.41 198.329 170.128 197.881 169.974C197.433 169.82 197.006 169.842 196.599 170.041C196.186 170.242 195.9 170.573 195.741 171.034C195.583 171.494 195.605 171.929 195.808 172.338C196.005 172.749 196.327 173.032 196.775 173.186C197.223 173.34 197.654 173.317 198.066 173.115C198.474 172.917 198.757 172.587 198.915 172.126C199.074 171.666 199.055 171.23 198.857 170.818ZM193.016 167.497C193.69 167.729 194.173 168.144 194.464 168.74C194.753 169.341 194.785 169.969 194.558 170.626C194.332 171.283 193.921 171.757 193.324 172.048C192.727 172.343 192.091 172.375 191.417 172.143C191.011 172.003 190.671 171.779 190.396 171.469C190.117 171.158 189.938 170.805 189.859 170.411L190.626 170.26C190.669 170.523 190.784 170.758 190.97 170.965C191.151 171.176 191.382 171.329 191.663 171.426C192.141 171.59 192.582 171.573 192.984 171.373C193.383 171.171 193.662 170.838 193.823 170.373C193.983 169.908 193.968 169.473 193.778 169.069C193.583 168.663 193.247 168.378 192.769 168.214C192.488 168.117 192.21 168.093 191.936 168.141C191.66 168.194 191.426 168.312 191.234 168.494L190.72 167.909C191.021 167.645 191.378 167.475 191.791 167.397C192.198 167.323 192.607 167.356 193.016 167.497ZM187.072 165.543L187.949 165.845L188.981 168.584L189.715 166.453L190.45 166.707L188.908 171.186L188.172 170.932L188.864 168.923L186.47 170.346L185.594 170.045L188.156 168.486L187.072 165.543ZM185.617 165.83L183.633 165.147L183.876 164.443L186.595 165.379L185.053 169.858L182.365 168.933L182.608 168.229L184.559 168.901L184.96 167.737L183.169 167.12L183.409 166.422L185.2 167.039L185.617 165.83ZM179.9 168.084C179.286 167.873 178.85 167.482 178.593 166.911C178.332 166.339 178.31 165.738 178.528 165.107C178.744 164.479 179.131 164.019 179.691 163.725C180.244 163.433 180.828 163.394 181.442 163.605L183.202 164.211L181.66 168.69L179.9 168.084ZM181.2 164.309C180.778 164.164 180.384 164.19 180.02 164.389C179.651 164.587 179.391 164.907 179.238 165.351C179.084 165.799 179.092 166.212 179.262 166.59C179.427 166.972 179.72 167.235 180.142 167.38L181.166 167.733L182.224 164.661L181.2 164.309Z" fill="#03386E"/>
<path d="M126.016 198.081L127.909 197.713L128.051 198.444L125.394 198.96L124.491 194.309L125.255 194.161L126.016 198.081ZM132.087 197.026C131.712 197.581 131.188 197.924 130.515 198.055C129.842 198.186 129.226 198.064 128.666 197.69C128.11 197.311 127.766 196.785 127.636 196.112C127.505 195.438 127.627 194.824 128.002 194.269C128.38 193.708 128.906 193.363 129.579 193.232C130.252 193.101 130.867 193.226 131.423 193.605C131.983 193.979 132.328 194.502 132.459 195.175C132.589 195.849 132.465 196.465 132.087 197.026ZM129.103 197.068C129.483 197.32 129.906 197.401 130.371 197.311C130.836 197.221 131.195 196.988 131.448 196.612C131.705 196.232 131.787 195.802 131.695 195.324C131.602 194.845 131.365 194.48 130.985 194.227C130.609 193.97 130.188 193.886 129.723 193.976C129.258 194.066 128.897 194.302 128.64 194.683C128.387 195.058 128.307 195.485 128.4 195.963C128.492 196.442 128.727 196.81 129.103 197.068ZM135.822 197.025C135.123 197.161 134.498 197.043 133.948 196.672C133.397 196.296 133.055 195.767 132.923 195.085C132.791 194.403 132.91 193.787 133.281 193.237C133.651 192.683 134.186 192.338 134.886 192.202C135.307 192.12 135.714 192.145 136.107 192.275C136.504 192.405 136.836 192.621 137.101 192.923L136.512 193.437C136.343 193.231 136.126 193.085 135.861 192.998C135.6 192.907 135.323 192.889 135.031 192.946C134.535 193.042 134.162 193.278 133.913 193.652C133.669 194.026 133.593 194.454 133.687 194.937C133.781 195.42 134.011 195.789 134.377 196.044C134.748 196.298 135.182 196.377 135.678 196.281C135.97 196.224 136.223 196.106 136.437 195.927C136.649 195.743 136.793 195.524 136.868 195.271L137.605 195.521C137.477 195.899 137.253 196.226 136.934 196.499C136.618 196.767 136.248 196.942 135.822 197.025ZM141.948 195.746L141.037 195.923L138.775 194.067L139.204 196.279L138.44 196.427L137.537 191.777L138.301 191.628L138.706 193.714L140.068 191.285L140.978 191.109L139.538 193.739L141.948 195.746ZM143.065 194.771L145.124 194.371L145.266 195.102L142.443 195.65L141.54 191L144.33 190.458L144.472 191.189L142.446 191.582L142.681 192.791L144.541 192.43L144.681 193.154L142.821 193.515L143.065 194.771ZM146.89 189.961C147.527 189.838 148.1 189.958 148.608 190.324C149.12 190.689 149.439 191.199 149.567 191.854C149.693 192.506 149.587 193.098 149.25 193.632C148.916 194.161 148.43 194.488 147.792 194.612L145.966 194.966L145.063 190.316L146.89 189.961ZM147.651 193.881C148.089 193.796 148.416 193.576 148.632 193.221C148.853 192.866 148.919 192.458 148.829 191.998C148.739 191.533 148.525 191.179 148.189 190.936C147.856 190.688 147.47 190.607 147.032 190.692L145.969 190.898L146.588 194.087L147.651 193.881Z" fill="#03386E"/>
<path d="M112.626 210.035C111.931 209.877 111.406 209.518 111.052 208.957C110.698 208.392 110.598 207.77 110.751 207.093C110.904 206.415 111.261 205.899 111.822 205.545C112.384 205.186 113.013 205.085 113.708 205.242C114.126 205.337 114.489 205.523 114.797 205.8C115.108 206.079 115.325 206.41 115.446 206.793L114.7 207.027C114.628 206.77 114.489 206.549 114.281 206.364C114.078 206.174 113.832 206.047 113.541 205.982C113.049 205.87 112.613 205.936 112.234 206.179C111.86 206.423 111.619 206.784 111.51 207.264C111.402 207.744 111.464 208.174 111.697 208.555C111.935 208.937 112.3 209.184 112.793 209.295C113.083 209.361 113.362 209.354 113.63 209.276C113.898 209.193 114.118 209.051 114.288 208.849L114.863 209.374C114.593 209.669 114.257 209.878 113.855 210C113.458 210.118 113.048 210.13 112.626 210.035ZM118.748 211.327L117.844 211.123L116.519 208.513L116.022 210.711L115.263 210.54L116.307 205.919L117.066 206.091L116.598 208.163L118.822 206.487L119.726 206.692L117.349 208.521L118.748 211.327ZM120.163 210.884L122.21 211.346L122.046 212.072L119.24 211.438L120.284 206.818L123.056 207.444L122.892 208.17L120.879 207.715L120.608 208.917L122.456 209.334L122.293 210.054L120.445 209.636L120.163 210.884ZM125.599 208.018C126.233 208.161 126.709 208.502 127.027 209.041C127.349 209.581 127.436 210.177 127.289 210.828C127.143 211.475 126.808 211.975 126.284 212.329C125.766 212.679 125.189 212.782 124.556 212.639L122.741 212.229L123.784 207.608L125.599 208.018ZM124.72 211.913C125.155 212.011 125.544 211.942 125.884 211.704C126.229 211.467 126.453 211.12 126.556 210.663C126.661 210.201 126.607 209.791 126.397 209.433C126.192 209.072 125.871 208.843 125.435 208.744L124.379 208.506L123.664 211.674L124.72 211.913Z" fill="#03386E"/>
<path d="M144.913 215.758L146.794 216.182L146.63 216.909L143.99 216.312L145.033 211.692L145.793 211.863L144.913 215.758ZM150.896 217.234C150.329 217.591 149.712 217.695 149.043 217.544C148.374 217.393 147.858 217.033 147.496 216.466C147.14 215.895 147.037 215.275 147.188 214.606C147.339 213.937 147.698 213.424 148.264 213.066C148.836 212.705 149.456 212.6 150.125 212.751C150.794 212.902 151.307 213.263 151.664 213.834C152.026 214.402 152.131 215.02 151.98 215.689C151.829 216.358 151.468 216.873 150.896 217.234ZM148.147 216.072C148.393 216.456 148.748 216.7 149.21 216.804C149.672 216.909 150.094 216.84 150.477 216.598C150.866 216.353 151.114 215.993 151.221 215.517C151.328 215.042 151.259 214.612 151.013 214.228C150.772 213.841 150.42 213.595 149.958 213.491C149.496 213.386 149.071 213.457 148.682 213.702C148.299 213.944 148.054 214.303 147.947 214.778C147.84 215.253 147.906 215.684 148.147 216.072ZM154.316 218.735C153.621 218.578 153.096 218.219 152.742 217.658C152.389 217.092 152.288 216.471 152.441 215.793C152.595 215.115 152.952 214.599 153.513 214.245C154.075 213.886 154.703 213.785 155.399 213.943C155.817 214.037 156.179 214.223 156.487 214.501C156.798 214.779 157.015 215.11 157.137 215.494L156.39 215.727C156.318 215.471 156.179 215.25 155.971 215.064C155.769 214.875 155.522 214.747 155.232 214.682C154.739 214.571 154.303 214.636 153.924 214.879C153.55 215.123 153.309 215.485 153.201 215.964C153.092 216.444 153.155 216.874 153.388 217.256C153.625 217.638 153.99 217.884 154.483 217.996C154.774 218.061 155.053 218.055 155.32 217.976C155.589 217.894 155.808 217.751 155.978 217.549L156.554 218.075C156.283 218.37 155.947 218.578 155.545 218.7C155.148 218.819 154.739 218.83 154.316 218.735ZM160.438 220.027L159.534 219.823L158.209 217.214L157.712 219.412L156.953 219.24L157.997 214.62L158.756 214.791L158.288 216.864L160.512 215.188L161.416 215.392L159.04 217.221L160.438 220.027ZM161.854 219.584L163.9 220.046L163.736 220.772L160.93 220.139L161.974 215.518L164.747 216.144L164.583 216.87L162.569 216.416L162.298 217.617L164.146 218.034L163.984 218.754L162.135 218.336L161.854 219.584ZM167.29 216.719C167.923 216.862 168.399 217.203 168.717 217.742C169.039 218.282 169.126 218.877 168.979 219.528C168.833 220.175 168.498 220.675 167.974 221.029C167.456 221.379 166.88 221.482 166.246 221.339L164.431 220.929L165.474 216.309L167.29 216.719ZM166.41 220.613C166.846 220.712 167.234 220.642 167.574 220.404C167.919 220.168 168.143 219.821 168.247 219.363C168.351 218.901 168.298 218.491 168.087 218.134C167.882 217.773 167.561 217.543 167.126 217.445L166.07 217.206L165.354 220.375L166.41 220.613Z" fill="#03386E"/>
<path d="M186.824 225.665L188.705 226.09L188.541 226.816L185.901 226.22L186.945 221.599L187.704 221.77L186.824 225.665ZM192.807 227.141C192.24 227.499 191.623 227.602 190.954 227.451C190.285 227.3 189.769 226.941 189.407 226.373C189.051 225.803 188.948 225.183 189.099 224.514C189.25 223.845 189.609 223.332 190.175 222.974C190.747 222.613 191.367 222.508 192.036 222.659C192.705 222.81 193.218 223.171 193.575 223.742C193.937 224.309 194.042 224.927 193.891 225.596C193.74 226.265 193.379 226.78 192.807 227.141ZM190.058 225.979C190.305 226.363 190.659 226.608 191.121 226.712C191.583 226.816 192.005 226.747 192.388 226.506C192.777 226.26 193.025 225.9 193.132 225.425C193.239 224.95 193.17 224.52 192.924 224.136C192.683 223.748 192.331 223.503 191.869 223.398C191.407 223.294 190.982 223.364 190.594 223.61C190.211 223.851 189.965 224.21 189.858 224.685C189.751 225.161 189.817 225.592 190.058 225.979ZM196.227 228.642C195.532 228.485 195.007 228.126 194.653 227.565C194.3 227 194.2 226.378 194.353 225.7C194.506 225.023 194.863 224.507 195.424 224.152C195.986 223.794 196.615 223.693 197.31 223.85C197.728 223.944 198.091 224.13 198.398 224.408C198.71 224.687 198.926 225.018 199.048 225.401L198.301 225.635C198.23 225.378 198.09 225.157 197.882 224.971C197.68 224.782 197.433 224.655 197.143 224.589C196.65 224.478 196.214 224.544 195.836 224.787C195.461 225.03 195.22 225.392 195.112 225.872C195.003 226.352 195.066 226.782 195.299 227.163C195.536 227.545 195.901 227.792 196.394 227.903C196.685 227.969 196.964 227.962 197.231 227.884C197.5 227.801 197.719 227.659 197.89 227.457L198.465 227.982C198.195 228.277 197.858 228.486 197.456 228.608C197.059 228.726 196.65 228.738 196.227 228.642ZM202.35 229.935L201.445 229.731L200.12 227.121L199.623 229.319L198.864 229.148L199.908 224.527L200.667 224.699L200.199 226.771L202.423 225.095L203.327 225.299L200.951 227.128L202.35 229.935Z" fill="#03386E"/>
<path d="M163.355 190.458L165.248 190.09L165.39 190.821L162.732 191.337L161.83 186.687L162.594 186.538L163.355 190.458ZM169.426 189.403C169.051 189.959 168.527 190.302 167.854 190.432C167.181 190.563 166.564 190.441 166.005 190.068C165.449 189.688 165.105 189.162 164.974 188.489C164.844 187.816 164.966 187.202 165.341 186.646C165.719 186.086 166.245 185.74 166.918 185.609C167.591 185.479 168.206 185.603 168.762 185.982C169.322 186.356 169.667 186.88 169.797 187.553C169.928 188.226 169.804 188.843 169.426 189.403ZM166.442 189.445C166.822 189.698 167.245 189.779 167.71 189.688C168.175 189.598 168.534 189.365 168.787 188.99C169.044 188.609 169.126 188.179 169.033 187.701C168.941 187.223 168.704 186.857 168.324 186.605C167.948 186.347 167.527 186.263 167.062 186.353C166.597 186.444 166.236 186.679 165.979 187.06C165.726 187.436 165.646 187.862 165.738 188.341C165.831 188.819 166.066 189.187 166.442 189.445ZM173.161 189.402C172.462 189.538 171.837 189.42 171.287 189.049C170.736 188.674 170.394 188.145 170.262 187.463C170.129 186.781 170.249 186.165 170.62 185.615C170.99 185.06 171.525 184.715 172.225 184.579C172.646 184.498 173.053 184.522 173.446 184.652C173.843 184.782 174.175 184.998 174.44 185.3L173.851 185.815C173.682 185.609 173.465 185.462 173.2 185.376C172.939 185.284 172.662 185.267 172.37 185.323C171.873 185.42 171.501 185.655 171.252 186.03C171.007 186.403 170.932 186.832 171.026 187.314C171.119 187.797 171.35 188.166 171.716 188.421C172.087 188.675 172.521 188.754 173.017 188.658C173.309 188.601 173.562 188.483 173.775 188.304C173.988 188.12 174.132 187.902 174.206 187.648L174.944 187.898C174.816 188.277 174.592 188.603 174.272 188.876C173.957 189.144 173.586 189.32 173.161 189.402ZM179.286 188.124L178.376 188.3L176.113 186.444L176.543 188.656L175.779 188.804L174.876 184.154L175.64 184.006L176.045 186.092L177.407 183.663L178.317 183.486L176.877 186.117L179.286 188.124ZM180.404 187.148L182.463 186.749L182.605 187.479L179.782 188.027L178.879 183.377L181.669 182.836L181.811 183.566L179.785 183.96L180.019 185.169L181.88 184.808L182.02 185.532L180.16 185.893L180.404 187.148ZM184.229 182.339C184.866 182.215 185.439 182.336 185.947 182.702C186.459 183.066 186.778 183.576 186.905 184.232C187.032 184.883 186.926 185.476 186.589 186.01C186.255 186.539 185.769 186.865 185.131 186.989L183.304 187.344L182.402 182.693L184.229 182.339ZM184.989 186.258C185.428 186.173 185.755 185.953 185.971 185.599C186.192 185.244 186.257 184.836 186.168 184.375C186.078 183.91 185.864 183.556 185.528 183.314C185.195 183.066 184.809 182.984 184.37 183.07L183.308 183.276L183.927 186.465L184.989 186.258Z" fill="#03386E"/>
<path d="M166.223 159.292L164.399 158.664L164.641 157.96L167.201 158.841L165.659 163.32L164.923 163.067L166.223 159.292ZM160.437 157.171C161.039 156.877 161.664 156.842 162.313 157.065C162.961 157.288 163.434 157.702 163.732 158.305C164.024 158.912 164.059 159.539 163.836 160.187C163.612 160.836 163.2 161.307 162.597 161.601C161.99 161.897 161.361 161.934 160.713 161.71C160.065 161.487 159.594 161.072 159.302 160.466C159.004 159.862 158.967 159.236 159.19 158.588C159.413 157.94 159.829 157.467 160.437 157.171ZM163.042 158.626C162.839 158.217 162.514 157.936 162.066 157.782C161.618 157.627 161.19 157.65 160.783 157.848C160.37 158.05 160.085 158.381 159.926 158.841C159.767 159.302 159.789 159.737 159.992 160.145C160.189 160.557 160.512 160.84 160.96 160.994C161.408 161.148 161.838 161.124 162.251 160.923C162.658 160.724 162.941 160.395 163.1 159.934C163.258 159.473 163.239 159.037 163.042 158.626ZM157.201 155.305C157.875 155.537 158.357 155.951 158.648 156.548C158.938 157.148 158.969 157.777 158.743 158.434C158.517 159.091 158.105 159.565 157.509 159.856C156.911 160.151 156.275 160.182 155.601 159.95C155.196 159.811 154.856 159.586 154.581 159.277C154.301 158.966 154.122 158.613 154.043 158.219L154.811 158.068C154.854 158.331 154.969 158.566 155.155 158.773C155.335 158.983 155.567 159.137 155.848 159.234C156.326 159.398 156.766 159.38 157.169 159.18C157.568 158.979 157.847 158.646 158.007 158.181C158.167 157.716 158.152 157.281 157.962 156.877C157.768 156.471 157.432 156.186 156.954 156.022C156.673 155.925 156.395 155.9 156.12 155.949C155.844 156.002 155.611 156.12 155.419 156.302L154.905 155.717C155.206 155.453 155.562 155.282 155.976 155.205C156.383 155.131 156.791 155.164 157.201 155.305ZM151.256 153.351L152.133 153.653L153.165 156.392L153.899 154.261L154.635 154.514L153.093 158.993L152.357 158.74L153.049 156.731L150.655 158.154L149.778 157.852L152.34 156.294L151.256 153.351ZM149.801 153.637L147.818 152.954L148.06 152.251L150.78 153.187L149.237 157.666L146.55 156.741L146.792 156.037L148.744 156.709L149.145 155.544L147.353 154.927L147.593 154.23L149.385 154.847L149.801 153.637ZM144.085 155.892C143.47 155.68 143.035 155.289 142.778 154.719C142.517 154.147 142.495 153.546 142.712 152.914C142.928 152.287 143.316 151.827 143.875 151.532C144.429 151.241 145.013 151.201 145.627 151.413L147.387 152.019L145.844 156.498L144.085 155.892ZM145.385 152.117C144.962 151.971 144.569 151.998 144.205 152.197C143.836 152.395 143.575 152.715 143.423 153.159C143.268 153.607 143.276 154.02 143.447 154.398C143.611 154.779 143.905 155.042 144.327 155.188L145.351 155.54L146.408 152.469L145.385 152.117Z" fill="#03386E"/>
<path d="M131.937 147.087L129.883 146.38L130.156 145.587L133.038 146.579L131.302 151.623L130.473 151.338L131.937 147.087Z" fill="#03386E"/>
<path d="M125.422 144.698C126.1 144.368 126.804 144.328 127.534 144.579C128.264 144.831 128.797 145.296 129.132 145.976C129.462 146.659 129.5 147.365 129.249 148.095C128.998 148.825 128.533 149.356 127.855 149.687C127.17 150.02 126.463 150.062 125.733 149.81C125.003 149.559 124.473 149.092 124.144 148.409C123.809 147.729 123.767 147.024 124.018 146.294C124.269 145.564 124.737 145.032 125.422 144.698ZM128.355 146.337C128.127 145.877 127.761 145.56 127.256 145.386C126.752 145.213 126.27 145.238 125.812 145.461C125.347 145.688 125.025 146.061 124.847 146.58C124.668 147.098 124.693 147.588 124.921 148.048C125.143 148.511 125.506 148.83 126.011 149.003C126.515 149.177 127 149.15 127.465 148.924C127.923 148.7 128.242 148.329 128.42 147.81C128.599 147.291 128.577 146.8 128.355 146.337Z" fill="#03386E"/>
<path d="M121.778 142.597C122.537 142.859 123.08 143.325 123.408 143.997C123.734 144.673 123.769 145.381 123.514 146.121C123.26 146.861 122.797 147.394 122.125 147.722C121.452 148.054 120.736 148.09 119.977 147.828C119.521 147.671 119.137 147.418 118.828 147.07C118.513 146.72 118.311 146.323 118.222 145.878L119.087 145.708C119.135 146.005 119.264 146.269 119.474 146.503C119.678 146.739 119.938 146.912 120.255 147.021C120.793 147.207 121.289 147.186 121.742 146.961C122.191 146.734 122.506 146.359 122.686 145.836C122.866 145.312 122.849 144.823 122.635 144.367C122.416 143.911 122.038 143.59 121.5 143.404C121.183 143.295 120.87 143.268 120.561 143.323C120.25 143.382 119.987 143.515 119.772 143.72L119.192 143.061C119.531 142.764 119.933 142.572 120.398 142.485C120.857 142.401 121.317 142.439 121.778 142.597Z" fill="#03386E"/>
<path d="M115.084 140.397L116.071 140.737L117.234 143.821L118.06 141.422L118.889 141.707L117.152 146.751L116.323 146.465L117.102 144.203L114.407 145.806L113.42 145.466L116.305 143.711L115.084 140.397Z" fill="#03386E"/>
<path d="M113.446 140.72L111.212 139.951L111.485 139.158L114.547 140.212L112.811 145.256L109.785 144.214L110.057 143.421L112.255 144.178L112.707 142.867L110.689 142.172L110.96 141.387L112.977 142.081L113.446 140.72Z" fill="#03386E"/>
<path d="M95.1665 132.745C95.1665 100.042 121.677 73.5311 154.38 73.5311H167.868C200.571 73.5311 227.081 100.042 227.081 132.745V249.643H95.1665V132.745Z" stroke="#03386E" stroke-width="0.676724"/>
<circle cx="116.547" cy="179.799" r="3.85275" stroke="#03386E" stroke-width="0.676724"/>
<circle cx="116.164" cy="169.206" r="2.70972" stroke="#03386E" stroke-width="0.676724"/>
<circle cx="116.165" cy="169.207" r="0.423658" stroke="#03386E" stroke-width="0.676724"/>
<path d="M206.464 179.495V168.826L109.688 136.44V145.966L199.987 177.374M206.464 179.495L199.987 177.374M206.464 179.495V185.21L117.689 203.777M199.987 177.374L109.688 196.259V201.974M109.688 201.974V212.262L206.083 233.217V223.692L117.689 203.777M109.688 201.974L117.689 203.777" stroke="#03386E" stroke-width="0.676724"/>
<circle cx="156.551" cy="139.489" r="2.70972" stroke="#03386E" stroke-width="0.676724"/>
<circle cx="157.313" cy="139.489" r="1.9477" stroke="#03386E" stroke-width="0.676724"/>
<circle cx="198.082" cy="145.966" r="0.804669" stroke="#03386E" stroke-width="0.676724"/>
<circle cx="202.654" cy="145.966" r="0.804669" stroke="#03386E" stroke-width="0.676724"/>
<path d="M99.7378 138.079C99.7378 105.378 126.513 78.8653 159.218 78.8653C191.923 78.8653 218.698 105.378 218.698 138.079V249.643H99.7378V138.079Z" stroke="#03386E" stroke-width="0.676724"/>
<path d="M105.877 249.601V231.312M105.877 157.396V168.445M105.877 184.448V212.643" stroke="#03386E" stroke-width="0.676724" stroke-linecap="round"/>
<path d="M109.644 135.677C109.644 108.93 131.327 87.2463 158.075 87.2463C184.823 87.2463 206.506 108.93 206.506 135.677V249.642H109.644V135.677Z" stroke="#03386E" stroke-width="0.676724"/>
<path d="M114.641 180.127C114.641 179.351 115.252 178.713 116.026 178.68L128.552 178.137C129.692 178.088 130.643 178.999 130.643 180.14C130.643 181.283 129.689 182.195 128.547 182.143L116.023 181.573C115.25 181.538 114.641 180.901 114.641 180.127Z" fill="#03386E"/>
</g>
</svg>
