<svg width="413" height="261" viewBox="0 0 413 261" fill="none" xmlns="http://www.w3.org/2000/svg">
<g style="mix-blend-mode:multiply">
<path d="M319.364 0.000976562L316.543 88.1065H406.215L403.301 0.000976562H319.364Z" fill="#F3EAE1"/>
</g>
<path d="M403.302 0H319.365V83.9144H403.302V0Z" fill="white"/>
<path d="M386.56 16.7334H336.111V67.1804H386.56V16.7334Z" fill="#015971"/>
<path d="M383.129 20.1621H339.535V63.7509H383.129V20.1621Z" fill="#D1DED5"/>
<path d="M383.129 37.6096V63.7518H339.535V43.294C343.525 44.9778 349.112 46.7477 354.122 46.2745C363.176 45.4203 368.813 35.3419 374.794 34.4877C377.413 34.1129 380.492 35.7045 383.129 37.6096Z" fill="#33A7B6"/>
<path d="M383.129 58.7798V63.7514H339.535V54.3675C345.307 51.5283 352.542 48.6278 357.54 48.8674C364.91 49.2423 369.901 56.2971 383.129 58.7737V58.7798Z" fill="#007C98"/>
<g style="mix-blend-mode:screen" opacity="0.4">
<path d="M325.219 5.85059V78.0643L397.452 5.85059H325.219Z" fill="white"/>
</g>
<path d="M330.684 242.4C332.515 240.331 332.321 237.17 330.251 235.339C328.181 233.509 325.019 233.703 323.188 235.772C321.357 237.842 321.551 241.003 323.621 242.834C325.691 244.664 328.853 244.47 330.684 242.4Z" fill="#232828"/>
<path d="M406.51 240.235C407.148 237.547 405.484 234.851 402.795 234.214C400.106 233.577 397.41 235.24 396.773 237.928C396.136 240.617 397.799 243.312 400.488 243.949C403.177 244.586 405.873 242.923 406.51 240.235Z" fill="#232828"/>
<path d="M412.714 117.514L411.374 236.813H318.444L315.875 117.514H412.714Z" fill="#6C4C41"/>
<g style="mix-blend-mode:screen">
<path d="M412.714 117.514C381.045 122.325 315.875 117.514 315.875 117.514H412.714Z" fill="#6C4C41"/>
</g>
<g style="mix-blend-mode:screen" opacity="0.3">
<path d="M408.142 123.235L408.025 125.724L406.612 155.468H322.607L320.665 126.843L320.529 124.796L342.13 124.409L376.362 123.807L382.853 123.69L388.878 123.579L408.142 123.235Z" fill="#FF954B"/>
</g>
<g style="mix-blend-mode:screen" opacity="0.3">
<path d="M388.877 123.579L382.871 155.467H369.219L382.853 123.69L388.877 123.579Z" fill="#9C4848"/>
</g>
<g style="mix-blend-mode:screen" opacity="0.3">
<path d="M376.362 123.807L364.437 155.467H332.479L342.129 124.409L376.362 123.807Z" fill="#9C4848"/>
</g>
<g style="mix-blend-mode:screen" opacity="0.3">
<path d="M408.068 162.608L407.933 164.6L405.984 193.286H321.98L320.572 163.592L320.449 161.054L343.236 161.459L365.697 161.859L408.068 162.608Z" fill="#FF954B"/>
</g>
<g style="mix-blend-mode:screen" opacity="0.3">
<path d="M365.697 161.858L363.257 193.286H333.186L343.236 161.459L365.697 161.858Z" fill="#9C4848"/>
</g>
<g style="mix-blend-mode:screen" opacity="0.3">
<path d="M406.784 198.866L406.741 200.753L406.065 231.098H322.061L322.522 200.753L322.546 198.866H406.784Z" fill="#FF954B"/>
</g>
<g style="mix-blend-mode:screen" opacity="0.3">
<path d="M355.019 198.866L346.173 231.098H329.779L340.217 198.866H355.019Z" fill="#9C4848"/>
</g>
<g style="mix-blend-mode:screen" opacity="0.3">
<path d="M375.047 198.866L356.877 231.098H350.625L360.737 198.866H375.047Z" fill="#9C4848"/>
</g>
<path d="M408.142 123.235L408.019 125.724L320.665 126.843L320.529 124.796L408.142 123.235Z" fill="#444444"/>
<path d="M349.949 125.042C349.949 125.042 351.117 128.76 352.027 128.76C352.937 128.76 379.713 129.54 380.235 128.76C380.758 127.979 381.797 125.042 381.797 125.042H349.949Z" fill="#444444"/>
<path d="M348.727 162.829C348.727 162.829 349.894 166.547 350.804 166.547C351.714 166.547 378.49 167.327 379.013 166.547C379.535 165.767 380.574 162.829 380.574 162.829H348.727Z" fill="#444444"/>
<path d="M408.068 162.608L407.927 164.6L320.572 163.598L320.449 161.054L408.068 162.608Z" fill="#444444"/>
<path d="M347.162 199.812C347.162 199.812 348.33 203.53 349.24 203.53C350.15 203.53 376.926 204.311 377.448 203.53C377.971 202.75 379.01 199.812 379.01 199.812H347.162Z" fill="#444444"/>
<path d="M406.776 198.872L406.733 200.753H322.52L322.544 198.872H406.776Z" fill="#444444"/>
<g style="mix-blend-mode:multiply" opacity="0.4">
<path d="M308.604 249.992C308.604 249.992 245.008 260.827 166.56 260.827C88.1122 260.827 24.5156 249.992 24.5156 249.992C24.5156 249.992 88.1122 239.158 166.56 239.158C245.008 239.158 308.604 249.992 308.604 249.992Z" fill="#E5E5E5"/>
</g>
<path d="M267.413 166.207H66.9294C62.0795 166.207 57.6045 164.32 55.2318 161.278L48.3164 152.404H286.032L279.117 161.278C276.744 164.326 272.269 166.207 267.419 166.207H267.413Z" fill="white"/>
<path d="M289.567 145.504H44.7695V152.405H289.567V145.504Z" fill="#444444"/>
<path d="M251.75 163.141H82.5916C80.4709 163.141 78.7559 161.427 78.7559 159.306C78.7559 157.186 80.4709 155.472 82.5916 155.472H251.75C253.871 155.472 255.586 157.186 255.586 159.306C255.586 161.427 253.871 163.141 251.75 163.141Z" fill="#DDD2CC"/>
<path d="M101.616 159.306C101.616 160.241 100.86 161.003 99.9192 161.003C98.9787 161.003 98.2227 160.247 98.2227 159.306C98.2227 158.366 98.9787 157.61 99.9192 157.61C100.86 157.61 101.616 158.366 101.616 159.306Z" fill="white"/>
<path d="M236.112 159.306C236.112 160.241 235.356 161.003 234.415 161.003C233.475 161.003 232.719 160.247 232.719 159.306C232.719 158.366 233.475 157.61 234.415 157.61C235.356 157.61 236.112 158.366 236.112 159.306Z" fill="white"/>
<path d="M71.0599 166.207C71.0599 166.207 76.4385 169.157 76.9548 170.183C77.465 171.209 63.3516 248.302 63.3516 248.302H66.7078L84.6447 170.441L91.308 166.207H71.066H71.0599Z" fill="#6C4C41"/>
<path d="M263.283 166.207C263.283 166.207 257.904 169.157 257.388 170.183C256.872 171.209 270.991 248.302 270.991 248.302H267.635L249.704 170.441L243.041 166.207H263.283Z" fill="#6C4C41"/>
<path d="M40.1397 197.224L35.2713 231.828L33.7961 242.306H6.33753L0.00614829 197.248L0 197.218H40.1397V197.224Z" fill="#F2AE40"/>
<path d="M0 197.225C0 197.225 19.7564 194.318 40.1336 197.225C40.1336 197.225 23.1741 203.88 0 197.225Z" fill="#F4883F"/>
<path d="M35.273 231.828L33.7977 242.306H6.33919L0.0078125 197.248C0.321308 198.391 10.5068 234.888 18.3319 235.896C23.1327 236.517 30.337 233.954 35.273 231.828Z" fill="#FFC269"/>
<path d="M163.059 11.8066H29.5098V106.586H163.059V11.8066Z" fill="#444444"/>
<path d="M156.844 17.3066H35.7305V101.08H156.844V17.3066Z" fill="#CBE4F2"/>
<path d="M63.8368 26.833H44.2402V46.4243H63.8368V26.833Z" fill="white"/>
<path d="M57.3452 25.6465H50.7188V28.0247H57.3452V25.6465Z" fill="#00355B"/>
<g style="mix-blend-mode:multiply">
<path d="M61.2173 31.8467H46.8457V33.1802H61.2173V31.8467Z" fill="#78B5D8"/>
</g>
<g style="mix-blend-mode:multiply">
<path d="M61.2173 35.5088H46.8457V36.8423H61.2173V35.5088Z" fill="#78B5D8"/>
</g>
<g style="mix-blend-mode:multiply">
<path d="M61.2173 39.1729H46.8457V40.5064H61.2173V39.1729Z" fill="#78B5D8"/>
</g>
<path d="M97.9012 29.542H78.3047V49.1333H97.9012V29.542Z" fill="white"/>
<path d="M91.4175 28.3555H84.791V30.7337H91.4175V28.3555Z" fill="#00355B"/>
<g style="mix-blend-mode:multiply">
<path d="M95.2818 34.5498H80.9102V35.8833H95.2818V34.5498Z" fill="#78B5D8"/>
</g>
<g style="mix-blend-mode:multiply">
<path d="M95.2818 41.3828H80.9102V42.7164H95.2818V41.3828Z" fill="#78B5D8"/>
</g>
<g style="mix-blend-mode:multiply">
<path d="M95.2818 45.0469H80.9102V46.3804H95.2818V45.0469Z" fill="#78B5D8"/>
</g>
<path d="M146.815 27.6426H127.219V47.2339H146.815V27.6426Z" fill="white"/>
<path d="M140.332 26.4512H133.705V28.8294H140.332V26.4512Z" fill="#00355B"/>
<g style="mix-blend-mode:multiply">
<path d="M142.486 31.748H131.551V33.0816H142.486V31.748Z" fill="#78B5D8"/>
</g>
<g style="mix-blend-mode:multiply">
<path d="M142.486 35.2451H131.551V36.5787H142.486V35.2451Z" fill="#78B5D8"/>
</g>
<g style="mix-blend-mode:multiply">
<path d="M142.486 38.7412H131.551V40.0747H142.486V38.7412Z" fill="#78B5D8"/>
</g>
<g style="mix-blend-mode:multiply">
<path d="M142.486 42.2451H131.551V43.5787H142.486V42.2451Z" fill="#78B5D8"/>
</g>
<path d="M91.1768 55.5928H80.4688V66.2979H91.1768V55.5928Z" fill="#F03F2F"/>
<path d="M89.32 57.7012H82.3125V58.6844H89.32V57.7012Z" fill="#A31920"/>
<path d="M89.32 59.9629H82.3125V60.9461H89.32V59.9629Z" fill="#A31920"/>
<path d="M89.32 62.2236H82.3125V63.2069H89.32V62.2236Z" fill="#A31920"/>
<path d="M117.749 24.1895H107.041V34.8946H117.749V24.1895Z" fill="#00355B"/>
<path d="M115.892 26.3037H108.885V27.287H115.892V26.3037Z" fill="#33A7B6"/>
<path d="M115.892 28.5596H108.885V29.5428H115.892V28.5596Z" fill="#33A7B6"/>
<path d="M115.892 30.8203H108.885V31.8036H115.892V30.8203Z" fill="#33A7B6"/>
<path d="M91.1768 70.6602H80.4688V81.3653H91.1768V70.6602Z" fill="#F2AE40"/>
<path d="M89.32 72.7686H82.3125V73.7518H89.32V72.7686Z" fill="#F4883F"/>
<path d="M89.32 75.0303H82.3125V76.0135H89.32V75.0303Z" fill="#F4883F"/>
<path d="M89.32 77.291H82.3125V78.2743H89.32V77.291Z" fill="#F4883F"/>
<path d="M70.9243 57.6875H44.2402V90.5773H70.9243V57.6875Z" fill="white"/>
<path d="M61.3467 56.7471H53.8105V58.7074H61.3467V56.7471Z" fill="#F03F2F"/>
<path d="M50.9432 61.6875H46.6895V65.9401H50.9432V61.6875Z" fill="#00355B"/>
<g style="mix-blend-mode:multiply">
<path d="M56.783 61.6875H52.5293V65.9401H56.783V61.6875Z" fill="#78B5D8"/>
</g>
<g style="mix-blend-mode:multiply">
<path d="M62.6209 61.6875H58.3672V65.9401H62.6209V61.6875Z" fill="#78B5D8"/>
</g>
<g style="mix-blend-mode:multiply">
<path d="M68.4568 61.6875H64.2031V65.9401H68.4568V61.6875Z" fill="#78B5D8"/>
</g>
<g style="mix-blend-mode:multiply">
<path d="M50.9432 68.5635H46.6895V72.816H50.9432V68.5635Z" fill="#78B5D8"/>
</g>
<path d="M56.783 68.5635H52.5293V72.816H56.783V68.5635Z" fill="#00355B"/>
<g style="mix-blend-mode:multiply">
<path d="M62.6209 68.5635H58.3672V72.816H62.6209V68.5635Z" fill="#78B5D8"/>
</g>
<path d="M68.4568 68.5635H64.2031V72.816H68.4568V68.5635Z" fill="#00355B"/>
<g style="mix-blend-mode:multiply">
<path d="M50.9432 75.4414H46.6895V79.694H50.9432V75.4414Z" fill="#78B5D8"/>
</g>
<g style="mix-blend-mode:multiply">
<path d="M56.783 75.4414H52.5293V79.694H56.783V75.4414Z" fill="#78B5D8"/>
</g>
<g style="mix-blend-mode:multiply">
<path d="M62.6209 75.4414H58.3672V79.694H62.6209V75.4414Z" fill="#78B5D8"/>
</g>
<path d="M68.4568 75.4414H64.2031V79.694H68.4568V75.4414Z" fill="#00355B"/>
<path d="M50.9432 82.3232H46.6895V86.5758H50.9432V82.3232Z" fill="#00355B"/>
<g style="mix-blend-mode:multiply">
<path d="M56.783 82.3232H52.5293V86.5758H56.783V82.3232Z" fill="#78B5D8"/>
</g>
<path d="M62.6209 82.3232H58.3672V86.5758H62.6209V82.3232Z" fill="#00355B"/>
<g style="mix-blend-mode:multiply">
<path d="M68.4568 82.3232H64.2031V86.5758H68.4568V82.3232Z" fill="#78B5D8"/>
</g>
<path d="M52.3918 128.069C52.3918 128.069 49.3184 113.302 49.3184 110.912L52.9881 122.096C52.9881 122.096 53.4983 109.72 54.783 106.475C54.783 106.475 55.8096 119.964 55.8096 121.844C55.8096 121.844 58.0286 103.144 59.1412 101.098C59.1412 101.098 59.4855 120.566 59.7375 123.036C59.7375 123.036 62.1287 109.72 62.6389 106.475C62.6389 106.475 62.897 120.05 62.6389 122.016C62.6389 122.016 65.3743 107.673 66.3947 105.965L64.8579 123.381C64.8579 123.381 67.5933 113.732 68.2756 111.938C68.2756 111.938 65.8845 127.99 65.6263 128.844L52.3918 128.076V128.069Z" fill="#7DC2AF"/>
<path d="M50.4316 125.741L67.1022 126.577L62.8977 145.505H53.6711L50.4316 125.741Z" fill="white"/>
<path d="M107.166 47.873H227.179C229.521 47.873 231.427 49.7781 231.427 52.1195V123.049C231.427 125.39 229.521 127.295 227.179 127.295H107.166C104.824 127.295 102.918 125.39 102.918 123.049V52.1195C102.918 49.7781 104.824 47.873 107.166 47.873Z" fill="#444444"/>
<path d="M231.427 114.79V123.056C231.427 125.397 229.527 127.302 227.179 127.302H107.166C104.824 127.302 102.918 125.397 102.918 123.056V114.79H231.427Z" fill="white"/>
<path d="M227.302 54.4424H107.043V111.981H227.302V54.4424Z" fill="#707070"/>
<path d="M177.642 127.295H156.705V142.191H177.642V127.295Z" fill="#DDD2CC"/>
<path d="M204.134 145.504H130.211C130.211 143.672 131.692 142.191 133.524 142.191H200.827C202.659 142.191 204.141 143.672 204.141 145.504H204.134Z" fill="white"/>
<path d="M94.1469 123.325V143.451C94.1469 144.588 93.2248 145.504 92.0876 145.504H79.3327C78.1955 145.504 77.2734 144.588 77.2734 143.451V123.325H94.1469Z" fill="#F03F2F"/>
<path d="M71.1445 138.511V130.325C71.1445 127.898 73.1239 125.919 75.5519 125.919H82.1415V142.917H75.5519C73.1239 142.917 71.1445 140.938 71.1445 138.511ZM79.6212 128.439H75.5519C74.5131 128.439 73.6648 129.287 73.6648 130.325V138.511C73.6648 139.549 74.5131 140.397 75.5519 140.397H79.6212V128.432V128.439Z" fill="#F03F2F"/>
<path d="M94.1488 123.325C87.1659 126.724 77.2754 123.325 77.2754 123.325H94.1488Z" fill="#FF956F"/>
<path d="M240.53 53.0713L301.453 53.0713V48.2411L240.53 48.2411V53.0713Z" fill="#6C4C41"/>
<path d="M291.513 48.2402L263.734 48.2402V37.4245H291.513C294.5 37.4245 296.922 39.8457 296.922 42.8324C296.922 45.819 294.5 48.2402 291.513 48.2402Z" fill="#F03F2F"/>
<path d="M290.955 46.6374L263.914 46.6374C263.81 46.6374 263.73 46.5575 263.73 46.4531V39.22C263.73 39.1155 263.81 39.0356 263.914 39.0356H290.955C293.051 39.0356 294.76 40.7379 294.76 42.8396C294.76 44.9352 293.057 46.6436 290.955 46.6436V46.6374Z" fill="#F4F4F4"/>
<path d="M263.73 37.431H291.509C294.496 37.431 296.918 35.0097 296.918 32.0231C296.918 29.0365 294.496 26.6152 291.509 26.6152H263.73V37.431Z" fill="#015971"/>
<path d="M263.915 35.8208H290.955C293.058 35.8208 294.76 34.1185 294.76 32.0168C294.76 29.9151 293.058 28.2129 290.955 28.2129H263.915C263.81 28.2129 263.73 28.2928 263.73 28.3972V35.6303C263.73 35.7348 263.81 35.8147 263.915 35.8147V35.8208Z" fill="#F4F4F4"/>
<path d="M263.73 26.6156H291.509C294.496 26.6156 296.918 24.1943 296.918 21.2077C296.918 18.2211 294.496 15.7998 291.509 15.7998H263.73V26.6156Z" fill="#F4883F"/>
<path d="M263.915 25.0054H290.955C293.058 25.0054 294.76 23.3031 294.76 21.2014C294.76 19.0997 293.058 17.3975 290.955 17.3975H263.915C263.81 17.3975 263.73 17.4773 263.73 17.5818V24.8149C263.73 24.9193 263.81 24.9992 263.915 24.9992V25.0054Z" fill="#F4F4F4"/>
<path d="M144.956 163.178L114.553 249.409H117.706L152.812 163.178H144.956Z" fill="#6C4C41"/>
<path d="M211.053 163.178L241.456 249.409H238.303L203.197 163.178H211.053Z" fill="#6C4C41"/>
<path d="M166.483 163.178L164.086 249.409H166.483L175.015 163.178H166.483Z" fill="#543830"/>
<path d="M190.891 163.178L193.289 249.409H190.891L182.359 163.178H190.891Z" fill="#543830"/>
<path d="M221.456 156.091C220.282 158.654 216.858 160.712 213.317 162.23C208.522 164.283 203.371 165.334 198.159 165.481C183.062 165.899 141.705 166.87 132.816 165.346C121.881 163.465 118.635 158.998 119.152 155.759C119.662 152.508 152.45 152.687 166.459 147.051C166.459 147.051 166.465 147.051 166.483 147.045C180.185 141.459 177.038 73.0371 211.768 73.5103C212.481 73.5164 213.2 73.5594 213.944 73.627C218.616 74.0572 222.267 75.5935 225.082 77.9656C244.624 94.3921 223.841 150.874 221.45 156.097L221.456 156.091Z" fill="#F2AE40"/>
<path d="M221.456 156.091C220.282 158.654 216.858 160.713 213.317 162.23C208.522 164.283 203.371 165.334 198.159 165.481C183.062 165.899 141.705 166.87 132.816 165.346C121.881 163.466 118.635 158.998 119.152 155.759C119.152 155.759 129.884 159.68 143.721 160.19C157.552 160.706 205.461 162.071 211.098 155.759C216.735 149.436 231.137 104.071 225.089 77.9658C244.63 94.3923 223.847 150.874 221.456 156.097V156.091Z" fill="#F4883F"/>
<path d="M211.767 73.5047C209.757 74.0147 207.569 74.6416 205.214 75.4159C189.841 80.455 177.799 136.199 176.25 140.532C174.738 144.729 166.98 146.904 166.488 147.033C180.19 141.447 177.043 73.0253 211.773 73.4985L211.767 73.5047Z" fill="#FFC269"/>
</svg>
