<svg width="329" height="306" viewBox="0 0 329 306" fill="none" xmlns="http://www.w3.org/2000/svg">
<g clip-path="url(#clip0_1910_4558)">
<path d="M149.521 12.9274C145.511 10.5674 139.021 10.1174 133.001 11.7974C120.291 15.3274 114.481 25.9574 117.461 40.2174C119.181 48.4974 124.341 54.9374 131.971 58.3774C136.731 60.5174 141.991 61.1874 146.651 60.2974C146.691 61.0274 146.701 61.8374 147.151 62.0874C147.711 62.4974 149.581 61.5274 150.181 61.2474C150.071 60.6174 149.891 60.0074 149.591 59.5074C157.261 56.7074 161.451 49.1474 161.121 38.5074C160.841 29.2774 157.651 17.7074 149.541 12.9474L149.521 12.9274Z" fill="#DFEAF3"/>
<path d="M153.73 23.7174C154.33 22.8474 154.47 21.8274 154.11 20.8274C153.5 19.0974 152.19 18.3274 150.59 18.7774C149.83 18.9874 149.17 19.4574 148.89 19.9674C148.33 21.0074 148.73 22.4574 149.3 23.4674C149.99 24.7074 151.28 25.1574 152.35 24.8674C152.98 24.6874 153.31 24.3174 153.73 23.7174Z" fill="#D0DAE4"/>
<path opacity="0.25" d="M130.52 51.4474C124.57 43.9774 121.39 32.1474 122.11 23.6474C122.13 23.4274 122.16 23.2074 122.19 22.9874C121.18 24.5074 120.5 26.1474 120.25 27.7774C119.07 35.4574 121.46 45.8374 126.81 52.2274C131.37 57.6774 139.75 59.4274 144.56 59.4174C140.85 57.9574 134.05 55.8674 130.52 51.4374V51.4474Z" fill="white"/>
<path d="M148.44 59.3374L160.84 178.107" stroke="#373814" stroke-width="0.5" stroke-linecap="round" stroke-linejoin="round"/>
<path d="M148.441 59.3374C147.701 59.9874 145.101 62.3874 145.871 63.3974C146.801 64.6174 148.261 60.0074 148.441 59.3374ZM148.441 59.3374C148.281 60.0874 148.971 63.9474 150.241 63.0874C151.331 62.3574 149.261 59.2174 148.441 59.3374Z" stroke="#373814" stroke-width="0.5" stroke-linecap="round" stroke-linejoin="round"/>
<path d="M147.69 59.9974C147.69 59.9974 149.39 59.5974 150.8 58.8474C151.47 58.4874 149.67 59.8174 147.69 59.9974ZM147.69 59.9974C147.69 59.9974 149.93 60.0574 150.93 59.3574" stroke="#373814" stroke-width="0.5" stroke-linecap="round" stroke-linejoin="round"/>
<path d="M197 16.5474C193.83 13.1374 187.74 10.8574 181.49 10.7474C168.3 10.5174 159.71 19.0474 158.5 33.5674C157.8 41.9874 160.9 49.6374 167.24 55.0974C171.2 58.5074 176.04 60.6474 180.76 61.1174C180.6 61.8274 180.38 62.6074 180.73 62.9674C181.16 63.5174 183.22 63.1174 183.88 63.0174C183.96 62.3874 183.95 61.7474 183.81 61.1774C191.96 60.6774 198.13 54.6174 200.84 44.3274C203.2 35.3974 203.43 23.3974 197.02 16.5274L197 16.5474Z" fill="#1863AD"/>
<path d="M197.971 28.0774C198.791 27.4174 199.221 26.4674 199.161 25.4074C199.071 23.5774 198.031 22.4674 196.371 22.4374C195.591 22.4174 194.811 22.6874 194.401 23.0974C193.571 23.9374 193.541 25.4374 193.801 26.5774C194.111 27.9574 195.211 28.7674 196.321 28.7874C196.981 28.7974 197.401 28.5374 197.971 28.0774Z" fill="#528AC2"/>
<path opacity="0.25" d="M167.831 48.0674C164.251 39.2074 164.571 26.9674 167.681 19.0274C167.761 18.8174 167.851 18.6174 167.941 18.4174C166.541 19.5874 165.421 20.9674 164.711 22.4574C161.401 29.4874 160.731 40.1174 164.041 47.7574C166.861 54.2774 174.401 58.3474 179.011 59.6974C175.861 57.2474 169.941 53.3074 167.831 48.0574V48.0674Z" fill="white"/>
<path d="M182.761 60.7174L160.841 178.107" stroke="#373814" stroke-width="0.5" stroke-linecap="round" stroke-linejoin="round"/>
<path d="M182.761 60.7174C181.861 61.1274 178.691 62.6974 179.141 63.8774C179.681 65.3074 182.401 61.3074 182.761 60.7174ZM182.761 60.7174C182.391 61.3874 181.961 65.2874 183.421 64.8274C184.671 64.4274 183.581 60.8374 182.761 60.7174Z" stroke="#373814" stroke-width="0.5" stroke-linecap="round" stroke-linejoin="round"/>
<path d="M181.851 61.1374C181.851 61.1374 183.591 61.2274 185.161 60.9174C185.911 60.7674 183.801 61.5274 181.851 61.1374ZM181.851 61.1374C181.851 61.1374 183.971 61.8374 185.141 61.4474" stroke="#373814" stroke-width="0.5" stroke-linecap="round" stroke-linejoin="round"/>
<path d="M242.911 56.4974C241.201 52.5274 236.591 48.6374 231.171 46.5874C219.721 42.2674 209.551 47.0274 203.961 59.3374C200.711 66.4774 201.041 74.1274 204.861 80.8774C207.251 85.0874 210.811 88.4674 214.791 90.3574C214.431 90.9274 213.991 91.5374 214.181 91.9674C214.381 92.5774 216.311 92.8774 216.911 92.9974C217.181 92.4674 217.371 91.9174 217.421 91.3674C224.701 93.4774 231.971 90.1074 237.561 81.9674C242.411 74.9074 246.361 64.4974 242.911 56.4974Z" fill="#A5C9EB"/>
<path d="M240.141 66.8674C241.061 66.5474 241.731 65.8574 242.021 64.9074C242.521 63.2774 241.951 61.9874 240.511 61.4474C239.831 61.1874 239.071 61.1774 238.581 61.4074C237.591 61.8774 237.101 63.1874 236.971 64.2574C236.811 65.5574 237.521 66.6074 238.481 66.9774C239.051 67.1874 239.501 67.0974 240.141 66.8774V66.8674Z" fill="#A5C9EB"/>
<path opacity="0.25" d="M207.58 74.8974C207.23 66.0474 211.32 55.4474 216.53 49.4874C216.66 49.3274 216.81 49.1874 216.95 49.0374C215.36 49.6174 213.95 50.4774 212.87 51.5574C207.78 56.6574 203.88 65.7274 204.38 73.4474C204.8 80.0274 210.12 85.9274 213.72 88.5574C211.74 85.4274 207.8 80.1374 207.59 74.8974H207.58Z" fill="white"/>
<path d="M216.671 90.6174L160.841 178.107" stroke="#373814" stroke-width="0.5" stroke-linecap="round" stroke-linejoin="round"/>
<path d="M216.671 90.6174C215.761 90.6974 212.501 91.0674 212.521 92.2474C212.551 93.6674 216.171 91.0274 216.671 90.6174ZM216.671 90.6174C216.141 91.0874 214.551 94.3574 215.961 94.4074C217.171 94.4574 217.351 90.9774 216.671 90.6174Z" stroke="#373814" stroke-width="0.5" stroke-linecap="round" stroke-linejoin="round"/>
<path d="M215.73 90.7074C215.73 90.7074 217.22 91.3374 218.69 91.5474C219.39 91.6474 217.31 91.6574 215.73 90.7074ZM215.73 90.7074C215.73 90.7074 217.37 91.9774 218.5 92.0074" stroke="#373814" stroke-width="0.5" stroke-linecap="round" stroke-linejoin="round"/>
<path d="M103.52 44.2274C99.3802 42.9874 93.4402 44.0174 88.3802 46.8574C77.7002 52.8474 74.8202 63.7074 80.6502 75.8974C84.0302 82.9674 90.1002 87.6374 97.7302 89.0474C102.49 89.9274 107.37 89.3674 111.37 87.5374C111.57 88.1774 111.76 88.9074 112.21 89.0374C112.81 89.2774 114.28 87.9974 114.75 87.6074C114.52 87.0674 114.21 86.5574 113.83 86.1674C120.12 81.9474 122.22 74.2074 119.58 64.6974C117.28 56.4374 111.86 46.7274 103.5 44.2274H103.52Z" fill="#1863AD"/>
<path d="M109.691 53.0174C110.041 52.1074 109.941 51.1474 109.401 50.3274C108.471 48.9074 107.121 48.5074 105.781 49.2574C105.141 49.6074 104.651 50.1874 104.511 50.7074C104.241 51.7674 104.921 52.9874 105.661 53.7674C106.561 54.7274 107.821 54.8574 108.711 54.3574C109.241 54.0574 109.461 53.6474 109.701 53.0174H109.691Z" fill="#ACACE2"/>
<path opacity="0.25" d="M94.9106 83.1274C87.9006 77.7074 82.4206 67.7574 81.2006 59.9474C81.1706 59.7474 81.1506 59.5374 81.1206 59.3374C80.5406 60.9274 80.2906 62.5574 80.4306 64.0874C81.0706 71.2674 85.5106 80.0874 91.7406 84.6574C97.0506 88.5574 104.991 88.2874 109.321 87.2174C105.651 86.7274 99.0706 86.3374 94.9106 83.1374V83.1274Z" fill="white"/>
<path d="M112.331 86.4474L160.841 178.107" stroke="#373814" stroke-width="0.5" stroke-linecap="round" stroke-linejoin="round"/>
<path d="M112.331 86.4474C111.971 87.2874 110.751 90.3374 111.791 90.8774C113.051 91.5274 112.441 87.0874 112.331 86.4474ZM112.331 86.4474C112.491 87.1374 114.621 90.0874 115.331 88.8674C115.951 87.8174 112.971 86.0174 112.331 86.4474Z" stroke="#373814" stroke-width="0.5" stroke-linecap="round" stroke-linejoin="round"/>
<path d="M111.961 87.3074C111.961 87.3074 113.221 86.2974 114.111 85.0974C114.531 84.5274 113.551 86.3674 111.961 87.3074ZM111.961 87.3074C111.961 87.3074 113.861 86.4674 114.421 85.4774" stroke="#373814" stroke-width="0.5" stroke-linecap="round" stroke-linejoin="round"/>
<path d="M172.22 37.8574C169.41 34.9474 164.08 33.0674 158.65 33.0674C147.19 33.0674 139.86 40.6074 139.03 53.2374C138.55 60.5674 141.36 67.1574 146.95 71.8074C150.44 74.7074 154.68 76.4874 158.78 76.8274C158.65 77.4474 158.47 78.1274 158.78 78.4374C159.16 78.9074 160.95 78.5274 161.51 78.4374C161.57 77.8874 161.55 77.3374 161.42 76.8374C168.49 76.2774 173.75 70.9274 175.95 61.9474C177.86 54.1574 177.88 43.7374 172.21 37.8674L172.22 37.8574Z" fill="#A5C9EB"/>
<path d="M171.9 48.4174C172.6 47.8374 172.96 47.0074 172.9 46.0874C172.8 44.4974 171.87 43.5474 170.43 43.5474C169.75 43.5474 169.08 43.7874 168.72 44.1474C168.01 44.8874 168.01 46.1974 168.25 47.1774C168.54 48.3674 169.51 49.0574 170.47 49.0574C171.04 49.0574 171.4 48.8274 171.89 48.4174H171.9Z" fill="#A5C9EB"/>
<path opacity="0.25" d="M147.36 65.6774C144.12 58.0374 144.21 47.4074 146.79 40.4674C146.86 40.2874 146.93 40.1074 147.01 39.9274C145.81 40.9674 144.86 42.1774 144.27 43.4874C141.5 49.6474 141.08 58.8774 144.07 65.4774C146.62 71.0974 153.22 74.5174 157.25 75.6274C154.48 73.5474 149.28 70.2174 147.36 65.6874V65.6774Z" fill="white"/>
<path d="M159.57 76.7574L160.84 178.107" stroke="#373814" stroke-width="0.5" stroke-linecap="round" stroke-linejoin="round"/>
<path d="M159.57 76.7574C158.71 76.7574 155.64 76.8374 155.57 77.9374C155.48 79.2674 159.07 77.0874 159.57 76.7574ZM159.57 76.7574C159.04 77.1574 157.28 80.0774 158.6 80.2374C159.73 80.3774 160.18 77.1474 159.57 76.7574Z" stroke="#373814" stroke-width="0.5" stroke-linecap="round" stroke-linejoin="round"/>
<path d="M158.69 76.7574C158.69 76.7574 160.19 76.9774 161.57 76.8174C162.23 76.7474 160.35 77.2474 158.69 76.7574ZM158.69 76.7574C158.69 76.7574 160.48 77.5274 161.51 77.2774" stroke="#373814" stroke-width="0.5" stroke-linecap="round" stroke-linejoin="round"/>
<path d="M137.48 81.1374C133.39 78.9174 126.89 78.6974 120.93 80.5874C108.35 84.5674 102.91 95.3874 106.39 109.537C108.4 117.747 113.78 124.007 121.53 127.177C126.36 129.147 131.64 129.637 136.26 128.577C136.33 129.297 136.37 130.107 136.81 130.347C137.39 130.737 139.22 129.697 139.81 129.397C139.68 128.767 139.48 128.167 139.16 127.677C146.73 124.607 150.65 116.907 149.95 106.287C149.34 97.0674 145.75 85.6274 137.49 81.1474L137.48 81.1374Z" fill="#A5C9EB"/>
<path d="M141.381 96.6674C141.951 95.7874 142.051 94.7474 141.661 93.7574C141.001 92.0474 139.651 91.3274 138.071 91.8274C137.321 92.0674 136.671 92.5574 136.411 93.0774C135.881 94.1374 136.341 95.5774 136.941 96.5674C137.681 97.7774 138.971 98.1974 140.031 97.8574C140.651 97.6574 140.971 97.2775 141.371 96.6575L141.381 96.6674Z" fill="#D0DAE4"/>
<path opacity="0.25" d="M119.84 120.307C113.64 113.047 110.04 101.347 110.47 92.8174C110.48 92.5974 110.5 92.3774 110.53 92.1574C109.57 93.7074 108.95 95.3774 108.75 97.0174C107.84 104.737 110.59 115.027 116.16 121.227C120.91 126.517 129.35 127.967 134.15 127.787C130.39 126.457 123.52 124.607 119.84 120.307Z" fill="white"/>
<path d="M137.421 127.947L160.841 178.007" stroke="#373814" stroke-width="0.5" stroke-linecap="round" stroke-linejoin="round"/>
<path d="M137.421 127.947C136.431 127.997 132.911 128.287 132.891 129.547C132.871 131.077 136.871 128.357 137.421 127.947ZM137.421 127.947C136.831 128.437 134.991 131.897 136.521 132.007C137.831 132.097 138.141 128.357 137.421 127.947Z" stroke="#373814" stroke-width="0.5" stroke-linecap="round" stroke-linejoin="round"/>
<path d="M136.421 128.007C136.421 128.007 138.161 128.167 139.741 127.907C140.491 127.787 138.361 128.467 136.421 128.007ZM136.421 128.007C136.421 128.007 138.521 128.777 139.691 128.427" stroke="#373814" stroke-width="0.5" stroke-linecap="round" stroke-linejoin="round"/>
<path d="M129.31 40.2474C125.22 38.0274 118.72 37.8074 112.76 39.6974C100.18 43.6774 94.7403 54.4974 98.2203 68.6474C100.23 76.8574 105.61 83.1174 113.35 86.2874C118.18 88.2574 123.46 88.7474 128.08 87.6974C128.15 88.4174 128.19 89.2274 128.63 89.4674C129.21 89.8574 131.04 88.8174 131.63 88.5174C131.5 87.8874 131.3 87.2874 130.98 86.7974C138.55 83.7274 142.47 76.0274 141.77 65.4074C141.16 56.1874 137.57 44.7474 129.31 40.2674V40.2474Z" fill="#B4DAFF"/>
<path d="M133.201 55.7674C133.771 54.8874 133.871 53.8474 133.481 52.8574C132.811 51.1474 131.471 50.4274 129.891 50.9274C129.141 51.1674 128.491 51.6574 128.231 52.1774C127.701 53.2374 128.161 54.6774 128.771 55.6674C129.511 56.8774 130.801 57.2974 131.861 56.9574C132.491 56.7574 132.801 56.3774 133.201 55.7574V55.7674Z" fill="#A5C9EB"/>
<path opacity="0.25" d="M111.661 79.4075C105.461 72.1475 101.861 60.4374 102.291 51.9174C102.301 51.6974 102.321 51.4774 102.351 51.2574C101.391 52.8074 100.771 54.4774 100.571 56.1174C99.6608 63.8374 102.411 74.1274 107.981 80.3274C112.731 85.6174 121.171 87.0674 125.971 86.8874C122.211 85.5574 115.341 83.7075 111.661 79.4075Z" fill="white"/>
<path d="M129.251 87.0574L160.841 178.007" stroke="#373814" stroke-width="0.5" stroke-linecap="round" stroke-linejoin="round"/>
<path d="M129.251 87.0574C128.261 87.1074 124.741 87.3974 124.721 88.6574C124.701 90.1874 128.701 87.4674 129.251 87.0574ZM129.251 87.0574C128.661 87.5474 126.821 91.0074 128.341 91.1174C129.651 91.2074 129.961 87.4674 129.251 87.0574Z" stroke="#373814" stroke-width="0.5" stroke-linecap="round" stroke-linejoin="round"/>
<path d="M128.241 87.1074C128.241 87.1074 129.981 87.2674 131.561 87.0074C132.311 86.8874 130.181 87.5674 128.241 87.1074ZM128.241 87.1074C128.241 87.1074 130.341 87.8774 131.511 87.5274" stroke="#373814" stroke-width="0.5" stroke-linecap="round" stroke-linejoin="round"/>
<path d="M216.981 86.7674C214.461 82.8474 208.861 79.5374 202.731 78.3274C189.791 75.7674 179.821 82.6474 176.071 96.7274C173.891 104.897 175.601 112.967 180.871 119.467C184.161 123.517 188.551 126.487 193.121 127.777C192.831 128.447 192.481 129.167 192.761 129.597C193.081 130.217 195.191 130.187 195.851 130.207C196.041 129.597 196.151 128.977 196.111 128.387C204.221 129.337 211.361 124.457 215.851 114.807C219.751 106.427 222.101 94.6674 217.001 86.7774L216.981 86.7674Z" fill="#1863AD"/>
<path d="M212.932 102.247C213.852 101.747 214.442 100.887 214.572 99.8374C214.812 98.0174 213.982 96.7474 212.352 96.4274C211.582 96.2774 210.772 96.3874 210.292 96.7274C209.322 97.3974 209.032 98.8874 209.082 100.037C209.142 101.457 210.082 102.437 211.172 102.657C211.812 102.787 212.282 102.607 212.922 102.257L212.932 102.247Z" fill="#ACACE2"/>
<path opacity="0.25" d="M182.691 112.637C180.741 103.287 183.211 91.2974 187.681 84.0274C187.801 83.8374 187.921 83.6574 188.051 83.4774C186.461 84.3774 185.121 85.5374 184.161 86.8874C179.661 93.2174 177.121 103.557 179.031 111.677C180.651 118.597 187.351 123.927 191.651 126.077C188.991 123.107 183.861 118.177 182.701 112.647L182.691 112.637Z" fill="white"/>
<path d="M194.681 127.947L160.841 178.007" stroke="#373814" stroke-width="0.5" stroke-linecap="round" stroke-linejoin="round"/>
<path d="M194.68 127.947C193.69 127.997 190.17 128.287 190.15 129.547C190.13 131.077 194.13 128.357 194.68 127.947ZM194.68 127.947C194.09 128.437 192.25 131.897 193.77 132.007C195.08 132.097 195.39 128.357 194.68 127.947Z" stroke="#373814" stroke-width="0.5" stroke-linecap="round" stroke-linejoin="round"/>
<path d="M193.671 128.007C193.671 128.007 195.411 128.167 196.991 127.907C197.741 127.787 195.611 128.467 193.671 128.007ZM193.671 128.007C193.671 128.007 195.771 128.777 196.941 128.427" stroke="#373814" stroke-width="0.5" stroke-linecap="round" stroke-linejoin="round"/>
<path d="M217.501 39.3374C214.791 35.5474 209.041 32.5174 202.851 31.6074C189.801 29.6874 180.181 37.0474 177.131 51.2974C175.351 59.5674 177.461 67.5474 183.041 73.7774C186.531 77.6674 191.061 80.4074 195.681 81.4774C195.431 82.1574 195.111 82.9074 195.411 83.3074C195.761 83.9074 197.861 83.7774 198.521 83.7674C198.681 83.1474 198.751 82.5174 198.691 81.9374C206.841 82.4874 213.731 77.2674 217.741 67.3974C221.221 58.8374 222.991 46.9774 217.511 39.3374H217.501Z" fill="#A5C9EB"/>
<path d="M216.981 50.8974C217.881 50.3474 218.421 49.4674 218.501 48.4074C218.651 46.5774 217.761 45.3474 216.121 45.1074C215.341 44.9874 214.541 45.1474 214.081 45.5074C213.151 46.2274 212.931 47.7174 213.041 48.8774C213.171 50.2874 214.161 51.2274 215.261 51.3874C215.911 51.4874 216.361 51.2774 216.991 50.8974H216.981Z" fill="#D0DAE4"/>
<path opacity="0.25" d="M184.521 66.8574C182.111 57.6174 183.991 45.5174 188.091 38.0374C188.201 37.8474 188.311 37.6574 188.431 37.4674C186.891 38.4474 185.601 39.6674 184.711 41.0674C180.521 47.6174 178.501 58.0674 180.801 66.0774C182.761 72.9074 189.721 77.9074 194.111 79.8374C191.311 76.9974 185.941 72.3374 184.511 66.8574H184.521Z" fill="white"/>
<path d="M196.351 81.2474L160.841 178.107" stroke="#373814" stroke-width="0.5" stroke-linecap="round" stroke-linejoin="round"/>
<path d="M196.35 81.2474C195.39 81.4874 191.99 82.4474 192.21 83.6974C192.48 85.1974 195.88 81.7674 196.35 81.2474ZM196.35 81.2474C195.87 81.8374 194.73 85.5974 196.25 85.4074C197.55 85.2474 197.14 81.5174 196.35 81.2474Z" stroke="#373814" stroke-width="0.5" stroke-linecap="round" stroke-linejoin="round"/>
<path d="M195.371 81.4974C195.371 81.4974 197.061 81.9074 198.671 81.8874C199.431 81.8774 197.221 82.2374 195.371 81.4974ZM195.371 81.4974C195.371 81.4974 197.331 82.5674 198.551 82.3974" stroke="#373814" stroke-width="0.5" stroke-linecap="round" stroke-linejoin="round"/>
<path d="M147.63 59.3874C144.73 56.1974 139.24 54.1474 133.63 54.1474C121.81 54.1474 114.24 62.3974 113.39 76.2074C112.89 84.2174 115.8 91.4274 121.56 96.5174C124.87 99.4374 128.84 101.317 132.75 101.887C132.47 102.687 132.26 103.447 132.73 103.997C133.5 104.767 136.32 104.127 137.22 103.867C137.02 103.257 136.92 102.617 136.76 101.997C143.92 101.267 149.24 95.4274 151.48 85.7374C153.45 77.2174 153.47 65.8174 147.62 59.3974L147.63 59.3874Z" fill="#1863AD"/>
<path opacity="0.25" d="M122.881 88.1674C120.321 80.2774 118.721 69.4574 121.901 62.7674C121.981 62.5974 122.071 62.4274 122.171 62.2574C120.881 63.1874 119.831 64.3074 119.131 65.5574C115.831 71.4474 117.221 80.8474 119.631 87.6674C121.681 93.4874 125.351 97.2474 129.261 98.6974C126.681 96.3774 124.411 92.8374 122.891 88.1574L122.881 88.1674Z" fill="white"/>
<path d="M146.381 68.4774C147.061 67.9074 147.411 67.0974 147.351 66.1974C147.251 64.6474 146.351 63.7274 144.951 63.7274C144.281 63.7274 143.631 63.9574 143.291 64.3174C142.591 65.0374 142.601 66.3174 142.831 67.2674C143.121 68.4274 144.061 69.0974 145.001 69.0974C145.551 69.0974 145.911 68.8674 146.391 68.4774H146.381Z" fill="#F4FAFF"/>
<path d="M195.451 63.0374C192.801 60.1274 187.771 58.2474 182.651 58.2474C171.841 58.2474 164.921 65.7874 164.141 78.4174C163.681 85.7474 166.341 92.3374 171.611 96.9874C175.171 100.127 178.491 101.957 182.591 102.067C182.401 102.497 182.171 102.937 182.171 103.417C182.811 103.547 183.451 103.487 184.091 103.487C184.091 103.017 184.011 102.517 183.911 102.037C190.781 101.577 196.871 96.1974 198.971 87.1274C200.771 79.3374 200.791 68.9174 195.441 63.0474L195.451 63.0374Z" fill="#B4DAFF"/>
<path d="M193.95 75.2874C195.13 75.2874 196.2 74.3974 196.56 72.8574C196.85 71.5874 196.86 69.8874 195.98 68.9374C195.55 68.4674 194.73 68.1574 193.9 68.1574C192.14 68.1574 191.01 69.3874 190.88 71.4474C190.81 72.6374 191.24 73.7174 192.1 74.4774C192.7 75.0074 193.25 75.3074 193.95 75.3074V75.2874Z" fill="#A5C9EB"/>
<path d="M183.681 102.197C184.511 102.397 187.481 103.187 187.301 104.267C187.081 105.577 184.091 102.637 183.681 102.197ZM183.681 102.197C184.101 102.707 185.141 105.947 183.821 105.807C182.691 105.687 183.001 102.437 183.681 102.197Z" stroke="#373814" stroke-width="0.5" stroke-linecap="round" stroke-linejoin="round"/>
<path d="M182.271 102.107C182.271 102.107 183.611 102.297 184.851 102.117C185.441 102.027 183.771 102.567 182.271 102.107ZM182.271 102.107C182.271 102.107 183.881 102.847 184.801 102.577" stroke="#373814" stroke-width="0.5" stroke-linecap="round" stroke-linejoin="round"/>
<path d="M183.531 102.377L160.841 178.107" stroke="#373814" stroke-width="0.5" stroke-linecap="round" stroke-linejoin="round"/>
<path opacity="0.25" d="M169.611 76.5974C170.481 84.4774 173.711 94.3274 180.191 98.3274C180.361 98.4274 180.531 98.5274 180.711 98.6274C178.911 98.4974 177.251 98.0774 175.931 97.3874C169.691 94.1074 166.881 85.5574 166.331 78.6374C165.861 72.7474 168.081 67.7674 171.621 64.5974C169.911 67.8274 169.091 71.9274 169.601 76.5974H169.611Z" fill="white"/>
<path d="M168.621 78.5274C165.171 74.8974 160.651 72.8074 156.211 72.8074C153.251 72.8074 143.391 73.9574 140.521 88.7974C138.811 97.6374 140.031 105.607 143.881 110.657C146.551 114.157 151.021 116.427 155.771 116.767C155.501 117.477 155.291 118.237 155.551 118.607C155.931 119.177 157.531 119.077 158.091 118.887C159.131 118.427 159.091 117.567 158.791 116.707C166.091 115.927 174.081 110.297 174.801 96.3374C175.161 89.4274 172.961 83.0974 168.611 78.5174L168.621 78.5274Z" fill="#B4DAFF"/>
<path opacity="0.25" d="M146.491 102.487C145.041 94.7374 145.031 84.3674 149.321 78.5274C149.431 78.3774 149.551 78.2274 149.671 78.0874C148.211 78.7774 146.951 79.6974 146.041 80.7674C141.751 85.8374 141.771 94.8474 143.211 101.577C144.441 107.317 147.651 111.347 151.461 113.247C149.161 110.717 147.341 107.077 146.491 102.487Z" fill="white"/>
<path d="M168.23 87.7874C168.86 86.9074 169.08 85.7574 168.85 84.5374C168.45 82.4374 167.3 81.3174 165.79 81.5174C165.07 81.6174 164.41 82.0274 164.11 82.5674C163.49 83.6474 163.74 85.3974 164.17 86.6674C164.7 88.2074 165.84 88.9874 166.86 88.8474C167.46 88.7674 167.8 88.3974 168.24 87.7874H168.23Z" fill="#D9ECFF"/>
<path d="M194.95 87.6874C192.53 84.4874 187.62 82.1174 182.42 81.6374C171.46 80.6374 163.75 87.6274 161.78 100.357C160.64 107.747 162.72 114.667 167.63 119.877C170.45 122.867 173.97 124.947 177.55 125.807C177.22 126.527 176.96 127.217 177.36 127.757C178.01 128.537 180.68 128.177 181.53 128.017C181.39 127.437 181.36 126.837 181.26 126.247C187.96 126.177 194.48 120.967 197.39 112.167C199.94 104.437 199.83 94.1374 194.95 87.6874Z" fill="#DFEAF3"/>
<path d="M192.391 94.9374C193.331 94.2974 193.861 93.3074 193.891 92.1574C193.941 90.1774 192.911 88.9074 191.121 88.7374C190.271 88.6574 189.421 88.8774 188.941 89.2874C187.971 90.1174 187.831 91.7374 188.011 92.9774C188.241 94.4874 189.351 95.4474 190.551 95.5574C191.251 95.6274 191.731 95.3774 192.381 94.9274L192.391 94.9374Z" fill="#D0DAE4"/>
<path opacity="0.25" d="M168.31 109.617C167.41 102.017 168.31 92.0574 173.53 86.8774C173.67 86.7474 173.81 86.6174 173.96 86.4874C172.29 87.0074 170.83 87.7574 169.73 88.6974C164.57 93.1374 163.8 101.797 164.79 108.407C165.64 114.047 168.81 118.237 172.82 120.457C170.51 117.797 168.85 114.117 168.31 109.617Z" fill="white"/>
<path d="M178.981 126.167C179.921 126.257 183.291 126.657 183.261 127.867C183.221 129.327 179.501 126.587 178.981 126.167ZM178.981 126.167C179.521 126.657 181.161 130.037 179.701 130.087C178.441 130.127 178.281 126.537 178.981 126.167Z" stroke="#373814" stroke-width="0.5" stroke-linecap="round" stroke-linejoin="round"/>
<path d="M177.48 125.867C177.48 125.867 179.45 126.307 181.3 126.327C182.18 126.327 179.63 126.627 177.48 125.867ZM177.48 125.867C177.48 125.867 179.77 126.947 181.17 126.817" stroke="#373814" stroke-width="0.5" stroke-linecap="round" stroke-linejoin="round"/>
<path d="M178.561 126.167L160.841 178.107" stroke="#373814" stroke-width="0.5" stroke-linecap="round" stroke-linejoin="round"/>
<path d="M157.431 116.897C158.261 116.707 161.281 116.097 161.591 117.147C161.971 118.417 157.991 117.107 157.431 116.897ZM157.431 116.897C158.031 117.167 160.401 119.617 159.151 120.067C158.081 120.457 156.921 117.407 157.431 116.897Z" stroke="#373814" stroke-width="0.5" stroke-linecap="round" stroke-linejoin="round"/>
<path d="M155.551 116.837C155.551 116.837 157.371 116.927 159.031 116.657C159.821 116.527 157.581 117.187 155.551 116.837ZM155.551 116.837C155.551 116.837 157.761 117.447 158.991 117.117" stroke="#373814" stroke-width="0.5" stroke-linecap="round" stroke-linejoin="round"/>
<path d="M157.381 117.527L160.841 178.107" stroke="#373814" stroke-width="0.5" stroke-linecap="round" stroke-linejoin="round"/>
<path d="M134.381 102.057C135.161 102.417 137.911 103.797 137.511 104.817C137.031 106.057 134.691 102.567 134.381 102.057ZM134.381 102.057C134.691 102.637 135.051 106.027 133.791 105.617C132.711 105.267 133.671 102.157 134.381 102.057Z" stroke="#373814" stroke-width="0.5" stroke-linecap="round" stroke-linejoin="round"/>
<path d="M132.511 102.007C132.511 102.007 134.841 102.227 136.991 102.077C138.011 102.007 135.091 102.497 132.511 102.007ZM132.511 102.007C132.511 102.007 135.291 102.777 136.901 102.537" stroke="#373814" stroke-width="0.5" stroke-linecap="round" stroke-linejoin="round"/>
<path d="M134.331 102.697L160.841 178.107" stroke="#373814" stroke-width="0.5" stroke-linecap="round" stroke-linejoin="round"/>
<path d="M158.501 241.497C156.871 225.957 157.961 209.327 159.731 198.287C161.501 187.247 160.841 178.107 160.841 178.107" stroke="#373814" stroke-width="0.5" stroke-linecap="round" stroke-linejoin="round"/>
<path d="M163.3 231.687C164.94 218.557 163.85 204.497 162.07 195.167C160.3 185.837 160.96 178.117 160.96 178.117" stroke="#373814" stroke-width="0.5" stroke-linecap="round" stroke-linejoin="round"/>
<path d="M161.871 241.497C162.531 225.957 163.731 209.327 163.011 198.287C162.131 184.807 160.721 184.947 160.921 178.107" stroke="#373814" stroke-width="0.5" stroke-linecap="round" stroke-linejoin="round"/>
<path d="M160.921 178.107C160.921 178.107 159.671 186.557 159.881 194.407C160.471 216.847 159.381 221.297 158.271 228.877" stroke="#373814" stroke-width="0.5" stroke-linecap="round" stroke-linejoin="round"/>
<path d="M159.93 231.687C159.27 218.557 159.71 204.497 160.43 195.167C161.15 185.837 160.88 178.117 160.88 178.117" stroke="#373814" stroke-width="0.5" stroke-linecap="round" stroke-linejoin="round"/>
<path d="M163.3 253.997C164.93 235.397 163.84 215.487 162.07 202.267C160.3 189.047 160.96 178.107 160.96 178.107" stroke="#373814" stroke-width="0.5" stroke-linecap="round" stroke-linejoin="round"/>
<path d="M158.501 242.247C156.861 226.527 157.951 209.697 159.731 198.527C161.501 187.357 160.841 178.107 160.841 178.107" stroke="#373814" stroke-width="0.5" stroke-linecap="round" stroke-linejoin="round"/>
<path d="M159.92 253.997C159.26 235.397 158.06 215.487 158.78 202.267C159.66 186.127 161.07 186.297 160.87 178.107" stroke="#373814" stroke-width="0.5" stroke-linecap="round" stroke-linejoin="round"/>
<path d="M160.87 178.107C160.87 178.107 162.12 188.227 161.91 197.627C161.32 224.487 162.41 229.827 163.52 238.897" stroke="#373814" stroke-width="0.5" stroke-linecap="round" stroke-linejoin="round"/>
<path d="M161.871 242.247C162.531 226.527 162.091 209.697 161.371 198.527C160.651 187.357 160.921 178.107 160.921 178.107" stroke="#373814" stroke-width="0.5" stroke-linecap="round" stroke-linejoin="round"/>
</g>
<g clip-path="url(#clip1_1910_4558)">
<path d="M74.2312 43.2036C75.9571 39.0668 80.6984 34.9682 86.3087 32.7828C98.1441 28.1557 108.766 32.9889 114.713 45.7007C118.174 53.0758 117.921 61.0216 114.03 68.0833C111.598 72.4841 107.932 76.0412 103.827 78.0492C104.218 78.6349 104.678 79.2649 104.476 79.7176C104.282 80.3573 102.28 80.6908 101.655 80.8219C101.376 80.2728 101.162 79.6987 101.104 79.1399C93.5749 81.4161 85.9757 78.0123 80.0792 69.622C74.9593 62.3472 70.7292 51.587 74.2273 43.2305L74.2312 43.2036Z" fill="#DFEAF3"/>
<path d="M77.2247 53.9524C76.2594 53.6288 75.5618 52.9237 75.2612 51.9449C74.7312 50.2591 75.2956 48.9084 76.7887 48.3303C77.4958 48.0528 78.2761 48.0334 78.7867 48.2646C79.8195 48.7423 80.3494 50.091 80.494 51.1988C80.6791 52.5533 79.9451 53.6458 78.9529 54.0408C78.3634 54.2663 77.8952 54.172 77.2247 53.9524Z" fill="#D0DAE4"/>
<path opacity="0.25" d="M111.141 61.9047C111.408 52.7085 107.02 41.7536 101.552 35.6195C101.409 35.4615 101.259 35.3093 101.108 35.1571C102.765 35.7446 104.238 36.6154 105.372 37.727C110.721 42.9633 114.88 52.344 114.451 60.3611C114.088 67.197 108.641 73.39 104.929 76.1628C106.944 72.893 110.976 67.3515 111.136 61.8969L111.141 61.9047Z" fill="white"/>
<path d="M101.892 78.3441L160.995 177.04" stroke="#373814" stroke-width="0.5" stroke-linecap="round" stroke-linejoin="round"/>
<path d="M101.891 78.3441C102.837 78.4173 106.228 78.7638 106.219 79.9872C106.207 81.465 102.417 78.7564 101.891 78.3441ZM101.891 78.3441C102.448 78.8296 104.148 82.2031 102.672 82.2745C101.41 82.3421 101.19 78.7257 101.891 78.3441Z" stroke="#373814" stroke-width="0.5" stroke-linecap="round" stroke-linejoin="round"/>
<path d="M102.852 78.4192C102.852 78.4192 101.31 79.0937 99.7903 79.3308C99.0658 79.4407 101.222 79.4251 102.852 78.4192ZM102.852 78.4192C102.852 78.4192 101.16 79.7603 99.9849 79.799" stroke="#373814" stroke-width="0.5" stroke-linecap="round" stroke-linejoin="round"/>
<path d="M39.7344 73.4406C40.2061 68.9802 43.5812 63.7027 48.334 60.0049C58.3657 52.2027 69.9164 53.8105 79.2426 64.3005C84.6495 70.3846 86.6829 78.072 84.9534 85.9446C83.873 90.8617 81.3802 95.3087 78.0146 98.3995C78.5483 98.8541 79.1687 99.328 79.1071 99.8078C79.0937 100.48 77.275 101.363 76.7085 101.667C76.2827 101.228 75.9204 100.729 75.6988 100.209C69.1292 104.535 60.8712 103.432 52.8343 97.0685C45.8534 91.551 38.7391 82.4364 39.7075 73.4367L39.7344 73.4406Z" fill="#1863AD"/>
<path d="M45.6518 82.8867C44.6384 82.8521 43.7578 82.3686 43.1913 81.517C42.2028 80.0547 42.3626 78.5981 43.6245 77.6154C44.214 77.1491 44.9712 76.9062 45.5241 76.9852C46.6494 77.1527 47.5396 78.2913 47.9982 79.3201C48.5571 80.5628 48.1777 81.8229 47.3338 82.48C46.831 82.8692 46.357 82.9116 45.6518 82.8867Z" fill="#528AC2"/>
<path opacity="0.25" d="M80.4347 80.8682C78.0717 71.9709 70.7494 62.7233 63.7628 58.4024C63.5797 58.2868 63.3948 58.1847 63.2098 58.0826C64.965 58.1749 66.6259 58.5909 68.0344 59.3287C74.6491 62.8328 81.3104 70.6373 83.1762 78.4383C84.7721 85.093 81.3143 92.5882 78.5421 96.2935C79.5533 92.5845 81.8378 86.126 80.4289 80.8605L80.4347 80.8682Z" fill="white"/>
<path d="M76.2416 99.2474L160.995 177.04" stroke="#373814" stroke-width="0.5" stroke-linecap="round" stroke-linejoin="round"/>
<path d="M76.2413 99.2474C77.1718 99.0431 80.5223 98.4204 80.8577 99.5899C81.2682 101.004 76.8598 99.494 76.2413 99.2474ZM76.2413 99.2474C76.9137 99.5498 79.4996 102.307 78.1086 102.796C76.914 103.211 75.6787 99.8139 76.2413 99.2474Z" stroke="#373814" stroke-width="0.5" stroke-linecap="round" stroke-linejoin="round"/>
<path d="M77.1856 99.045C77.1856 99.045 75.8967 100.12 74.5076 100.789C73.8429 101.107 75.9083 100.473 77.1856 99.045ZM77.1856 99.045C77.1856 99.045 75.9565 100.81 74.8294 101.186" stroke="#373814" stroke-width="0.5" stroke-linecap="round" stroke-linejoin="round"/>
<path d="M27.4493 130.767C26.4721 126.719 27.7759 121.056 30.7677 116.343C37.0941 106.395 47.683 104.184 59.1071 110.439C65.7391 114.063 69.9071 120.149 70.8654 127.559C71.4573 132.185 70.6677 136.848 68.6932 140.605C69.3002 140.836 69.9919 141.052 70.094 141.493C70.2925 142.079 68.9786 143.425 68.5856 143.865C68.0712 143.612 67.6068 143.298 67.2503 142.903C62.8599 148.738 55.3093 150.344 46.2959 147.302C38.4771 144.665 29.4153 138.926 27.4493 130.767Z" fill="#A5C9EB"/>
<path d="M35.5791 137.157C34.6851 137.442 33.7699 137.298 32.9972 136.733C31.6696 135.766 31.3632 134.443 32.1607 133.194C32.5344 132.601 33.1143 132.154 33.6249 132.048C34.6595 131.838 35.7944 132.564 36.5132 133.313C37.388 134.223 37.4478 135.442 36.9219 136.282C36.604 136.774 36.2052 136.964 35.5848 137.165L35.5791 137.157Z" fill="#A5C9EB"/>
<path opacity="0.25" d="M65.3122 124.523C60.4659 117.5 51.1863 111.696 43.726 110.115C43.5333 110.067 43.3368 110.046 43.1422 110.011C44.7028 109.539 46.2865 109.387 47.7431 109.594C54.6138 110.582 62.8625 115.317 66.94 121.556C70.4201 126.869 69.731 134.491 68.4771 138.599C68.1936 135.042 68.1718 128.688 65.3045 124.529L65.3122 124.523Z" fill="white"/>
<path d="M67.3947 141.892L160.995 177.04" stroke="#373814" stroke-width="0.5" stroke-linecap="round" stroke-linejoin="round"/>
<path d="M67.3946 141.892C68.1421 141.428 70.8683 139.828 71.535 140.749C72.3327 141.861 68.0169 141.919 67.3946 141.892ZM67.3946 141.892C68.0747 141.948 71.1903 143.549 70.1327 144.402C69.2291 145.14 67.0787 142.562 67.3946 141.892Z" stroke="#373814" stroke-width="0.5" stroke-linecap="round" stroke-linejoin="round"/>
<path d="M68.1709 141.418C68.1709 141.418 67.3868 142.765 66.3754 143.776C65.8938 144.258 67.5025 143.063 68.1709 141.418ZM68.1709 141.418C68.1709 141.418 67.6412 143.345 66.7878 144.021" stroke="#373814" stroke-width="0.5" stroke-linecap="round" stroke-linejoin="round"/>
<path d="M127.774 40.7325C130.248 37.3837 135.421 34.7436 140.962 34.0071C152.655 32.4493 161.153 39.1534 163.707 51.9176C165.189 59.3199 163.211 66.4277 158.146 71.925C154.987 75.3549 150.902 77.7443 146.762 78.6464C146.978 79.2552 147.253 79.9276 146.982 80.2879C146.658 80.8197 144.785 80.6831 144.197 80.6543C144.063 80.1052 144.007 79.5329 144.074 79.0127C136.787 79.3968 130.695 74.6461 127.231 65.7913C124.229 58.0963 122.793 47.4803 127.79 40.721L127.774 40.7325Z" fill="#1863AD"/>
<path d="M128.101 51.0731C127.305 50.5742 126.827 49.7766 126.769 48.8325C126.665 47.2006 127.474 46.1119 128.94 45.9153C129.636 45.815 130.349 45.9787 130.757 46.2985C131.578 46.9593 131.759 48.2926 131.64 49.3214C131.501 50.5815 130.606 51.4101 129.631 51.5392C129.049 51.6144 128.642 51.4257 128.093 51.0789L128.101 51.0731Z" fill="#ACACE2"/>
<path opacity="0.25" d="M156.897 65.7327C159.165 57.5035 157.637 46.6679 154.062 39.944C153.969 39.7726 153.863 39.5992 153.771 39.4277C155.137 40.3177 156.272 41.4293 157.049 42.6893C160.706 48.5924 162.383 57.956 160.224 65.0793C158.386 71.1543 152.112 75.5362 148.156 77.2147C150.701 74.7156 155.546 70.6112 156.902 65.7404L156.897 65.7327Z" fill="white"/>
<path d="M145.392 78.3614L160.995 177.04" stroke="#373814" stroke-width="0.5" stroke-linecap="round" stroke-linejoin="round"/>
<path d="M145.392 78.3614C146.155 78.8006 148.858 80.4458 148.369 81.4631C147.774 82.6924 145.677 78.9182 145.392 78.3614ZM145.392 78.3614C145.667 78.9856 145.731 82.4903 144.479 81.9606C143.394 81.5098 144.65 78.4 145.392 78.3614Z" stroke="#373814" stroke-width="0.5" stroke-linecap="round" stroke-linejoin="round"/>
<path d="M146.175 78.8102C146.175 78.8102 144.62 78.7603 143.24 78.35C142.587 78.1535 144.406 79.005 146.175 78.8102ZM146.175 78.8102C146.175 78.8102 144.225 79.2613 143.221 78.8221" stroke="#373814" stroke-width="0.5" stroke-linecap="round" stroke-linejoin="round"/>
<path d="M71.1492 75.5378C71.6325 71.6709 74.6532 67.1409 78.8377 64.0019C87.6691 57.3771 97.6765 58.9503 105.617 68.2036C110.225 73.5748 111.869 80.2777 110.249 87.0926C109.236 91.3449 106.997 95.1677 104.034 97.7998C104.493 98.2025 105.025 98.6224 104.965 99.0405C104.944 99.6224 103.345 100.364 102.861 100.619C102.497 100.23 102.195 99.7941 102.006 99.3337C96.2336 102.989 89.0873 101.907 82.2008 96.2585C76.2256 91.3595 70.1866 83.3411 71.1627 75.5397L71.1492 75.5378Z" fill="#A5C9EB"/>
<path d="M77.5008 83.4907C76.6261 83.4484 75.8689 83.0169 75.3833 82.2732C74.5412 80.9901 74.7087 79.7204 75.8184 78.8879C76.3424 78.4948 76.9975 78.2925 77.483 78.3618C78.458 78.5216 79.2152 79.5311 79.5968 80.4251C80.0613 81.5098 79.7126 82.6023 78.9728 83.1572C78.5336 83.4867 78.1232 83.5176 77.5085 83.4849L77.5008 83.4907Z" fill="#A5C9EB"/>
<path opacity="0.25" d="M106.39 82.6056C104.47 74.845 98.2557 66.7053 92.2556 62.8485C92.0976 62.7503 91.9396 62.6521 91.7739 62.5596C93.2998 62.6673 94.7314 63.0506 95.9434 63.7191C101.639 66.8649 107.298 73.735 108.81 80.5496C110.093 86.3546 106.984 92.8055 104.52 95.9906C105.452 92.7864 107.535 87.2142 106.396 82.6133L106.39 82.6056Z" fill="white"/>
<path d="M103.385 98.2026L160.995 177.04" stroke="#373814" stroke-width="0.5" stroke-linecap="round" stroke-linejoin="round"/>
<path d="M103.385 98.2026C104.048 97.7054 106.46 95.9924 107.15 96.7996C107.988 97.7725 103.961 98.1678 103.385 98.2026ZM103.385 98.2026C104.025 98.2044 107.069 99.4373 106.144 100.324C105.354 101.085 103.14 98.8557 103.385 98.2026Z" stroke="#373814" stroke-width="0.5" stroke-linecap="round" stroke-linejoin="round"/>
<path d="M104.063 97.6939C104.063 97.6939 103.035 98.7305 101.879 99.405C101.33 99.7326 103.067 99.0311 104.063 97.6939ZM104.063 97.6939C104.063 97.6939 103.129 99.322 102.191 99.7248" stroke="#373814" stroke-width="0.5" stroke-linecap="round" stroke-linejoin="round"/>
<path d="M122.94 88.8081C124.809 84.733 129.691 80.8059 135.376 78.817C147.372 74.6118 157.819 79.8053 163.317 92.7214C166.514 100.21 165.987 108.144 161.847 115.067C159.264 119.378 155.478 122.808 151.305 124.662C151.667 125.257 152.104 125.904 151.904 126.343C151.683 126.979 149.671 127.236 149.043 127.346C148.779 126.785 148.586 126.207 148.55 125.644C140.941 127.655 133.469 123.987 127.869 115.398C123.01 107.94 119.163 97.049 122.938 88.8216L122.94 88.8081Z" fill="#A5C9EB"/>
<path d="M128.913 103.031C127.965 102.682 127.286 101.938 127.015 100.95C126.535 99.2505 127.159 97.9153 128.666 97.3872C129.382 97.1386 130.166 97.1405 130.667 97.3909C131.689 97.9014 132.167 99.277 132.276 100.387C132.406 101.747 131.654 102.816 130.641 103.167C130.048 103.371 129.581 103.264 128.915 103.017L128.913 103.031Z" fill="#D0DAE4"/>
<path opacity="0.25" d="M159.178 108.796C159.759 99.6174 155.769 88.52 150.507 82.1951C150.372 82.0313 150.23 81.8733 150.079 81.7211C151.715 82.3607 153.158 83.2892 154.26 84.4374C159.425 89.8606 163.254 99.3801 162.545 107.378C161.943 114.2 156.277 120.197 152.474 122.833C154.603 119.634 158.828 114.237 159.178 108.796Z" fill="white"/>
<path d="M150.046 124.847L160.937 176.963" stroke="#373814" stroke-width="0.5" stroke-linecap="round" stroke-linejoin="round"/>
<path d="M150.046 124.847C150.838 124.313 153.718 122.501 154.462 123.461C155.362 124.628 150.707 124.845 150.046 124.847ZM150.046 124.847C150.784 124.883 154.202 126.486 153.087 127.455C152.129 128.282 149.728 125.579 150.046 124.847Z" stroke="#373814" stroke-width="0.5" stroke-linecap="round" stroke-linejoin="round"/>
<path d="M150.851 124.315C150.851 124.315 149.603 125.444 148.235 126.157C147.588 126.498 149.622 125.791 150.851 124.315ZM150.851 124.315C150.851 124.315 149.678 126.122 148.574 126.529" stroke="#373814" stroke-width="0.5" stroke-linecap="round" stroke-linejoin="round"/>
<path d="M105.599 52.5741C107.467 48.499 112.349 44.5719 118.035 42.583C130.03 38.3779 140.477 43.5713 145.975 56.4875C149.172 63.9763 148.645 71.9105 144.513 78.8277C141.929 83.138 138.144 86.5679 133.976 88.4295C134.339 89.0248 134.776 89.6721 134.576 90.1114C134.354 90.7473 132.343 91.0037 131.715 91.1136C131.451 90.5529 131.258 89.9749 131.221 89.4123C123.613 91.4226 116.141 87.7548 110.541 79.1661C105.681 71.7082 101.835 60.8169 105.61 52.5896L105.599 52.5741Z" fill="#B4DAFF"/>
<path d="M111.573 66.7831C110.625 66.4344 109.947 65.6908 109.675 64.7024C109.203 62.9973 109.819 61.6678 111.326 61.1398C112.043 60.8911 112.827 60.893 113.328 61.1434C114.349 61.6539 114.827 63.0295 114.929 64.1451C115.058 65.5053 114.307 66.5747 113.294 66.9255C112.693 67.1355 112.234 67.0219 111.567 66.7753L111.573 66.7831Z" fill="#A5C9EB"/>
<path opacity="0.25" d="M141.838 72.5489C142.419 63.37 138.424 52.2648 133.167 45.9476C133.032 45.7839 132.89 45.6259 132.739 45.4737C134.375 46.1132 135.818 47.0418 136.921 48.19C142.085 53.6132 145.914 63.1327 145.206 71.1305C144.603 77.953 138.937 83.9494 135.134 86.5855C137.263 83.387 141.488 77.9899 141.838 72.5489Z" fill="white"/>
<path d="M132.704 88.6126L160.936 176.963" stroke="#373814" stroke-width="0.5" stroke-linecap="round" stroke-linejoin="round"/>
<path d="M132.704 88.6126C133.496 88.0789 136.376 86.2675 137.12 87.2269C138.02 88.3944 133.365 88.6106 132.704 88.6126ZM132.704 88.6126C133.442 88.6492 136.86 90.2519 135.753 91.2153C134.795 92.042 132.394 89.339 132.704 88.6126Z" stroke="#373814" stroke-width="0.5" stroke-linecap="round" stroke-linejoin="round"/>
<path d="M133.511 88.0673C133.511 88.0673 132.263 89.1965 130.895 89.9095C130.248 90.2506 132.282 89.5433 133.511 88.0673ZM133.511 88.0673C133.511 88.0673 132.338 89.8747 131.234 90.2813" stroke="#373814" stroke-width="0.5" stroke-linecap="round" stroke-linejoin="round"/>
<path d="M64.9304 139.104C64.6063 134.627 67.0084 128.839 71.0329 124.362C79.5249 114.909 91.1853 114.448 102.215 123.13C108.617 128.166 111.965 135.374 111.661 143.429C111.467 148.452 109.801 153.279 107.025 156.915C107.636 157.263 108.321 157.616 108.354 158.109C108.466 158.772 106.823 159.969 106.326 160.366C105.827 160.005 105.383 159.591 105.073 159.113C99.3726 164.534 91.0492 164.9 82.0106 160.059C74.1608 155.856 65.5516 148.152 64.9208 139.123L64.9304 139.104Z" fill="#1863AD"/>
<path d="M77.0006 148.692C76.0026 148.839 75.0508 148.517 74.3436 147.783C73.1066 146.519 73.012 145.061 74.0832 143.872C74.5898 143.311 75.2776 142.928 75.8441 142.912C76.9789 142.868 78.0637 143.849 78.69 144.764C79.4646 145.893 79.3068 147.191 78.594 147.991C78.1759 148.461 77.7097 148.594 77.0141 148.694L77.0006 148.692Z" fill="#ACACE2"/>
<path opacity="0.25" d="M106.31 139.218C102.408 130.885 93.5732 123.073 85.9258 120.055C85.7235 119.978 85.527 119.909 85.3227 119.845C87.0683 119.619 88.7715 119.739 90.2917 120.224C97.4188 122.501 105.354 129.001 108.576 136.362C111.328 142.632 109.246 150.612 107.175 154.755C107.508 150.928 108.611 144.164 106.308 139.231L106.31 139.218Z" fill="white"/>
<path d="M105.92 157.948L160.937 176.963" stroke="#373814" stroke-width="0.5" stroke-linecap="round" stroke-linejoin="round"/>
<path d="M105.92 157.948C106.712 157.414 109.592 155.602 110.336 156.562C111.236 157.729 106.581 157.946 105.92 157.948ZM105.92 157.948C106.658 157.984 110.076 159.587 108.968 160.55C108.011 161.377 105.61 158.674 105.92 157.948Z" stroke="#373814" stroke-width="0.5" stroke-linecap="round" stroke-linejoin="round"/>
<path d="M106.733 157.41C106.733 157.41 105.485 158.539 104.117 159.252C103.47 159.593 105.504 158.886 106.733 157.41ZM106.733 157.41C106.733 157.41 105.56 159.217 104.456 159.624" stroke="#373814" stroke-width="0.5" stroke-linecap="round" stroke-linejoin="round"/>
<path d="M37.1111 102.854C37.0085 98.3666 39.6881 92.7076 43.9322 88.428C52.879 79.4044 64.5471 79.5151 75.1352 88.7335C81.2877 94.0776 84.2747 101.447 83.5761 109.474C83.1353 114.489 81.2283 119.219 78.2866 122.714C78.8723 123.094 79.5525 123.487 79.5525 123.969C79.6296 124.633 77.9362 125.747 77.4218 126.121C76.9401 125.736 76.5219 125.291 76.2329 124.809C70.2702 129.944 61.943 129.904 53.1471 124.616C45.5169 120.032 37.2968 111.915 37.1033 102.86L37.1111 102.854Z" fill="#A5C9EB"/>
<path d="M44.1945 111.462C43.1829 111.558 42.2581 111.192 41.5837 110.422C40.4102 109.098 40.385 107.636 41.5101 106.503C42.0418 105.959 42.7508 105.62 43.3134 105.632C44.4463 105.649 45.4772 106.67 46.063 107.627C46.7779 108.789 46.5584 110.086 45.8032 110.845C45.3601 111.298 44.8919 111.396 44.1867 111.468L44.1945 111.462Z" fill="#D0DAE4"/>
<path opacity="0.25" d="M78.4352 104.996C74.9509 96.4827 66.5073 88.2449 59.0237 84.8507C58.8291 84.7679 58.6345 84.685 58.4322 84.608C60.1855 84.4729 61.8849 84.6674 63.38 85.2318C70.3954 87.8572 77.993 94.7426 80.851 102.245C83.2889 108.641 80.8157 116.518 78.5483 120.543C79.0643 116.736 80.5088 110.04 78.4429 104.991L78.4352 104.996Z" fill="white"/>
<path d="M77.6379 122.925L160.996 177.04" stroke="#373814" stroke-width="0.5" stroke-linecap="round" stroke-linejoin="round"/>
<path d="M77.6377 122.925C78.5162 122.555 81.6913 121.329 82.2444 122.419C82.9034 123.731 78.3005 123.054 77.6377 122.925ZM77.6377 122.925C78.3486 123.102 81.4007 125.34 80.1196 126.073C79.0252 126.701 77.1849 123.589 77.6377 122.925Z" stroke="#373814" stroke-width="0.5" stroke-linecap="round" stroke-linejoin="round"/>
<path d="M78.5381 122.551C78.5381 122.551 77.4727 123.844 76.2205 124.759C75.629 125.191 77.5402 124.19 78.5381 122.551ZM78.5381 122.551C78.5381 122.551 77.6462 124.508 76.6078 125.083" stroke="#373814" stroke-width="0.5" stroke-linecap="round" stroke-linejoin="round"/>
<path d="M102.546 77.9144C102.936 73.7797 105.982 69.0262 110.305 65.7832C119.414 58.9503 130.017 60.9319 138.655 71.0829C143.671 76.9666 145.596 84.2051 144.1 91.4573C143.237 95.621 141.265 99.3648 138.581 102.064C139.259 102.519 139.86 102.983 139.816 103.679C139.668 104.717 137.125 105.854 136.281 106.174C136.082 105.589 135.789 105.037 135.554 104.467C129.615 108.044 122.139 106.619 114.811 100.446C108.368 95.0192 101.762 86.2456 102.559 77.9164L102.546 77.9144Z" fill="#1863AD"/>
<path opacity="0.25" d="M138.256 85.7856C135.668 78.2255 130.646 68.9623 124.328 65.6451C124.168 65.5604 124 65.4814 123.825 65.4082C125.357 65.3791 126.813 65.6353 128.075 66.1939C134.023 68.8252 138.386 76.8727 140.472 83.5216C142.256 89.1917 141.602 94.2108 139.427 97.5885C140.074 94.3092 139.777 90.2689 138.243 85.7837L138.256 85.7856Z" fill="white"/>
<path d="M108.763 84.1969C107.91 84.1507 107.172 83.7288 106.698 83.0006C105.879 81.7483 106.041 80.519 107.12 79.7097C107.636 79.3224 108.27 79.1239 108.74 79.2048C109.696 79.355 110.428 80.3471 110.8 81.2122C111.247 82.2738 110.91 83.3335 110.185 83.8769C109.762 84.1948 109.351 84.2257 108.756 84.2026L108.763 84.1969Z" fill="#528AC2"/>
<path d="M67.8034 108.371C68.1633 104.597 70.9528 100.24 74.8984 97.2803C83.2289 91.0313 92.9204 92.8415 100.823 102.124C105.415 107.506 107.174 114.123 105.801 120.752C104.873 125.23 103.372 128.56 100.276 131.015C100.671 131.236 101.103 131.442 101.38 131.812C100.962 132.282 100.434 132.606 99.9411 132.976C99.6694 132.614 99.4421 132.182 99.2416 131.755C93.6815 135.372 85.8783 134.746 79.0168 128.97C73.1264 124.008 67.0874 115.989 67.8169 108.373L67.8034 108.371Z" fill="#B4DAFF"/>
<path d="M76.0412 116.944C75.1319 117.626 73.7928 117.559 72.6251 116.58C71.6675 115.769 70.6771 114.465 70.806 113.224C70.8657 112.613 71.3184 111.9 71.958 111.421C73.3143 110.403 74.8962 110.698 76.1872 112.21C76.9291 113.087 77.222 114.168 76.9986 115.251C76.8426 116.006 76.5922 116.555 76.0528 116.96L76.0412 116.944Z" fill="#A5C9EB"/>
<path d="M99.5112 131.745C98.9872 132.379 97.1551 134.705 97.9181 135.433C98.845 136.315 99.4496 132.321 99.5112 131.745ZM99.5112 131.745C99.4823 132.381 100.554 135.479 101.49 134.608C102.292 133.862 100.174 131.537 99.5112 131.745Z" stroke="#373814" stroke-width="0.5" stroke-linecap="round" stroke-linejoin="round"/>
<path d="M100.546 130.86C100.546 130.86 99.6233 131.782 98.5636 132.36C98.057 132.631 99.6561 132.082 100.546 130.86ZM100.546 130.86C100.546 130.86 99.7332 132.361 98.8681 132.685" stroke="#373814" stroke-width="0.5" stroke-linecap="round" stroke-linejoin="round"/>
<path d="M99.7312 131.797L160.995 177.04" stroke="#373814" stroke-width="0.5" stroke-linecap="round" stroke-linejoin="round"/>
<path opacity="0.25" d="M95.5555 103.883C99.4403 110.459 102.645 119.917 99.9639 126.745C99.8907 126.92 99.8175 127.096 99.7366 127.277C101.049 126.136 102.085 124.853 102.703 123.558C105.616 117.423 102.839 109.21 99.2624 103.559C96.2197 98.7485 91.6301 96.1941 87.0695 95.7976C90.2545 97.2982 93.2565 99.9838 95.5632 103.877L95.5555 103.883Z" fill="white"/>
<path d="M97.4345 104.798C97.9947 100.006 100.27 95.7829 103.691 93.2162C105.972 91.5051 114.236 86.6914 125.026 96.4685C131.454 102.292 135.121 109.14 135.074 115.257C135.039 119.497 132.907 123.831 129.443 126.839C130.061 127.23 130.663 127.694 130.676 128.13C130.713 128.788 129.422 129.636 128.881 129.814C127.813 130.06 127.347 129.374 127.081 128.538C121.004 132.157 111.593 132.437 102.968 122.096C98.6957 116.979 96.7318 110.829 97.4364 104.785L97.4345 104.798Z" fill="#B4DAFF"/>
<path opacity="0.25" d="M128.34 110.47C124.977 103.659 118.99 95.6617 112.308 93.6412C112.136 93.5892 111.957 93.543 111.784 93.5045C113.308 93.1922 114.811 93.1728 116.13 93.4713C122.367 94.8985 127.56 101.853 130.341 107.872C132.712 113.007 132.567 117.968 130.73 121.635C131.04 118.355 130.338 114.498 128.34 110.47Z" fill="white"/>
<path d="M103.088 111.709C102.094 111.395 101.26 110.636 100.732 109.563C99.8259 107.713 100.065 106.185 101.344 105.466C101.957 105.127 102.702 105.062 103.246 105.304C104.348 105.778 105.167 107.271 105.569 108.499C106.051 109.992 105.624 111.252 104.757 111.734C104.248 112.019 103.772 111.93 103.08 111.715L103.088 111.709Z" fill="#D9ECFF"/>
<path d="M82.4388 127.078C82.4539 123.213 84.8676 118.548 88.5974 115.172C96.4654 108.066 106.448 108.996 115.325 117.667C120.475 122.703 122.873 129.238 122.101 136.091C121.656 140.026 120.146 143.664 117.884 146.396C118.555 146.76 119.154 147.141 119.158 147.789C119.108 148.766 116.842 150.032 116.095 150.4C115.867 149.872 115.544 149.392 115.28 148.88C110.076 152.699 102.04 152.453 94.7099 147.354C88.2763 142.871 82.4068 134.87 82.4388 127.078Z" fill="#DFEAF3"/>
<path d="M88.6028 131.185C87.5085 131.235 86.5277 130.779 85.8398 129.91C84.6567 128.413 84.7163 126.839 85.9974 125.673C86.6062 125.12 87.3884 124.798 87.9954 124.837C89.2227 124.916 90.2671 126.083 90.8452 127.143C91.5408 128.439 91.2404 129.821 90.3792 130.599C89.8802 131.058 89.3658 131.143 88.6048 131.172L88.6028 131.185Z" fill="#D0DAE4"/>
<path opacity="0.25" d="M115.646 128.578C111.946 122.201 105.495 115.046 98.4776 114.071C98.2946 114.052 98.1116 114.033 97.9208 114.019C99.5084 113.455 101.067 113.189 102.458 113.277C109.001 113.716 114.601 119.944 117.659 125.611C120.264 130.448 120.244 135.51 118.437 139.539C118.679 136.153 117.831 132.358 115.646 128.578Z" fill="white"/>
<path d="M116.991 147.5C116.318 148.113 113.953 150.369 114.675 151.284C115.55 152.386 116.833 148.124 116.991 147.5ZM116.991 147.5C116.858 148.19 117.548 151.742 118.702 150.937C119.696 150.239 117.744 147.38 116.991 147.5Z" stroke="#373814" stroke-width="0.5" stroke-linecap="round" stroke-linejoin="round"/>
<path d="M117.973 146.402C117.973 146.402 116.709 147.88 115.295 148.964C114.617 149.473 116.755 148.23 117.973 146.402ZM117.973 146.402C117.973 146.402 116.832 148.558 115.678 149.267" stroke="#373814" stroke-width="0.5" stroke-linecap="round" stroke-linejoin="round"/>
<path d="M117.314 147.257L160.995 177.04" stroke="#373814" stroke-width="0.5" stroke-linecap="round" stroke-linejoin="round"/>
<path d="M128.238 127.899C127.489 128.232 124.809 129.508 125.177 130.496C125.618 131.694 127.928 128.384 128.238 127.899ZM128.238 127.899C127.932 128.453 127.522 131.712 128.745 131.336C129.795 131.018 128.926 127.997 128.238 127.899Z" stroke="#373814" stroke-width="0.5" stroke-linecap="round" stroke-linejoin="round"/>
<path d="M129.652 126.766C129.652 126.766 128.302 127.887 126.866 128.639C126.182 128.995 128.29 128.209 129.652 126.766ZM129.652 126.766C129.652 126.766 128.302 128.513 127.163 128.97" stroke="#373814" stroke-width="0.5" stroke-linecap="round" stroke-linejoin="round"/>
<path d="M128.641 128.355L160.994 177.04" stroke="#373814" stroke-width="0.5" stroke-linecap="round" stroke-linejoin="round"/>
<path d="M137.422 103.138C137.029 103.866 135.708 106.519 136.606 107.074C137.693 107.752 137.478 103.71 137.422 103.138ZM137.422 103.138C137.519 103.764 139.201 106.584 139.935 105.54C140.565 104.646 138.027 102.804 137.422 103.138Z" stroke="#373814" stroke-width="0.5" stroke-linecap="round" stroke-linejoin="round"/>
<path d="M138.835 102.018C138.835 102.018 137.167 103.535 135.423 104.662C134.596 105.198 137.13 103.887 138.835 102.018ZM138.835 102.018C138.835 102.018 137.138 104.219 135.758 104.964" stroke="#373814" stroke-width="0.5" stroke-linecap="round" stroke-linejoin="round"/>
<path d="M137.831 103.602L160.995 177.04" stroke="#373814" stroke-width="0.5" stroke-linecap="round" stroke-linejoin="round"/>
</g>
<g clip-path="url(#clip2_1910_4558)">
<path d="M276.251 67.0716C280.633 68.0151 285.526 71.9304 288.697 77.0488C295.403 87.8433 292.586 99.1683 281.17 107.331C274.548 112.078 266.689 113.276 259.037 110.736C254.267 109.147 250.102 106.19 247.379 102.519C246.875 103.011 246.339 103.578 245.857 103.462C245.193 103.387 244.5 101.479 244.258 100.89C244.747 100.515 245.272 100.2 245.811 100.041C242.201 93.0524 244.164 84.9603 251.34 77.6341C257.56 71.2747 267.37 65.1553 276.224 67.0727L276.251 67.0716Z" fill="#DFEAF3"/>
<path d="M266.228 71.9726C266.37 70.9645 266.936 70.1502 267.844 69.6763C269.405 68.8481 270.836 69.157 271.676 70.5198C272.078 71.1645 272.239 71.9283 272.105 72.4724C271.823 73.5749 270.594 74.3417 269.531 74.6857C268.232 75.1144 267.025 74.5917 266.455 73.6881C266.126 73.1495 266.134 72.6719 266.228 71.9726Z" fill="#D0DAE4"/>
<path opacity="0.25" d="M264.586 106.77C273.677 105.358 283.649 99.0474 288.684 92.553C288.814 92.384 288.936 92.2085 289.058 92.033C288.782 93.7693 288.194 95.3753 287.308 96.6938C283.134 102.907 274.668 108.705 266.706 109.744C259.919 110.631 252.837 106.404 249.434 103.259C253.017 104.645 259.2 107.6 264.592 106.763L264.586 106.77Z" fill="white"/>
<path d="M246.737 100.671L160.459 176.763" stroke="#373814" stroke-width="0.5" stroke-linecap="round" stroke-linejoin="round"/>
<path d="M246.737 100.671C246.838 101.614 247.115 105.012 245.91 105.225C244.455 105.483 246.428 101.263 246.737 100.671ZM246.737 100.671C246.361 101.307 243.354 103.593 243.015 102.155C242.719 100.926 246.235 100.051 246.737 100.671Z" stroke="#373814" stroke-width="0.5" stroke-linecap="round" stroke-linejoin="round"/>
<path d="M246.838 101.628C246.838 101.628 245.895 100.235 245.384 98.7839C245.144 98.0916 245.553 100.209 246.838 101.628ZM246.838 101.628C246.838 101.628 245.212 100.209 244.96 99.0606" stroke="#373814" stroke-width="0.5" stroke-linecap="round" stroke-linejoin="round"/>
<path d="M240.236 38.6598C244.707 38.3111 250.511 40.6683 255.013 44.6681C264.512 53.1107 265.035 64.761 256.42 75.8421C251.422 82.2667 244.234 85.6664 236.178 85.4C231.146 85.2333 226.32 83.5923 222.667 80.8459C222.318 81.4536 221.965 82.15 221.482 82.1768C220.818 82.2861 219.619 80.6585 219.216 80.157C219.571 79.6583 219.995 79.2112 220.466 78.8985C215.016 73.2268 214.597 64.9061 219.389 55.8446C223.543 47.9753 231.209 39.3198 240.235 38.6326L240.236 38.6598Z" fill="#1863AD"/>
<path d="M232.025 46.1993C231.875 45.1965 232.19 44.2426 232.924 43.5304C234.181 42.292 235.643 42.1838 236.839 43.2456C237.405 43.7403 237.782 44.4406 237.805 44.9987C237.845 46.1356 236.887 47.2183 235.959 47.8567C234.839 48.6326 233.531 48.489 232.731 47.779C232.257 47.3555 232.129 46.8972 232.025 46.1993Z" fill="#528AC2"/>
<path opacity="0.25" d="M240.346 80.0323C248.664 76.0881 256.423 67.2038 259.399 59.547C259.479 59.3459 259.546 59.1454 259.613 58.945C259.842 60.6877 259.735 62.3965 259.266 63.9158C257.026 71.0582 250.565 79.0297 243.235 82.2853C236.982 85.0667 228.982 83.0321 224.834 80.9812C228.665 81.2999 235.432 82.3697 240.353 80.0252L240.346 80.0323Z" fill="white"/>
<path d="M221.511 79.2576L160.459 176.763" stroke="#373814" stroke-width="0.5" stroke-linecap="round" stroke-linejoin="round"/>
<path d="M221.511 79.2576C221.881 80.1354 223.104 83.3164 222.015 83.8591C220.699 84.5204 221.381 79.9106 221.511 79.2576ZM221.511 79.2576C221.336 79.9739 219.096 83.0187 218.361 81.7401C217.736 80.641 220.851 78.8076 221.511 79.2576Z" stroke="#373814" stroke-width="0.5" stroke-linecap="round" stroke-linejoin="round"/>
<path d="M221.883 80.149C221.883 80.149 220.591 79.0775 219.68 77.8335C219.246 77.2378 220.246 79.1531 221.883 80.149ZM221.883 80.149C221.883 80.149 219.923 79.262 219.348 78.2222" stroke="#373814" stroke-width="0.5" stroke-linecap="round" stroke-linejoin="round"/>
<path d="M181.631 37.0226C185.433 35.3244 191.239 35.5749 196.418 37.6581C207.352 42.0665 211.455 52.0756 207.385 64.4478C205.03 71.629 199.805 76.8359 192.694 79.1279C188.253 80.5526 183.525 80.6256 179.471 79.3685C179.354 80.0074 179.268 80.7268 178.853 80.9077C178.313 81.2095 176.749 80.163 176.246 79.8566C176.4 79.3047 176.624 78.791 176.948 78.3685C170.411 75.1143 167.457 67.9825 168.806 58.5659C169.974 50.3976 173.966 40.442 181.631 37.0226Z" fill="#A5C9EB"/>
<path d="M176.828 46.1799C176.385 45.3529 176.36 44.4267 176.775 43.5641C177.484 42.0826 178.729 41.5401 180.102 42.0969C180.754 42.3563 181.299 42.845 181.496 43.3278C181.892 44.3068 181.384 45.555 180.778 46.3982C180.043 47.424 178.855 47.705 177.933 47.3409C177.392 47.1179 177.132 46.7605 176.822 46.187L176.828 46.1799Z" fill="#A5C9EB"/>
<path opacity="0.25" d="M194.667 73.1147C200.689 67.0703 204.706 56.8887 204.902 49.2652C204.914 49.067 204.899 48.8699 204.898 48.6722C205.646 50.1207 206.085 51.6502 206.146 53.1203C206.426 60.056 203.273 69.0292 197.881 74.1748C193.291 78.5646 185.671 79.2755 181.403 78.7908C184.849 77.8641 191.093 76.6852 194.66 73.1082L194.667 73.1147Z" fill="white"/>
<path d="M177.969 78.3262L160.459 176.763" stroke="#373814" stroke-width="0.5" stroke-linecap="round" stroke-linejoin="round"/>
<path d="M177.969 78.3262C178.561 78.9767 180.631 81.3658 179.847 82.1891C178.899 83.1761 178.056 78.9431 177.969 78.3262ZM177.969 78.3262C178.038 79.0052 177.031 82.3602 175.999 81.4758C175.109 80.7218 177.252 78.1377 177.969 78.3262Z" stroke="#373814" stroke-width="0.5" stroke-linecap="round" stroke-linejoin="round"/>
<path d="M178.576 79.0033C178.576 79.0033 177.109 78.4777 175.93 77.6675C175.369 77.2817 176.836 78.6458 178.576 79.0033ZM178.576 79.0033C178.576 79.0033 176.585 78.8335 175.765 78.1175" stroke="#373814" stroke-width="0.5" stroke-linecap="round" stroke-linejoin="round"/>
<path d="M288.433 119.269C292.176 121.091 295.715 125.696 297.448 131.01C301.11 142.224 296.066 151.801 283.98 156.637C276.972 159.443 269.623 158.793 263.295 154.814C259.347 152.332 256.253 148.751 254.612 144.844C254.053 145.168 253.442 145.561 253.038 145.36C252.456 145.138 252.249 143.272 252.171 142.689C252.686 142.456 253.239 142.297 253.762 142.268C252.057 135.174 255.619 128.317 263.695 123.299C270.714 118.945 280.891 115.599 288.447 119.282L288.433 119.269Z" fill="#1863AD"/>
<path d="M278.325 121.473C278.67 120.6 279.367 119.985 280.285 119.756C281.871 119.356 283.089 119.953 283.549 121.359C283.774 122.025 283.743 122.756 283.503 123.216C283.003 124.143 281.725 124.564 280.692 124.634C279.427 124.727 278.449 123.997 278.145 123.062C277.965 122.504 278.077 122.07 278.317 121.467L278.325 121.473Z" fill="#ACACE2"/>
<path opacity="0.25" d="M269.156 152.458C277.661 153.19 288.037 149.713 293.997 144.973C294.149 144.851 294.3 144.715 294.452 144.593C293.825 146.098 292.939 147.417 291.842 148.41C286.704 153.081 277.802 156.436 270.405 155.61C264.097 154.91 258.645 149.539 256.274 145.955C259.195 148.002 264.113 152.019 269.15 152.465L269.156 152.458Z" fill="white"/>
<path d="M254.643 143.446L160.457 176.763" stroke="#373814" stroke-width="0.5" stroke-linecap="round" stroke-linejoin="round"/>
<path d="M254.643 143.446C254.35 144.276 253.225 147.234 252.135 146.938C250.818 146.576 254.147 143.827 254.643 143.446ZM254.643 143.446C254.079 143.83 250.645 144.531 250.938 143.204C251.183 142.055 254.47 142.723 254.643 143.446Z" stroke="#373814" stroke-width="0.5" stroke-linecap="round" stroke-linejoin="round"/>
<path d="M254.345 144.297C254.345 144.297 254.11 142.759 254.262 141.327C254.337 140.649 253.831 142.593 254.345 144.297ZM254.345 144.297C254.345 144.297 253.546 142.462 253.795 141.394" stroke="#373814" stroke-width="0.5" stroke-linecap="round" stroke-linejoin="round"/>
<path d="M243.896 69.9313C247.786 69.7021 252.791 71.8471 256.639 75.3898C264.762 82.8667 265.038 92.9933 257.386 102.487C252.944 107.995 246.653 110.833 239.657 110.482C235.291 110.26 231.124 108.755 227.997 106.321C227.684 106.846 227.368 107.445 226.946 107.463C226.37 107.548 225.349 106.111 225.011 105.681C225.328 105.252 225.701 104.876 226.119 104.606C221.473 99.5965 221.235 92.3727 225.535 84.5724C229.264 77.8048 236.048 70.4062 243.896 69.945L243.896 69.9313Z" fill="#A5C9EB"/>
<path d="M237.233 77.6249C237.115 76.7571 237.402 75.9339 238.044 75.321C239.153 74.2593 240.432 74.1927 241.452 75.1322C241.934 75.5758 242.253 76.1831 242.273 76.6731C242.293 77.6609 241.439 78.5894 240.629 79.1274C239.647 79.7816 238.51 79.6378 237.829 79.0115C237.425 78.6396 237.32 78.2417 237.24 77.6314L237.233 77.6249Z" fill="#A5C9EB"/>
<path opacity="0.25" d="M243.365 105.869C250.646 102.568 257.518 94.9749 260.217 88.3727C260.285 88.1994 260.353 88.0262 260.414 87.8464C260.586 89.3664 260.469 90.8439 260.033 92.1573C257.977 98.3307 252.253 105.147 245.828 107.874C240.354 110.194 233.444 108.312 229.864 106.469C233.184 106.802 239.042 107.835 243.359 105.876L243.365 105.869Z" fill="white"/>
<path d="M227.482 105.756L160.458 176.763" stroke="#373814" stroke-width="0.5" stroke-linecap="round" stroke-linejoin="round"/>
<path d="M227.482 105.756C228.092 106.318 230.215 108.377 229.547 109.203C228.743 110.204 227.621 106.317 227.482 105.756ZM227.482 105.756C227.597 106.386 226.939 109.604 225.899 108.856C225.007 108.218 226.795 105.635 227.482 105.756Z" stroke="#373814" stroke-width="0.5" stroke-linecap="round" stroke-linejoin="round"/>
<path d="M228.105 106.331C228.105 106.331 226.899 105.508 226.025 104.494C225.603 104.014 226.609 105.595 228.105 106.331ZM228.105 106.331C228.105 106.331 226.334 105.708 225.767 104.859" stroke="#373814" stroke-width="0.5" stroke-linecap="round" stroke-linejoin="round"/>
<path d="M240.282 123.273C244.629 124.368 249.38 128.453 252.371 133.681C258.691 144.71 255.487 155.928 243.789 163.687C237.008 168.195 229.11 169.122 221.549 166.312C216.84 164.557 212.778 161.46 210.195 157.694C209.676 158.159 209.119 158.707 208.65 158.59C207.985 158.488 207.366 156.557 207.144 155.959C207.647 155.597 208.18 155.303 208.727 155.164C205.364 148.049 207.61 140.034 215.035 132.963C221.482 126.826 231.491 121.06 240.268 123.274L240.282 123.273Z" fill="#A5C9EB"/>
<path d="M227.385 131.736C227.555 130.741 228.163 129.938 229.085 129.491C230.669 128.709 232.095 129.08 232.889 130.465C233.264 131.125 233.405 131.896 233.25 132.434C232.934 133.531 231.668 134.252 230.597 134.562C229.283 134.937 228.095 134.393 227.565 133.46C227.256 132.914 227.278 132.436 227.399 131.736L227.385 131.736Z" fill="#D0DAE4"/>
<path opacity="0.25" d="M227.229 162.545C236.36 161.445 246.546 155.501 251.806 149.174C251.942 149.012 252.072 148.843 252.194 148.667C251.863 150.392 251.213 151.98 250.285 153.273C245.893 159.339 237.23 164.838 229.237 165.598C222.419 166.249 215.491 161.77 212.206 158.511C215.739 160.021 221.815 163.192 227.229 162.545Z" fill="white"/>
<path d="M209.784 156.491L160.524 176.692" stroke="#373814" stroke-width="0.5" stroke-linecap="round" stroke-linejoin="round"/>
<path d="M209.784 156.491C210.453 157.172 212.759 159.674 211.951 160.58C210.967 161.678 209.907 157.14 209.784 156.491ZM209.784 156.491C209.883 157.223 208.929 160.876 207.773 159.955C206.786 159.165 209.006 156.311 209.784 156.491Z" stroke="#373814" stroke-width="0.5" stroke-linecap="round" stroke-linejoin="round"/>
<path d="M210.454 157.186C210.454 157.186 209.116 156.164 208.166 154.949C207.712 154.374 208.778 156.246 210.454 157.186ZM210.454 157.186C210.454 157.186 208.463 156.361 207.862 155.35" stroke="#373814" stroke-width="0.5" stroke-linecap="round" stroke-linejoin="round"/>
<path d="M272.751 99.6213C277.098 100.716 281.849 104.801 284.84 110.029C291.16 121.058 287.956 132.276 276.258 140.035C269.476 144.543 261.579 145.47 254.025 142.667C249.316 140.912 245.254 137.814 242.664 134.056C242.145 134.52 241.588 135.068 241.12 134.951C240.454 134.849 239.836 132.918 239.613 132.321C240.116 131.959 240.65 131.664 241.196 131.526C237.834 124.411 240.079 116.396 247.504 109.325C253.952 103.188 263.96 97.4217 272.738 99.6355L272.751 99.6213Z" fill="#B4DAFF"/>
<path d="M259.868 108.084C260.038 107.088 260.645 106.286 261.568 105.838C263.158 105.064 264.578 105.427 265.371 106.813C265.746 107.472 265.887 108.244 265.733 108.782C265.417 109.879 264.151 110.599 263.073 110.903C261.759 111.278 260.57 110.734 260.041 109.801C259.725 109.249 259.753 108.777 259.874 108.077L259.868 108.084Z" fill="#A5C9EB"/>
<path opacity="0.25" d="M259.712 138.893C268.843 137.792 279.034 131.841 284.288 125.522C284.425 125.359 284.554 125.19 284.676 125.015C284.346 126.74 283.696 128.328 282.767 129.621C278.376 135.686 269.713 141.185 261.72 141.946C254.902 142.596 247.973 138.117 244.689 134.858C248.222 136.369 254.298 139.54 259.712 138.893Z" fill="white"/>
<path d="M242.253 132.839L160.524 176.692" stroke="#373814" stroke-width="0.5" stroke-linecap="round" stroke-linejoin="round"/>
<path d="M242.253 132.839C242.922 133.52 245.228 136.022 244.42 136.928C243.436 138.026 242.375 133.488 242.253 132.839ZM242.253 132.839C242.352 133.571 241.398 137.224 240.249 136.31C239.262 135.519 241.482 132.666 242.253 132.839Z" stroke="#373814" stroke-width="0.5" stroke-linecap="round" stroke-linejoin="round"/>
<path d="M242.936 133.533C242.936 133.533 241.598 132.511 240.648 131.296C240.195 130.722 241.261 132.593 242.936 133.533ZM242.936 133.533C242.936 133.533 240.945 132.709 240.344 131.697" stroke="#373814" stroke-width="0.5" stroke-linecap="round" stroke-linejoin="round"/>
<path d="M180.261 75.3952C184.604 74.2608 190.733 75.5684 195.867 78.7102C206.709 85.3382 209.287 96.7194 202.759 109.146C198.974 116.359 192.496 120.963 184.52 122.132C179.546 122.856 174.497 122.097 170.416 120.03C170.184 120.694 169.963 121.432 169.484 121.554C168.852 121.785 167.376 120.387 166.896 119.971C167.159 119.414 167.485 118.903 167.899 118.511C161.531 113.893 159.654 105.776 162.767 96.0068C165.47 87.5226 171.477 77.6541 180.24 75.3892L180.261 75.3952Z" fill="#1863AD"/>
<path d="M173.032 89.0095C172.706 88.0549 172.849 87.0604 173.442 86.2313C174.459 84.7848 175.876 84.4261 177.24 85.2628C177.884 85.6588 178.386 86.2653 178.504 86.8194C178.755 87.9272 177.988 89.1725 177.203 89.955C176.234 90.9223 174.928 91.0036 174.012 90.4484C173.473 90.123 173.258 89.6888 173.032 89.0231L173.032 89.0095Z" fill="#ACACE2"/>
<path opacity="0.25" d="M187.687 116.103C195.169 110.748 201.241 100.639 202.816 92.5694C202.855 92.3564 202.887 92.1505 202.912 91.9382C203.452 93.6134 203.645 95.3099 203.445 96.8931C202.504 104.316 197.559 113.302 190.907 117.811C185.244 121.659 177.018 121.065 172.567 119.784C176.39 119.414 183.243 119.267 187.673 116.104L187.687 116.103Z" fill="white"/>
<path d="M169.199 119.132L160.524 176.692" stroke="#373814" stroke-width="0.5" stroke-linecap="round" stroke-linejoin="round"/>
<path d="M169.199 119.132C169.868 119.814 172.174 122.316 171.366 123.222C170.382 124.319 169.322 119.782 169.199 119.132ZM169.199 119.132C169.298 119.864 168.345 123.517 167.195 122.604C166.208 121.813 168.429 118.96 169.199 119.132Z" stroke="#373814" stroke-width="0.5" stroke-linecap="round" stroke-linejoin="round"/>
<path d="M169.876 119.834C169.876 119.834 168.538 118.812 167.588 117.597C167.134 117.022 168.2 118.894 169.876 119.834ZM169.876 119.834C169.876 119.834 167.885 119.009 167.284 117.998" stroke="#373814" stroke-width="0.5" stroke-linecap="round" stroke-linejoin="round"/>
<path d="M210.836 41.4381C215.23 40.5199 221.282 42.1238 226.263 45.5174C236.766 52.6708 238.782 64.1638 231.647 76.254C227.513 83.277 220.811 87.5565 212.791 88.3316C207.78 88.8118 202.781 87.7984 198.808 85.5425C198.542 86.1876 198.279 86.928 197.806 87.0157C197.166 87.2127 195.763 85.7504 195.301 85.3127C195.592 84.7689 195.954 84.2767 196.375 83.9047C190.239 78.9772 188.762 70.7821 192.359 61.1701C195.477 52.8324 201.96 43.2714 210.829 41.4316L210.836 41.4381Z" fill="#A5C9EB"/>
<path d="M203.663 49.971C203.384 48.994 203.575 48.0179 204.21 47.2144C205.298 45.8195 206.731 45.5283 208.05 46.4282C208.681 46.852 209.144 47.4874 209.235 48.0427C209.425 49.1598 208.608 50.3594 207.774 51.1098C206.761 52.0244 205.447 52.0447 204.562 51.4405C204.036 51.0873 203.855 50.6448 203.656 49.9644L203.663 49.971Z" fill="#D0DAE4"/>
<path opacity="0.25" d="M216.257 82.4612C223.994 77.4844 230.556 67.6815 232.53 59.7048C232.576 59.4984 232.622 59.2919 232.661 59.079C233.113 60.7783 233.231 62.4847 232.949 64.0576C231.645 71.4339 226.259 80.1586 219.403 84.3354C213.557 87.8976 205.362 86.9006 200.991 85.4044C204.829 85.2183 211.675 85.4189 216.264 82.4677L216.257 82.4612Z" fill="white"/>
<path d="M198.483 84.9424L160.458 176.763" stroke="#373814" stroke-width="0.5" stroke-linecap="round" stroke-linejoin="round"/>
<path d="M198.483 84.9423C199.007 85.7388 200.791 88.6375 199.819 89.38C198.649 90.267 198.477 85.6176 198.483 84.9423ZM198.483 84.9423C198.438 85.6737 196.793 89.0825 195.84 87.9561C195.023 86.9946 197.747 84.6183 198.483 84.9423Z" stroke="#373814" stroke-width="0.5" stroke-linecap="round" stroke-linejoin="round"/>
<path d="M199.015 85.7589C199.015 85.7589 197.549 84.9469 196.421 83.8823C195.889 83.3794 197.221 85.0764 199.015 85.7589ZM199.015 85.7589C199.015 85.7589 196.927 85.2386 196.174 84.3221" stroke="#373814" stroke-width="0.5" stroke-linecap="round" stroke-linejoin="round"/>
<path d="M247.278 101.235C251.415 100.866 256.644 102.995 260.62 106.655C268.998 114.367 268.981 125.153 260.573 135.496C255.701 141.5 248.935 144.711 241.531 144.561C237.28 144.471 233.24 143.214 230.096 141.067C229.773 141.816 229.426 142.492 228.734 142.575C227.686 142.618 226.105 140.325 225.636 139.554C226.176 139.252 226.665 138.863 227.182 138.528C222.584 133.339 222.623 125.729 227.358 117.4C231.52 110.075 238.944 101.982 247.279 101.248L247.278 101.235Z" fill="#1863AD"/>
<path opacity="0.25" d="M246.043 137.781C253.005 133.859 261.199 127.234 263.31 120.418C263.364 120.245 263.411 120.066 263.451 119.88C263.758 121.381 263.772 122.86 263.453 124.202C261.949 130.53 254.831 136.286 248.673 139.547C243.423 142.335 238.368 142.606 234.651 141.082C237.993 141.121 241.912 140.093 246.043 137.768L246.043 137.781Z" fill="white"/>
<path d="M242.234 108.493C242.124 107.646 242.404 106.843 243.034 106.244C244.116 105.211 245.354 105.146 246.346 106.06C246.821 106.497 247.132 107.084 247.138 107.561C247.164 108.528 246.322 109.428 245.539 109.952C244.577 110.585 243.474 110.446 242.807 109.833C242.417 109.474 242.312 109.076 242.227 108.487L242.234 108.493Z" fill="#528AC2"/>
<path d="M211.003 72.6226C214.78 72.2889 219.572 74.2382 223.201 77.5786C230.863 84.6314 230.848 94.4905 223.161 103.951C218.704 109.447 212.519 112.382 205.75 112.24C201.178 112.143 197.631 111.274 194.653 108.677C194.508 109.106 194.384 109.567 194.07 109.908C193.532 109.582 193.117 109.122 192.664 108.705C192.97 108.371 193.353 108.069 193.737 107.794C189.168 102.986 188.362 95.1995 192.791 87.4006C196.598 80.7048 203.382 73.3062 211.004 72.6362L211.003 72.6226Z" fill="#B4DAFF"/>
<path d="M204.074 82.2838C203.238 81.514 203.06 80.185 203.81 78.8586C204.433 77.7693 205.535 76.5578 206.778 76.4586C207.39 76.406 208.173 76.7213 208.761 77.2628C210.009 78.4111 210.007 80.0202 208.755 81.5651C208.029 82.4542 207.019 82.9391 205.914 82.9167C205.143 82.9009 204.557 82.7547 204.061 82.298L204.074 82.2838Z" fill="#A5C9EB"/>
<path d="M193.796 108.058C193.077 107.658 190.457 106.28 189.88 107.163C189.181 108.235 193.218 108.102 193.796 108.058ZM193.796 108.058C193.166 108.145 190.315 109.763 191.341 110.525C192.221 111.177 194.121 108.672 193.796 108.058Z" stroke="#373814" stroke-width="0.5" stroke-linecap="round" stroke-linejoin="round"/>
<path d="M194.854 108.914C194.854 108.914 193.781 108.174 193.019 107.238C192.66 106.789 193.491 108.261 194.854 108.914ZM194.854 108.914C194.854 108.914 193.23 108.388 192.754 107.596" stroke="#373814" stroke-width="0.5" stroke-linecap="round" stroke-linejoin="round"/>
<path d="M193.785 108.283L160.458 176.763" stroke="#373814" stroke-width="0.5" stroke-linecap="round" stroke-linejoin="round"/>
<path opacity="0.25" d="M220.471 99.0926C214.713 104.11 205.997 108.984 198.794 107.592C198.609 107.552 198.423 107.512 198.23 107.465C199.591 108.547 201.041 109.333 202.427 109.705C208.99 111.451 216.56 107.224 221.464 102.678C225.64 98.8104 227.316 93.8322 226.875 89.2758C225.98 92.6808 223.886 96.1218 220.478 99.0991L220.471 99.0926Z" fill="white"/>
<path d="M219.913 101.106C224.727 100.784 229.294 102.252 232.441 105.149C234.539 107.08 240.777 114.328 233.129 126.719C228.574 134.1 222.509 138.953 216.486 140.021C212.31 140.76 207.66 139.452 204.072 136.594C203.8 137.274 203.453 137.949 203.027 138.042C202.386 138.198 201.317 137.083 201.044 136.583C200.607 135.579 201.197 134.995 201.97 134.581C197.305 129.266 195.315 120.062 203.913 109.698C208.166 104.565 213.855 101.514 219.927 101.106L219.913 101.106Z" fill="#B4DAFF"/>
<path opacity="0.25" d="M219.966 132.527C226.05 127.98 232.823 120.637 233.593 113.698C233.612 113.52 233.625 113.336 233.632 113.158C234.216 114.6 234.509 116.074 234.456 117.426C234.189 123.819 228.296 130.192 222.885 134.022C218.268 137.288 213.363 138.05 209.423 136.911C212.704 136.619 216.369 135.226 219.966 132.527Z" fill="white"/>
<path d="M214.148 107.924C214.275 106.89 214.87 105.931 215.829 105.216C217.482 103.989 219.028 103.945 219.968 105.072C220.413 105.613 220.613 106.334 220.474 106.912C220.209 108.082 218.89 109.16 217.756 109.779C216.376 110.525 215.059 110.334 214.427 109.569C214.054 109.121 214.055 108.637 214.141 107.918L214.148 107.924Z" fill="#D9ECFF"/>
<path d="M195.274 90.4204C199.077 89.7311 204.104 91.2548 208.103 94.3072C216.523 100.749 217.428 110.734 210.518 121.042C206.505 127.024 200.516 130.571 193.637 131.061C189.687 131.34 185.835 130.518 182.736 128.792C182.501 129.517 182.235 130.176 181.599 130.298C180.629 130.427 178.972 128.429 178.474 127.761C178.951 127.442 179.364 127.036 179.82 126.683C175.117 122.262 173.895 114.315 177.573 106.18C180.809 99.0369 187.607 91.8081 195.274 90.4204Z" fill="#DFEAF3"/>
<path d="M192.359 97.2293C192.11 96.1624 192.38 95.1149 193.109 94.2802C194.366 92.8442 195.924 92.616 197.304 93.6634C197.958 94.1613 198.417 94.8718 198.49 95.4755C198.636 96.6967 197.678 97.9363 196.742 98.6977C195.594 99.6179 194.181 99.5742 193.258 98.8692C192.716 98.4621 192.539 97.9718 192.372 97.2287L192.359 97.2293Z" fill="#D0DAE4"/>
<path opacity="0.25" d="M199.849 123.345C205.445 118.545 211.305 110.899 210.985 103.821C210.971 103.638 210.956 103.454 210.935 103.264C211.779 104.723 212.325 106.207 212.491 107.591C213.252 114.104 208.147 120.745 203.133 124.784C198.851 128.227 193.87 129.128 189.58 128.086C192.952 127.707 196.53 126.182 199.849 123.345Z" fill="white"/>
<path d="M181.488 128.114C180.763 127.564 178.113 125.649 177.345 126.526C176.421 127.587 180.845 128.072 181.488 128.114ZM181.488 128.114C180.786 128.109 177.418 129.435 178.42 130.423C179.287 131.273 181.743 128.833 181.488 128.114Z" stroke="#373814" stroke-width="0.5" stroke-linecap="round" stroke-linejoin="round"/>
<path d="M182.747 128.88C182.747 128.88 181.064 127.906 179.739 126.714C179.116 126.139 180.727 128.016 182.747 128.88ZM182.747 128.88C182.747 128.88 180.419 128.151 179.512 127.146" stroke="#373814" stroke-width="0.5" stroke-linecap="round" stroke-linejoin="round"/>
<path d="M181.786 128.388L160.458 176.763" stroke="#373814" stroke-width="0.5" stroke-linecap="round" stroke-linejoin="round"/>
<path d="M202.81 135.603C202.346 134.927 200.603 132.524 199.699 133.066C198.601 133.719 202.276 135.387 202.81 135.603ZM202.81 135.603C202.209 135.403 198.931 135.593 199.523 136.728C200.027 137.703 202.839 136.298 202.81 135.603Z" stroke="#373814" stroke-width="0.5" stroke-linecap="round" stroke-linejoin="round"/>
<path d="M204.183 136.787C204.183 136.787 202.834 135.664 201.834 134.389C201.359 133.782 202.516 135.711 204.183 136.787ZM204.183 136.787C204.183 136.787 202.218 135.778 201.562 134.741" stroke="#373814" stroke-width="0.5" stroke-linecap="round" stroke-linejoin="round"/>
<path d="M202.436 136.082L160.459 176.763" stroke="#373814" stroke-width="0.5" stroke-linecap="round" stroke-linejoin="round"/>
<path d="M228.831 140.124C228.043 139.87 225.193 139.054 224.811 140.038C224.343 141.23 228.278 140.283 228.831 140.124ZM228.831 140.124C228.233 140.332 225.766 142.5 226.926 143.032C227.92 143.488 229.269 140.658 228.831 140.124Z" stroke="#373814" stroke-width="0.5" stroke-linecap="round" stroke-linejoin="round"/>
<path d="M230.188 141.308C230.188 141.308 228.393 139.944 226.967 138.435C226.29 137.72 228.04 139.972 230.188 141.308ZM230.188 141.308C230.188 141.308 227.716 140.04 226.731 138.82" stroke="#373814" stroke-width="0.5" stroke-linecap="round" stroke-linejoin="round"/>
<path d="M228.448 140.61L160.458 176.763" stroke="#373814" stroke-width="0.5" stroke-linecap="round" stroke-linejoin="round"/>
</g>
<g clip-path="url(#clip3_1910_4558)">
<path d="M209.028 258.243L130.786 271.437L132.028 278.801L210.27 265.608L209.028 258.243Z" fill="#1863AD"/>
<path d="M199.073 216.161L126.358 228.423L133.533 270.971L206.248 258.71L199.073 216.161Z" fill="#E3ECF4"/>
<path d="M188.322 227.126L140.144 235.25L140.362 236.546L188.54 228.422L188.322 227.126Z" fill="#1863AD"/>
<path d="M191.738 255.077L146.082 262.776L146.301 264.072L191.957 256.373L191.738 255.077Z" fill="#1863AD"/>
<path d="M187.156 228.655L141.746 236.313L146.423 264.051L191.834 256.394L187.156 228.655Z" stroke="#1863AD" stroke-miterlimit="10"/>
<path d="M187.156 228.655L141.746 236.313L146.205 262.755L191.615 255.098L187.156 228.655Z" fill="#A5C9EB"/>
<path d="M125.522 231.821C125.867 233.866 124.605 235.779 122.705 236.099C120.806 236.419 118.989 235.025 118.644 232.981L118.112 229.827L124.99 228.667L125.522 231.821Z" fill="#A5C9EB"/>
<path d="M132.382 230.658C132.727 232.703 131.465 234.619 129.566 234.939C127.667 235.259 125.849 233.863 125.504 231.818L124.973 228.664L131.85 227.505L132.382 230.658Z" fill="#1863AD"/>
<path d="M139.269 229.489C139.613 231.531 138.352 233.447 136.452 233.767C134.553 234.087 132.736 232.691 132.391 230.649L131.859 227.495L138.737 226.335L139.269 229.489Z" fill="#A5C9EB"/>
<path d="M146.143 228.319C146.488 230.364 145.226 232.28 143.327 232.6C141.428 232.92 139.608 231.524 139.263 229.479L138.731 226.328L145.609 225.168L146.141 228.32L146.143 228.319Z" fill="#1863AD"/>
<path d="M153.018 227.16C153.363 229.205 152.101 231.12 150.202 231.441C148.303 231.761 146.483 230.365 146.138 228.32L145.606 225.169L152.484 224.009L153.016 227.16L153.018 227.16Z" fill="#A5C9EB"/>
<path d="M159.898 226C160.243 228.044 158.984 229.96 157.082 230.28C155.18 230.601 153.365 229.204 153.021 227.159L152.489 224.008L159.367 222.848L159.898 226Z" fill="#1863AD"/>
<path d="M166.625 224.89C166.97 226.934 165.708 228.847 163.809 229.168C161.909 229.488 160.092 228.092 159.748 226.049L159.216 222.896L166.094 221.736L166.625 224.89Z" fill="#A5C9EB"/>
<path d="M173.486 223.727C173.831 225.772 172.57 227.688 170.67 228.008C168.771 228.328 166.951 226.932 166.606 224.887L166.074 221.734L172.952 220.574L173.484 223.728L173.486 223.727Z" fill="#1863AD"/>
<path d="M180.37 222.558C180.715 224.6 179.453 226.516 177.554 226.836C175.655 227.157 173.837 225.76 173.493 223.718L172.961 220.564L179.839 219.404L180.37 222.558Z" fill="#A5C9EB"/>
<path d="M187.247 221.388C187.591 223.433 186.33 225.348 184.431 225.669C182.531 225.989 180.711 224.593 180.366 222.548L179.835 219.397L186.713 218.237L187.244 221.389L187.247 221.388Z" fill="#1863AD"/>
<path d="M194.122 220.229C194.466 222.274 193.205 224.189 191.306 224.509C189.406 224.83 187.586 223.434 187.241 221.389L186.71 218.238L193.588 217.078L194.119 220.229L194.122 220.229Z" fill="#A5C9EB"/>
<path d="M201.002 219.069C201.347 221.113 200.085 223.029 198.186 223.349C196.286 223.669 194.469 222.273 194.124 220.228L193.593 217.077L200.47 215.917L201.002 219.069Z" fill="#1863AD"/>
<path d="M207.889 217.932C208.234 219.976 206.972 221.889 205.072 222.21C203.173 222.53 201.356 221.133 201.011 219.091L200.479 215.937L207.357 214.778L207.889 217.932Z" fill="#A5C9EB"/>
<path d="M200.477 215.941L191.715 208.142L197.619 207.146L207.358 214.78L200.477 215.941Z" fill="#E3ECF4"/>
<path d="M200.478 215.941L191.715 208.142L186.219 209.068L193.591 217.078L200.478 215.941Z" fill="#A5C9EB"/>
<path d="M186.716 218.237L180.692 209.976L186.219 209.068L193.591 217.078L186.716 218.237Z" fill="#E3ECF4"/>
<path d="M186.715 218.237L180.692 209.976L174.905 210.952L179.839 219.404L186.715 218.237Z" fill="#A5C9EB"/>
<path d="M172.955 220.573L169.3 211.913L174.906 210.952L179.84 219.404L172.955 220.573Z" fill="#E3ECF4"/>
<path d="M172.954 220.573L169.299 211.913L163.708 212.856L166.094 221.738L172.954 220.573Z" fill="#A5C9EB"/>
<path d="M159.217 222.898L158.106 213.809L163.709 212.856L166.094 221.738L159.217 222.898Z" fill="#E3ECF4"/>
<path d="M159.216 222.898L158.106 213.809L152.664 214.694L152.486 224.009L159.216 222.898Z" fill="#A5C9EB"/>
<path d="M124.99 228.67L130.338 218.491L124.62 219.455L118.112 229.829L124.99 228.67Z" fill="#E3ECF4"/>
<path d="M124.99 228.67L130.339 218.491L135.835 217.564L131.871 227.485L124.99 228.67Z" fill="#A5C9EB"/>
<path d="M138.747 226.326L141.351 216.61L135.835 217.564L131.872 227.485L138.747 226.326Z" fill="#E3ECF4"/>
<path d="M138.747 226.326L141.351 216.61L147.141 215.634L145.623 225.174L138.747 226.326Z" fill="#A5C9EB"/>
<path d="M152.513 224.02L152.665 214.694L147.141 215.634L145.623 225.174L152.513 224.02Z" fill="#E3ECF4"/>
</g>
<path d="M244 280C244.333 278.167 249.1 274 265.5 272C281.9 270 285 263.167 284.5 260" stroke="#A2CDF7" stroke-width="0.5"/>
<path d="M38 295C38.3333 293.167 43.1 289 59.5 287C75.9 285 79 278.167 78.5 275" stroke="#A2CDF7" stroke-width="0.5"/>
<path d="M28 305.799C29.1667 302.632 38.4 294.899 66 289.299C100.5 282.299 90.5 258.299 79 266.799" stroke="#A2CDF7" stroke-width="0.5"/>
<defs>
<clipPath id="clip0_1910_4558">
<rect width="166.52" height="243.5" fill="white" transform="translate(77.6904 10.7474)"/>
</clipPath>
<clipPath id="clip1_1910_4558">
<rect width="160.417" height="234.576" fill="white" transform="matrix(-0.799945 0.600073 0.600073 0.799945 128.325 0)"/>
</clipPath>
<clipPath id="clip2_1910_4558">
<rect width="160.417" height="234.576" fill="white" transform="matrix(-0.73575 -0.677253 -0.677253 0.73575 328.585 112.391)"/>
</clipPath>
<clipPath id="clip3_1910_4558">
<rect width="90.5055" height="59.7835" fill="white" transform="translate(116.586 220.778) rotate(-9.57144)"/>
</clipPath>
</defs>
</svg>
