<svg width="1440" height="854" viewBox="0 0 1440 854" fill="none" xmlns="http://www.w3.org/2000/svg">
<g clip-path="url(#clip0_1980_4828)">
<rect width="1440" height="854" fill="url(#paint0_linear_1980_4828)"/>
<g opacity="0.4">
<rect x="1293" y="311.848" width="36.8987" height="182.152" fill="url(#paint1_linear_1980_4828)"/>
<rect x="1340.9" y="261.539" width="36.8987" height="230.726" fill="url(#paint2_linear_1980_4828)"/>
<rect x="1388.8" y="148.778" width="36.8987" height="345.222" fill="url(#paint3_linear_1980_4828)"/>
<rect x="1436.7" y="95" width="36.8987" height="399" fill="url(#paint4_linear_1980_4828)"/>
</g>
<path opacity="0.35" d="M1440 375L0 854H1440V375Z" fill="#041E37"/>
<path d="M610.779 505.719L609.377 500.497L607.976 505.719L602.753 507.121L607.976 508.53L609.377 513.745L610.779 508.53L616.001 507.121L610.779 505.719Z" fill="white"/>
<path d="M507.07 675.186L505.669 669.972L504.267 675.186L499.045 676.595L504.267 677.997L505.669 683.219L507.07 677.997L512.292 676.595L507.07 675.186Z" fill="white"/>
<path d="M604.162 561.026L602.753 555.812L601.351 561.026L596.129 562.427L601.351 563.837L602.753 569.051L604.162 563.837L609.376 562.427L604.162 561.026Z" fill="white"/>
<path d="M436.371 387.214L434.969 382L433.56 387.214L428.345 388.624L433.56 390.025L434.969 395.247L436.371 390.025L441.593 388.624L436.371 387.214Z" fill="white"/>
<path d="M311.023 524.964L309.621 519.75L308.212 524.964L302.998 526.373L308.212 527.775L309.621 532.997L311.023 527.775L316.237 526.373L311.023 524.964Z" fill="white"/>
<path d="M404.741 726.249L403.34 721.034L401.93 726.249L396.716 727.658L401.93 729.06L403.34 734.282L404.741 729.06L409.963 727.658L404.741 726.249Z" fill="white"/>
<path d="M609.588 482.466L608.805 479.554L608.022 482.466L605.11 483.249L608.022 484.032L608.805 486.937L609.588 484.032L612.493 483.249L609.588 482.466Z" fill="white"/>
<path d="M496.751 635.186L495.968 632.281L495.185 635.186L492.28 635.969L495.185 636.751L495.968 639.664L496.751 636.751L499.663 635.969L496.751 635.186Z" fill="white"/>
<path d="M307.468 679.672L306.685 676.76L305.902 679.672L302.998 680.455L305.902 681.238L306.685 684.143L307.468 681.238L310.381 680.455L307.468 679.672Z" fill="white"/>
<path d="M508.511 455.22L507.728 452.307L506.945 455.22L504.041 456.003L506.945 456.786L507.728 459.691L508.511 456.786L511.424 456.003L508.511 455.22Z" fill="white"/>
<path d="M594.634 404.016L593.851 401.112L593.069 404.016L590.164 404.799L593.069 405.582L593.851 408.495L594.634 405.582L597.547 404.799L594.634 404.016Z" fill="white"/>
<path d="M303.782 640.032L302.999 637.127L302.216 640.032L299.303 640.815L302.216 641.598L302.999 644.51L303.782 641.598L306.686 640.815L303.782 640.032Z" fill="white"/>
<path d="M297.471 503.825L296.688 500.92L295.905 503.825L293 504.608L295.905 505.391L296.688 508.303L297.471 505.391L300.383 504.608L297.471 503.825Z" fill="white"/>
<path d="M860 421.5H841.814L850.632 403L860 421.5Z" fill="white"/>
<path d="M602.474 520.025L602.663 519.452L602.663 519.452L602.474 520.025ZM850.699 421.988C850.693 421.655 850.417 421.39 850.084 421.397C849.751 421.403 849.486 421.679 849.493 422.012L850.699 421.988ZM478.352 657.312C478.136 654.685 477.962 651.962 477.837 649.158L476.631 649.211C476.757 652.03 476.932 654.769 477.149 657.411L478.352 657.312ZM477.675 632.733C477.805 627.401 478.115 621.917 478.635 616.366L477.434 616.254C476.911 621.834 476.599 627.346 476.469 632.703L477.675 632.733ZM480.771 600.103C481.691 594.719 482.833 589.352 484.224 584.08L483.057 583.772C481.657 589.082 480.507 594.484 479.582 599.9L480.771 600.103ZM489.221 568.48C491.2 563.318 493.472 558.341 496.065 553.631L495.008 553.049C492.385 557.812 490.091 562.841 488.094 568.048L489.221 568.48ZM505.109 540.047C508.546 535.785 512.367 531.911 516.606 528.519L515.852 527.577C511.539 531.028 507.657 534.965 504.17 539.289L505.109 540.047ZM530.425 519.968C535.174 517.781 540.319 516.092 545.888 514.979L545.652 513.796C539.992 514.927 534.757 516.645 529.92 518.872L530.425 519.968ZM562.108 513.433C567.231 513.431 572.648 513.849 578.373 514.73L578.556 513.537C572.775 512.648 567.297 512.224 562.107 512.226L562.108 513.433ZM594.38 518.204C596.961 518.917 599.596 519.714 602.286 520.598L602.663 519.452C599.955 518.562 597.301 517.759 594.701 517.041L594.38 518.204ZM602.286 520.598C605.067 521.512 607.835 522.387 610.592 523.224L610.942 522.069C608.195 521.235 605.435 520.363 602.663 519.452L602.286 520.598ZM627.272 527.861C632.981 529.301 638.629 530.575 644.21 531.685L644.446 530.502C638.885 529.395 633.257 528.126 627.567 526.691L627.272 527.861ZM661.31 534.614C667.135 535.448 672.875 536.1 678.524 536.576L678.625 535.373C673 534.9 667.283 534.25 661.481 533.419L661.31 534.614ZM695.872 537.493C701.77 537.616 707.551 537.538 713.207 537.267L713.149 536.062C707.522 536.332 701.768 536.409 695.897 536.286L695.872 537.493ZM730.505 535.792C736.383 535.063 742.099 534.111 747.64 532.945L747.392 531.765C741.885 532.923 736.202 533.869 730.356 534.595L730.505 535.792ZM764.443 528.597C770.104 526.839 775.54 524.836 780.735 522.599L780.257 521.491C775.104 523.711 769.708 525.699 764.085 527.444L764.443 528.597ZM796.26 514.802C801.383 511.823 806.195 508.576 810.674 505.078L809.931 504.127C805.497 507.59 800.731 510.806 795.653 513.759L796.26 514.802ZM823.536 493.37C827.556 489.091 831.17 484.543 834.35 479.746L833.344 479.079C830.203 483.818 826.632 488.313 822.657 492.544L823.536 493.37ZM842.638 464.453C844.917 459.165 846.735 453.648 848.065 447.921L846.889 447.648C845.575 453.305 843.78 458.754 841.53 463.975L842.638 464.453ZM850.534 430.693C850.702 427.832 850.758 424.93 850.699 421.988L849.493 422.012C849.551 424.923 849.495 427.793 849.329 430.622L850.534 430.693Z" fill="white"/>
<path d="M306.616 741.308C306.616 751.971 297.972 760.616 287.308 760.616C276.645 760.616 268 751.971 268 741.308C268 730.644 276.645 722 287.308 722C297.972 722 306.616 730.644 306.616 741.308Z" fill="#06396D"/>
<path d="M297.667 741C297.667 746.523 293.041 751 287.334 751C281.627 751 277 746.523 277 741C277 735.477 281.627 731 287.334 731C293.041 731 297.667 735.477 297.667 741Z" fill="#3D6FA2"/>
<path d="M525.616 666.308C525.616 676.971 516.972 685.616 506.308 685.616C495.645 685.616 487 676.971 487 666.308C487 655.644 495.645 647 506.308 647C516.972 647 525.616 655.644 525.616 666.308Z" fill="#06396D"/>
<path d="M516.667 666C516.667 671.523 512.041 676 506.334 676C500.627 676 496 671.523 496 666C496 660.477 500.627 656 506.334 656C512.041 656 516.667 660.477 516.667 666Z" fill="#3D6FA2"/>
<path d="M224.449 737.217L568.755 623.13" stroke="#06396D" stroke-width="9" stroke-linecap="round"/>
<g clip-path="url(#clip1_1980_4828)">
<path d="M447.853 524.613L247.394 591.32L282.409 696.542L482.867 629.835L447.853 524.613Z" fill="#EEE8D3"/>
<path d="M447.853 524.613L247.394 591.32L282.409 696.542L482.867 629.835L447.853 524.613Z" fill="#E8F3FF"/>
<path d="M366.267 565.549L267.408 598.446L292.024 672.42L390.884 639.523L366.267 565.549Z" fill="#003366"/>
<path d="M362.515 564.17L270.072 594.932L293.886 666.497L386.33 635.734L362.515 564.17Z" fill="#A8D3FF"/>
<path d="M317.863 578.097L313.681 579.489L338.362 653.659L342.545 652.267L317.863 578.097Z" fill="#003366"/>
<path d="M396.982 636.475C397.658 638.505 396.569 640.699 394.548 641.372L290.654 675.944C288.633 676.617 286.448 675.518 285.771 673.483C285.094 671.448 286.184 669.259 288.206 668.587L392.094 634.016C394.115 633.343 396.299 634.442 396.977 636.477L396.982 636.475Z" fill="#145495"/>
<path d="M497.471 642.53L279.661 715.01L274.359 699.079C272.998 694.988 275.26 690.553 279.413 689.171L482.186 621.695C486.339 620.313 490.808 622.508 492.169 626.599L497.471 642.53Z" fill="#003366"/>
<path d="M438.361 550.173L391.764 565.679L418.9 647.224L465.497 631.718L438.361 550.173Z" fill="#003366"/>
<path d="M447.385 494.917C445.232 488.449 438.262 484.937 431.813 487.083L239.14 551.199C232.691 553.345 229.212 560.327 231.367 566.801L245.585 609.528L461.603 537.644L447.385 494.917Z" fill="#2666A6"/>
<path d="M453.956 512.379L486.774 529.267L221.326 617.6L237.253 584.491L453.956 512.379Z" fill="#F9863A"/>
<g opacity="0.29">
<path d="M333.136 685.133L344.584 681.324C346.252 680.769 348.061 681.679 348.619 683.354L349.268 685.304C349.825 686.978 348.924 688.785 347.257 689.34L335.809 693.15C334.141 693.705 332.337 692.798 331.78 691.123L331.13 689.169C330.572 687.494 331.473 685.687 333.141 685.132L333.136 685.133Z" fill="#185A9C"/>
</g>
<g opacity="0.29">
<path d="M309.077 683.56L320.525 679.751C322.192 679.196 323.996 680.103 324.553 681.778L325.204 683.732C325.761 685.407 324.861 687.214 323.193 687.769L311.745 691.578C310.077 692.134 308.267 691.223 307.71 689.548L307.06 687.594C306.502 685.92 307.406 684.106 309.074 683.551L309.077 683.56Z" fill="#185A9C"/>
</g>
<g opacity="0.29">
<path d="M299.159 696.757L310.607 692.947C312.275 692.392 314.085 693.303 314.642 694.977L315.291 696.927C315.848 698.602 314.945 700.415 313.277 700.97L301.833 704.778C300.166 705.333 298.356 704.423 297.798 702.748L297.15 700.798C296.592 699.124 297.496 697.31 299.164 696.755L299.159 696.757Z" fill="#185A9C"/>
</g>
<g opacity="0.29">
<path d="M296.674 694.055C297.232 695.73 296.333 697.541 294.665 698.097L283.217 701.906C281.549 702.461 279.739 701.55 279.182 699.876L278.533 697.926C277.976 696.252 278.875 694.44 280.547 693.883L291.995 690.074C293.663 689.519 295.467 690.426 296.025 692.105L296.674 694.055Z" fill="#185A9C"/>
</g>
<g opacity="0.29">
<path d="M403.715 661.647L415.163 657.838C416.831 657.283 418.641 658.194 419.198 659.868L419.847 661.818C420.404 663.492 419.504 665.3 417.836 665.855L406.388 669.664C404.72 670.219 402.916 669.312 402.359 667.637L401.709 665.683C401.151 664.008 402.052 662.201 403.72 661.646L403.715 661.647Z" fill="#185A9C"/>
</g>
<g opacity="0.29">
<path d="M379.656 660.075L391.104 656.265C392.772 655.71 394.575 656.618 395.133 658.292L395.783 660.247C396.34 661.921 395.44 663.728 393.772 664.283L382.324 668.093C380.656 668.648 378.846 667.737 378.289 666.063L377.639 664.108C377.082 662.434 377.985 660.62 379.653 660.065L379.656 660.075Z" fill="#185A9C"/>
</g>
<g opacity="0.29">
<path d="M369.736 673.271L381.184 669.462C382.852 668.907 384.662 669.817 385.219 671.492L385.868 673.441C386.425 675.116 385.522 676.929 383.854 677.484L372.411 681.292C370.743 681.847 368.933 680.937 368.376 679.262L367.727 677.313C367.17 675.638 368.073 673.825 369.741 673.27L369.736 673.271Z" fill="#185A9C"/>
</g>
<g opacity="0.29">
<path d="M367.251 670.569C367.808 672.244 366.91 674.056 365.242 674.611L353.794 678.42C352.126 678.975 350.316 678.065 349.759 676.39L349.11 674.44C348.553 672.766 349.452 670.954 351.124 670.397L362.572 666.588C364.24 666.033 366.044 666.94 366.602 668.62L367.251 670.569Z" fill="#185A9C"/>
</g>
<path d="M438.792 551.468L424.554 556.206L449.967 632.573L464.205 627.835L438.792 551.468Z" fill="#486D91"/>
<path d="M407.297 560.511L391.764 565.679L417.608 643.341L433.14 638.173L407.297 560.511Z" fill="#486D91"/>
<g opacity="0.27">
<path d="M300.559 594.287L280.143 601.08L280.151 601.103L259.735 607.896L262.643 616.635C264.528 622.299 270.627 625.367 276.263 623.492C281.899 621.617 284.921 615.55 283.081 609.908C284.996 615.513 291.058 618.544 296.671 616.676C302.285 614.808 305.329 608.734 303.489 603.092C305.396 608.711 311.468 611.752 317.087 609.882C322.706 608.013 325.773 601.893 323.888 596.23L320.98 587.491L300.559 594.287Z" fill="#41636B"/>
<path d="M361.339 574.135L341.424 580.762L341.402 580.695L320.981 587.491L323.889 596.229C325.772 601.887 331.873 604.962 337.509 603.086C342.404 601.457 345.34 596.636 344.802 591.692C347.317 596.016 352.584 598.144 357.501 596.508C362.975 594.686 365.99 588.876 364.438 583.357C366.51 588.691 372.398 591.532 377.867 589.712C383.335 587.893 386.551 581.718 384.668 576.06L381.76 567.321L361.339 574.117L361.346 574.139L361.339 574.135Z" fill="#41636B"/>
<path d="M422.589 553.678L402.174 560.472L402.181 560.494L381.771 567.286L384.679 576.024C386.564 581.688 392.663 584.757 398.299 582.881C403.935 581.006 406.959 574.945 405.119 569.303C407.039 574.906 413.094 577.933 418.702 576.067C424.31 574.201 427.36 568.125 425.52 562.484C427.432 568.101 433.498 571.143 439.117 569.274C444.736 567.404 447.803 561.285 445.919 555.621L443.011 546.882L422.589 553.678Z" fill="#41636B"/>
<path d="M253.599 609.962L259.632 628.093C262.709 625.312 264.026 620.868 262.627 616.664L259.719 607.925L253.599 609.962Z" fill="#41636B"/>
<path d="M454.015 543.22L443.011 546.882L445.919 555.621C447.802 561.279 453.903 564.353 459.539 562.478C459.806 562.389 460.062 562.285 460.317 562.176L454.01 543.222L454.015 543.22Z" fill="#41636B"/>
</g>
<path d="M424.63 597.386C424.936 598.303 424.446 599.285 423.527 599.591L411.186 603.698C410.273 604.002 409.285 603.504 408.982 602.593C408.679 601.682 409.17 600.686 410.083 600.382L422.424 596.276C423.337 595.972 424.325 596.469 424.63 597.386Z" fill="#A1CFFE"/>
<path d="M413.623 601.049C414.255 602.95 413.232 605.004 411.338 605.635C409.445 606.265 407.389 605.235 406.756 603.334C406.124 601.433 407.147 599.378 409.046 598.746C410.945 598.115 412.99 599.148 413.623 601.049Z" fill="#A1CFFE"/>
<path d="M244.856 619.464C246.742 625.133 243.692 631.247 238.051 633.124C232.409 635.001 226.304 631.935 224.418 626.265L221.508 617.521L241.946 610.72L244.856 619.464Z" fill="#003366"/>
<path d="M265.235 612.658C267.121 618.327 264.071 624.44 258.424 626.319C252.778 628.198 246.676 625.124 244.791 619.46L241.882 610.716L262.32 603.915L265.229 612.659L265.235 612.658Z" fill="#145495"/>
<path d="M285.694 605.825C287.579 611.488 284.53 617.607 278.884 619.487C273.237 621.366 267.141 618.29 265.256 612.626L262.344 603.876L282.782 597.075L285.694 605.825Z" fill="#003366"/>
<path d="M306.114 599.004C308.001 604.674 304.952 610.793 299.311 612.67C293.67 614.547 287.565 611.48 285.676 605.806L282.766 597.061L303.204 590.26L306.114 599.004Z" fill="#145495"/>
<path d="M326.546 592.206C328.433 597.875 325.385 603.994 319.743 605.871C314.102 607.748 307.997 604.681 306.109 599.007L303.199 590.262L323.637 583.461L326.546 592.206Z" fill="#003366"/>
<path d="M346.99 585.402C348.877 591.071 345.834 597.189 340.187 599.068C334.54 600.947 328.441 597.878 326.552 592.203L323.642 583.459L344.08 576.658L346.99 585.402Z" fill="#145495"/>
<path d="M366.994 578.821C368.881 584.49 365.831 590.603 360.184 592.483C354.537 594.362 348.437 591.293 346.551 585.624L343.641 576.879L364.079 570.078L366.989 578.823L366.994 578.821Z" fill="#003366"/>
<path d="M387.379 572.012C389.266 577.682 386.215 583.795 380.574 585.672C374.933 587.55 368.826 584.477 366.941 578.813L364.031 570.069L384.469 563.268L387.379 572.012Z" fill="#145495"/>
<path d="M407.833 565.181C409.717 570.845 406.669 576.964 401.028 578.841C395.387 580.719 389.28 577.646 387.395 571.982L384.483 563.233L404.921 556.431L407.833 565.181Z" fill="#003366"/>
<path d="M428.258 558.36C430.144 564.029 427.096 570.148 421.455 572.025C415.813 573.903 409.708 570.836 407.82 565.161L404.91 556.417L425.348 549.615L428.258 558.36Z" fill="#145495"/>
<path d="M448.69 551.561C450.577 557.23 447.528 563.349 441.887 565.226C436.246 567.103 430.141 564.037 428.252 558.362L425.342 549.617L445.78 542.816L448.69 551.561Z" fill="#003366"/>
<path d="M469.128 544.759C471.015 550.429 467.966 556.548 462.325 558.425C456.684 560.302 450.579 557.235 448.69 551.56L445.781 542.816L466.218 536.015L469.128 544.759Z" fill="#145495"/>
<path d="M489.604 538.019C491.49 543.688 488.44 549.802 482.799 551.679C477.157 553.556 471.052 550.49 469.166 544.82L466.256 536.076L486.694 529.275L489.604 538.019Z" fill="#003366"/>
<path d="M486.385 641.936C485.373 638.894 482.095 637.24 479.06 638.25L412.239 660.486C409.203 661.496 407.568 664.779 408.582 667.826L410.111 672.422L487.915 646.531L486.385 641.936Z" fill="#145495"/>
<path d="M466.255 536.076L436.405 518.219L453.953 512.379L486.693 529.275L466.255 536.076Z" fill="#003366"/>
<path d="M466.255 536.076L436.406 518.218L420.072 523.654L445.778 542.815L466.255 536.076Z" fill="#145495"/>
<path d="M425.346 549.615L403.644 529.046L420.072 523.654L445.778 542.815L425.346 549.615Z" fill="#003366"/>
<path d="M425.348 549.614L403.645 529.046L386.448 534.769L404.923 556.436L425.348 549.614Z" fill="#145495"/>
<path d="M384.468 563.267L369.794 540.36L386.447 534.769L404.921 556.436L384.468 563.267Z" fill="#003366"/>
<path d="M384.468 563.267L369.794 540.36L353.182 545.888L364.082 570.075L384.468 563.267Z" fill="#145495"/>
<path d="M343.647 576.877L336.541 551.451L353.184 545.888L364.085 570.075L343.647 576.877Z" fill="#003366"/>
<path d="M343.646 576.877L336.539 551.451L320.36 556.736L323.636 583.461L343.646 576.877Z" fill="#145495"/>
<path d="M241.943 610.719L254.022 578.91L237.031 584.564L221.505 617.52L241.943 610.719Z" fill="#003366"/>
<path d="M241.943 610.719L254.022 578.91L270.361 573.472L262.376 603.845L241.943 610.719Z" fill="#145495"/>
<path d="M282.811 597.046L286.742 567.948L270.364 573.472L262.378 603.845L282.811 597.046Z" fill="#003366"/>
<path d="M282.808 597.046L286.739 567.948L303.942 562.223L303.248 590.269L282.808 597.046Z" fill="#145495"/>
<path d="M323.717 583.483L320.359 556.736L303.944 562.223L303.25 590.269L323.717 583.483Z" fill="#003366"/>
</g>
<path d="M180.201 750.401C181.668 749.976 182.511 748.439 182.084 746.969C181.658 745.498 180.123 744.651 178.657 745.077C177.19 745.502 176.347 747.039 176.774 748.509C177.201 749.979 178.735 750.826 180.201 750.401Z" fill="#A8D3FF"/>
<path d="M211.2 771.463C212.666 771.038 213.509 769.501 213.082 768.031C212.656 766.56 211.121 765.713 209.655 766.139C208.189 766.564 207.346 768.101 207.772 769.571C208.199 771.042 209.733 771.889 211.2 771.463Z" fill="#A8D3FF"/>
<path d="M180.3 755.588L187.38 753.534C188.681 753.156 190.049 753.912 190.427 755.216C190.805 756.519 190.054 757.889 188.753 758.267L181.673 760.321C180.373 760.698 179.005 759.942 178.627 758.639C178.248 757.335 178.989 755.968 180.3 755.588Z" fill="#A8D3FF"/>
<path d="M189.632 761.941L215.454 753.187C216.754 752.81 218.122 753.565 218.5 754.868C218.878 756.172 218.127 757.542 216.827 757.919L191.004 766.673C189.704 767.051 188.336 766.295 187.958 764.992C187.58 763.688 188.331 762.318 189.632 761.941Z" fill="#A8D3FF"/>
<path d="M216.698 762.807L242.52 754.053C243.82 753.676 245.188 754.431 245.566 755.735C245.945 757.038 245.193 758.409 243.893 758.786L218.071 767.54C216.771 767.917 215.403 767.162 215.024 765.858C214.646 764.554 215.398 763.184 216.698 762.807Z" fill="#A8D3FF"/>
</g>
<defs>
<linearGradient id="paint0_linear_1980_4828" x1="653.617" y1="19.7947" x2="660.762" y2="854.492" gradientUnits="userSpaceOnUse">
<stop stop-color="#093969"/>
<stop offset="0.977771" stop-color="#064F97"/>
</linearGradient>
<linearGradient id="paint1_linear_1980_4828" x1="1315.07" y1="275.198" x2="1270.75" y2="438.568" gradientUnits="userSpaceOnUse">
<stop stop-color="#D1E8FF"/>
<stop offset="1" stop-color="#8DCFFF" stop-opacity="0"/>
</linearGradient>
<linearGradient id="paint2_linear_1980_4828" x1="1362.96" y1="215.116" x2="1294.69" y2="413.819" gradientUnits="userSpaceOnUse">
<stop stop-color="#D1E8FF"/>
<stop offset="1" stop-color="#8DCFFF" stop-opacity="0"/>
</linearGradient>
<linearGradient id="paint3_linear_1980_4828" x1="1410.86" y1="79.3174" x2="1275.69" y2="342.232" gradientUnits="userSpaceOnUse">
<stop stop-color="#D1E8FF"/>
<stop offset="1" stop-color="#8DCFFF" stop-opacity="0"/>
</linearGradient>
<linearGradient id="paint4_linear_1980_4828" x1="1458.76" y1="14.7187" x2="1290.04" y2="298.655" gradientUnits="userSpaceOnUse">
<stop stop-color="#D1E8FF"/>
<stop offset="1" stop-color="#8DCFFF" stop-opacity="0"/>
</linearGradient>
<clipPath id="clip0_1980_4828">
<rect width="1440" height="854" fill="white"/>
</clipPath>
<clipPath id="clip1_1980_4828">
<rect width="280.383" height="193.481" fill="white" transform="translate(203 562.53) rotate(-18.4058)"/>
</clipPath>
</defs>
</svg>
