<svg width="24" height="24" viewBox="0 0 24 24" fill="none" xmlns="http://www.w3.org/2000/svg">
<g clip-path="url(#clip0_1524_4897)">
<path d="M14.8975 0C15.0365 0.0590325 15.1715 0.132495 15.317 0.174474C16.5046 0.514239 16.464 0.371249 16.0983 1.61093C13.9642 8.84045 11.8274 16.07 9.68284 23.2955C9.60287 23.5645 9.62122 24.0171 9.23583 24C8.72721 23.9777 8.19892 23.8596 7.78207 23.5238C7.63656 23.4071 7.75716 23.1945 7.80304 23.0306C7.99574 22.3628 8.1596 21.6833 8.39556 21.0313C8.60005 20.4672 8.39949 20.3728 7.87907 20.3793C6.03467 20.4016 4.18896 20.3715 2.34324 20.3977C1.76777 20.4056 1.54623 20.2429 1.54885 19.625C1.57114 14.5823 1.57114 9.53834 1.55016 4.49434C1.54754 3.8804 1.7599 3.7243 2.33931 3.72823C5.76856 3.74922 9.19912 3.71249 12.6284 3.75972C13.3467 3.7689 13.6168 3.51965 13.778 2.87292C14.0192 1.90347 14.3456 0.956327 14.6366 0C14.7232 0 14.811 0 14.8975 0ZM10.4956 13.7034C10.5664 13.5735 10.6096 13.5198 10.6267 13.4594C11.345 11.0456 12.0477 8.62531 12.7857 6.21809C12.9744 5.60153 12.6389 5.62121 12.2312 5.62121C9.56224 5.62383 6.89198 5.63695 4.22304 5.61203C3.63183 5.60678 3.42734 5.79175 3.43389 6.39388C3.46142 8.78404 3.44438 11.1755 3.44438 13.5657C3.44438 15.0008 3.44962 16.4347 3.44307 17.8698C3.44176 18.2424 3.50861 18.4995 3.97135 18.4955C5.55489 18.4811 7.13974 18.4877 8.72327 18.4903C9.03264 18.4903 9.23976 18.3591 9.25287 18.0456C9.26991 17.6192 8.91859 17.7898 8.72852 17.7872C7.38356 17.7701 6.03729 17.7793 4.69233 17.7727C4.47866 17.7727 4.23746 17.7793 4.19027 17.4802C4.15487 17.2506 4.18109 17.0407 4.41705 16.924C5.44215 16.4202 6.02287 15.4941 6.63505 14.5942C6.94048 14.1455 7.23543 13.6837 7.59461 13.281C8.292 12.4992 9.0877 12.4664 9.88471 13.138C10.0813 13.3033 10.2622 13.487 10.493 13.7034H10.4956Z" fill="#B9BDC2"/>
<path d="M22.4536 20.3544C19.221 20.3649 15.9897 20.3728 12.757 20.3859C12.3402 20.3872 12.2261 20.2114 12.3454 19.8113C12.8173 18.2253 12.5827 18.51 14.0037 18.4969C15.9346 18.4798 17.8655 18.4732 19.7964 18.5047C20.4008 18.5152 20.6341 18.3578 20.6288 17.7084C20.6026 13.9487 20.6039 10.189 20.6288 6.4306C20.6328 5.80486 20.4375 5.58185 19.8109 5.61202C18.9234 5.654 18.032 5.61464 17.1432 5.62382C16.7342 5.62776 16.5796 5.46509 16.7054 5.06498C16.7316 4.98234 16.7565 4.89969 16.7827 4.81573C17.1721 3.54326 17.0213 3.74397 18.2299 3.74134C19.6391 3.73741 21.0483 3.76758 22.4575 3.78332V20.3544H22.4536Z" fill="#B9BDC2"/>
<path d="M16.4447 17.7767C15.4904 17.7767 14.5347 17.7714 13.5804 17.778C13.1518 17.7806 12.9879 17.631 13.1216 17.1824C13.8911 14.602 14.6488 12.019 15.4065 9.43602C15.5415 8.97556 15.7997 8.99262 16.1379 9.20645C16.6295 9.51735 16.9664 9.96862 17.2614 10.454C18.1632 11.939 18.8816 13.525 19.7455 15.0336C20.1597 15.7564 19.908 16.6944 19.8412 17.5327C19.8176 17.8357 19.4702 17.774 19.2434 17.7767C18.3101 17.7858 17.378 17.7806 16.4447 17.7793V17.7767Z" fill="#B9BDC2"/>
<path d="M6.84512 10.8147C5.8777 10.8331 5.00597 9.98173 4.9981 9.01098C4.99024 8.03628 5.84362 7.17703 6.81891 7.17703C7.76274 7.17703 8.59514 7.99299 8.63054 8.95194C8.66593 9.91877 7.82566 10.7951 6.84512 10.8147Z" fill="#B9BDC2"/>
</g>
<defs>
<clipPath id="clip0_1524_4897">
<rect width="24" height="24" fill="white"/>
</clipPath>
</defs>
</svg>
