<svg width="32" height="32" viewBox="0 0 32 32" fill="none" xmlns="http://www.w3.org/2000/svg">
<ellipse cx="15.9549" cy="15.6808" rx="15.9549" ry="15.6808" transform="matrix(1 0 0.00287694 0.999996 0 0)" fill="#FFD0D0"/>
<path d="M11.9649 17.3139L11.9649 17.3139L11.9666 17.3111C12.116 17.0605 12.2335 16.7498 12.3138 16.4605C12.3941 16.1714 12.4541 15.8426 12.4541 15.5475V13.6207C12.4541 11.8348 13.9064 10.3825 15.6924 10.3825C17.4717 10.3825 18.9306 11.8414 18.9306 13.6207V15.5475C18.9306 15.8424 18.9906 16.1707 19.0694 16.4582C19.1485 16.7465 19.2632 17.0542 19.4059 17.3017L19.4095 17.3078L19.4132 17.3139L20.1793 18.5863C20.1793 18.5864 20.1794 18.5865 20.1794 18.5866C20.3695 18.9038 20.2137 19.3118 19.8734 19.4243L19.8711 19.4251C17.1549 20.3326 14.2248 20.3327 11.5085 19.4256C11.2715 19.345 11.1606 19.208 11.1175 19.0914C11.0746 18.9756 11.0694 18.8015 11.1982 18.5873C11.1982 18.5873 11.1983 18.5872 11.1983 18.5871L11.9649 17.3139Z" stroke="#FF4343" stroke-width="1.52388" stroke-miterlimit="10" stroke-linecap="round"/>
<mask id="path-3-inside-1_3118_9369" fill="white">
<path d="M16.9277 9.81352C16.1215 9.5839 15.2672 9.5839 14.4609 9.81352C14.6543 9.32016 15.1343 8.97348 15.6943 8.97348C16.2544 8.97348 16.7344 9.32016 16.9277 9.81352Z"/>
</mask>
<path d="M16.9277 9.81352L16.5103 11.2791C17.0674 11.4378 17.6663 11.2669 18.0558 10.8381C18.4452 10.4093 18.5579 9.79681 18.3465 9.2575L16.9277 9.81352ZM14.4609 9.81352L13.0421 9.2575C12.8308 9.79681 12.9434 10.4093 13.3329 10.8381C13.7224 11.2669 14.3212 11.4378 14.8783 11.2791L14.4609 9.81352ZM17.3451 8.34792C16.2661 8.04059 15.1226 8.04059 14.0435 8.34792L14.8783 11.2791C15.4117 11.1272 15.9769 11.1272 16.5103 11.2791L17.3451 8.34792ZM15.8798 10.3695C15.8507 10.4436 15.7787 10.4974 15.6943 10.4974V7.4496C14.4899 7.4496 13.4578 8.19668 13.0421 9.2575L15.8798 10.3695ZM15.6943 10.4974C15.61 10.4974 15.5379 10.4436 15.5089 10.3695L18.3465 9.2575C17.9308 8.19668 16.8987 7.4496 15.6943 7.4496V10.4974Z" fill="#FF4343" mask="url(#path-3-inside-1_3118_9369)"/>
<mask id="path-5-inside-2_3118_9369" fill="white">
<path d="M17.6955 20.3878C17.6955 21.4878 16.7955 22.3879 15.6954 22.3879C15.1487 22.3879 14.642 22.1612 14.282 21.8012C13.9074 21.426 13.6965 20.9179 13.6953 20.3878"/>
</mask>
<path d="M14.282 21.8012L13.2036 22.8779L13.2045 22.8787L14.282 21.8012ZM16.1716 20.3878C16.1716 20.6462 15.9538 20.864 15.6954 20.864V23.9118C17.6371 23.9118 19.2194 22.3295 19.2194 20.3878H16.1716ZM15.6954 20.864C15.5703 20.864 15.4463 20.8104 15.3596 20.7236L13.2045 22.8787C13.8377 23.512 14.7271 23.9118 15.6954 23.9118V20.864ZM15.3604 20.7245C15.2702 20.6342 15.2195 20.5119 15.2192 20.3843L12.1714 20.3912C12.1735 21.3239 12.5446 22.2179 13.2036 22.8779L15.3604 20.7245Z" fill="#FF4343" mask="url(#path-5-inside-2_3118_9369)"/>
<path d="M21.3057 15.8923L24.1349 12.9091" stroke="#FF4343" stroke-width="1.28006" stroke-linecap="round" stroke-linejoin="round"/>
<path d="M21.2286 12.986L24.2118 15.8152" stroke="#FF4343" stroke-width="1.28006" stroke-linecap="round" stroke-linejoin="round"/>
</svg>
