<svg width="32" height="32" viewBox="0 0 32 32" fill="none" xmlns="http://www.w3.org/2000/svg">
<ellipse cx="15.9519" cy="16.0001" rx="15.9519" ry="16.0001" transform="matrix(1 0 0.00287694 0.999996 0 0)" fill="#FFF6D6"/>
<path d="M16 26C10.4771 26 6 21.5228 6 16C6 10.4771 10.4771 6 16 6C21.5228 6 26 10.4771 26 16C26 21.5228 21.5228 26 16 26ZM16 24C20.4183 24 24 20.4183 24 16C24 11.5817 20.4183 8 16 8C11.5817 8 8 11.5817 8 16C8 20.4183 11.5817 24 16 24ZM15 19H17V21H15V19ZM15 11H17V17H15V11Z" fill="#F19D00"/>
</svg>
