<svg width="50" height="49" viewBox="0 0 50 49" fill="none" xmlns="http://www.w3.org/2000/svg">
<g id="Group 102932">
<g id="Group 102873">
<ellipse id="Ellipse 746" cx="24.9283" cy="24.5001" rx="24.9283" ry="24.5001" transform="matrix(1 0 0.00287694 0.999996 0 0)" fill="#FFD0D0"/>
</g>
<g id="Group 102953">
<path id="Ellipse 774 (Stroke)" fill-rule="evenodd" clip-rule="evenodd" d="M31.9795 21.0921C31.1938 19.7191 30.0131 18.5976 28.586 17.8538C28.1064 17.6039 27.858 17.0586 28.0627 16.5753C28.2674 16.092 28.8469 15.8546 29.3321 16.0945C31.1816 17.0088 32.7115 18.4313 33.7166 20.1878C34.8804 22.2215 35.2688 24.5772 34.8157 26.8534C34.3626 29.1297 33.096 31.1857 31.2317 32.6711C29.3674 34.1565 27.0208 34.9794 24.5916 34.9996C22.1625 35.0198 19.8012 34.2361 17.91 32.782C16.0188 31.3278 14.7147 29.2932 14.22 27.0249C13.7253 24.7565 14.0706 22.3948 15.197 20.342C16.1698 18.569 17.6734 17.1213 19.5059 16.1763C19.9867 15.9284 20.5704 16.1561 20.7839 16.6359C20.9975 17.1157 20.7591 17.6651 20.2841 17.923C18.8709 18.6904 17.7109 19.8313 16.9504 21.2172C16.0364 22.8831 15.7562 24.7997 16.1576 26.6405C16.5591 28.4813 17.6173 30.1324 19.1521 31.3125C20.6868 32.4925 22.6031 33.1285 24.5744 33.1121C26.5457 33.0957 28.45 32.4279 29.9629 31.2225C31.4758 30.0171 32.5037 28.3486 32.8714 26.5014C33.2391 24.6542 32.9239 22.7425 31.9795 21.0921Z" fill="#FF4343" stroke="#FF4343" stroke-linejoin="round"/>
<path id="Vector 166 (Stroke)" fill-rule="evenodd" clip-rule="evenodd" d="M25 13C25.5523 13 26 13.4477 26 14L26 20C26 20.5523 25.5523 21 25 21C24.4477 21 24 20.5523 24 20L24 14C24 13.4477 24.4477 13 25 13Z" fill="#FF4343" stroke="#FF4343"/>
</g>
</g>
</svg>
