<svg width="245" height="244" viewBox="0 0 245 244" fill="none" xmlns="http://www.w3.org/2000/svg">
<g clip-path="url(#clip0_4566_2435)">
<path d="M210.544 78.6926V208.139C209.591 209.047 208.6 209.556 207.141 209.556C150.725 209.505 94.3115 209.515 37.8949 209.511C35.6106 209.511 34.7471 208.662 34.7471 206.405C34.7471 173.564 34.7471 140.72 34.754 107.88C34.754 107.274 34.8812 106.665 34.9776 106.063C35.3491 103.762 38.1392 101.732 41.4177 101.746C51.6008 101.79 61.7874 101.763 71.9705 101.763H73.904C73.9212 101.398 73.9418 101.185 73.9418 100.968C73.9418 88.6659 73.9521 76.3636 73.9349 64.0647C73.9349 61.8836 74.7502 55.7634 76.9726 55.5604C78.5448 55.698 78.8613 62.2689 79.0265 63.6931C79.1194 64.4844 79.0953 65.2929 79.0953 66.091C79.0953 111.464 79.0953 156.838 79.0953 202.211V204.31H102.902C102.902 203.512 102.902 202.889 102.902 202.266C102.902 190.827 102.902 179.392 102.909 167.953C102.909 167.097 102.953 166.24 103.039 165.387C103.27 163.092 104.973 161.186 107.209 160.777C108.203 160.595 109.228 160.491 110.24 160.488C118.82 160.467 127.396 160.412 135.973 160.536C137.438 160.557 139.251 160.987 140.27 161.919C141.869 163.381 142.42 165.555 142.406 167.857C142.351 179.409 142.382 190.962 142.382 202.514C142.382 203.109 142.382 203.708 142.382 204.265H166.151V182.072C166.182 181.491 166.213 180.909 166.244 180.331C166.244 180.207 166.24 180.084 166.237 179.96C166.846 179.396 167.451 178.831 168.06 178.267L168.201 178.288C168.92 178.515 169.639 178.742 170.358 178.969C170.609 179.31 170.86 179.65 171.115 179.991C171.198 180.895 171.352 181.804 171.356 182.708C171.376 189.286 171.366 195.867 171.37 202.445C171.37 203.047 171.425 203.649 171.456 204.251H205.387V202.301C205.387 162.655 205.394 123.01 205.342 83.3645C205.342 82.2636 204.681 81.1662 204.331 80.0687C204.65 79.9999 204.967 79.9311 205.287 79.8589C205.287 79.6972 205.284 79.5389 205.28 79.3772H171.363C171.363 81.1662 171.363 82.6902 171.363 84.2142C171.363 112.355 171.325 140.497 171.425 168.638C171.435 171.177 170.637 172.883 168.614 174.18C168.002 173.829 167.351 173.53 166.784 173.121C165.669 172.319 166.195 171.132 166.195 170.097C166.185 127.599 166.189 85.1052 166.189 42.6079C166.189 42.2639 166.216 41.9198 166.182 41.5792C165.906 38.8718 165.893 38.8649 163.127 38.8649C139.792 38.8649 116.456 38.8649 93.1212 38.8787C92.5363 38.8787 91.9515 39.061 91.3666 39.1573C90.7199 39.061 90.0697 38.889 89.4195 38.8821C86.4127 38.8511 83.4025 38.8408 80.3957 38.9027C79.9416 38.9131 79.4943 39.3431 79.0437 39.577C78.9611 39.608 78.8751 39.6389 78.7925 39.6734C78.8751 39.7422 78.9611 39.811 79.0437 39.8832C79.0574 44.4347 79.1366 58.636 79.109 63.1874C79.0987 64.7699 78.3143 65.8399 76.6493 66.091C74.7365 65.8915 73.9831 65.0865 73.9796 63.1943C73.9728 58.9078 73.9796 44.9748 73.928 40.6882C73.8971 38.2388 74.7365 36.2675 76.6493 34.7263C76.8798 34.5405 76.8729 34.0657 76.9726 33.7252C106.851 33.7148 136.723 33.7148 166.594 33.7148C167.627 34.4029 168.813 34.9465 169.656 35.8168C170.988 37.1964 171.352 39.0231 171.352 40.9325C171.339 51.3461 171.345 61.7632 171.345 72.1768V74.1859C172.102 74.1859 172.715 74.1859 173.327 74.1859C183.455 74.1859 193.583 74.1721 203.711 74.1962C205.844 74.1997 207.805 74.7776 209.202 76.5287C209.728 77.1892 210.1 77.9702 210.544 78.6926ZM136.417 166.202L135.312 165.652C129.949 165.669 124.582 165.686 119.219 165.703C117.138 165.676 115.053 165.61 112.971 165.635C111.375 165.655 109.782 165.793 108.189 165.882C108.152 166.14 108.11 166.398 108.072 166.656C108.069 179.093 108.066 191.526 108.062 203.962C108.128 204.083 108.196 204.203 108.262 204.324C111.915 204.32 115.569 204.313 119.219 204.31H137.232V167.599C137.662 166.722 137.411 166.247 136.417 166.206V166.202ZM40.9464 106.91C40.8122 107.123 40.6746 107.333 40.5404 107.546C40.3237 108.461 39.9246 109.376 39.9212 110.291C39.8902 141.009 39.8937 171.731 39.8971 202.449C39.8971 203.051 39.9522 203.656 39.9831 204.241H73.787V106.91H40.9464Z" fill="black"/>
<path d="M168.064 178.267C167.455 178.831 166.849 179.395 166.24 179.959C166.141 180.08 166.041 180.2 165.941 180.32C165.208 180.823 165.27 181.342 166.154 182.071V204.264H142.386C142.386 203.704 142.386 203.109 142.386 202.513C142.386 190.961 142.358 179.409 142.41 167.856C142.42 165.558 141.873 163.384 140.274 161.918C139.255 160.986 137.442 160.556 135.977 160.535C127.4 160.412 118.82 160.463 110.244 160.487C109.232 160.487 108.207 160.597 107.213 160.776C104.977 161.182 103.274 163.092 103.043 165.386C102.957 166.236 102.912 167.096 102.912 167.953C102.906 179.391 102.906 190.827 102.906 202.266C102.906 202.888 102.906 203.511 102.906 204.309H90.3796C90.3796 186.571 90.3796 168.833 90.3796 151.095C91.7523 152.351 93.4105 152.65 95.2097 152.64C101.21 152.609 107.213 152.633 113.213 152.626C117.664 152.623 120.052 150.222 120.066 145.729C120.076 142.529 120.066 139.326 120.059 136.127C120.1 135.752 120.145 135.377 120.186 135.002C119.171 132.164 116.491 130.223 113.44 130.213C107.213 130.189 100.979 130.127 94.7556 130.272C93.4139 130.303 92.0929 131.132 90.7615 131.593C90.7271 128.954 90.6927 126.319 90.6583 123.68C91.4977 124.134 92.3268 124.97 93.1731 124.984C99.9022 125.084 106.631 125.025 113.364 125.015C114.038 126.064 114.468 125.81 114.75 124.757C115.259 124.726 115.765 124.698 116.061 124.681C116.484 124.2 116.773 123.825 117.11 123.494C117.912 122.71 119.381 121.998 119.446 121.169C119.794 116.776 119.945 112.351 119.859 107.941C119.797 104.879 117.048 102.732 114.162 102.695C107.474 102.612 100.783 102.602 94.102 102.77C92.8773 102.801 91.6766 103.816 90.4622 104.377C90.5482 101.869 90.6377 99.3576 90.7237 96.8497C91.7901 97.0733 92.8566 97.4792 93.9265 97.4861C100.779 97.5377 107.636 97.5308 114.489 97.4655C115.552 97.4551 117.045 97.4104 117.585 96.7568C119.016 95.0194 120.203 93.0516 120.096 90.5574C119.973 87.6504 120.086 84.7297 120.062 81.8158C120.031 77.6772 117.575 75.066 113.488 75.0178C107.319 74.9456 101.148 74.9662 94.9758 75.0282C93.3038 75.0454 91.6216 75.3172 90.3762 76.6726C90.4003 73.8241 90.4244 70.9756 90.4484 68.127C91.4427 68.6912 92.4335 69.2554 93.4277 69.8196C93.7648 70.5524 94.1295 70.6487 94.532 69.8644C100.738 69.8575 106.944 69.9194 113.151 69.7956C114.585 69.768 116.003 69.1075 117.43 68.736C117.564 68.6431 117.699 68.5467 117.833 68.4539C119.56 67.15 120.041 65.2957 120.062 63.2694C120.09 60.2454 120.004 57.218 120.086 54.1975C120.196 50.052 117.193 47.458 113.216 47.4477C107.168 47.4305 101.117 47.4477 95.0687 47.4408C93.2763 47.4408 91.656 47.864 90.3865 49.2263C90.3796 48.1495 90.3143 47.0693 90.3762 45.9959C90.5069 43.6875 89.7742 41.245 91.3739 39.1498C91.9587 39.0535 92.5435 38.8712 93.1284 38.8712C116.464 38.8574 139.799 38.8574 163.134 38.8574C165.9 38.8574 165.91 38.8643 166.189 41.5718C166.223 41.9124 166.196 42.2564 166.196 42.6004C166.196 85.0978 166.196 127.592 166.203 170.089C166.203 171.128 165.673 172.311 166.791 173.113C167.362 173.522 168.009 173.822 168.621 174.173C168.428 175.432 168.236 176.687 168.043 177.947C167.992 178.053 167.998 178.16 168.067 178.256L168.064 178.267ZM154.568 123.309C154.695 122.971 154.822 122.631 154.946 122.294C155.283 121.963 155.624 121.637 155.961 121.306C156.081 120.993 156.298 120.684 156.305 120.367C156.398 116.383 156.766 112.369 156.436 108.416C156.119 104.611 154.127 102.884 150.746 102.75C143.955 102.485 137.143 102.643 130.342 102.719C127.737 102.746 125.25 105.54 125.253 108.165C125.26 111.88 125.37 115.599 125.212 119.308C125.147 120.835 125.594 122.07 126.612 122.934C127.703 123.859 128.652 125.417 130.534 124.757C130.768 124.843 131.002 124.925 131.236 125.012C137.938 125.022 144.639 125.06 151.341 125.015C152.177 125.008 153.009 124.575 153.842 124.341C154.083 123.997 154.323 123.653 154.561 123.309H154.568ZM151.857 69.8231C154.922 68.8598 156.367 66.5927 156.515 63.5549C156.67 60.359 156.659 57.1423 156.522 53.9429C156.353 50.0692 154.368 47.6128 150.295 47.4959C143.776 47.3067 137.25 47.4064 130.727 47.4718C128.133 47.4993 125.081 50.2756 125.099 52.3948C125.13 55.9692 125.164 59.5402 125.233 63.1146C125.25 64.0297 125.212 65.0102 125.522 65.8427C126.523 68.5502 128.501 69.8265 131.525 69.8403C137.821 69.8678 144.113 69.8644 150.408 69.8712C150.931 70.8896 151.403 70.5524 151.86 69.8196L151.857 69.8231ZM140.604 97.4861C140.604 97.4861 140.604 97.4999 140.604 97.5102C143.862 97.5102 147.12 97.5102 150.381 97.5102C153.236 97.5136 155.978 95.3979 156.24 92.5184C156.553 89.0678 156.511 85.5794 156.536 82.1048C156.567 77.5327 154.004 75.011 149.404 75.0041C144.257 74.9938 139.111 74.9215 133.968 75.0454C132.103 75.0901 130.218 75.5132 128.398 75.9742C126.605 76.4283 125.298 78.3136 125.295 80.1541C125.288 84.1999 125.295 88.2456 125.339 92.2913C125.374 95.3531 127.514 97.4861 130.479 97.4861C133.851 97.4861 137.225 97.4861 140.597 97.4861H140.604ZM140.501 152.544C140.501 152.571 140.501 152.599 140.501 152.63C143.703 152.63 146.91 152.53 150.109 152.657C153.828 152.805 156.429 150.029 156.532 146.279C156.618 143.135 156.587 139.987 156.539 136.843C156.481 133.027 154.127 130.344 150.181 130.254C143.721 130.103 137.256 130.182 130.792 130.241C128.215 130.265 125.092 132.859 125.092 135.043C125.095 139.375 125.281 143.709 125.394 148.041C125.453 150.28 127.865 152.547 130.035 152.547C133.524 152.547 137.012 152.547 140.497 152.547L140.501 152.544Z" fill="#F0F0F0"/>
<path d="M168.043 177.958C168.236 176.699 168.428 175.443 168.621 174.184C170.647 172.887 171.442 171.18 171.432 168.641C171.335 140.5 171.37 112.359 171.37 84.2178C171.37 82.6938 171.37 81.1698 171.37 79.3809C182 79.3809 192.837 79.3809 203.677 79.3809C203.897 79.6114 204.117 79.8419 204.338 80.0689C204.688 81.1663 205.349 82.2672 205.349 83.3647C205.401 123.01 205.394 162.655 205.394 202.301V204.251H171.463C171.432 203.649 171.377 203.047 171.377 202.445C171.37 195.868 171.383 189.286 171.363 182.709C171.363 181.8 171.205 180.896 171.122 179.991C170.871 179.65 170.62 179.31 170.369 178.969C169.65 178.742 168.931 178.515 168.215 178.288C168.16 178.178 168.105 178.068 168.05 177.958H168.043ZM173.836 115.049C174.032 115.411 174.229 115.775 174.425 116.136C174.435 119.277 174.631 122.436 174.407 125.559C174.149 129.113 176.609 132.254 180.149 132.288C185.234 132.337 190.322 132.312 195.407 132.309C199.865 132.309 201.754 130.579 202.253 126.075C202.253 122.872 202.253 119.67 202.253 116.467C202.315 113.522 200.708 110.914 198.286 110.371C196.862 110.054 195.365 109.975 193.9 109.958C189.286 109.91 184.67 109.91 180.053 109.958C177.569 109.985 175.219 111.97 174.555 114.43C174.315 114.636 174.074 114.843 173.836 115.046V115.049ZM174.187 99.6473C174.834 102.833 177.992 104.973 181.009 104.846C186.022 104.636 191.051 104.811 196.071 104.78C199.645 104.76 202.242 102.203 202.291 98.6462C202.335 95.3952 202.322 92.1407 202.291 88.8897C202.27 86.5366 201.396 84.5963 199.377 83.2477C198.737 82.8177 198.152 82.3016 197.543 81.8269C196.879 81.414 196.422 81.4175 196.435 82.3739C191.12 82.3911 185.802 82.398 180.486 82.4358C176.898 82.4633 174.497 84.8784 174.466 88.4734C174.435 91.9618 174.435 95.4468 174.421 98.9352C174.342 99.1726 174.259 99.41 174.18 99.6473H174.187ZM187.879 187.535V187.542C190.508 187.542 193.133 187.542 195.761 187.542C195.875 187.542 195.988 187.542 196.105 187.542C199.652 187.508 202.246 184.972 202.294 181.401C202.339 178.033 202.342 174.662 202.294 171.29C202.242 167.826 199.869 165.28 196.428 165.218C190.948 165.119 185.461 165.132 179.981 165.218C177.098 165.267 174.597 167.627 174.521 170.379C174.411 174.431 174.425 178.491 174.531 182.544C174.604 185.275 177.087 187.508 179.826 187.528C182.509 187.549 185.196 187.532 187.879 187.532V187.535ZM188.268 160.175C188.268 160.127 188.272 160.082 188.275 160.034C190.848 160.034 193.425 160.075 195.998 160.024C199.39 159.955 201.596 158.279 201.94 154.894C202.325 151.107 202.442 147.253 202.211 143.455C201.981 139.681 199.669 137.552 196.212 137.487C191.007 137.387 185.798 137.435 180.59 137.469C177.294 137.49 174.208 140.308 174.421 143.861C174.638 147.453 174.449 151.069 174.5 154.674C174.531 156.896 176.671 159.494 178.866 159.704C181.986 160.003 185.131 160.031 188.265 160.178L188.268 160.175Z" fill="#335366"/>
<path d="M90.7229 96.8493C90.6369 99.3572 90.5474 101.869 90.4614 104.377C89.106 105.718 88.6312 107.349 88.7207 109.234C88.8032 110.996 88.7379 112.76 88.7379 114.525C88.7379 117.894 89.3789 120.946 90.661 123.68C90.6954 126.318 90.7298 128.954 90.7642 131.592C89.247 133.106 88.645 134.929 88.7172 137.073C88.8067 139.639 88.8307 142.216 88.7103 144.779C88.6037 147.094 88.9064 149.23 90.3789 151.095C90.3789 168.833 90.3789 186.571 90.3789 204.309H79.0948V202.21C79.0948 156.837 79.0948 111.463 79.0948 66.0901C79.0948 65.2885 79.1189 64.4835 79.026 63.6922C78.8609 62.268 79.6659 60.6859 78.0938 60.5483C79.9137 58.9422 78.0938 58.4945 78.0938 56.9361C79.7588 56.6849 79.0673 55.1226 79.0776 53.54C79.1052 48.9886 79.0639 44.4337 79.0467 39.8823C79.088 39.7825 79.088 39.6793 79.0467 39.5795C79.4974 39.3422 79.9446 38.9121 80.3987 38.9052C83.4055 38.8433 86.4157 38.8571 89.4225 38.8846C90.0727 38.8915 90.7194 39.0635 91.3696 39.1598C89.7699 41.2549 90.5027 43.6975 90.372 46.0059C90.3101 47.0793 90.372 48.1595 90.3823 49.2363C89.2505 50.5642 88.6897 52.0676 88.7207 53.8428C88.7757 56.9803 88.7998 60.1212 88.7103 63.2553C88.6587 65.1509 89.1163 66.7781 90.4477 68.137C90.4236 70.9855 90.3995 73.8341 90.3754 76.6826C89.2539 78.1378 88.6209 79.7341 88.7207 81.6193C88.7963 83.0918 88.7413 84.5745 88.7344 86.0538C88.7172 89.7246 88.2287 93.4813 90.7126 96.6911C90.7401 96.7289 90.7194 96.8011 90.7194 96.8596L90.7229 96.8493Z" fill="#CDCFCF"/>
<path d="M40.9463 106.91H73.7903V204.238H39.9864C39.9555 203.649 39.9004 203.047 39.9004 202.445C39.897 171.727 39.8901 141.006 39.9245 110.288C39.9245 109.373 40.327 108.458 40.5438 107.543C40.6779 107.329 40.8155 107.12 40.9497 106.906L40.9463 106.91ZM47.438 165.194C44.476 166.529 42.7765 168.604 42.9519 172.075C43.1136 175.267 42.9519 178.477 42.9966 181.677C43.0448 184.969 45.6216 187.511 48.9208 187.532C54.2359 187.563 59.5546 187.563 64.8697 187.532C68.2928 187.511 70.7732 185.003 70.8007 181.549C70.8317 178.006 70.8386 174.459 70.7801 170.915C70.7663 170.145 70.5633 169.33 70.2468 168.621C69.1356 166.13 67.0061 165.225 64.4397 165.205C59.2381 165.163 54.0364 165.174 48.8347 165.167C48.3531 164.255 47.8852 164.255 47.4346 165.191L47.438 165.194ZM56.8918 159.81C56.8918 159.889 56.8918 159.969 56.8918 160.048C59.4066 160.048 61.9214 160.089 64.4363 160.037C68.3513 159.958 70.8007 157.44 70.811 153.535C70.8214 150.336 70.8214 147.133 70.811 143.934C70.8007 140.108 68.4029 137.528 64.5842 137.466C59.441 137.38 54.2979 137.373 49.1547 137.466C45.4599 137.535 43.0104 140.184 42.9898 143.879C42.9726 147.192 42.9622 150.508 42.9932 153.821C43.0207 156.931 44.7615 159.356 47.8474 159.728C50.8232 160.086 53.8747 159.807 56.8918 159.807V159.81ZM56.8608 132.292C59.5477 132.292 62.2379 132.312 64.9248 132.285C68.3237 132.254 70.7526 129.856 70.8007 126.454C70.8454 123.309 70.9521 120.155 70.756 117.021C70.6562 115.407 70.2331 113.677 69.4521 112.28C68.3925 110.377 66.3181 109.848 64.2367 109.965C59.0901 110.257 53.9435 109.48 48.7659 110.446C44.9301 111.162 43.0242 112.569 42.9898 116.209C42.9588 119.47 42.9588 122.728 42.9898 125.989C43.0311 130.224 46.086 132.543 49.4815 132.326C51.931 132.168 54.3976 132.295 56.8574 132.292H56.8608Z" fill="#223C53"/>
<path d="M119.219 165.702C124.582 165.685 129.949 165.668 135.312 165.65C135.563 165.963 135.811 166.277 136.062 166.59C136.454 166.923 136.843 167.26 137.235 167.594V204.305H119.222C119.222 191.438 119.222 178.569 119.222 165.702H119.219Z" fill="#4DDFE5"/>
<path d="M119.219 165.704C119.219 178.57 119.219 191.44 119.219 204.307C115.566 204.31 111.912 204.317 108.262 204.32C108.197 204.2 108.128 204.08 108.062 203.959C108.066 191.523 108.069 179.09 108.073 166.653C108.111 166.395 108.152 166.137 108.19 165.879C109.783 165.793 111.375 165.652 112.972 165.631C115.053 165.604 117.138 165.673 119.219 165.7V165.704Z" fill="#00B5DE"/>
<path d="M137.232 167.595C136.84 167.261 136.451 166.924 136.059 166.59C136.176 166.463 136.296 166.332 136.413 166.205C137.407 166.246 137.662 166.721 137.228 167.598L137.232 167.595Z" fill="#286F72"/>
<path d="M166.154 182.072C165.273 181.343 165.208 180.82 165.94 180.321L166.095 180.314L166.25 180.332C166.219 180.913 166.188 181.494 166.157 182.072H166.154Z" fill="#B4B4B4"/>
<path d="M204.337 80.0728C204.117 79.8423 203.897 79.6118 203.677 79.3848C204.213 79.3848 204.75 79.3848 205.287 79.3848C205.287 79.5465 205.29 79.7047 205.294 79.8664C204.974 79.9352 204.657 80.004 204.337 80.0763V80.0728Z" fill="#090F15"/>
<path d="M136.417 166.202C136.3 166.33 136.179 166.46 136.062 166.588C135.811 166.275 135.564 165.961 135.312 165.648C135.681 165.831 136.049 166.017 136.417 166.199V166.202Z" fill="#349497"/>
<path d="M40.946 106.91C40.8118 107.123 40.6742 107.333 40.54 107.547C40.6742 107.337 40.8118 107.123 40.946 106.91Z" fill="#192C3B"/>
<path d="M79.05 39.5738C79.0912 39.6735 79.0878 39.7767 79.05 39.8765C78.9674 39.8077 78.8814 39.7389 78.7988 39.6666C78.8814 39.6357 78.9674 39.6047 79.05 39.5703V39.5738Z" fill="#9A9B9B"/>
<path d="M168.043 177.957C168.098 178.067 168.153 178.177 168.208 178.287L168.067 178.267C167.998 178.167 167.991 178.064 168.043 177.957Z" fill="#010102"/>
<path d="M166.25 180.332L166.095 180.315L165.94 180.322C166.04 180.202 166.14 180.081 166.24 179.961C166.24 180.085 166.243 180.209 166.247 180.332H166.25Z" fill="#010102"/>
<path d="M90.7229 96.8508C90.7229 96.7923 90.7436 96.7201 90.7161 96.6822C88.2322 93.4759 88.7173 89.7192 88.7379 86.045C88.7448 84.5657 88.7998 83.0864 88.7242 81.6105C88.6278 79.7253 89.2574 78.129 90.3789 76.6738C91.6209 75.3183 93.3031 75.0431 94.9785 75.0293C101.147 74.9674 107.319 74.9502 113.49 75.019C117.581 75.0672 120.037 77.6783 120.065 81.8169C120.085 84.7308 119.972 87.6482 120.099 90.5586C120.206 93.0528 119.019 95.0206 117.588 96.7579C117.051 97.4116 115.555 97.4563 114.492 97.4666C107.639 97.532 100.782 97.5389 93.9293 97.4873C92.8593 97.4804 91.7929 97.071 90.7264 96.8508H90.7229ZM101.35 92.3819C101.481 92.3682 101.608 92.3544 101.739 92.3407C105.554 92.351 109.373 92.3303 113.188 92.3854C114.416 92.4026 114.949 91.9863 114.925 90.71C114.873 87.7479 114.873 84.7859 114.925 81.8238C114.949 80.5509 114.426 80.1243 113.195 80.1415C109.379 80.1966 105.561 80.1794 101.745 80.1897C101.608 80.2551 101.467 80.317 101.329 80.3824H93.9361C93.9361 84.2079 93.8949 87.8477 94.0049 91.4875C94.0153 91.8177 94.9785 92.3647 95.5186 92.3923C97.4555 92.4886 99.4027 92.406 101.346 92.3923L101.35 92.3819Z" fill="black"/>
<path d="M140.607 97.4869C137.236 97.4869 133.861 97.4869 130.489 97.4869C127.524 97.4869 125.381 95.3505 125.35 92.2921C125.305 88.2464 125.298 84.2007 125.305 80.155C125.305 78.3144 126.616 76.4292 128.408 75.9751C130.231 75.5141 132.113 75.0909 133.978 75.0462C139.121 74.9223 144.268 74.9946 149.414 75.0049C154.014 75.0118 156.577 77.5335 156.546 82.1056C156.522 85.5768 156.563 89.0652 156.25 92.5192C155.989 95.4021 153.247 97.5144 150.391 97.511C147.133 97.5076 143.875 97.511 140.614 97.511C140.614 97.5041 140.614 97.4972 140.614 97.4869H140.607ZM130.376 90.9849C130.383 91.1465 130.393 91.3048 130.4 91.4665C130.913 91.7864 131.415 92.3575 131.941 92.3816C133.875 92.4779 135.815 92.3919 137.755 92.3747C137.883 92.3575 138.01 92.3437 138.137 92.3265C142.018 92.3369 145.895 92.33 149.775 92.3747C150.935 92.3885 151.43 91.9344 151.416 90.7578C151.379 87.7338 151.386 84.7098 151.413 81.6859C151.423 80.5988 150.962 80.124 149.875 80.1446C148.107 80.1756 146.339 80.1206 144.57 80.1584C142.317 80.2066 140.06 80.3132 137.807 80.3923C135.784 80.3992 133.761 80.3683 131.742 80.4371C131.291 80.4543 130.851 80.8224 130.407 81.0288C130.397 81.1905 130.39 81.3487 130.379 81.5104C130.379 84.6686 130.379 87.8267 130.379 90.9849H130.376Z" fill="black"/>
<path d="M90.4516 68.1315C89.1203 66.7726 88.6593 65.1454 88.7143 63.2498C88.8038 60.1158 88.7797 56.9748 88.7246 53.8373C88.6937 52.0622 89.2544 50.5588 90.3863 49.2308C91.6523 47.8685 93.2761 47.4453 95.0684 47.4453C101.116 47.4488 107.168 47.435 113.216 47.4522C117.196 47.4625 120.196 50.0565 120.086 54.202C120.007 57.226 120.093 60.2499 120.062 63.2739C120.045 65.3002 119.56 67.1511 117.833 68.4584C117.698 68.5513 117.564 68.6476 117.43 68.7405C116.002 69.112 114.585 69.7725 113.15 69.8001C106.948 69.9239 100.738 69.862 94.5318 69.8689C94.1637 69.8551 93.7956 69.8379 93.4275 69.8241C92.4332 69.2599 91.4424 68.6957 90.4482 68.1315H90.4516ZM94.1293 52.9222C94.0742 53.0564 94.0226 53.1871 93.9676 53.3213C93.9572 56.8475 93.9469 60.3703 93.9366 63.8966L94.1189 64.306C96.6441 64.4092 99.1658 64.5124 101.691 64.6191C105.62 64.6466 109.552 64.65 113.481 64.7188C114.664 64.7395 114.926 64.1615 114.915 63.1397C114.888 60.1777 114.881 57.2122 114.915 54.2467C114.929 53.1114 114.53 52.5713 113.326 52.5885C109.452 52.6401 105.575 52.6401 101.701 52.6573C99.1761 52.7468 96.651 52.8362 94.1258 52.9257L94.1293 52.9222Z" fill="black"/>
<path d="M150.409 69.8794C144.113 69.8725 137.821 69.8794 131.525 69.8484C128.498 69.8347 126.52 68.5583 125.522 65.8509C125.216 65.0183 125.25 64.0379 125.233 63.1228C125.164 59.5518 125.13 55.9774 125.099 52.4029C125.082 50.2838 128.133 47.5075 130.727 47.4799C137.25 47.4146 143.779 47.3148 150.295 47.504C154.368 47.621 156.353 50.0773 156.522 53.9511C156.66 57.1505 156.67 60.3637 156.515 63.5631C156.367 66.6008 154.922 68.868 151.857 69.8312C151.372 69.8484 150.89 69.8656 150.405 69.8828L150.409 69.8794ZM138.117 52.661H130.421C130.421 56.4521 130.393 60.1297 130.472 63.8039C130.479 64.1101 131.215 64.6468 131.625 64.6571C133.782 64.719 135.939 64.6433 138.099 64.6158C142.1 64.6433 146.105 64.6571 150.106 64.7087C151.234 64.7225 151.413 64.0688 151.41 63.1572C151.396 60.1813 151.379 57.2055 151.417 54.2332C151.43 53.06 150.932 52.5818 149.786 52.5922C145.895 52.63 142.008 52.6369 138.117 52.6575V52.661Z" fill="black"/>
<path d="M154.949 122.293C154.822 122.631 154.695 122.971 154.571 123.308C154.33 123.652 154.089 123.996 153.852 124.34C153.019 124.574 152.187 125.008 151.351 125.015C144.649 125.059 137.948 125.022 131.246 125.011L130.544 124.757C128.662 125.414 127.713 123.855 126.622 122.933C125.604 122.07 125.157 120.835 125.222 119.307C125.38 115.599 125.27 111.88 125.263 108.164C125.26 105.543 127.747 102.749 130.351 102.718C137.153 102.643 143.965 102.488 150.756 102.749C154.137 102.88 156.129 104.607 156.446 108.415C156.773 112.368 156.404 116.38 156.315 120.367C156.308 120.683 156.088 120.993 155.971 121.306C155.279 121.272 154.629 121.279 154.956 122.293H154.949ZM130.379 108.98C130.379 112.255 130.379 115.526 130.379 118.802C130.403 118.956 130.427 119.111 130.451 119.266C130.837 119.479 131.215 119.871 131.604 119.882C133.771 119.923 135.938 119.871 138.102 119.851C141.99 119.871 145.881 119.885 149.768 119.916C150.773 119.923 151.406 119.6 151.399 118.461C151.382 115.372 151.389 112.282 151.399 109.193C151.399 108.309 151.1 107.8 150.105 107.813C146.104 107.862 142.1 107.875 138.099 107.899C135.942 107.875 133.785 107.813 131.628 107.855C131.222 107.862 130.826 108.278 130.424 108.508C130.407 108.667 130.389 108.825 130.372 108.983L130.379 108.98Z" fill="black"/>
<path d="M140.504 152.544C137.016 152.544 133.527 152.544 130.042 152.544C127.871 152.544 125.463 150.281 125.401 148.038C125.288 143.706 125.102 139.372 125.099 135.04C125.099 132.856 128.222 130.258 130.799 130.238C137.263 130.179 143.728 130.1 150.188 130.251C154.134 130.344 156.487 133.024 156.546 136.84C156.594 139.984 156.625 143.132 156.539 146.276C156.436 150.026 153.835 152.802 150.116 152.654C146.917 152.527 143.71 152.627 140.507 152.627C140.507 152.599 140.507 152.572 140.507 152.541L140.504 152.544ZM130.465 135.986C130.438 136.138 130.41 136.293 130.379 136.444C130.383 139.588 130.338 142.736 130.431 145.88C130.448 146.493 130.985 147.604 131.305 147.611C133.562 147.663 135.822 147.491 138.079 147.387C142.08 147.418 146.081 147.435 150.082 147.484C151.186 147.497 151.413 146.882 151.41 145.949C151.392 142.977 151.396 140.001 151.41 137.029C151.417 135.914 150.969 135.34 149.782 135.353C145.895 135.398 142.007 135.405 138.12 135.426C135.894 135.405 133.668 135.36 131.446 135.395C131.119 135.398 130.796 135.78 130.469 135.99L130.465 135.986Z" fill="black"/>
<path d="M90.3794 151.095C88.9036 149.231 88.6008 147.094 88.7109 144.779C88.8313 142.216 88.8072 139.639 88.7178 137.073C88.6456 134.93 89.2442 133.106 90.7647 131.593C92.0961 131.132 93.4172 130.299 94.7589 130.272C100.986 130.13 107.216 130.192 113.443 130.213C116.494 130.223 119.174 132.164 120.189 135.002C120.148 135.377 120.103 135.752 120.062 136.127C120.062 139.326 120.079 142.529 120.069 145.729C120.055 150.218 117.667 152.619 113.216 152.626C107.216 152.633 101.213 152.609 95.213 152.64C93.4137 152.65 91.7555 152.351 90.3829 151.095H90.3794ZM93.9814 136.068C93.9504 139.426 93.8713 142.784 93.9332 146.141C93.9435 146.664 94.5662 147.621 94.9206 147.624C97.167 147.662 99.4204 147.49 101.67 147.39C105.603 147.418 109.538 147.421 113.47 147.49C114.64 147.511 114.929 146.957 114.919 145.918C114.888 142.952 114.884 139.983 114.919 137.018C114.932 135.889 114.551 135.329 113.34 135.346C109.462 135.401 105.585 135.397 101.708 135.418C99.183 135.504 96.6579 135.587 94.1327 135.673C94.0846 135.803 94.033 135.934 93.9848 136.068H93.9814Z" fill="black"/>
<path d="M90.6607 123.684C89.3786 120.95 88.7376 117.899 88.7376 114.53C88.7376 112.765 88.803 110.996 88.7204 109.238C88.6309 107.353 89.1091 105.723 90.4612 104.381C91.6721 103.82 92.8762 102.805 94.1009 102.774C100.785 102.606 107.477 102.616 114.161 102.699C117.044 102.736 119.796 104.883 119.858 107.945C119.944 112.352 119.793 116.776 119.445 121.173C119.38 122.002 117.911 122.714 117.109 123.498C116.772 123.829 116.483 124.204 116.06 124.685C115.768 124.702 115.258 124.733 114.749 124.761C114.288 124.847 113.824 124.933 113.363 125.019C106.634 125.029 99.9012 125.088 93.1721 124.988C92.3292 124.974 91.4967 124.138 90.6572 123.684H90.6607ZM94.1285 119.576C96.6536 119.666 99.1787 119.759 101.704 119.848C105.588 119.869 109.469 119.876 113.353 119.917C114.426 119.931 114.925 119.511 114.918 118.407C114.894 115.379 114.897 112.352 114.918 109.324C114.925 108.227 114.409 107.797 113.346 107.811C109.465 107.856 105.581 107.869 101.7 107.897C99.6019 107.873 97.4999 107.88 95.4048 107.807C94.3039 107.77 93.8636 108.21 93.8808 109.3C93.9324 112.593 93.9427 115.885 93.9668 119.177C94.0218 119.312 94.0768 119.446 94.1319 119.576H94.1285Z" fill="black"/>
<path d="M113.363 125.02C113.824 124.934 114.289 124.848 114.75 124.762C114.468 125.814 114.038 126.069 113.363 125.02Z" fill="#E1E1E1"/>
<path d="M154.949 122.294C154.622 121.279 155.273 121.272 155.964 121.306C155.627 121.637 155.286 121.963 154.949 122.294Z" fill="#E1E1E1"/>
<path d="M150.408 69.8797C150.893 69.8625 151.375 69.8453 151.86 69.8281C151.402 70.5643 150.931 70.898 150.408 69.8797Z" fill="#9A9B9B"/>
<path d="M93.4307 69.8242C93.7988 69.838 94.1669 69.8552 94.535 69.8689C94.1325 70.6533 93.7678 70.5536 93.4307 69.8242Z" fill="#9A9B9B"/>
<path d="M153.849 124.341C154.089 123.997 154.33 123.653 154.568 123.309C154.327 123.653 154.086 123.997 153.849 124.341Z" fill="#E1E1E1"/>
<path d="M187.876 187.534C185.193 187.534 182.506 187.548 179.823 187.531C177.081 187.51 174.6 185.277 174.528 182.546C174.421 178.493 174.408 174.434 174.518 170.381C174.593 167.629 177.095 165.265 179.977 165.221C185.458 165.131 190.945 165.118 196.425 165.221C199.866 165.283 202.239 167.828 202.291 171.293C202.339 174.661 202.339 178.032 202.291 181.404C202.243 184.978 199.649 187.51 196.102 187.545C195.988 187.545 195.875 187.545 195.758 187.545C193.129 187.545 190.505 187.545 187.876 187.545V187.538V187.534ZM179.602 170.312C179.602 174.1 179.561 177.63 179.658 181.156C179.668 181.579 180.411 182.333 180.824 182.339C185.846 182.422 190.869 182.422 195.892 182.339C196.315 182.333 197.075 181.589 197.089 181.166C197.192 177.974 197.192 174.774 197.089 171.578C197.075 171.145 196.343 170.371 195.933 170.364C190.577 170.281 185.217 170.309 179.599 170.309L179.602 170.312Z" fill="black"/>
<path d="M197.546 81.8262C198.155 82.3009 198.74 82.817 199.379 83.247C201.399 84.5956 202.273 86.5324 202.293 88.889C202.321 92.14 202.335 95.3945 202.293 98.6455C202.242 102.203 199.648 104.759 196.073 104.779C191.051 104.807 186.024 104.635 181.012 104.845C177.995 104.972 174.833 102.829 174.187 99.6466C174.266 99.4093 174.348 99.1719 174.427 98.9345C174.441 95.4461 174.441 91.9611 174.472 88.4727C174.503 84.8777 176.904 82.4626 180.492 82.4351C185.808 82.3972 191.126 82.3938 196.441 82.3732C196.81 82.1908 197.178 82.0085 197.549 81.8262H197.546ZM179.605 87.537C179.605 91.3556 179.564 94.9369 179.663 98.5114C179.674 98.8967 180.492 99.5778 180.943 99.5847C185.849 99.6638 190.758 99.6122 195.667 99.6501C196.796 99.657 197.171 99.1891 197.157 98.1123C197.119 95.1434 197.099 92.1744 197.167 89.2089C197.195 87.936 196.734 87.4957 195.475 87.5163C192.052 87.5714 188.625 87.537 185.202 87.537C183.396 87.537 181.586 87.537 179.605 87.537Z" fill="black"/>
<path d="M188.264 160.175C185.13 160.031 181.986 160 178.866 159.7C176.671 159.491 174.531 156.897 174.5 154.671C174.448 151.065 174.638 147.45 174.421 143.858C174.204 140.304 177.294 137.487 180.589 137.466C185.798 137.432 191.006 137.384 196.211 137.483C199.672 137.549 201.984 139.678 202.211 143.452C202.442 147.25 202.325 151.103 201.939 154.891C201.595 158.276 199.39 159.952 195.998 160.02C193.425 160.075 190.848 160.031 188.275 160.031C188.275 160.079 188.271 160.124 188.268 160.172L188.264 160.175ZM179.96 154.592C180.094 154.661 180.225 154.733 180.359 154.802C185.715 154.795 191.072 154.784 196.428 154.778C196.531 154.698 196.635 154.623 196.734 154.544C196.865 154.303 197.109 154.062 197.113 153.818C197.137 150.429 197.137 147.04 197.113 143.652C197.113 143.411 196.862 143.17 196.724 142.933C196.628 142.878 196.528 142.823 196.432 142.764C191.292 142.73 186.152 142.702 181.012 142.658C180.015 142.647 179.574 143.053 179.588 144.092C179.626 147.233 179.588 150.377 179.619 153.522C179.619 153.88 179.843 154.237 179.963 154.595L179.96 154.592Z" fill="black"/>
<path d="M202.249 126.075C201.75 130.578 199.862 132.305 195.403 132.309C190.318 132.312 185.23 132.336 180.146 132.288C176.609 132.257 174.149 129.116 174.404 125.559C174.631 122.435 174.431 119.277 174.424 116.136C174.442 115.789 174.459 115.445 174.476 115.097C174.504 114.873 174.531 114.653 174.555 114.43C175.216 111.97 177.565 109.985 180.053 109.957C184.666 109.906 189.283 109.909 193.9 109.957C195.365 109.971 196.862 110.05 198.286 110.37C200.708 110.91 202.315 113.518 202.253 116.466C202.043 116.752 201.654 117.034 201.651 117.326C201.602 119.958 201.602 122.586 201.651 125.218C201.657 125.507 202.043 125.793 202.253 126.078L202.249 126.075ZM179.544 127.196C185.275 127.196 190.693 127.227 196.108 127.128C196.463 127.121 197.078 126.13 197.099 125.58C197.202 122.783 197.092 119.979 197.168 117.182C197.209 115.637 196.621 115.001 195.062 115.076C189.878 115.328 184.652 114.55 179.544 115.672V127.2V127.196Z" fill="black"/>
<path d="M202.249 126.075C202.04 125.789 201.654 125.504 201.647 125.215C201.599 122.583 201.599 119.955 201.647 117.323C201.654 117.034 202.04 116.752 202.249 116.463C202.249 119.666 202.249 122.869 202.249 126.071V126.075Z" fill="#010102"/>
<path d="M197.547 81.8257C197.178 82.0081 196.81 82.1904 196.439 82.3727C196.425 81.4163 196.883 81.4129 197.547 81.8257Z" fill="#223C53"/>
<path d="M174.476 115.097C174.459 115.444 174.441 115.788 174.424 116.136C174.228 115.775 174.032 115.41 173.836 115.049C174.049 115.066 174.263 115.08 174.476 115.097Z" fill="#223C53"/>
<path d="M174.476 115.098C174.263 115.08 174.049 115.067 173.836 115.049C174.077 114.843 174.318 114.637 174.555 114.434C174.527 114.657 174.5 114.877 174.476 115.101V115.098Z" fill="#010102"/>
<path d="M48.8415 165.166C54.0431 165.176 59.2448 165.166 64.4464 165.204C67.0129 165.224 69.1424 166.129 70.2536 168.62C70.5701 169.325 70.7765 170.144 70.7868 170.915C70.8419 174.458 70.835 178.002 70.8075 181.548C70.7765 185.002 68.2961 187.514 64.8765 187.531C59.5613 187.562 54.2427 187.562 48.9275 187.531C45.6249 187.514 43.0481 184.968 43.0034 181.676C42.9587 178.476 43.1169 175.267 42.9587 172.074C42.7832 168.603 44.4827 166.528 47.4447 165.194C47.9126 165.187 48.3771 165.176 48.8449 165.169L48.8415 165.166ZM56.9811 170.309C54.5248 170.309 52.0719 170.33 49.6155 170.299C48.642 170.289 48.1259 170.595 48.1362 171.665C48.1672 174.806 48.1603 177.947 48.1431 181.084C48.1362 182.027 48.5525 182.405 49.4917 182.402C54.4594 182.381 59.4271 182.381 64.3948 182.402C65.3581 182.405 65.709 181.985 65.7056 181.06C65.6849 177.977 65.6746 174.892 65.709 171.809C65.7228 170.705 65.2687 170.275 64.1781 170.292C61.7803 170.33 59.3824 170.306 56.9845 170.302L56.9811 170.309Z" fill="black"/>
<path d="M56.8921 159.806C53.875 159.806 50.8235 160.088 47.8477 159.727C44.7618 159.355 43.0245 156.93 42.9935 153.82C42.9625 150.507 42.9729 147.19 42.9901 143.878C43.0107 140.179 45.4602 137.534 49.155 137.465C54.2982 137.369 59.4413 137.379 64.5845 137.465C68.4032 137.527 70.801 140.107 70.8113 143.933C70.8217 147.132 70.8217 150.335 70.8113 153.534C70.801 157.439 68.3516 159.961 64.4366 160.036C61.9217 160.085 59.4069 160.047 56.8921 160.047C56.8921 159.968 56.8921 159.888 56.8921 159.809V159.806ZM48.147 142.66C48.147 146.568 48.1023 150.163 48.2124 153.751C48.2261 154.136 49.1584 154.8 49.6745 154.811C54.4736 154.893 59.2796 154.831 64.0788 154.879C65.4067 154.893 65.7266 154.308 65.706 153.108C65.651 150.249 65.6269 147.39 65.7129 144.535C65.7542 143.121 65.2863 142.608 63.8552 142.639C60.2567 142.711 56.6513 142.663 53.0493 142.663C51.5184 142.663 49.9875 142.663 48.1436 142.663L48.147 142.66Z" fill="black"/>
<path d="M56.8606 132.292C54.4008 132.292 51.9341 132.165 49.4847 132.323C46.0892 132.54 43.0377 130.221 42.9929 125.986C42.962 122.725 42.962 119.467 42.9929 116.205C43.0274 112.566 44.9298 111.159 48.7691 110.443C53.9433 109.476 59.0899 110.254 64.2399 109.961C66.3213 109.844 68.3957 110.374 69.4553 112.277C70.2328 113.677 70.656 115.407 70.7592 117.017C70.9553 120.151 70.8486 123.306 70.8039 126.45C70.7557 129.853 68.3235 132.247 64.928 132.282C62.2411 132.309 59.5509 132.289 56.864 132.289L56.8606 132.292ZM48.143 115.108C48.143 118.641 48.2049 121.944 48.1155 125.243C48.0742 126.715 48.5111 127.269 50.0489 127.238C54.3939 127.152 58.739 127.211 63.084 127.207C65.5541 127.207 65.6435 127.094 65.6986 124.634C65.7605 121.799 65.9119 118.964 65.9187 116.133C65.9187 115.793 65.2685 115.156 64.9142 115.153C59.4304 115.091 53.9467 115.108 48.143 115.108Z" fill="black"/>
<path d="M48.8416 165.167C48.3737 165.174 47.9093 165.184 47.4414 165.191C47.8921 164.255 48.3565 164.255 48.8416 165.167Z" fill="#192C3B"/>
<path d="M101.746 80.1815C105.561 80.1712 109.38 80.1883 113.195 80.1333C114.423 80.1161 114.946 80.5461 114.925 81.8156C114.874 84.7776 114.874 87.7397 114.925 90.7017C114.95 91.9781 114.413 92.3943 113.188 92.3771C109.373 92.3221 105.554 92.3427 101.739 92.3324C101.749 92.2395 101.739 92.1466 101.701 92.0606C101.705 88.1869 101.711 84.3166 101.715 80.4429C101.756 80.3569 101.767 80.2709 101.749 80.178L101.746 80.1815Z" fill="#4DDFE5"/>
<path d="M101.712 80.4468C101.708 84.3205 101.701 88.1908 101.698 92.0645C101.581 92.1711 101.464 92.2743 101.35 92.381C99.4068 92.3982 97.4596 92.4808 95.5227 92.381C94.9826 92.3535 94.0193 91.8065 94.009 91.4762C93.8989 87.8399 93.9402 84.1966 93.9402 80.3711C96.5548 80.3711 98.9423 80.3711 101.333 80.3711C101.461 80.3952 101.588 80.4193 101.715 80.4433L101.712 80.4468Z" fill="#01B5DE"/>
<path d="M101.35 92.381C101.467 92.2743 101.584 92.1711 101.698 92.0645C101.735 92.1505 101.749 92.2433 101.735 92.3362C101.605 92.35 101.477 92.3638 101.347 92.3775L101.35 92.381Z" fill="#349497"/>
<path d="M101.712 80.4465C101.585 80.4225 101.457 80.3984 101.33 80.3743C101.468 80.3089 101.609 80.247 101.746 80.1816C101.764 80.2745 101.753 80.3605 101.712 80.4465Z" fill="#349497"/>
<path d="M137.803 80.3929C140.056 80.3138 142.309 80.2072 144.566 80.159C146.335 80.1212 148.103 80.1728 149.871 80.1452C150.958 80.128 151.419 80.6028 151.409 81.6865C151.381 84.7104 151.375 87.7344 151.412 90.7584C151.426 91.935 150.931 92.3891 149.771 92.3753C145.891 92.3306 142.014 92.3409 138.133 92.3271C138.15 92.2377 138.143 92.1483 138.105 92.0623C138.102 89.2791 138.123 86.4959 138.081 83.7128C138.064 82.605 137.899 81.4973 137.803 80.3895V80.3929Z" fill="#4DDFE5"/>
<path d="M137.803 80.3932C137.899 81.501 138.064 82.6088 138.082 83.7165C138.126 86.4997 138.102 89.2828 138.106 92.066C137.989 92.1692 137.868 92.2724 137.751 92.3791C135.815 92.3963 133.871 92.4823 131.937 92.3859C131.411 92.3584 130.909 91.7908 130.396 91.4674C130.389 91.3057 130.379 91.1475 130.372 90.9858C130.372 87.8276 130.372 84.6695 130.372 81.5113C130.382 81.3496 130.389 81.1914 130.4 81.0297C130.843 80.8233 131.284 80.4552 131.734 80.438C133.754 80.3692 135.777 80.3967 137.8 80.3932H137.803Z" fill="#00B5DE"/>
<path d="M137.755 92.3775C137.872 92.2743 137.992 92.1711 138.109 92.0645C138.147 92.1505 138.154 92.2365 138.137 92.3294C138.009 92.3466 137.882 92.3603 137.755 92.3775Z" fill="#349497"/>
<path d="M130.403 81.0312C130.392 81.1929 130.385 81.3512 130.375 81.5129C130.385 81.3546 130.392 81.1929 130.403 81.0312Z" fill="#0C5A6F"/>
<path d="M101.708 52.6571C105.581 52.6399 109.458 52.6399 113.332 52.5883C114.536 52.5711 114.935 53.1112 114.922 54.2465C114.887 57.2085 114.891 60.174 114.922 63.1395C114.932 64.1613 114.674 64.7392 113.487 64.7186C109.558 64.6498 105.626 64.6464 101.697 64.6188C101.701 60.6316 101.708 56.6443 101.711 52.6571H101.708Z" fill="#4DDFE5"/>
<path d="M101.709 52.6558C101.705 56.643 101.698 60.6303 101.695 64.6175C99.1696 64.5143 96.6479 64.4111 94.1228 64.3045C94.0608 64.1668 94.0024 64.0327 93.9404 63.8951C93.9508 60.3688 93.9611 56.846 93.9714 53.3198C94.0264 53.1856 94.078 53.0549 94.1331 52.9207C96.6582 52.8312 99.1834 52.7418 101.709 52.6523V52.6558Z" fill="#01B5DE"/>
<path d="M138.116 52.6554C142.007 52.6347 145.894 52.6278 149.785 52.59C150.931 52.5797 151.43 53.0579 151.416 54.231C151.378 57.2068 151.395 60.1826 151.409 63.155C151.412 64.0632 151.237 64.7203 150.105 64.7066C146.104 64.6549 142.1 64.6412 138.099 64.6137C138.106 60.6299 138.112 56.6426 138.116 52.6588V52.6554Z" fill="#4DDFE5"/>
<path d="M138.116 52.6562C138.11 56.6401 138.103 60.6273 138.099 64.6111C135.942 64.6386 133.782 64.7109 131.625 64.6524C131.215 64.6421 130.479 64.1054 130.472 63.7992C130.393 60.125 130.421 56.4474 130.421 52.6562H138.116Z" fill="#00B5DE"/>
<path d="M138.102 107.897C142.103 107.869 146.107 107.859 150.108 107.811C151.102 107.8 151.405 108.306 151.402 109.19C151.391 112.28 151.388 115.369 151.402 118.458C151.408 119.597 150.775 119.92 149.771 119.913C145.883 119.883 141.992 119.869 138.105 119.848C138.105 115.864 138.105 111.881 138.102 107.9V107.897Z" fill="#4DDFE5"/>
<path d="M138.103 107.896C138.103 111.88 138.103 115.864 138.106 119.844C135.939 119.865 133.771 119.916 131.608 119.875C131.219 119.868 130.84 119.476 130.455 119.259C130.431 119.104 130.407 118.949 130.383 118.795C130.383 115.52 130.383 112.248 130.383 108.973C130.4 108.815 130.417 108.656 130.434 108.498C130.833 108.271 131.233 107.855 131.639 107.844C133.796 107.803 135.953 107.862 138.11 107.889L138.103 107.896Z" fill="#00B5DE"/>
<path d="M138.116 135.422C142.003 135.401 145.89 135.395 149.778 135.35C150.965 135.336 151.412 135.911 151.405 137.025C151.391 139.998 151.391 142.973 151.405 145.946C151.412 146.875 151.182 147.494 150.077 147.48C146.076 147.432 142.075 147.415 138.074 147.384C138.088 143.397 138.098 139.409 138.112 135.422H138.116Z" fill="#4DDFE5"/>
<path d="M138.116 135.422C138.102 139.409 138.092 143.396 138.078 147.384C135.818 147.487 133.558 147.659 131.304 147.607C130.988 147.6 130.451 146.489 130.43 145.877C130.338 142.733 130.382 139.588 130.379 136.44C130.406 136.289 130.434 136.134 130.465 135.983C130.788 135.776 131.112 135.394 131.442 135.388C133.668 135.353 135.89 135.398 138.116 135.419V135.422Z" fill="#00B5DE"/>
<path d="M130.465 135.986C130.437 136.138 130.41 136.293 130.379 136.444C130.406 136.293 130.434 136.138 130.465 135.986Z" fill="#0C5A6F"/>
<path d="M101.708 135.422C105.585 135.402 109.462 135.402 113.339 135.35C114.55 135.333 114.932 135.894 114.918 137.022C114.884 139.987 114.884 142.956 114.918 145.922C114.929 146.961 114.64 147.515 113.47 147.494C109.538 147.425 105.602 147.422 101.67 147.394C101.684 143.404 101.694 139.413 101.708 135.426V135.422Z" fill="#4DDFE5"/>
<path d="M101.708 135.423C101.694 139.414 101.684 143.405 101.67 147.392C99.4199 147.495 97.17 147.667 94.92 147.626C94.5657 147.619 93.943 146.666 93.9327 146.143C93.8742 142.785 93.9499 139.428 93.9809 136.07C94.029 135.939 94.0806 135.809 94.1288 135.674C96.6539 135.588 99.1791 135.506 101.704 135.42L101.708 135.423Z" fill="#01B5DE"/>
<path d="M94.1333 135.674C94.0817 135.805 94.0335 135.935 93.9854 136.069C94.037 135.939 94.0851 135.808 94.1333 135.674Z" fill="#097691"/>
<path d="M101.698 107.893C105.578 107.865 109.462 107.852 113.343 107.807C114.406 107.797 114.922 108.227 114.915 109.321C114.895 112.348 114.891 115.375 114.915 118.403C114.926 119.507 114.427 119.927 113.35 119.913C109.469 119.868 105.585 119.865 101.701 119.844C101.701 115.86 101.698 111.877 101.694 107.893H101.698Z" fill="#4DDFE5"/>
<path d="M101.698 107.894C101.698 111.878 101.702 115.862 101.705 119.846C99.1798 119.756 96.6547 119.663 94.1295 119.574C94.0745 119.44 94.0195 119.306 93.9644 119.175C93.9403 115.883 93.93 112.59 93.8784 109.298C93.8612 108.207 94.3016 107.767 95.4024 107.805C97.501 107.877 99.5995 107.867 101.698 107.894Z" fill="#01B5DE"/>
<path d="M93.9639 119.174C94.0189 119.308 94.074 119.442 94.129 119.573C94.074 119.439 94.0189 119.305 93.9639 119.174Z" fill="#097691"/>
<path d="M179.602 170.313C185.22 170.313 190.58 170.285 195.936 170.368C196.346 170.375 197.078 171.149 197.092 171.582C197.192 174.775 197.192 177.974 197.092 181.17C197.078 181.59 196.318 182.337 195.895 182.344C190.872 182.426 185.85 182.426 180.827 182.344C180.414 182.337 179.671 181.583 179.661 181.16C179.564 177.634 179.605 174.104 179.605 170.316L179.602 170.313Z" fill="#00B5DE"/>
<path d="M179.605 87.537C181.587 87.537 183.396 87.537 185.202 87.537C188.625 87.537 192.052 87.5748 195.475 87.5163C196.734 87.4957 197.195 87.936 197.168 89.2089C197.102 92.1744 197.119 95.1433 197.157 98.1123C197.171 99.1925 196.796 99.6569 195.668 99.6501C190.758 99.6157 185.853 99.6638 180.943 99.5847C180.493 99.5778 179.674 98.8967 179.664 98.5113C179.564 94.9335 179.605 91.3522 179.605 87.537Z" fill="#00B5DE"/>
<path d="M196.429 154.78C191.072 154.787 185.716 154.797 180.359 154.804C180.225 154.735 180.094 154.663 179.96 154.594C179.84 154.236 179.62 153.878 179.616 153.521C179.589 150.38 179.623 147.235 179.585 144.091C179.572 143.052 180.012 142.649 181.01 142.656C186.149 142.701 191.289 142.729 196.429 142.763C196.525 142.818 196.625 142.873 196.721 142.932C196.855 143.172 197.106 143.41 197.11 143.651C197.137 147.039 197.137 150.428 197.11 153.816C197.11 154.061 196.866 154.302 196.731 154.542C196.628 154.622 196.525 154.697 196.425 154.776L196.429 154.78Z" fill="#00B5DE"/>
<path d="M196.721 142.936C196.625 142.881 196.525 142.826 196.429 142.768C196.525 142.823 196.625 142.878 196.721 142.936Z" fill="#097691"/>
<path d="M196.429 154.781C196.532 154.702 196.635 154.626 196.735 154.547C196.632 154.626 196.528 154.702 196.429 154.781Z" fill="#097691"/>
<path d="M179.543 127.197V115.669C184.652 114.548 189.881 115.328 195.062 115.074C196.617 114.998 197.205 115.631 197.167 117.179C197.095 119.976 197.202 122.78 197.099 125.577C197.078 126.127 196.462 127.118 196.108 127.125C190.693 127.225 185.274 127.194 179.543 127.194V127.197Z" fill="#00B5DE"/>
<path d="M56.9783 170.309C59.3762 170.309 61.774 170.337 64.1719 170.295C65.2625 170.278 65.7166 170.708 65.7028 171.813C65.665 174.895 65.6753 177.977 65.6994 181.063C65.7063 181.992 65.3553 182.409 64.3886 182.405C59.4209 182.384 54.4532 182.384 49.4855 182.405C48.5463 182.409 48.1335 182.03 48.1369 181.087C48.1541 177.947 48.1644 174.806 48.13 171.668C48.1197 170.598 48.6358 170.289 49.6093 170.302C52.0657 170.333 54.5186 170.313 56.9749 170.313L56.9783 170.309Z" fill="#259EDD"/>
<path d="M48.1503 142.662C49.9942 142.662 51.5251 142.662 53.0561 142.662C56.658 142.662 60.2599 142.71 63.8619 142.638C65.293 142.61 65.7643 143.123 65.7196 144.533C65.6336 147.389 65.6542 150.251 65.7127 153.106C65.7368 154.307 65.4134 154.892 64.0855 154.878C59.2829 154.83 54.4803 154.892 49.6812 154.809C49.1651 154.799 48.2328 154.135 48.2191 153.75C48.1055 150.162 48.1537 146.567 48.1537 142.658L48.1503 142.662Z" fill="#259EDD"/>
<path d="M48.143 115.109C53.9467 115.109 59.4305 115.088 64.9142 115.153C65.2686 115.157 65.9188 115.793 65.9188 116.134C65.9119 118.969 65.7605 121.8 65.6986 124.635C65.6436 127.094 65.5541 127.208 63.084 127.208C58.739 127.208 54.3905 127.153 50.0489 127.239C48.5111 127.27 48.0777 126.716 48.1155 125.244C48.205 121.944 48.143 118.642 48.143 115.109Z" fill="#259EDD"/>
</g>
<defs>
<clipPath id="clip0_4566_2435">
<rect width="176.141" height="176.141" fill="white" transform="translate(34.4023 33.7148)"/>
</clipPath>
</defs>
</svg>
