<svg width="828" height="828" viewBox="0 0 828 828" fill="none" xmlns="http://www.w3.org/2000/svg">
<rect width="828" height="828" fill="white"/>
<g clip-path="url(#clip0_3970_1832)">
<path d="M363.836 341.747L360.784 167.6C360.705 164.399 358.087 161.851 354.939 161.901C351.754 161.966 349.231 164.585 349.295 167.749C349.338 167.859 349.308 167.996 349.314 168.12L363.85 341.783L363.836 341.747Z" fill="#20C594"/>
<path d="M405.153 367.461L454.274 258.699C455.565 255.804 454.318 252.387 451.418 251.04C448.532 249.73 445.136 250.967 443.809 253.876C443.743 254.028 443.655 254.23 443.589 254.381L405.102 367.438L405.153 367.461Z" fill="#EE8E8E"/>
<path d="M434.524 377.054L598.367 250.199C600.864 248.261 601.33 244.639 599.391 242.12C597.452 239.602 593.845 239.117 591.347 241.055C591.239 241.097 591.159 241.212 591.1 241.277L434.538 377.09L434.524 377.054Z" fill="#CBDEED"/>
<path d="M461.39 395.845L515.656 381.687C518.716 380.874 520.572 377.717 519.735 374.602C518.911 371.523 515.762 369.644 512.702 370.457C512.326 370.562 511.928 370.717 511.616 370.88L461.426 395.831L461.39 395.845Z" fill="#1DA9F4"/>
<path d="M330.656 332.757L286.164 264.507C284.413 261.831 280.866 261.072 278.175 262.833C275.52 264.579 274.795 268.177 276.531 270.817C276.667 271.058 276.838 271.285 277.032 271.461L330.656 332.757Z" fill="#FFDB5E"/>
<path d="M427.296 179.436L418.832 190.033L422.719 203.124L410.023 198.246L398.886 205.939L399.501 192.312L388.721 184.003L401.822 180.498L406.28 167.641L413.738 179.09L427.296 179.436Z" fill="#FFDB5E"/>
<path d="M594.747 323.035L586.305 322.124L580.765 328.561L579.018 320.219L571.142 316.906L578.494 312.659L579.174 304.127L585.502 309.889L593.733 307.902L590.321 315.735L594.747 323.035Z" fill="#20C594"/>
<path d="M310.747 176.879L301.187 181.02L299.18 191.286L292.275 183.398L281.927 184.657L287.196 175.598L282.829 166.092L292.993 168.431L300.639 161.3L301.62 171.745L310.747 176.879Z" fill="#1DA9F4"/>
<path d="M467.365 325.954L458.923 325.043L453.398 331.517L451.637 323.138L443.761 319.825L451.126 315.615L451.792 307.046L458.084 312.822L466.365 310.857L462.939 318.654L467.365 325.954Z" fill="#20C594"/>
<path d="M518.396 279.818C515.298 286.102 507.677 288.691 501.41 285.549C495.092 282.385 492.532 274.737 495.63 268.453C498.714 262.132 506.313 259.594 512.616 262.722C518.92 265.85 521.48 273.498 518.396 279.818Z" fill="#20C594"/>
<path d="M319.714 223.581C317.487 228.141 312.03 229.971 307.483 227.713C302.935 225.454 301.075 219.925 303.316 215.402C305.543 210.842 311.036 208.997 315.561 211.306C320.073 213.579 321.955 219.057 319.714 223.581Z" fill="#CBDEED"/>
<path d="M388.172 358.964C385.931 363.487 380.452 365.368 375.941 363.096C371.43 360.823 369.569 355.294 371.81 350.771C374.037 346.211 379.494 344.38 384.042 346.639C388.553 348.912 390.399 354.404 388.209 358.95L388.172 358.964Z" fill="#CBDEED"/>
<path d="M550.658 356.27C548.417 360.794 542.974 362.66 538.426 360.402C533.915 358.129 532.055 352.601 534.26 348.091C536.486 343.531 541.943 341.701 546.491 343.959C551.002 346.232 552.885 351.71 550.658 356.27Z" fill="#EE8E8E"/>
<path d="M302.522 343.583C300.281 348.106 294.838 349.973 290.291 347.714C285.743 345.456 283.883 339.927 286.109 335.367C288.336 330.807 293.829 328.963 298.341 331.235C302.903 333.53 304.749 339.023 302.522 343.583Z" fill="#20C594"/>
<path d="M483.825 206.322C481.598 210.882 476.141 212.712 471.593 210.454C467.082 208.181 465.185 202.666 467.426 198.143C469.653 193.583 475.146 191.738 479.672 194.047C484.219 196.306 486.066 201.798 483.839 206.358L483.825 206.322Z" fill="#1DA9F4"/>
</g>
<path d="M401.491 486.791C343.572 486.791 296.62 439.838 296.62 381.92C296.62 324.002 343.572 277.05 401.491 277.05C459.409 277.05 506.361 324.002 506.361 381.92C506.361 439.838 459.409 486.791 401.491 486.791ZM391.031 423.869L465.186 349.714L450.355 334.883L391.031 394.207L361.369 364.544L346.538 379.376L391.031 423.869Z" fill="#20C594"/>
<path d="M433.629 683V437.738C433.629 436.337 432.493 435.201 431.092 435.201H228.116C226.715 435.201 225.579 436.337 225.579 437.738V680.463C225.579 681.864 226.715 683 228.116 683H433.629Z" fill="#AFD6FA"/>
<path d="M579.093 680.463V437.738C579.093 436.337 577.958 435.201 576.556 435.201H436.165C434.764 435.201 433.628 436.337 433.628 437.738V683H576.556C577.958 683 579.093 681.864 579.093 680.463Z" fill="#89B7E2"/>
<path d="M393.397 507.454L433.628 435.201H208.091C206.388 435.201 204.852 436.222 204.192 437.791L176.456 503.758C175.285 506.545 177.331 509.625 180.354 509.625H389.702C391.236 509.625 392.65 508.794 393.397 507.454Z" fill="#C6E3FF"/>
<path d="M637.1 504.901L607.884 437.243C607.349 436.004 606.128 435.201 604.779 435.201H433.205L468.225 507.714C468.79 508.883 469.973 509.625 471.272 509.625H633.995C636.427 509.625 638.065 507.135 637.1 504.901Z" fill="#C6E3FF"/>
<path d="M241.647 636.484H310.152" stroke="#89B7E2" stroke-width="12.686"/>
<path d="M241.647 656.782H310.152" stroke="#89B7E2" stroke-width="12.686"/>
<defs>
<clipPath id="clip0_3970_1832">
<rect width="408.044" height="398.977" fill="white" transform="matrix(-0.931884 0.362756 0.362756 0.931884 532.25 69)"/>
</clipPath>
</defs>
</svg>
