<svg width="828" height="828" viewBox="0 0 828 828" fill="none" xmlns="http://www.w3.org/2000/svg">
<rect width="828" height="828" fill="white"/>
<ellipse opacity="0.5" cx="413.5" cy="598.5" rx="311.5" ry="33.5" fill="#AEBECD"/>
<rect x="198.545" y="217.485" width="383.423" height="386.515" fill="#AFD6FA"/>
<path d="M366.293 496.549V217.485H418.859V496.549L393.671 485.648L366.293 496.549Z" fill="#6197CA"/>
<path opacity="0.2" d="M390.258 222.123L390.258 604" stroke="black" stroke-width="6.95726" stroke-dasharray="12.37 12.37"/>
<path d="M331.507 197L197 217.485H582.355L632.989 198.16L331.507 197Z" fill="#C6E4FF"/>
<path d="M632.988 197.773L581.968 217.872L581.195 604H631.056L632.988 197.773Z" fill="#89B7E2"/>
<path d="M462.921 197.387L419.033 217.485H365.52L409.793 197.387H462.921Z" fill="#6197CA"/>
<path d="M437.798 197.387L393.91 217.485H388.711L432.984 197.387H437.798Z" fill="#4E79A2"/>
<rect x="364.387" y="289.927" width="112.623" height="132.076" rx="4.09538" transform="rotate(17.5602 364.387 289.927)" fill="#FEFFFF"/>
<path d="M348.898 373.627L427.965 398.648" stroke="#CDCCCC" stroke-width="7.16691"/>
<path d="M347.832 393.15L426.899 418.171" stroke="#CDCCCC" stroke-width="7.16691"/>
<path d="M397.742 375.046C385.436 371.495 378.339 358.64 381.891 346.334C385.443 334.028 398.298 326.932 410.604 330.484C422.909 334.036 430.006 346.891 426.454 359.196C422.902 371.502 410.047 378.598 397.742 375.046ZM399.378 361.036L419.681 349.828L417.439 345.768L401.197 354.734L396.714 346.613L392.653 348.855L399.378 361.036Z" fill="#2C80CD"/>
</svg>
