<svg width="828" height="828" viewBox="0 0 828 828" fill="none" xmlns="http://www.w3.org/2000/svg">
<rect width="828" height="828" fill="white"/>
<path d="M263.039 591.568C263.039 608.234 249.529 621.744 232.863 621.744C216.198 621.744 202.688 608.234 202.688 591.568C202.688 574.903 216.198 561.393 232.863 561.393C249.529 561.393 263.039 574.903 263.039 591.568Z" fill="#2C80CD"/>
<path d="M249.055 591.087C249.055 599.718 241.825 606.715 232.906 606.715C223.986 606.715 216.756 599.718 216.756 591.087C216.756 582.455 223.986 575.458 232.906 575.458C241.825 575.458 249.055 582.455 249.055 591.087Z" fill="#AFD6FA"/>
<path d="M624.825 590.637C624.825 607.302 611.315 620.813 594.649 620.813C577.984 620.813 564.474 607.302 564.474 590.637C564.474 573.971 577.984 560.461 594.649 560.461C611.315 560.461 624.825 573.971 624.825 590.637Z" fill="#2C80CD"/>
<path d="M610.839 590.155C610.839 598.787 603.609 605.784 594.69 605.784C585.77 605.784 578.54 598.787 578.54 590.155C578.54 581.524 585.77 574.526 594.69 574.526C603.609 574.526 610.839 581.524 610.839 590.155Z" fill="#AFD6FA"/>
<rect x="101" y="535.312" width="626" height="25.2419" rx="12.621" fill="#C6E3FF"/>
<path d="M440.686 535.312V269H265.435C264.24 269 263.271 269.969 263.271 271.164V533.148C263.271 534.343 264.24 535.312 265.435 535.312H440.686Z" fill="#AFD6FA"/>
<path d="M564.733 533.148V271.164C564.733 269.969 563.764 269 562.569 269H440.687V535.312H562.569C563.764 535.312 564.733 534.343 564.733 533.148Z" fill="#89B7E2"/>
<path d="M276.975 485.322H335.392" stroke="#89B7E2" stroke-width="10.818"/>
<path d="M276.975 507.136H335.392" stroke="#89B7E2" stroke-width="10.818"/>
<rect x="177.449" y="435.065" width="56.9747" height="15.8664" rx="7.93318" fill="#2C80CD"/>
<rect x="190.43" y="468.24" width="57.6959" height="15.8664" rx="7.93318" fill="#2C80CD"/>
<rect x="158.697" y="497.088" width="57.6959" height="15.8664" rx="7.93318" fill="#2C80CD"/>
<path d="M289 316.599V269H323.618V316.599L307.03 306.683L289 316.599Z" fill="#2C80CD"/>
</svg>
