<svg width="596" height="156" viewBox="0 0 596 156" fill="none" xmlns="http://www.w3.org/2000/svg">
<path d="M72.955 50.4103H54.721C51.8018 50.4103 49.4272 47.8942 49.4272 44.8009C49.4272 41.7077 51.8018 39.1916 54.721 39.1916H80.5797C82.2136 39.1916 83.5207 37.8065 83.5207 36.0753C83.5207 34.344 82.2136 32.959 80.5797 32.959H69.9922C67.0731 32.959 64.6985 30.4428 64.6985 27.3496C64.6985 24.2564 67.0731 21.7402 69.9922 21.7402H84.1525C88.2916 21.7402 92.3 23.3099 95.4806 26.1492L147.307 72.6861C148.505 73.748 148.483 75.687 147.285 76.7489L95.4371 122.155C92.3001 124.902 88.357 126.402 84.2832 126.402H62.9557C60.0365 126.402 57.662 123.886 57.662 120.793C57.662 117.7 60.0365 115.183 62.9557 115.183H80.0133C81.9522 115.183 83.5425 113.521 83.5425 111.444C83.5425 109.389 81.974 107.704 80.0133 107.704H69.4258C66.8334 107.704 64.7203 105.465 64.7203 102.718C64.7203 99.9712 66.8334 97.7321 69.4258 97.7321H85.8953C88.4877 97.7321 90.6008 95.4929 90.6008 92.7459C90.6008 89.999 88.4877 87.7599 85.8953 87.7599H81.1897C78.5973 87.7599 76.4842 85.5207 76.4842 82.7738C76.4842 80.0268 78.5973 77.7877 81.1897 77.7877H92.9536C94.8925 77.7877 96.4828 76.1256 96.4828 74.0481C96.4828 71.9705 94.9142 70.3085 92.9536 70.3085H64.7421C62.1497 70.3085 60.0365 68.0694 60.0365 65.3224C60.0365 62.5754 62.1497 60.3363 64.7421 60.3363H72.9768C75.5692 60.3363 77.6823 58.0972 77.6823 55.3502C77.6606 52.6494 75.5692 50.4103 72.955 50.4103Z" fill="white"/>
<path d="M37.8099 50.8117C41.0186 50.8117 43.6197 48.2085 43.6197 44.9972C43.6197 41.7859 41.0186 39.1826 37.8099 39.1826C34.6012 39.1826 32 41.7859 32 44.9972C32 48.2085 34.6012 50.8117 37.8099 50.8117Z" fill="white"/>
<path d="M55.2371 108.96C58.4458 108.96 61.047 106.357 61.047 103.146C61.047 99.9343 58.4458 97.3311 55.2371 97.3311C52.0284 97.3311 49.4272 99.9343 49.4272 103.146C49.4272 106.357 52.0284 108.96 55.2371 108.96Z" fill="white"/>
<path d="M36.6826 60.792H50.7303C53.3101 60.792 55.4129 62.8965 55.4129 65.4783C55.4129 68.0602 53.3101 70.1647 50.7303 70.1647H36.6826C34.1028 70.1647 32 68.0602 32 65.4783C32 62.8965 34.0811 60.792 36.6826 60.792Z" fill="white"/>
<path d="M48.3178 77.9766H67.19C70.1607 77.9766 72.5821 80.0811 72.5821 82.6629C72.5821 85.2448 70.1607 87.3493 67.19 87.3493H48.3178C45.3472 87.3493 42.9258 85.2448 42.9258 82.6629C42.9258 80.0811 45.3472 77.9766 48.3178 77.9766Z" fill="white"/>
<path d="M171.316 57.8727C169.484 57.8727 167.896 57.2574 166.551 56.0269C165.206 54.7963 164.534 53.2939 164.534 51.5197C164.534 49.7454 165.206 48.243 166.551 47.0124C167.896 45.7819 169.484 45.1666 171.316 45.1666C173.147 45.1666 174.721 45.7819 176.038 47.0124C177.383 48.243 178.055 49.7454 178.055 51.5197C178.055 53.2939 177.383 54.7963 176.038 56.0269C174.721 57.2574 173.147 57.8727 171.316 57.8727ZM174.965 89.3374C174.965 90.9686 175.008 93.5871 175.093 97.1929C175.208 100.799 175.265 103.417 175.265 105.048C175.265 106.708 174.707 108.082 173.591 109.169C172.475 110.228 171.058 110.758 169.341 110.758C167.624 110.758 166.208 110.228 165.092 109.169C163.976 108.082 163.418 106.708 163.418 105.048C163.418 103.417 163.36 100.799 163.246 97.1929C163.16 93.5871 163.117 90.9686 163.117 89.3374C163.117 86.7905 163.26 83.5997 163.546 79.7649C163.833 75.9302 163.976 72.7394 163.976 70.1925C163.976 68.5327 164.534 67.1733 165.65 66.1145C166.766 65.027 168.182 64.4833 169.899 64.4833C171.616 64.4833 173.033 65.027 174.149 66.1145C175.265 67.1733 175.823 68.5327 175.823 70.1925C175.823 72.7394 175.68 75.9302 175.394 79.7649C175.108 83.5997 174.965 86.7905 174.965 89.3374ZM206 112.002C203.539 112.002 200.949 111.716 198.231 111.144L198.188 128.658C198.188 130.317 197.63 131.691 196.514 132.779C195.397 133.866 193.981 134.41 192.264 134.41C190.547 134.41 189.13 133.866 188.014 132.779C186.898 131.691 186.34 130.317 186.34 128.658C186.34 127.313 186.369 121.975 186.426 112.646C186.483 105.721 186.483 100.069 186.426 95.6905C186.34 89.5091 186.14 84.1863 185.825 79.722C185.396 73.5693 185.181 70.7505 185.181 71.2656C185.181 68.8904 185.71 66.8585 186.769 65.1701C188 63.2528 189.66 62.2941 191.749 62.2941C193.351 62.2941 194.696 62.8378 195.784 63.9253C196.871 65.0127 197.415 66.3148 197.415 67.8315L197.372 68.2608C199.289 67.1733 201.207 66.372 203.124 65.8569C205.07 65.3132 207.016 65.0413 208.962 65.0413C215.544 65.0413 220.352 67.8315 223.385 73.4119C225.646 77.6186 226.776 83.0702 226.776 89.7667C226.776 96.0339 224.988 101.228 221.411 105.349C217.576 109.785 212.439 112.002 206 112.002ZM208.962 76.5026C207.159 76.5026 205.328 76.9318 203.468 77.7904C201.607 78.6203 199.733 79.8794 197.844 81.5678C198.188 87.463 198.359 93.3725 198.359 99.2963C200.906 100.126 203.453 100.541 206 100.541C208.948 100.541 211.209 99.4966 212.782 97.4075C214.213 95.5188 214.929 92.9718 214.929 89.7667C214.929 85.9034 214.757 83.2276 214.414 81.7395C213.584 78.2482 211.767 76.5026 208.962 76.5026ZM253.047 112.002C250.586 112.002 247.996 111.716 245.277 111.144L245.235 128.658C245.235 130.317 244.676 131.691 243.56 132.779C242.444 133.866 241.028 134.41 239.311 134.41C237.594 134.41 236.177 133.866 235.061 132.779C233.945 131.691 233.387 130.317 233.387 128.658C233.387 127.313 233.416 121.975 233.473 112.646C233.53 105.721 233.53 100.069 233.473 95.6905C233.387 89.5091 233.187 84.1863 232.872 79.722C232.443 73.5693 232.228 70.7505 232.228 71.2656C232.228 68.8904 232.757 66.8585 233.816 65.1701C235.047 63.2528 236.707 62.2941 238.796 62.2941C240.398 62.2941 241.743 62.8378 242.831 63.9253C243.918 65.0127 244.462 66.3148 244.462 67.8315L244.419 68.2608C246.336 67.1733 248.254 66.372 250.171 65.8569C252.117 65.3132 254.063 65.0413 256.009 65.0413C262.591 65.0413 267.399 67.8315 270.432 73.4119C272.693 77.6186 273.823 83.0702 273.823 89.7667C273.823 96.0339 272.035 101.228 268.457 105.349C264.623 109.785 259.486 112.002 253.047 112.002ZM256.009 76.5026C254.206 76.5026 252.375 76.9318 250.514 77.7904C248.654 78.6203 246.78 79.8794 244.891 81.5678C245.235 87.463 245.406 93.3725 245.406 99.2963C247.953 100.126 250.5 100.541 253.047 100.541C255.995 100.541 258.255 99.4966 259.829 97.4075C261.26 95.5188 261.976 92.9718 261.976 89.7667C261.976 85.9034 261.804 83.2276 261.461 81.7395C260.631 78.2482 258.813 76.5026 256.009 76.5026ZM297.948 112.002C292.653 112.002 288.103 110.185 284.297 106.551C280.119 102.573 277.93 97.2644 277.729 90.6252C277.529 84.3008 279.26 78.6632 282.924 73.7124C287.273 67.8745 293.326 64.9555 301.081 64.9555C306.805 64.9555 311.355 67.2449 314.732 71.8236C317.765 75.9445 319.282 81.0527 319.282 87.1482C319.282 93.7874 317.508 99.4537 313.959 104.147C309.981 109.384 304.644 112.002 297.948 112.002ZM300.523 76.2879C297.003 76.2593 294.227 77.8619 292.196 81.0957C290.478 83.8143 289.62 86.9908 289.62 90.6252C289.62 94.0593 290.593 96.6921 292.539 98.5236C294.084 99.9831 295.887 100.713 297.948 100.713C300.437 100.713 302.598 99.8686 304.429 98.1802C306.518 96.2056 307.635 93.5299 307.778 90.153C308.15 80.9383 305.732 76.3166 300.523 76.2879Z" fill="white"/>
<path d="M366.109 78.0479C363.276 78.0479 361.573 76.8603 361.001 74.4851C359.856 74.2847 358.683 74.1846 357.481 74.1846C350.584 74.1846 347.136 75.1289 347.136 77.0177C347.136 78.1338 349.21 79.6362 353.36 81.5249C359.026 84.1291 362.861 86.1609 364.864 87.6204C369.013 90.6252 371.088 94.0164 371.088 97.7939C371.088 102.716 368.799 106.451 364.22 108.998C360.528 111.029 355.993 112.045 350.613 112.045C346.806 112.045 343.329 111.459 340.182 110.285C335.889 108.683 333.743 106.322 333.743 103.203C333.743 100.341 335.445 98.9099 338.851 98.9099C340.167 98.9099 342.07 99.3249 344.56 100.155C347.05 100.985 348.967 101.4 350.312 101.4C356.121 101.4 359.04 100.226 359.069 97.8797C359.069 96.4202 357.051 94.8034 353.016 93.0291C347.121 90.4249 343.344 88.5505 341.684 87.4058C337.649 84.5727 335.631 81.1243 335.631 77.0606C335.631 71.3085 338.679 67.4309 344.775 65.4277C348.352 64.2544 353.789 63.6677 361.086 63.6677C363.948 63.6677 366.066 64.0397 367.44 64.7838C369.328 65.7854 370.273 67.6312 370.273 70.3212C370.273 75.4724 368.885 78.0479 366.109 78.0479ZM409.035 74.9143C408.434 74.9143 407.718 74.9 406.889 74.8714C406.087 74.8142 405.386 74.7855 404.785 74.7855C403.612 74.7855 402.253 74.9 400.707 75.1289C401.222 86.6903 401.48 94.2453 401.48 97.7939C401.48 98.1659 401.494 98.867 401.523 99.8972C401.551 100.899 401.566 101.714 401.566 102.344C401.566 108.926 399.491 112.217 395.341 112.217C393.767 112.217 392.408 111.73 391.263 110.758C390.004 109.727 389.375 108.44 389.375 106.894C389.375 105.864 389.418 104.319 389.503 102.258C389.589 100.198 389.632 98.6524 389.632 97.6222C389.632 94.1595 389.375 86.7476 388.86 75.3865C387.085 75.3006 384.395 75.0717 380.79 74.6997C377.212 74.299 375.424 72.4389 375.424 69.1193C375.424 67.5167 375.968 66.1574 377.055 65.0413C378.142 63.9253 379.545 63.3672 381.262 63.3672C382.321 63.3672 384.753 63.5389 388.559 63.8823C388.531 62.9666 388.459 61.4499 388.344 59.3322C388.23 57.5007 388.173 56.0841 388.173 55.0825C388.173 53.4799 388.759 52.1492 389.933 51.0904C391.106 50.0316 392.523 49.5021 394.182 49.5021C398.418 49.5021 400.535 53.065 400.535 60.1907L400.45 63.7106C402.224 63.4531 403.669 63.3243 404.785 63.3243C408.076 63.3243 410.323 63.5389 411.525 63.9682C413.814 64.7695 414.959 66.5151 414.959 69.2052C414.959 70.8363 414.401 72.1957 413.284 73.2831C412.168 74.3706 410.752 74.9143 409.035 74.9143ZM437.881 112.002C432.587 112.002 428.037 110.185 424.231 106.551C420.052 102.573 417.863 97.2644 417.663 90.6252C417.463 84.3008 419.194 78.6632 422.857 73.7124C427.207 67.8745 433.259 64.9555 441.015 64.9555C446.738 64.9555 451.288 67.2449 454.665 71.8236C457.699 75.9445 459.215 81.0527 459.215 87.1482C459.215 93.7874 457.441 99.4537 453.892 104.147C449.915 109.384 444.578 112.002 437.881 112.002ZM440.457 76.2879C436.937 76.2593 434.161 77.8619 432.129 81.0957C430.412 83.8143 429.553 86.9908 429.553 90.6252C429.553 94.0593 430.526 96.6921 432.472 98.5236C434.018 99.9831 435.821 100.713 437.881 100.713C440.371 100.713 442.531 99.8686 444.363 98.1802C446.452 96.2056 447.568 93.5299 447.711 90.153C448.083 80.9383 445.665 76.3166 440.457 76.2879ZM502.442 78.5201C502.184 82.8985 500.195 85.0878 496.475 85.0878C492.869 85.0878 491.066 83.2276 491.066 79.5074L490.852 75.1719C484.413 76.2021 479.805 79.5074 477.03 85.0878L477.073 106.68C477.073 108.311 476.514 109.656 475.398 110.715C474.282 111.802 472.866 112.346 471.149 112.346C469.374 112.346 468.001 111.773 467.028 110.629C466.112 109.599 465.654 108.282 465.654 106.68V78.563C465.654 77.6759 465.683 76.3595 465.74 74.6138C465.797 72.8396 465.826 71.5089 465.826 70.6217C465.826 69.0191 466.298 67.6884 467.242 66.6296C468.215 65.5421 469.589 64.9984 471.363 64.9984C474.54 64.9984 476.429 66.6296 477.03 69.892C482.095 66.1145 487.718 64.2257 493.899 64.2257C499.623 64.2257 502.485 68.0318 502.485 75.6441C502.485 77.1035 502.47 78.0622 502.442 78.5201ZM530.344 111.444C523.504 111.444 517.909 109.813 513.56 106.551C508.752 102.945 506.348 97.8654 506.348 91.312C506.348 84.0719 508.251 77.9477 512.057 72.9397C516.293 67.388 522.002 64.6121 529.185 64.6121C534.164 64.6121 538.299 65.4134 541.59 67.0159C545.911 69.1336 548.072 72.4246 548.072 76.8889C548.072 80.0368 546.312 82.827 542.792 85.2595C541.19 86.3755 537.97 88.0067 533.134 90.153L518.668 96.549C520.041 98.0371 521.701 99.1532 523.647 99.8972C525.593 100.641 527.825 101.013 530.344 101.013C534.178 101.013 537.426 100.226 540.088 98.6524C542.463 97.2501 544.366 96.549 545.797 96.549C548.773 96.549 550.261 97.9942 550.261 100.885C550.261 104.147 547.872 106.808 543.093 108.869C539.086 110.586 534.837 111.444 530.344 111.444ZM529.185 75.0002C526.523 75.0002 524.248 75.8873 522.359 77.6616C520.471 79.4358 518.954 82.0973 517.809 85.6458C521.043 84.2436 524.262 82.8556 527.468 81.482C531.331 79.7363 534.407 78.1195 536.697 76.6314C534.779 75.5439 532.275 75.0002 529.185 75.0002Z" fill="white"/>
</svg>
