<svg width="202" height="42" viewBox="0 0 202 42" fill="none" xmlns="http://www.w3.org/2000/svg">
<path d="M15.7383 10.7462H8.49631C7.3369 10.7462 6.3938 9.80306 6.3938 8.64365C6.3938 7.48424 7.3369 6.54114 8.49631 6.54114H18.7666C19.4155 6.54114 19.9347 6.022 19.9347 5.37308C19.9347 4.72416 19.4155 4.20502 18.7666 4.20502H14.5616C13.4022 4.20502 12.4591 3.26192 12.4591 2.10251C12.4591 0.943102 13.4022 0 14.5616 0H20.1856C21.8295 0 23.4215 0.588357 24.6848 1.65259L45.2686 19.0956C45.7445 19.4936 45.7358 20.2204 45.2599 20.6184L24.6675 37.6375C23.4215 38.6672 21.8555 39.2295 20.2375 39.2295H11.7669C10.6075 39.2295 9.66437 38.2864 9.66437 37.127C9.66437 35.9676 10.6075 35.0245 11.7669 35.0245H18.5416C19.3117 35.0245 19.9433 34.4016 19.9433 33.6229C19.9433 32.8528 19.3203 32.2212 18.5416 32.2212H14.3366C13.307 32.2212 12.4677 31.3819 12.4677 30.3523C12.4677 29.3227 13.307 28.4834 14.3366 28.4834H20.8778C21.9074 28.4834 22.7467 27.6441 22.7467 26.6145C22.7467 25.5849 21.9074 24.7456 20.8778 24.7456H19.0089C17.9792 24.7456 17.14 23.9063 17.14 22.8767C17.14 21.8471 17.9792 21.0078 19.0089 21.0078H23.6811C24.4512 21.0078 25.0828 20.3848 25.0828 19.6061C25.0828 18.8274 24.4598 18.2045 23.6811 18.2045H12.4764C11.4467 18.2045 10.6075 17.3652 10.6075 16.3356C10.6075 15.3059 11.4467 14.4667 12.4764 14.4667H15.7469C16.7766 14.4667 17.6158 13.6274 17.6158 12.5978C17.6072 11.5854 16.7766 10.7462 15.7383 10.7462Z" fill="white"/>
<path d="M2.89865 10.6162C4.05984 10.6162 5.00116 9.67489 5.00116 8.5137C5.00116 7.35252 4.05984 6.41119 2.89865 6.41119C1.73747 6.41119 0.796143 7.35252 0.796143 8.5137C0.796143 9.67489 1.73747 10.6162 2.89865 10.6162Z" fill="white"/>
<path d="M8.50498 32.2299C9.66616 32.2299 10.6075 31.2886 10.6075 30.1274C10.6075 28.9662 9.66616 28.0249 8.50498 28.0249C7.34379 28.0249 6.40247 28.9662 6.40247 30.1274C6.40247 31.2886 7.34379 32.2299 8.50498 32.2299Z" fill="white"/>
<path d="M1.8689 14.4147H7.47559C8.50522 14.4147 9.34449 15.254 9.34449 16.2836C9.34449 17.3133 8.50522 18.1525 7.47559 18.1525H1.8689C0.839274 18.1525 0 17.3133 0 16.2836C0 15.254 0.830622 14.4147 1.8689 14.4147Z" fill="white"/>
<path d="M7.33679 21.0163H13.8779C14.9076 21.0163 15.7468 21.8556 15.7468 22.8852C15.7468 23.9148 14.9076 24.7541 13.8779 24.7541H7.33679C6.30717 24.7541 5.4679 23.9148 5.4679 22.8852C5.4679 21.8556 6.30717 21.0163 7.33679 21.0163Z" fill="white"/>
<path d="M59.0713 5.91415C58.2241 5.91415 57.4894 5.62776 56.8672 5.055C56.245 4.48223 55.9339 3.78292 55.9339 2.95707C55.9339 2.13122 56.245 1.43192 56.8672 0.85915C57.4894 0.286383 58.2241 0 59.0713 0C59.9186 0 60.6467 0.286383 61.2557 0.85915C61.8779 1.43192 62.189 2.13122 62.189 2.95707C62.189 3.78292 61.8779 4.48223 61.2557 5.055C60.6467 5.62776 59.9186 5.91415 59.0713 5.91415ZM60.7592 20.5596C60.7592 21.3189 60.7791 22.5377 60.8188 24.216C60.8718 25.8944 60.8982 27.1132 60.8982 27.8724C60.8982 28.645 60.6401 29.2843 60.1238 29.7905C59.6075 30.2834 58.9522 30.5298 58.1579 30.5298C57.3636 30.5298 56.7083 30.2834 56.192 29.7905C55.6757 29.2843 55.4176 28.645 55.4176 27.8724C55.4176 27.1132 55.3911 25.8944 55.3381 24.216C55.2984 22.5377 55.2786 21.3189 55.2786 20.5596C55.2786 19.3742 55.3448 17.889 55.4771 16.1041C55.6095 14.3192 55.6757 12.834 55.6757 11.6485C55.6757 10.8759 55.9339 10.2432 56.4502 9.75035C56.9665 9.24418 57.6217 8.9911 58.416 8.9911C59.2103 8.9911 59.8656 9.24418 60.3819 9.75035C60.8982 10.2432 61.1564 10.8759 61.1564 11.6485C61.1564 12.834 61.0902 14.3192 60.9578 16.1041C60.8254 17.889 60.7592 19.3742 60.7592 20.5596Z" fill="white"/>
<path d="M75.1162 31.1092C73.9777 31.1092 72.7796 30.976 71.522 30.7096L71.5021 38.8615C71.5021 39.6341 71.244 40.2735 70.7277 40.7796C70.2114 41.2858 69.5561 41.5389 68.7618 41.5389C67.9675 41.5389 67.3122 41.2858 66.7959 40.7796C66.2796 40.2735 66.0215 39.6341 66.0215 38.8615C66.0215 38.2355 66.0347 35.7513 66.0612 31.4089C66.0877 28.1854 66.0877 25.5547 66.0612 23.5167C66.0215 20.6396 65.9288 18.162 65.7832 16.0841C65.5846 13.2202 65.4853 11.9082 65.4853 12.148C65.4853 11.0424 65.7302 10.0967 66.22 9.31078C66.7893 8.41833 67.5571 7.97211 68.5235 7.97211C69.2649 7.97211 69.8871 8.22519 70.3901 8.73136C70.8932 9.23752 71.1447 9.84359 71.1447 10.5496L71.1248 10.7494C72.0118 10.2432 72.8988 9.87023 73.7857 9.63047C74.686 9.37738 75.5862 9.25084 76.4864 9.25084C79.5312 9.25084 81.7552 10.5496 83.1585 13.147C84.2043 15.105 84.7272 17.6425 84.7272 20.7595C84.7272 23.6766 83.8998 26.0942 82.245 28.0123C80.4711 30.0769 78.0948 31.1092 75.1162 31.1092ZM76.4864 14.5856C75.6524 14.5856 74.8051 14.7854 73.9446 15.185C73.0841 15.5713 72.217 16.1573 71.3433 16.9432C71.5021 19.6872 71.5816 22.4378 71.5816 25.1951C72.7598 25.5813 73.938 25.7745 75.1162 25.7745C76.4797 25.7745 77.5256 25.2883 78.2537 24.3159C78.9156 23.4368 79.2466 22.2513 79.2466 20.7595C79.2466 18.9612 79.1671 17.7158 79.0083 17.0231C78.6244 15.3981 77.7837 14.5856 76.4864 14.5856Z" fill="white"/>
<path d="M96.88 31.1092C95.7415 31.1092 94.5434 30.976 93.2858 30.7096L93.2659 38.8615C93.2659 39.6341 93.0078 40.2735 92.4915 40.7796C91.9752 41.2858 91.3199 41.5389 90.5256 41.5389C89.7313 41.5389 89.076 41.2858 88.5597 40.7796C88.0434 40.2735 87.7853 39.6341 87.7853 38.8615C87.7853 38.2355 87.7985 35.7513 87.825 31.4089C87.8515 28.1854 87.8515 25.5547 87.825 23.5167C87.7853 20.6396 87.6926 18.162 87.547 16.0841C87.3484 13.2202 87.2491 11.9082 87.2491 12.148C87.2491 11.0424 87.494 10.0967 87.9839 9.31078C88.5531 8.41833 89.3209 7.97211 90.2873 7.97211C91.0287 7.97211 91.6509 8.22519 92.1539 8.73136C92.657 9.23752 92.9085 9.84359 92.9085 10.5496L92.8887 10.7494C93.7756 10.2432 94.6626 9.87023 95.5496 9.63047C96.4498 9.37738 97.35 9.25084 98.2502 9.25084C101.295 9.25084 103.519 10.5496 104.922 13.147C105.968 15.105 106.491 17.6425 106.491 20.7595C106.491 23.6766 105.664 26.0942 104.009 28.0123C102.235 30.0769 99.8586 31.1092 96.88 31.1092ZM98.2502 14.5856C97.4162 14.5856 96.5689 14.7854 95.7084 15.185C94.8479 15.5713 93.9808 16.1573 93.1071 16.9432C93.2659 19.6872 93.3454 22.4378 93.3454 25.1951C94.5236 25.5813 95.7018 25.7745 96.88 25.7745C98.2436 25.7745 99.2894 25.2883 100.017 24.3159C100.679 23.4368 101.01 22.2513 101.01 20.7595C101.01 18.9612 100.931 17.7158 100.772 17.0231C100.388 15.3981 99.5475 14.5856 98.2502 14.5856Z" fill="white"/>
<path d="M117.651 31.1092C115.202 31.1092 113.097 30.2634 111.336 28.5717C109.403 26.7202 108.391 24.2493 108.298 21.1591C108.205 18.2153 109.006 15.5912 110.701 13.2868C112.713 10.5695 115.513 9.21088 119.101 9.21088C121.748 9.21088 123.853 10.2765 125.415 12.4077C126.818 14.3258 127.52 16.7035 127.52 19.5407C127.52 22.6309 126.699 25.2683 125.058 27.4528C123.218 29.8904 120.749 31.1092 117.651 31.1092ZM118.842 14.4857C117.214 14.4723 115.93 15.2183 114.99 16.7234C114.196 17.9889 113.799 19.4674 113.799 21.1591C113.799 22.7575 114.249 23.9829 115.149 24.8354C115.864 25.5147 116.698 25.8544 117.651 25.8544C118.803 25.8544 119.802 25.4615 120.649 24.6756C121.616 23.7565 122.132 22.5111 122.198 20.9393C122.37 16.6502 121.252 14.499 118.842 14.4857Z" fill="white"/>
<path d="M146.632 30.8768C145.491 30.8768 144.291 30.7407 143.031 30.4683L143.011 38.8019C143.011 39.5917 142.752 40.2453 142.235 40.7627C141.718 41.2802 141.061 41.5389 140.265 41.5389C139.469 41.5389 138.813 41.2802 138.296 40.7627C137.778 40.2453 137.52 39.5917 137.52 38.8019C137.52 38.1619 137.533 35.6223 137.56 31.1832C137.586 27.8879 137.586 25.1986 137.56 23.1152C137.52 20.1739 137.427 17.6412 137.281 15.5169C137.082 12.5893 136.983 11.248 136.983 11.4931C136.983 10.3629 137.228 9.39609 137.719 8.59269C138.289 7.68035 139.058 7.22418 140.027 7.22418C140.769 7.22418 141.393 7.4829 141.897 8.00035C142.401 8.51779 142.653 9.13736 142.653 9.85906L142.633 10.0633C143.521 9.54587 144.41 9.1646 145.299 8.91949C146.201 8.66077 147.103 8.53141 148.004 8.53141C151.055 8.53141 153.283 9.85906 154.689 12.5144C155.737 14.5161 156.261 17.1101 156.261 20.2965C156.261 23.2786 155.432 25.7501 153.774 27.7109C151.997 29.8215 149.616 30.8768 146.632 30.8768ZM148.004 13.985C147.169 13.985 146.32 14.1893 145.458 14.5978C144.596 14.9927 143.727 15.5918 142.852 16.3952C143.011 19.2003 143.09 22.0122 143.09 24.8309C144.271 25.2258 145.451 25.4232 146.632 25.4232C147.998 25.4232 149.046 24.9262 149.775 23.9322C150.438 23.0335 150.77 21.8216 150.77 20.2965C150.77 18.4582 150.69 17.185 150.531 16.4769C150.147 14.8156 149.304 13.985 148.004 13.985Z" fill="white"/>
<path d="M176.415 31.0198C175.805 31.0198 174.836 30.339 173.51 28.9773C172.29 29.5764 171.215 30.0258 170.287 30.3253C169.359 30.6385 168.569 30.7951 167.92 30.7951C164.723 30.7951 162.322 29.9168 160.717 28.1603C159.126 26.4037 158.33 23.7756 158.33 20.276C158.33 16.9943 159.51 14.1893 161.871 11.8608C164.232 9.51864 167.057 8.34758 170.347 8.34758C171.607 8.34758 173.066 8.71524 174.724 9.45055C176.726 10.3357 177.728 11.3637 177.728 12.5348C177.728 13.025 177.575 13.4539 177.27 13.8216C177.138 14.3663 177.032 15.0539 176.952 15.8846C176.886 16.7016 176.852 17.6616 176.852 18.7646C176.852 21.3654 177.032 23.2377 177.39 24.3815C177.429 24.5041 177.734 25.2122 178.305 26.5058C178.822 27.6768 179.081 28.3441 179.081 28.5075C179.081 29.2292 178.809 29.8283 178.265 30.3049C177.734 30.7815 177.118 31.0198 176.415 31.0198ZM171.481 17.008C171.481 16.5722 171.507 16.0752 171.56 15.5169C171.627 14.945 171.719 14.3118 171.839 13.6173C171.574 13.4812 171.335 13.3859 171.123 13.3314C170.924 13.2633 170.751 13.2293 170.605 13.2293C168.802 13.2293 167.223 13.9578 165.87 15.4148C164.517 16.8582 163.841 18.5331 163.841 20.4394C163.841 22.2641 164.159 23.6394 164.796 24.5654C165.433 25.4777 166.388 25.9339 167.661 25.9339C168.483 25.9339 169.259 25.7977 169.989 25.5254C170.731 25.2394 171.428 24.8241 172.078 24.2794C171.68 21.0386 171.481 18.6148 171.481 17.008Z" fill="white"/>
<path d="M201.662 12.4122C200.216 15.5033 197.928 20.3577 194.798 26.9756C193.1 30.5296 191.807 33.4777 190.918 35.8198C190.64 36.664 190.202 37.9168 189.605 39.5781C189.128 40.8581 188.279 41.4981 187.059 41.4981C186.303 41.4981 185.639 41.2461 185.069 40.7423C184.499 40.2385 184.214 39.6053 184.214 38.8428C184.214 37.5764 185.62 33.8249 188.431 27.5883C186.972 24.6335 184.658 20.2828 181.488 14.5365C181.17 14.019 180.845 13.4948 180.513 12.9637C180.155 12.3373 179.976 11.7654 179.976 11.248C179.976 10.5127 180.261 9.86587 180.831 9.30758C181.402 8.74928 182.058 8.47013 182.801 8.47013C183.676 8.47013 184.36 8.80375 184.85 9.47098C186.734 12.0446 188.929 15.9186 191.436 21.0931C192.855 17.8658 193.717 15.9186 194.022 15.2514C194.964 13.2225 195.885 11.4386 196.787 9.89991C197.358 8.91949 198.14 8.42928 199.135 8.42928C199.878 8.42928 200.541 8.688 201.125 9.20545C201.708 9.72289 202 10.3561 202 11.105C202 11.4999 201.887 11.9356 201.662 12.4122Z" fill="white"/>
</svg>
