<svg width="258" height="55" viewBox="0 0 258 55" fill="none" xmlns="http://www.w3.org/2000/svg">
<path d="M20.6898 14.1678H11.1677C9.64314 14.1678 8.40308 12.9244 8.40308 11.3958C8.40308 9.86737 9.64314 8.62398 11.1677 8.62398H24.6717C25.5249 8.62398 26.2075 7.93953 26.2075 7.08402C26.2075 6.2285 25.5249 5.54405 24.6717 5.54405H19.1427C17.6181 5.54405 16.3781 4.30066 16.3781 2.77203C16.3781 1.24339 17.6181 0 19.1427 0H26.5374C28.6989 0 30.7922 0.775757 32.4532 2.17888L59.5181 25.1757C60.1438 25.7005 60.1325 26.6586 59.5068 27.1833L32.4304 49.6213C30.7922 50.9786 28.733 51.7202 26.6056 51.7202H15.4679C13.9436 51.7202 12.7035 50.4768 12.7035 48.9481C12.7035 47.4195 13.9436 46.1761 15.4679 46.1761H24.3759C25.3884 46.1761 26.2188 45.3548 26.2188 44.3282C26.2188 43.313 25.3997 42.4804 24.3759 42.4804H18.8469C17.4929 42.4804 16.3894 41.3738 16.3894 40.0165C16.3894 38.6589 17.4929 37.5523 18.8469 37.5523H27.4476C28.8013 37.5523 29.9049 36.446 29.9049 35.0884C29.9049 33.7311 28.8013 32.6245 27.4476 32.6245H24.9903C23.6363 32.6245 22.5327 31.518 22.5327 30.1606C22.5327 28.8031 23.6363 27.6967 24.9903 27.6967H31.1336C32.1459 27.6967 32.9765 26.8754 32.9765 25.8486C32.9765 24.8221 32.1574 24.0008 31.1336 24.0008H16.4009C15.0469 24.0008 13.9436 22.8942 13.9436 21.5369C13.9436 20.1793 15.0469 19.0727 16.4009 19.0727H20.7011C22.055 19.0727 23.1586 17.9664 23.1586 16.6088C23.1471 15.2744 22.0551 14.1678 20.6898 14.1678Z" fill="white"/>
<path d="M3.80734 13.9951C5.33422 13.9951 6.57193 12.7541 6.57193 11.2231C6.57193 9.69233 5.33422 8.45129 3.80734 8.45129C2.28068 8.45129 1.04297 9.69233 1.04297 11.2231C1.04297 12.7541 2.28068 13.9951 3.80734 13.9951Z" fill="white"/>
<path d="M11.1845 42.4917C12.7112 42.4917 13.9489 41.2506 13.9489 39.7197C13.9489 38.1887 12.7112 36.9476 11.1845 36.9476C9.65763 36.9476 8.41992 38.1887 8.41992 39.7197C8.41992 41.2506 9.65763 42.4917 11.1845 42.4917Z" fill="white"/>
<path d="M2.4573 19.0038H9.82943C11.1832 19.0038 12.2867 20.1104 12.2867 21.468C12.2867 22.8253 11.1832 23.9319 9.82943 23.9319H2.4573C1.10358 23.9319 0 22.8253 0 21.468C0 20.1104 1.09206 19.0038 2.4573 19.0038Z" fill="white"/>
<path d="M9.64871 27.7059H18.2494C19.6031 27.7059 20.7067 28.8122 20.7067 30.1698C20.7067 31.5271 19.6031 32.6337 18.2494 32.6337H9.64871C8.29499 32.6337 7.19141 31.5271 7.19141 30.1698C7.19141 28.8122 8.29499 27.7059 9.64871 27.7059Z" fill="white"/>
<path d="M73.7658 7.80305C72.6512 7.80305 71.6842 7.42518 70.8656 6.66968C70.0467 5.91394 69.6374 4.99118 69.6374 3.90164C69.6374 2.8121 70.0467 1.88934 70.8656 1.13361C71.6842 0.377869 72.6512 0 73.7658 0C74.8808 0 75.8388 0.377869 76.6401 1.13361C77.4589 1.88934 77.8682 2.8121 77.8682 3.90164C77.8682 4.99118 77.4589 5.91394 76.6401 6.66968C75.8388 7.42518 74.8808 7.80305 73.7658 7.80305ZM75.987 27.1262C75.987 28.1279 76.013 29.736 76.0654 31.9504C76.1349 34.1648 76.1699 35.7729 76.1699 36.7746C76.1699 37.794 75.83 38.6374 75.1509 39.3052C74.4715 39.9555 73.6092 40.2808 72.564 40.2808C71.5187 40.2808 70.6564 39.9555 69.977 39.3052C69.2976 38.6374 68.9581 37.794 68.9581 36.7746C68.9581 35.7729 68.9233 34.1648 68.8536 31.9504C68.8014 29.736 68.7751 28.1279 68.7751 27.1262C68.7751 25.5622 68.8623 23.6025 69.0365 21.2476C69.2107 18.8927 69.2976 16.933 69.2976 15.369C69.2976 14.3495 69.6374 13.5149 70.3168 12.8646C70.9962 12.1967 71.8586 11.8629 72.9035 11.8629C73.9488 11.8629 74.8111 12.1967 75.4905 12.8646C76.1699 13.5149 76.5094 14.3495 76.5094 15.369C76.5094 16.933 76.4225 18.8927 76.2483 21.2476C76.0739 23.6025 75.987 25.5622 75.987 27.1262Z" fill="white"/>
<path d="M94.8762 41.0447C93.3782 41.0447 91.8017 40.8691 90.1468 40.5176L90.1206 51.2732C90.1206 52.2924 89.781 53.136 89.1016 53.8039C88.4222 54.4717 87.5599 54.8055 86.5147 54.8055C85.4695 54.8055 84.6074 54.4717 83.928 53.8039C83.2486 53.136 82.9088 52.2924 82.9088 51.2732C82.9088 50.4471 82.9263 47.1695 82.9612 41.4403C82.996 37.1871 82.996 33.7162 82.9612 31.0275C82.9088 27.2313 82.7868 23.9624 82.5952 21.2209C82.3341 17.4423 82.2034 15.7114 82.2034 16.0277C82.2034 14.569 82.5257 13.3212 83.1701 12.2843C83.9192 11.1068 84.9295 10.5181 86.2011 10.5181C87.1766 10.5181 87.9954 10.8519 88.6573 11.5198C89.3192 12.1876 89.6503 12.9872 89.6503 13.9187L89.6241 14.1824C90.7912 13.5145 91.9584 13.0225 93.1255 12.706C94.3099 12.3722 95.4946 12.2052 96.6792 12.2052C100.686 12.2052 103.612 13.9187 105.459 17.3456C106.835 19.9291 107.523 23.2771 107.523 27.3895C107.523 31.2384 106.434 34.4281 104.257 36.9587C101.923 39.6827 98.7956 41.0447 94.8762 41.0447ZM96.6792 19.2437C95.5818 19.2437 94.4669 19.5074 93.3344 20.0345C92.2023 20.5443 91.0613 21.3176 89.9117 22.3543C90.1206 25.9747 90.225 29.6039 90.225 33.2417C91.7755 33.7515 93.3259 34.0062 94.8762 34.0062C96.6705 34.0062 98.0465 33.3648 99.0048 32.0818C99.8756 30.9219 100.311 29.3578 100.311 27.3895C100.311 25.0169 100.207 23.3737 99.9975 22.46C99.4925 20.3157 98.3863 19.2437 96.6792 19.2437Z" fill="white"/>
<path d="M123.517 41.0455C122.019 41.0455 120.442 40.87 118.787 40.5184L118.761 51.274C118.761 52.2932 118.422 53.1368 117.742 53.8047C117.063 54.4725 116.201 54.8063 115.156 54.8063C114.11 54.8063 113.248 54.4725 112.569 53.8047C111.889 53.1368 111.55 52.2932 111.55 51.274C111.55 50.4479 111.567 47.1703 111.602 41.4412C111.637 37.188 111.637 33.717 111.602 31.0283C111.55 27.2321 111.428 23.9633 111.236 21.2218C110.975 17.4431 110.844 15.7122 110.844 16.0285C110.844 14.5698 111.166 13.3221 111.811 12.2851C112.56 11.1077 113.57 10.519 114.842 10.519C115.817 10.519 116.636 10.8528 117.298 11.5206C117.96 12.1884 118.291 12.988 118.291 13.9195L118.265 14.1832C119.432 13.5154 120.599 13.0233 121.766 12.7068C122.951 12.373 124.135 12.206 125.32 12.206C129.327 12.206 132.253 13.9195 134.099 17.3464C135.476 19.9299 136.164 23.2779 136.164 27.3904C136.164 31.2392 135.075 34.4289 132.897 36.9596C130.563 39.6835 127.437 41.0455 123.517 41.0455ZM125.32 19.2445C124.222 19.2445 123.108 19.5082 121.975 20.0353C120.843 20.5451 119.702 21.3184 118.552 22.3551C118.761 25.9756 118.866 29.6047 118.866 33.2425C120.416 33.7523 121.967 34.007 123.517 34.007C125.311 34.007 126.687 33.3657 127.645 32.0826C128.516 30.9227 128.952 29.3586 128.952 27.3904C128.952 25.0177 128.847 23.3745 128.638 22.4608C128.133 20.3165 127.027 19.2445 125.32 19.2445Z" fill="white"/>
<path d="M150.849 41.0456C147.626 41.0456 144.856 39.9297 142.54 37.6978C139.996 35.2548 138.664 31.995 138.542 27.9176C138.42 24.0337 139.474 20.5715 141.704 17.531C144.351 13.9459 148.036 12.1534 152.756 12.1534C156.24 12.1534 159.01 13.5593 161.065 16.3711C162.912 18.902 163.835 22.0389 163.835 25.7823C163.835 29.8595 162.755 33.3392 160.595 36.2214C158.174 39.4377 154.925 41.0456 150.849 41.0456ZM152.417 19.1129C150.274 19.0953 148.584 20.0794 147.347 22.0652C146.302 23.7349 145.78 25.6856 145.78 27.9176C145.78 30.0265 146.372 31.6434 147.557 32.7682C148.497 33.6645 149.595 34.1127 150.849 34.1127C152.364 34.1127 153.679 33.5941 154.794 32.5572C156.066 31.3447 156.745 29.7015 156.833 27.6276C157.059 21.9685 155.587 19.1304 152.417 19.1129Z" fill="white"/>
<path d="M184.774 40.7392C183.274 40.7392 181.695 40.5595 180.036 40.2003L180.01 51.1954C180.01 52.2374 179.67 53.1 178.989 53.7826C178.308 54.4654 177.445 54.8066 176.397 54.8066C175.35 54.8066 174.486 54.4654 173.806 53.7826C173.125 53.1 172.785 52.2374 172.785 51.1954C172.785 50.3511 172.802 47.0003 172.837 41.1436C172.872 36.7958 172.872 33.2474 172.837 30.4987C172.785 26.6181 172.662 23.2763 172.471 20.4737C172.209 16.6108 172.078 14.8412 172.078 15.1646C172.078 13.6734 172.401 12.3979 173.046 11.3379C173.797 10.1342 174.809 9.53232 176.083 9.53232C177.061 9.53232 177.881 9.87351 178.544 10.5563C179.207 11.239 179.539 12.0565 179.539 13.0086L179.513 13.2782C180.682 12.5954 181.852 12.0925 183.021 11.7691C184.208 11.4277 185.395 11.2569 186.582 11.2569C190.594 11.2569 193.528 13.0086 195.378 16.512C196.756 19.153 197.446 22.5757 197.446 26.7795C197.446 30.7142 196.355 33.9749 194.172 36.5621C191.835 39.347 188.701 40.7392 184.774 40.7392ZM186.582 18.4524C185.482 18.4524 184.364 18.7218 183.23 19.2609C182.096 19.7818 180.953 20.5724 179.801 21.6324C180.01 25.3333 180.115 29.0433 180.115 32.7622C181.668 33.2833 183.221 33.5438 184.774 33.5438C186.573 33.5438 187.951 32.8882 188.91 31.5765C189.785 30.3907 190.219 28.7918 190.219 26.7795C190.219 24.3543 190.116 22.6744 189.907 21.7401C189.4 19.5484 188.291 18.4524 186.582 18.4524Z" fill="white"/>
<path d="M223.962 40.9276C223.159 40.9276 221.886 40.0293 220.14 38.2327C218.534 39.0232 217.121 39.6161 215.9 40.0113C214.678 40.4244 213.638 40.6311 212.785 40.6311C208.579 40.6311 205.418 39.4724 203.308 37.1546C201.212 34.8371 200.165 31.3697 200.165 26.7524C200.165 22.4226 201.718 18.7215 204.826 15.6494C207.932 12.5591 211.65 11.0142 215.978 11.0142C217.637 11.0142 219.556 11.4993 221.737 12.4693C224.373 13.6371 225.689 14.9935 225.689 16.5387C225.689 17.1855 225.489 17.7514 225.089 18.2366C224.914 18.9552 224.774 19.8625 224.67 20.9582C224.583 22.0362 224.539 23.3029 224.539 24.7581C224.539 28.1896 224.774 30.6601 225.245 32.169C225.298 32.3307 225.699 33.265 226.449 34.9719C227.13 36.5168 227.47 37.3973 227.47 37.6128C227.47 38.5651 227.113 39.3554 226.398 39.9843C225.699 40.6131 224.886 40.9276 223.962 40.9276ZM217.469 22.4404C217.469 21.8655 217.506 21.2099 217.575 20.4733C217.662 19.7187 217.784 18.8832 217.941 17.9669C217.593 17.7874 217.278 17.6615 217 17.5897C216.737 17.4997 216.51 17.455 216.319 17.455C213.944 17.455 211.867 18.416 210.088 20.3384C208.307 22.2429 207.417 24.4527 207.417 26.9679C207.417 29.3754 207.836 31.19 208.673 32.4117C209.511 33.6154 210.769 34.2173 212.444 34.2173C213.526 34.2173 214.547 34.0376 215.506 33.6782C216.484 33.301 217.4 32.7531 218.256 32.0343C217.731 27.7585 217.469 24.5604 217.469 22.4404Z" fill="white"/>
<path d="M257.184 16.3774C255.282 20.4558 252.272 26.8606 248.152 35.5922C245.918 40.2812 244.218 44.1708 243.047 47.2611C242.681 48.3749 242.106 50.0278 241.319 52.2198C240.691 53.9084 239.575 54.753 237.969 54.753C236.975 54.753 236.101 54.4206 235.351 53.7557C234.601 53.0911 234.226 52.2556 234.226 51.2495C234.226 49.5786 236.075 44.629 239.775 36.4005C237.856 32.5019 234.81 26.7619 230.639 19.1801C230.22 18.4975 229.792 17.8056 229.355 17.105C228.886 16.2787 228.649 15.5241 228.649 14.8413C228.649 13.8712 229.024 13.0177 229.774 12.2811C230.526 11.5445 231.389 11.1763 232.367 11.1763C233.519 11.1763 234.417 11.6165 235.063 12.4968C237.541 15.8923 240.431 21.0037 243.728 27.8307C245.596 23.5729 246.73 21.0037 247.133 20.1234C248.37 17.4465 249.583 15.093 250.77 13.0627C251.52 11.7692 252.551 11.1223 253.86 11.1223C254.838 11.1223 255.71 11.4638 256.478 12.1464C257.247 12.8292 257.628 13.6645 257.628 14.6526C257.628 15.1737 257.481 15.7486 257.184 16.3774Z" fill="white"/>
</svg>
