<svg width="46" height="40" viewBox="0 0 46 40" fill="none" xmlns="http://www.w3.org/2000/svg">
<path d="M15.7383 10.7462H8.49631C7.3369 10.7462 6.3938 9.80306 6.3938 8.64365C6.3938 7.48424 7.3369 6.54114 8.49631 6.54114H18.7666C19.4155 6.54114 19.9347 6.022 19.9347 5.37308C19.9347 4.72416 19.4155 4.20502 18.7666 4.20502H14.5616C13.4022 4.20502 12.4591 3.26192 12.4591 2.10251C12.4591 0.943102 13.4022 0 14.5616 0H20.1856C21.8295 0 23.4215 0.588357 24.6848 1.65259L45.2686 19.0956C45.7445 19.4936 45.7358 20.2204 45.2599 20.6184L24.6675 37.6375C23.4215 38.6671 21.8555 39.2295 20.2375 39.2295H11.7669C10.6075 39.2295 9.66437 38.2864 9.66437 37.127C9.66437 35.9676 10.6075 35.0245 11.7669 35.0245H18.5416C19.3117 35.0245 19.9433 34.4016 19.9433 33.6229C19.9433 32.8528 19.3203 32.2212 18.5416 32.2212H14.3366C13.307 32.2212 12.4677 31.3819 12.4677 30.3523C12.4677 29.3227 13.307 28.4834 14.3366 28.4834H20.8778C21.9074 28.4834 22.7467 27.6441 22.7467 26.6145C22.7467 25.5849 21.9074 24.7456 20.8778 24.7456H19.0089C17.9792 24.7456 17.14 23.9063 17.14 22.8767C17.14 21.8471 17.9792 21.0078 19.0089 21.0078H23.6811C24.4512 21.0078 25.0828 20.3848 25.0828 19.6061C25.0828 18.8274 24.4598 18.2045 23.6811 18.2045H12.4764C11.4467 18.2045 10.6075 17.3652 10.6075 16.3356C10.6075 15.3059 11.4467 14.4667 12.4764 14.4667H15.7469C16.7766 14.4667 17.6158 13.6274 17.6158 12.5978C17.6072 11.5854 16.7766 10.7462 15.7383 10.7462Z" fill="white"/>
<path d="M2.89865 10.6162C4.05984 10.6162 5.00116 9.67489 5.00116 8.5137C5.00116 7.35252 4.05984 6.41119 2.89865 6.41119C1.73747 6.41119 0.796143 7.35252 0.796143 8.5137C0.796143 9.67489 1.73747 10.6162 2.89865 10.6162Z" fill="white"/>
<path d="M8.50498 32.2299C9.66616 32.2299 10.6075 31.2886 10.6075 30.1274C10.6075 28.9662 9.66616 28.0249 8.50498 28.0249C7.34379 28.0249 6.40247 28.9662 6.40247 30.1274C6.40247 31.2886 7.34379 32.2299 8.50498 32.2299Z" fill="white"/>
<path d="M1.8689 14.4147H7.47559C8.50522 14.4147 9.34449 15.254 9.34449 16.2836C9.34449 17.3133 8.50522 18.1525 7.47559 18.1525H1.8689C0.839274 18.1525 0 17.3133 0 16.2836C0 15.254 0.830622 14.4147 1.8689 14.4147Z" fill="white"/>
<path d="M7.33679 21.0163H13.8779C14.9076 21.0163 15.7468 21.8556 15.7468 22.8852C15.7468 23.9148 14.9076 24.7541 13.8779 24.7541H7.33679C6.30717 24.7541 5.4679 23.9148 5.4679 22.8852C5.4679 21.8556 6.30717 21.0163 7.33679 21.0163Z" fill="white"/>
</svg>
