<svg width="75" height="75" viewBox="0 0 75 75" fill="none" xmlns="http://www.w3.org/2000/svg">
<path d="M27.6702 25.7947H18.1388C16.6128 25.7947 15.3716 24.5501 15.3716 23.02C15.3716 21.4901 16.6128 20.2455 18.1388 20.2455H31.6558C32.5099 20.2455 33.1932 19.5604 33.1932 18.7041C33.1932 17.8478 32.5099 17.1627 31.6558 17.1627H26.1215C24.5955 17.1627 23.3543 15.9181 23.3543 14.388C23.3543 12.8579 24.5955 11.6133 26.1215 11.6133H33.5234C35.687 11.6133 37.7823 12.3898 39.4449 13.7942L66.5359 36.8132C67.1621 37.3384 67.1508 38.2975 66.5245 38.8227L39.4221 61.2822C37.7823 62.6408 35.7211 63.3831 33.5917 63.3831H22.4432C20.9174 63.3831 19.6762 62.1385 19.6762 60.6084C19.6762 59.0783 20.9174 57.8337 22.4432 57.8337H31.3598C32.3733 57.8337 33.2045 57.0116 33.2045 55.9841C33.2045 54.9678 32.3846 54.1344 31.3598 54.1344H25.8255C24.4702 54.1344 23.3656 53.0268 23.3656 51.6681C23.3656 50.3093 24.4702 49.2017 25.8255 49.2017H34.4344C35.7894 49.2017 36.8941 48.0943 36.8941 46.7354C36.8941 45.3767 35.7894 44.2691 34.4344 44.2691H31.9747C30.6195 44.2691 29.5149 43.1615 29.5149 41.8029C29.5149 40.444 30.6195 39.3366 31.9747 39.3366H38.124C39.1373 39.3366 39.9687 38.5145 39.9687 37.4867C39.9687 36.4592 39.1488 35.6371 38.124 35.6371H23.3771C22.0219 35.6371 20.9174 34.5295 20.9174 33.1708C20.9174 31.8119 22.0219 30.7043 23.3771 30.7043H27.6815C29.0367 30.7043 30.1413 29.5969 30.1413 28.2381C30.1298 26.9023 29.0367 25.7947 27.6702 25.7947Z" fill="#003366"/>
<path d="M10.7705 25.6214C12.2988 25.6214 13.5377 24.3792 13.5377 22.8467C13.5377 21.3145 12.2988 20.0723 10.7705 20.0723C9.24232 20.0723 8.00342 21.3145 8.00342 22.8467C8.00342 24.3792 9.24232 25.6214 10.7705 25.6214Z" fill="#003366"/>
<path d="M18.1569 54.1456C19.685 54.1456 20.9239 52.9033 20.9239 51.3709C20.9239 49.8384 19.685 48.5962 18.1569 48.5962C16.6286 48.5962 15.3896 49.8384 15.3896 51.3709C15.3896 52.9033 16.6286 54.1456 18.1569 54.1456Z" fill="#003366"/>
<path d="M9.41817 30.6353H16.7974C18.1524 30.6353 19.2571 31.7429 19.2571 33.1017C19.2571 34.4604 18.1524 35.568 16.7974 35.568H9.41817C8.06314 35.568 6.9585 34.4604 6.9585 33.1017C6.9585 31.7429 8.05161 30.6353 9.41817 30.6353Z" fill="#003366"/>
<path d="M16.6159 39.3462H25.2249C26.5799 39.3462 27.6846 40.4536 27.6846 41.8125C27.6846 43.1711 26.5799 44.2787 25.2249 44.2787H16.6159C15.2609 44.2787 14.1562 43.1711 14.1562 41.8125C14.1562 40.4536 15.2609 39.3462 16.6159 39.3462Z" fill="#003366"/>
</svg>
