<svg width="151" height="155" viewBox="0 0 151 155" fill="none" xmlns="http://www.w3.org/2000/svg">
<path fill-rule="evenodd" clip-rule="evenodd" d="M38.8054 147.95L0.899803 155.785L219.034 153.567L184.373 144.541L38.8054 147.95Z" fill="url(#paint0_radial_1061_8745)"/>
<path fill-rule="evenodd" clip-rule="evenodd" d="M1 157.535L3.97331 161.736L215.295 158.224L219.071 151.822L1 157.535Z" fill="url(#paint1_linear_1061_8745)"/>
<path fill-rule="evenodd" clip-rule="evenodd" d="M31.0352 -4.28019L34.5465 45.5252L183.127 47.5363L185.855 -4.76172L31.0352 -4.28019Z" fill="url(#paint2_linear_1061_8745)"/>
<g style="mix-blend-mode:multiply" opacity="0.2">
<path fill-rule="evenodd" clip-rule="evenodd" d="M31.0352 -4.2793L34.7636 24.3765L184.184 21.3929L183.457 41.249L34.2161 40.8147L31.0352 -4.2793Z" fill="#B01734"/>
</g>
<path fill-rule="evenodd" clip-rule="evenodd" d="M41.5956 143.833L37.1875 40.408L180.19 39.9453L175.508 144.362L41.5956 143.833Z" fill="url(#paint3_linear_1061_8745)"/>
<path fill-rule="evenodd" clip-rule="evenodd" d="M38.332 142.765L38.8512 147.703H177.068L177.426 142.359L123.652 143.832L38.332 142.765Z" fill="url(#paint4_radial_1061_8745)"/>
<g style="mix-blend-mode:soft-light">
<path fill-rule="evenodd" clip-rule="evenodd" d="M42.8633 133.656L60.42 132.967L60.4011 139.132H42.8822L42.8633 133.656Z" fill="#FF9F57"/>
</g>
<g style="mix-blend-mode:soft-light">
<path fill-rule="evenodd" clip-rule="evenodd" d="M114.844 127.867L132.4 127.188L132.382 133.344H114.863L114.844 127.867Z" fill="#FF9F57"/>
</g>
<g style="mix-blend-mode:soft-light">
<path fill-rule="evenodd" clip-rule="evenodd" d="M72.0371 139.963L89.5844 139.273L89.5749 143.409L72.0465 143.192L72.0371 139.963Z" fill="#FF9F57"/>
</g>
<g style="mix-blend-mode:soft-light">
<path fill-rule="evenodd" clip-rule="evenodd" d="M124.707 70.7169L142.254 70.0371L142.245 76.1932H124.726L124.707 70.7169Z" fill="#FF9F57"/>
</g>
<g style="mix-blend-mode:soft-light">
<path fill-rule="evenodd" clip-rule="evenodd" d="M48.5254 127.49L66.0726 126.811L66.0632 132.967H48.5443L48.5254 127.49Z" fill="#FF9F57"/>
</g>
<g style="mix-blend-mode:multiply" opacity="0.2">
<path fill-rule="evenodd" clip-rule="evenodd" d="M46.7578 106.842L64.3051 106.162L64.2956 112.318H46.7767L46.7578 106.842Z" fill="#811734"/>
</g>
<g style="mix-blend-mode:multiply" opacity="0.2">
<path fill-rule="evenodd" clip-rule="evenodd" d="M105.209 134.457L120.84 133.844L120.821 139.329H105.228L105.209 134.457Z" fill="#811734"/>
</g>
<g style="mix-blend-mode:multiply" opacity="0.2">
<path fill-rule="evenodd" clip-rule="evenodd" d="M52.6875 69.7348L68.3092 69.1211L68.2997 74.6068H52.6969L52.6875 69.7348Z" fill="#811734"/>
</g>
<g style="mix-blend-mode:multiply" opacity="0.2">
<path fill-rule="evenodd" clip-rule="evenodd" d="M115.805 77.8816L131.436 77.2773L131.426 82.763H115.824L115.805 77.8816Z" fill="#811734"/>
</g>
<g style="mix-blend-mode:multiply" opacity="0.2">
<path fill-rule="evenodd" clip-rule="evenodd" d="M132.398 77.6173L148.454 76.9941L148.011 82.4893H132.417L132.398 77.6173Z" fill="#811734"/>
</g>
<g style="mix-blend-mode:soft-light">
<path fill-rule="evenodd" clip-rule="evenodd" d="M43.1719 100.732L62.4182 100.921V105.982L43.1719 106.161V100.732Z" fill="#FFBF57"/>
</g>
<path fill-rule="evenodd" clip-rule="evenodd" d="M47.2139 79.2442L32.6777 49.748H37.199L49.215 79.2442C49.215 79.2442 48.139 80.415 47.2139 79.2442Z" fill="url(#paint5_radial_1061_8745)"/>
<path fill-rule="evenodd" clip-rule="evenodd" d="M55.0552 133.249L53.8281 75.9844H111.359L110.038 132.578L55.0552 133.249Z" fill="#FFD1B3"/>
<path fill-rule="evenodd" clip-rule="evenodd" d="M57.3974 130.265L107.349 129.736L108.501 78.8262L56.6895 78.8451L57.3974 130.265Z" fill="url(#paint6_radial_1061_8745)"/>
<path fill-rule="evenodd" clip-rule="evenodd" d="M111.361 75.9844H112.304L111.361 132.578H110.039L111.361 75.9844Z" fill="#FF8D90"/>
<path fill-rule="evenodd" clip-rule="evenodd" d="M57.3974 130.265L56.6895 78.8451L57.9354 78.8262V130.265H57.3974Z" fill="#FF8D90"/>
<path fill-rule="evenodd" clip-rule="evenodd" d="M123.621 147.403L124.046 87.7402L162.652 88.2595L159.782 147.705L123.621 147.403Z" fill="#FFD1B3"/>
<path fill-rule="evenodd" clip-rule="evenodd" d="M126.303 147.704L127.341 91.0059H159.679L157.159 147.704H126.303Z" fill="url(#paint7_linear_1061_8745)"/>
<path fill-rule="evenodd" clip-rule="evenodd" d="M130.002 136.252V93.8301H156.082L153.836 136.252H130.002Z" fill="url(#paint8_radial_1061_8745)"/>
<g style="mix-blend-mode:multiply" opacity="0.5">
<path fill-rule="evenodd" clip-rule="evenodd" d="M178.102 86.3522L179.499 55.2793L37.9883 59.2354L38.9699 82.2922L178.102 86.3522Z" fill="#811734"/>
</g>
<path fill-rule="evenodd" clip-rule="evenodd" d="M39.9465 36.4236L38.8516 30.1543H178.04L176.285 35.6305L39.9465 36.4236Z" fill="url(#paint9_radial_1061_8745)"/>
<path fill-rule="evenodd" clip-rule="evenodd" d="M33.8568 67.7415C31.8052 67.6725 29.848 66.8628 28.347 65.4621C26.8461 64.0614 25.9029 62.1644 25.6919 60.1219L24.5781 48.1875H39.8223L40.7662 60.1219C40.8702 61.0881 40.7684 62.0654 40.4677 62.9894C40.167 63.9135 39.674 64.7633 39.0213 65.4831C38.3686 66.2029 37.571 66.7763 36.6808 67.1655C35.7907 67.5547 34.8282 67.751 33.8568 67.7415Z" fill="url(#paint10_radial_1061_8745)"/>
<path fill-rule="evenodd" clip-rule="evenodd" d="M48.7715 67.7415C46.7278 67.6894 44.7758 66.8819 43.2923 65.4747C41.8089 64.0676 40.8992 62.1606 40.7388 60.1219L39.7949 48.1875H55.0391L55.7375 60.1219C55.8197 61.0884 55.7008 62.0615 55.3884 62.9798C55.076 63.8981 54.5769 64.7417 53.9225 65.4575C53.2681 66.1733 52.4726 66.7458 51.5861 67.1388C50.6995 67.5319 49.7412 67.7371 48.7715 67.7415Z" fill="url(#paint11_radial_1061_8745)"/>
<path fill-rule="evenodd" clip-rule="evenodd" d="M63.6752 67.7415C61.6426 67.6952 59.7017 66.886 58.238 65.4744C56.7744 64.0628 55.895 62.1521 55.7747 60.1219L55.0762 48.1875H70.3298L70.8205 60.1219C70.8797 61.0982 70.7389 62.0763 70.4068 62.9963C70.0748 63.9162 69.5585 64.7587 68.8895 65.4721C68.2206 66.1854 67.4131 66.7546 66.5164 67.1449C65.6198 67.5351 64.653 67.7381 63.6752 67.7415Z" fill="url(#paint12_radial_1061_8745)"/>
<path fill-rule="evenodd" clip-rule="evenodd" d="M78.5779 67.7415C76.556 67.7042 74.6251 66.8938 73.1821 65.4766C71.739 64.0595 70.8934 62.1434 70.8189 60.1219L70.3281 48.1875H85.5722L85.8554 60.1219C85.8934 61.1042 85.7336 62.084 85.3856 63.0033C85.0376 63.9225 84.5085 64.7625 83.8297 65.4732C83.1509 66.184 82.3361 66.751 81.434 67.1406C80.5318 67.5303 79.5605 67.7346 78.5779 67.7415Z" fill="url(#paint13_radial_1061_8745)"/>
<path fill-rule="evenodd" clip-rule="evenodd" d="M93.4822 67.7415C91.4709 67.7099 89.5508 66.8973 88.1275 65.4754C86.7043 64.0535 85.8895 62.1337 85.8555 60.1219L85.5723 48.1875H100.873L100.939 60.1219C100.957 61.1139 100.777 62.0994 100.41 63.0213C100.044 63.9431 99.4978 64.7829 98.804 65.4919C98.1102 66.2008 97.2824 66.7648 96.3688 67.1509C95.4552 67.5371 94.474 67.7379 93.4822 67.7415Z" fill="url(#paint14_radial_1061_8745)"/>
<path fill-rule="evenodd" clip-rule="evenodd" d="M108.426 67.7415C107.434 67.7341 106.453 67.531 105.539 67.144C104.625 66.7569 103.796 66.1935 103.1 65.4858C102.404 64.7781 101.854 63.9401 101.482 63.0197C101.11 62.0994 100.923 61.1147 100.932 60.1219L100.875 48.1875H116.072L115.978 60.1219C115.97 62.1291 115.174 64.053 113.762 65.4784C112.349 66.9039 110.433 67.7167 108.426 67.7415Z" fill="url(#paint15_radial_1061_8745)"/>
<path fill-rule="evenodd" clip-rule="evenodd" d="M123.291 67.7415C122.305 67.733 121.33 67.5283 120.424 67.1392C119.518 66.7501 118.698 66.1844 118.013 65.4752C117.328 64.7659 116.79 63.9274 116.432 63.0083C116.074 62.0892 115.903 61.108 115.928 60.1219L116.07 48.1875H131.323L130.965 60.1219C130.916 62.1373 130.09 64.0557 128.66 65.4759C127.23 66.8961 125.306 67.7079 123.291 67.7415Z" fill="url(#paint16_radial_1061_8745)"/>
<path fill-rule="evenodd" clip-rule="evenodd" d="M138.195 67.7415C137.214 67.7362 136.245 67.5325 135.344 67.1428C134.444 66.7531 133.632 66.1853 132.956 65.4735C132.281 64.7618 131.756 63.9208 131.414 63.0012C131.072 62.0815 130.919 61.1022 130.965 60.1219L131.324 48.1875H146.568L146.011 60.1219C145.918 62.1469 145.059 64.0608 143.607 65.4756C142.156 66.8905 140.221 67.7005 138.195 67.7415Z" fill="url(#paint17_radial_1061_8745)"/>
<path fill-rule="evenodd" clip-rule="evenodd" d="M153.101 67.7415C152.125 67.74 151.159 67.5378 150.265 67.1474C149.371 66.757 148.566 66.1868 147.901 65.4722C147.236 64.7576 146.726 63.914 146.401 62.9935C146.075 62.0731 145.943 61.0957 146.012 60.1219L146.569 48.1875H161.822L161.048 60.1219C160.914 62.1555 160.024 64.0653 158.553 65.4754C157.083 66.8856 155.137 67.694 153.101 67.7415Z" fill="url(#paint18_radial_1061_8745)"/>
<path fill-rule="evenodd" clip-rule="evenodd" d="M39.9433 36.424L24.5859 48.1884C86.6479 51.7102 128.68 51.8613 192.318 48.1884L176.272 35.6309L39.9433 36.424Z" fill="url(#paint19_radial_1061_8745)"/>
<mask id="mask0_1061_8745" style="mask-type:luminance" maskUnits="userSpaceOnUse" x="39" y="36" width="22" height="14">
<path d="M39.8984 49.0094L51.0743 36.4047L60.5039 36.3008L55.0859 49.6987L39.8984 49.0094Z" fill="white"/>
</mask>
<g mask="url(#mask0_1061_8745)">
<path d="M60.4942 36.3105H39.8887V49.7084H60.4942V36.3105Z" fill="#F9C78C"/>
<path fill-rule="evenodd" clip-rule="evenodd" d="M61.4386 47.5471V50.6534H38.9453V35.3672H61.4386V47.5471Z" fill="#F9C78C"/>
<path fill-rule="evenodd" clip-rule="evenodd" d="M61.4386 47.5282V50.6534H38.9453V35.3672H61.4386V47.5282Z" fill="#F9C88D"/>
<path fill-rule="evenodd" clip-rule="evenodd" d="M61.4386 47.5093V50.6534H38.9453V35.3672H61.4386V47.5093Z" fill="#F9C88E"/>
<path fill-rule="evenodd" clip-rule="evenodd" d="M61.4386 47.4904V50.6534H38.9453V35.3672H61.4386V47.4904Z" fill="#F9C98F"/>
<path fill-rule="evenodd" clip-rule="evenodd" d="M61.4386 47.4716V50.6534H38.9453V35.3672H61.4386V47.4716Z" fill="#F9CA90"/>
<path fill-rule="evenodd" clip-rule="evenodd" d="M61.4386 47.4527V50.6534H38.9453V35.3672H61.4386V47.4527Z" fill="#FACB91"/>
<path fill-rule="evenodd" clip-rule="evenodd" d="M61.4386 47.4338V50.6534H38.9453V35.3672H61.4386V47.4338Z" fill="#FACB92"/>
<path fill-rule="evenodd" clip-rule="evenodd" d="M61.4386 47.4149V50.6534H38.9453V35.3672H61.4386V47.4149Z" fill="#FACC93"/>
<path fill-rule="evenodd" clip-rule="evenodd" d="M61.4386 47.396V50.6534H38.9453V35.3672H61.4386V47.396Z" fill="#FACD94"/>
<path fill-rule="evenodd" clip-rule="evenodd" d="M61.4386 47.3771V50.6534H38.9453V35.3672H61.4386V47.3771Z" fill="#FACE95"/>
<path fill-rule="evenodd" clip-rule="evenodd" d="M61.4386 47.3583V50.6534H38.9453V35.3672H61.4386V47.3583Z" fill="#FACE96"/>
<path fill-rule="evenodd" clip-rule="evenodd" d="M61.4386 47.3394V50.6534H38.9453V35.3672H61.4386V47.3394Z" fill="#FACF97"/>
<path fill-rule="evenodd" clip-rule="evenodd" d="M61.4386 47.3205V50.6534H38.9453V35.3672H61.4386V47.3205Z" fill="#FAD098"/>
<path fill-rule="evenodd" clip-rule="evenodd" d="M61.4386 47.3016V50.6534H38.9453V35.3672H61.4386V47.3016Z" fill="#FBD099"/>
<path fill-rule="evenodd" clip-rule="evenodd" d="M61.4386 47.2827V50.6534H38.9453V35.3672H61.4386V47.2827Z" fill="#FBD19A"/>
<path fill-rule="evenodd" clip-rule="evenodd" d="M61.4386 47.2638V50.6534H38.9453V35.3672H61.4386V47.2638Z" fill="#FBD29B"/>
<path fill-rule="evenodd" clip-rule="evenodd" d="M61.4386 47.245V50.6534H38.9453V35.3672H61.4386V47.245Z" fill="#FBD39C"/>
<path fill-rule="evenodd" clip-rule="evenodd" d="M61.4482 47.2252V50.6526H39.0398V57.2619C38.112 53.5577 37.6616 49.7501 37.6995 45.9317C37.7317 42.1045 38.2519 38.2971 39.2475 34.6016V35.338H61.4482V47.2252Z" fill="#FBD39D"/>
<path fill-rule="evenodd" clip-rule="evenodd" d="M61.4478 47.2069V50.6532H41.0217V56.932C40.1282 53.3347 39.6936 49.6388 39.7285 45.9323C39.7581 42.2261 40.2625 38.5389 41.2293 34.9609V35.3575H61.4478V47.2069Z" fill="#FBD49E"/>
<path fill-rule="evenodd" clip-rule="evenodd" d="M61.448 47.188V50.6531H43.0135V56.6298C42.143 53.1381 41.7211 49.5496 41.7581 45.9511C41.7865 42.3535 42.275 38.7743 43.2117 35.3008V35.3574H61.448V47.188Z" fill="#FBD59F"/>
<path fill-rule="evenodd" clip-rule="evenodd" d="M61.4488 47.1403V50.6243H45.0059V56.2894C44.1612 52.8929 43.7489 49.4033 43.7789 45.9034C43.8128 42.4174 44.2885 38.9498 45.1947 35.5836C45.6458 33.9152 46.1974 32.2756 46.8466 30.6738V35.2909H61.4488V47.1403Z" fill="#FBD6A0"/>
<path fill-rule="evenodd" clip-rule="evenodd" d="M61.4489 47.1409V50.6438H46.9976V56.0067C46.177 52.7284 45.7773 49.3589 45.8083 45.9795C45.8448 42.6018 46.3079 39.2422 47.1864 35.9807C47.6165 34.3756 48.1462 32.7989 48.7722 31.2598V35.3764H61.4489V47.1409Z" fill="#FBD6A1"/>
<path fill-rule="evenodd" clip-rule="evenodd" d="M61.4456 47.1417V50.6635H48.9577V55.7243C48.1641 52.5508 47.7772 49.2893 47.8062 46.0182C47.8416 42.7491 48.2888 39.4975 49.1371 36.3403C49.5546 34.7773 50.0685 33.2417 50.6757 31.7422V35.3678H61.4173L61.4456 47.1417Z" fill="#FCD7A2"/>
<path fill-rule="evenodd" clip-rule="evenodd" d="M61.4483 47.1407V50.6813H50.9804V55.4022C50.2143 52.3335 49.8401 49.18 49.8665 46.0171C49.8955 42.8563 50.3269 39.712 51.1502 36.6603C51.5564 35.152 52.0544 33.67 52.6416 32.2227V35.3479H61.4483V47.1407Z" fill="#FCD8A3"/>
<path fill-rule="evenodd" clip-rule="evenodd" d="M61.4498 47.1419V50.7014H52.9546V55.158C52.211 52.1948 51.8494 49.1488 51.8786 46.0939C51.9064 43.0417 52.3219 40.0054 53.1151 37.0581C53.5112 35.6019 53.9934 34.1705 54.5593 32.7715V35.4058H61.4309L61.4498 47.1419Z" fill="#FCD8A4"/>
<path fill-rule="evenodd" clip-rule="evenodd" d="M61.4462 47.0745V50.6529H54.9521V54.7978C54.2427 51.9416 53.8971 49.0071 53.9233 46.0642C53.9963 40.1797 55.527 34.4053 58.3785 29.2578V35.3572H61.4462V47.0745Z" fill="#FCD9A5"/>
<path fill-rule="evenodd" clip-rule="evenodd" d="M61.4465 47.0561V50.6534H56.9441V54.4963C56.2567 51.7458 55.9236 48.9186 55.953 46.0836C56.0322 40.4132 57.5212 34.8516 60.2855 29.9004V35.3577H61.4843L61.4465 47.0561Z" fill="#FCDAA7"/>
<path fill-rule="evenodd" clip-rule="evenodd" d="M61.4469 47.0378V50.654H58.9361V54.1946C58.2792 51.5485 57.962 48.8294 57.9922 46.103C58.056 40.6544 59.4735 35.3073 62.1171 30.543L61.4563 35.3583L61.4469 47.0378Z" fill="#FCDBA8"/>
<path fill-rule="evenodd" clip-rule="evenodd" d="M61.448 47.0175V50.6526H60.9289V53.8817C60.2859 51.3452 59.9687 48.7372 59.985 46.1205C60.0439 40.8892 61.4065 35.7552 63.9494 31.1836L61.4197 35.3568L61.448 47.0175Z" fill="#FCDBA9"/>
</g>
<mask id="mask1_1061_8745" style="mask-type:luminance" maskUnits="userSpaceOnUse" x="70" y="36" width="17" height="15">
<path d="M70.4121 50.2678L73.6025 36.2184L86.6473 36.1523L85.3542 50.6549L70.4121 50.2678Z" fill="white"/>
</mask>
<g mask="url(#mask1_1061_8745)">
<path d="M86.6493 36.1621H70.4141V50.6647H86.6493V36.1621Z" fill="#F9C78C"/>
<path fill-rule="evenodd" clip-rule="evenodd" d="M87.5918 48.2767V51.6003H69.4688V35.2188H87.5918V48.2767Z" fill="#F9C78C"/>
<path fill-rule="evenodd" clip-rule="evenodd" d="M87.5918 48.2579V51.6003H69.4688V35.2188H87.5918V48.2579Z" fill="#F9C88D"/>
<path fill-rule="evenodd" clip-rule="evenodd" d="M87.5918 48.239V51.6003H69.4688V35.2188H87.5918V48.239Z" fill="#F9C88E"/>
<path fill-rule="evenodd" clip-rule="evenodd" d="M87.5918 48.2201V51.6003H69.4688V35.2188H87.5918V48.2201Z" fill="#F9C98F"/>
<path fill-rule="evenodd" clip-rule="evenodd" d="M87.5918 48.2012V51.6003H69.4688V35.2188H87.5918V48.2012Z" fill="#F9CA90"/>
<path fill-rule="evenodd" clip-rule="evenodd" d="M87.5918 48.1918V51.6003H69.4688V35.2188H87.5918V48.1918Z" fill="#FACB91"/>
<path fill-rule="evenodd" clip-rule="evenodd" d="M87.5918 48.1634V51.6003H69.4688V35.2188H87.5918V48.1634Z" fill="#FACB92"/>
<path fill-rule="evenodd" clip-rule="evenodd" d="M87.5918 48.154V51.6003H69.4688V35.2188H87.5918V48.154Z" fill="#FACC93"/>
<path fill-rule="evenodd" clip-rule="evenodd" d="M87.5918 48.1351V51.6003H69.4688V35.2188H87.5918V48.1351Z" fill="#FACD94"/>
<path fill-rule="evenodd" clip-rule="evenodd" d="M87.5918 48.1162V51.6003H69.4688V35.2188H87.5918V48.1162Z" fill="#FACE95"/>
<path fill-rule="evenodd" clip-rule="evenodd" d="M87.5918 48.0974V51.6003H69.4688V35.2188H87.5918V48.0974Z" fill="#FACE96"/>
<path fill-rule="evenodd" clip-rule="evenodd" d="M87.5918 48.0785V51.6003H69.4688V35.2188H87.5918V48.0785Z" fill="#FACF97"/>
<path fill-rule="evenodd" clip-rule="evenodd" d="M87.5918 48.0596V51.6003H69.4688V35.2188H87.5918V48.0596Z" fill="#FAD098"/>
<path fill-rule="evenodd" clip-rule="evenodd" d="M87.5918 48.0407V51.6003H69.4688V35.2188H87.5918V48.0407Z" fill="#FBD099"/>
<path fill-rule="evenodd" clip-rule="evenodd" d="M87.5918 48.0218V51.6003H69.4688V35.2188H87.5918V48.0218Z" fill="#FBD19A"/>
<path fill-rule="evenodd" clip-rule="evenodd" d="M87.5918 48.0029V51.6003H69.4688V35.2188H87.5918V48.0029Z" fill="#FBD29B"/>
<path fill-rule="evenodd" clip-rule="evenodd" d="M87.5918 47.984V51.6003H69.4688V35.2188H87.5918V47.984Z" fill="#FBD39C"/>
<path fill-rule="evenodd" clip-rule="evenodd" d="M87.5918 47.9652V51.6003H69.4688V35.2188H87.5918V47.9652Z" fill="#FBD39D"/>
<path fill-rule="evenodd" clip-rule="evenodd" d="M87.5918 47.9463V51.6003H69.4688V35.2188H87.5918V47.9463Z" fill="#FBD49E"/>
<path fill-rule="evenodd" clip-rule="evenodd" d="M87.5918 47.9274V51.6003H69.4688V35.2188H87.5918V47.9274Z" fill="#FBD59F"/>
<path fill-rule="evenodd" clip-rule="evenodd" d="M87.5918 47.9085V51.6003H69.4688V35.2188H87.5918V47.9085Z" fill="#FBD6A0"/>
<path fill-rule="evenodd" clip-rule="evenodd" d="M87.5918 47.8896V51.6003H69.4688V35.2188H87.5918V47.8896Z" fill="#FBD6A1"/>
<path fill-rule="evenodd" clip-rule="evenodd" d="M87.5918 47.8707V51.6003H69.4688V35.2188H87.5918V47.8707Z" fill="#FCD7A2"/>
<path fill-rule="evenodd" clip-rule="evenodd" d="M87.5918 47.8519V51.6003H69.4688V35.2188H87.5918V47.8519Z" fill="#FCD8A3"/>
<path fill-rule="evenodd" clip-rule="evenodd" d="M87.5918 47.833V51.6003H69.4688V35.2188H87.5918V47.833Z" fill="#FCD8A4"/>
<path fill-rule="evenodd" clip-rule="evenodd" d="M87.5918 47.8141V51.6003H69.4688V35.2188H87.5918V47.8141Z" fill="#FCD9A5"/>
<path fill-rule="evenodd" clip-rule="evenodd" d="M87.5918 47.7952V51.6003H69.4688V35.2188H87.5918V47.7952Z" fill="#FCDAA7"/>
<path fill-rule="evenodd" clip-rule="evenodd" d="M87.5918 47.7763V51.6003H69.4688V35.2188H87.5918V47.7763Z" fill="#FCDBA8"/>
<path fill-rule="evenodd" clip-rule="evenodd" d="M87.5918 47.7574V51.6003H69.4688V35.2188H87.5918V47.7574Z" fill="#FCDBA9"/>
<path fill-rule="evenodd" clip-rule="evenodd" d="M87.5918 47.7386V51.6003H69.4688V35.2188H87.5918V47.7386Z" fill="#FCDCAA"/>
<path fill-rule="evenodd" clip-rule="evenodd" d="M87.5918 47.7197V51.6003H69.4688V35.2188H87.5918V47.7197Z" fill="#FDDDAB"/>
<path fill-rule="evenodd" clip-rule="evenodd" d="M87.5917 47.6988V51.5982H69.4687V46.8773H66.0801C66.14 42.2953 67.3333 37.7993 69.5537 33.791V35.1695H87.5917V47.6988Z" fill="#FDDDAC"/>
<path fill-rule="evenodd" clip-rule="evenodd" d="M87.59 47.6798V51.5981H69.467V46.9339H68.1172C68.1625 42.569 69.2982 38.2847 71.4209 34.4707V35.2072H87.59V47.6798Z" fill="#FDDEAD"/>
<path fill-rule="evenodd" clip-rule="evenodd" d="M87.5912 47.6633V51.6006H70.8745V53.1018C70.3707 51.0924 70.1264 49.0267 70.1478 46.9552C70.1952 42.8097 71.2721 38.7411 73.2816 35.1152V35.2096H87.5912V47.6633Z" fill="#FDDFAE"/>
<path fill-rule="evenodd" clip-rule="evenodd" d="M87.5909 47.6439V51.6H72.866V52.8086C72.3892 50.904 72.1576 48.9463 72.1769 46.983C72.2238 43.0554 73.2455 39.201 75.1502 35.7662C76.1094 34.0203 77.2551 32.3835 78.5672 30.8848V35.2185H87.5909V47.6439Z" fill="#FDE0AF"/>
<path fill-rule="evenodd" clip-rule="evenodd" d="M87.5902 47.6249V51.5999H76.8202V57.6332C75.0798 54.3581 74.1812 50.7013 74.2056 46.9923C74.2545 43.2805 75.2278 39.6395 77.0373 36.3986C77.939 34.7499 79.0183 33.2049 80.256 31.791V35.2089H87.6091L87.5902 47.6249Z" fill="#FDE0B0"/>
<path fill-rule="evenodd" clip-rule="evenodd" d="M87.5899 47.6059V51.5997H78.6983V57.0193C77.0619 53.9385 76.2155 50.4996 76.2347 47.011C76.3008 39.9202 80.0103 33.5282 85.9191 28.9395V35.2088H87.5899V47.6059Z" fill="#FDE1B1"/>
<path fill-rule="evenodd" clip-rule="evenodd" d="M87.5899 47.5874V51.6002H80.5767V56.4155C79.0377 53.5247 78.2428 50.296 78.2641 47.0209C78.3302 40.4117 81.7943 34.3878 87.3445 30.0918V35.2092H87.5899V47.5874Z" fill="#FDE2B2"/>
<path fill-rule="evenodd" clip-rule="evenodd" d="M87.5896 47.5687V51.6003H82.4453V55.8113C81.0155 53.1099 80.2762 50.0966 80.2933 47.0399C80.3499 40.8367 83.5875 35.2566 88.7884 31.2344L87.6085 35.2094L87.5896 47.5687Z" fill="#FDE3B3"/>
<path fill-rule="evenodd" clip-rule="evenodd" d="M87.5895 47.5502V51.6008H84.3236V55.1981C82.9945 52.6922 82.307 49.8959 82.3225 47.0593C82.3792 41.2998 85.3808 36.1162 90.1947 32.3867L87.5895 35.2193V47.5502Z" fill="#FEE3B4"/>
<path fill-rule="evenodd" clip-rule="evenodd" d="M87.5937 47.5282V51.5976H86.2062V54.5907C84.9609 52.2683 84.3121 49.6726 84.3184 47.0373C84.375 41.7215 87.1501 36.9345 91.5864 33.4883L87.556 35.1689L87.5937 47.5282Z" fill="#FEE4B5"/>
<path fill-rule="evenodd" clip-rule="evenodd" d="M87.5939 47.5111V51.5994L88.0847 53.9882C86.9547 51.8679 86.3738 49.4983 86.3951 47.0957C86.3951 42.2237 88.972 37.8332 93.0497 34.6797L87.5939 35.2084V47.5111Z" fill="#FEE5B6"/>
</g>
<mask id="mask2_1061_8745" style="mask-type:luminance" maskUnits="userSpaceOnUse" x="100" y="36" width="16" height="15">
<path d="M100.909 50.8894L100.438 36.2357L114.606 36.1602L115.927 50.8894H100.909Z" fill="white"/>
</mask>
<g mask="url(#mask2_1061_8745)">
<path d="M115.917 36.168H100.428V50.8877H115.917V36.168Z" fill="#F9C78C"/>
<path fill-rule="evenodd" clip-rule="evenodd" d="M116.871 48.4809V51.8327H99.4844V35.2246H116.871V48.4809Z" fill="#F9C78C"/>
<path fill-rule="evenodd" clip-rule="evenodd" d="M116.871 48.462V51.8327H99.4844V35.2246H116.871V48.462Z" fill="#F9C88D"/>
<path fill-rule="evenodd" clip-rule="evenodd" d="M116.871 48.4431V51.8327H99.4844V35.2246H116.871V48.4431Z" fill="#F9C88E"/>
<path fill-rule="evenodd" clip-rule="evenodd" d="M116.871 48.4242V51.8327H99.4844V35.2246H116.871V48.4242Z" fill="#F9C98F"/>
<path fill-rule="evenodd" clip-rule="evenodd" d="M116.871 48.4053V51.8327H99.4844V35.2246H116.871V48.4053Z" fill="#F9CA90"/>
<path fill-rule="evenodd" clip-rule="evenodd" d="M116.871 48.3865V51.8327H99.4844V35.2246H116.871V48.3865Z" fill="#FACB91"/>
<path fill-rule="evenodd" clip-rule="evenodd" d="M116.871 48.3676V51.8327H99.4844V35.2246H116.871V48.3676Z" fill="#FACB92"/>
<path fill-rule="evenodd" clip-rule="evenodd" d="M116.871 48.3487V51.8327H99.4844V35.2246H116.871V48.3487Z" fill="#FACC93"/>
<path fill-rule="evenodd" clip-rule="evenodd" d="M116.871 48.3298V51.8327H99.4844V35.2246H116.871V48.3298Z" fill="#FACD94"/>
<path fill-rule="evenodd" clip-rule="evenodd" d="M116.871 48.3109V51.8327H99.4844V35.2246H116.871V48.3109Z" fill="#FACE95"/>
<path fill-rule="evenodd" clip-rule="evenodd" d="M116.871 48.292V51.8327H99.4844V35.2246H116.871V48.292Z" fill="#FACE96"/>
<path fill-rule="evenodd" clip-rule="evenodd" d="M116.871 48.2732V51.8327H99.4844V35.2246H116.871V48.2732Z" fill="#FACF97"/>
<path fill-rule="evenodd" clip-rule="evenodd" d="M116.871 48.2543V51.8327H99.4844V35.2246H116.871V48.2543Z" fill="#FAD098"/>
<path fill-rule="evenodd" clip-rule="evenodd" d="M116.871 48.2354V51.8327H99.4844V35.2246H116.871V48.2354Z" fill="#FBD099"/>
<path fill-rule="evenodd" clip-rule="evenodd" d="M116.871 48.2165V51.8327H99.4844V35.2246H116.871V48.2165Z" fill="#FBD19A"/>
<path fill-rule="evenodd" clip-rule="evenodd" d="M116.871 48.1976V51.8327H99.4844V35.2246H116.871V48.1976Z" fill="#FBD29B"/>
<path fill-rule="evenodd" clip-rule="evenodd" d="M116.871 48.1787V51.8327H99.4844V35.2246H116.871V48.1787Z" fill="#FBD39C"/>
<path fill-rule="evenodd" clip-rule="evenodd" d="M116.871 48.1599V51.8327H99.4844V35.2246H116.871V48.1599Z" fill="#FBD39D"/>
<path fill-rule="evenodd" clip-rule="evenodd" d="M116.871 48.141V51.8327H99.4844V35.2246H116.871V48.141Z" fill="#FBD49E"/>
<path fill-rule="evenodd" clip-rule="evenodd" d="M116.871 48.1126V51.8327H99.4844V35.2246H116.871V48.1126Z" fill="#FBD59F"/>
<path fill-rule="evenodd" clip-rule="evenodd" d="M116.871 48.1032V51.8327H99.4844V35.2246H116.871V48.1032Z" fill="#FBD6A0"/>
<path fill-rule="evenodd" clip-rule="evenodd" d="M116.871 48.0843V51.8327H99.4844V35.2246H116.871V48.0843Z" fill="#FBD6A1"/>
<path fill-rule="evenodd" clip-rule="evenodd" d="M116.871 48.056V51.8327H99.4844V35.2246H116.871V48.056Z" fill="#FCD7A2"/>
<path fill-rule="evenodd" clip-rule="evenodd" d="M116.871 48.0371V51.8327H99.4844V35.2246H116.871V48.0371Z" fill="#FCD8A3"/>
<path fill-rule="evenodd" clip-rule="evenodd" d="M116.871 48.0182V51.8327H99.4844V35.2246H116.871V48.0182Z" fill="#FCD8A4"/>
<path fill-rule="evenodd" clip-rule="evenodd" d="M116.871 47.9993V51.8327H99.4844V35.2246H116.871V47.9993Z" fill="#FCD9A5"/>
<path fill-rule="evenodd" clip-rule="evenodd" d="M116.871 47.9805V51.8327H99.4844V35.2246H116.871V47.9805Z" fill="#FCDAA7"/>
<path fill-rule="evenodd" clip-rule="evenodd" d="M116.871 47.9616V51.8327H99.4844V35.2246H116.871V47.9616Z" fill="#FCDBA8"/>
<path fill-rule="evenodd" clip-rule="evenodd" d="M116.871 47.9427V51.8327H99.4844V35.2246H116.871V47.9427Z" fill="#FCDBA9"/>
<path fill-rule="evenodd" clip-rule="evenodd" d="M116.871 47.9238V51.8327H99.4844V35.2246H116.871V47.9238Z" fill="#FCDCAA"/>
<path fill-rule="evenodd" clip-rule="evenodd" d="M116.871 47.9049V51.8327H99.4844V35.2246H116.871V47.9049Z" fill="#FDDDAB"/>
<path fill-rule="evenodd" clip-rule="evenodd" d="M116.871 47.886V51.8327H99.4844V35.2246H116.871V47.886Z" fill="#FDDDAC"/>
<path fill-rule="evenodd" clip-rule="evenodd" d="M116.871 47.8672V51.8327H99.4844V35.2246H116.871V47.8672Z" fill="#FDDEAD"/>
<path fill-rule="evenodd" clip-rule="evenodd" d="M116.871 47.8483V51.8327H99.4844V35.2246H116.871V47.8483Z" fill="#FDDFAE"/>
<path fill-rule="evenodd" clip-rule="evenodd" d="M116.871 47.8294V51.8327H99.4844V35.2246H116.871V47.8294Z" fill="#FDE0AF"/>
<path fill-rule="evenodd" clip-rule="evenodd" d="M116.871 47.8105V51.8327H99.4844V35.2246H116.871V47.8105Z" fill="#FDE0B0"/>
<path fill-rule="evenodd" clip-rule="evenodd" d="M116.871 47.7916V51.8327H99.4844V35.2246H116.871V47.7916Z" fill="#FDE1B1"/>
<path fill-rule="evenodd" clip-rule="evenodd" d="M116.871 47.7727V51.8327H99.4844V35.2246H116.871V47.7727Z" fill="#FDE2B2"/>
<path fill-rule="evenodd" clip-rule="evenodd" d="M116.871 47.7539V51.8327H99.4844V35.2246H116.871V47.7539Z" fill="#FDE3B3"/>
<path fill-rule="evenodd" clip-rule="evenodd" d="M116.871 47.735V51.8327H99.4844V35.2246H116.871V47.735Z" fill="#FEE3B4"/>
<path fill-rule="evenodd" clip-rule="evenodd" d="M116.871 47.7161V51.8327H99.4844V35.2246H116.871V47.7161Z" fill="#FEE4B5"/>
<path fill-rule="evenodd" clip-rule="evenodd" d="M116.871 47.6972V51.8327H99.4844V35.2246H116.871V47.6972Z" fill="#FEE5B6"/>
<path fill-rule="evenodd" clip-rule="evenodd" d="M116.919 47.6688V51.861H99.4945V35.7344H94.1426C98.4035 32.5589 103.602 30.8974 108.915 31.0135V35.2151H116.919V47.6688Z" fill="#FEE5B7"/>
<path fill-rule="evenodd" clip-rule="evenodd" d="M116.919 47.6495V51.8606H99.4944V36.9142H95.6055C99.4409 34.0639 104.119 32.5783 108.896 32.6938C113.675 32.6679 118.326 34.2397 122.11 37.1597H116.919V47.6495Z" fill="#FEE6B8"/>
<path fill-rule="evenodd" clip-rule="evenodd" d="M116.92 47.6306V51.8606H99.4952V38.0945H97.0977C100.503 35.5477 104.665 34.2178 108.915 34.3177C113.163 34.2882 117.297 35.6845 120.658 38.2833H116.882L116.92 47.6306Z" fill="#FEE7B9"/>
<path fill-rule="evenodd" clip-rule="evenodd" d="M116.919 47.6119V51.8608H99.4942V47.3759H94.1895C94.2461 41.0121 100.797 35.9136 108.867 35.9891C116.938 36.0646 123.394 41.2765 123.337 47.6403L116.919 47.6119Z" fill="#FEE8BA"/>
<path fill-rule="evenodd" clip-rule="evenodd" d="M121.261 47.5935C121.204 53.0508 115.597 57.4224 108.669 57.3563C101.741 57.2902 96.2187 52.8242 96.2659 47.3669C96.3131 41.9095 101.929 37.5474 108.848 37.6041C115.767 37.6607 121.308 42.1456 121.261 47.5935Z" fill="#FEE8BB"/>
<path fill-rule="evenodd" clip-rule="evenodd" d="M119.175 47.5747C119.175 52.1257 114.455 55.7607 108.688 55.7135C102.92 55.6663 98.3047 51.9368 98.3519 47.3859C98.3991 42.835 103.071 39.1999 108.839 39.2565C114.606 39.3132 119.212 43.0332 119.175 47.5747Z" fill="#FFE9BC"/>
<path fill-rule="evenodd" clip-rule="evenodd" d="M117.088 47.5555C117.088 51.1905 113.312 54.108 108.696 54.0608C104.081 54.0136 100.4 51.0395 100.428 47.4044C100.456 43.7693 104.203 40.8518 108.819 40.899C113.435 40.9462 117.126 43.9204 117.088 47.5555Z" fill="#FFEABD"/>
<path fill-rule="evenodd" clip-rule="evenodd" d="M115.033 47.538C115.033 50.2666 112.201 52.4477 108.737 52.4193C105.273 52.391 102.507 50.1533 102.535 47.4246C102.564 44.696 105.367 42.5149 108.831 42.5432C112.295 42.5716 115.033 44.8093 115.033 47.538Z" fill="#FFEBBE"/>
<path fill-rule="evenodd" clip-rule="evenodd" d="M112.927 47.5173C112.927 49.3395 111.039 50.7936 108.736 50.7747C106.433 50.7558 104.583 49.264 104.602 47.4417C104.621 45.6195 106.49 44.1654 108.793 44.1938C111.096 44.2221 112.946 45.7044 112.927 47.5173Z" fill="#FFEBBF"/>
<path fill-rule="evenodd" clip-rule="evenodd" d="M110.84 47.4994C110.774 47.9912 110.518 48.4372 110.125 48.7411C109.733 49.045 109.237 49.1824 108.745 49.1234C108.251 49.1738 107.757 49.0277 107.37 48.7167C106.984 48.4057 106.735 47.9548 106.678 47.4616C106.744 46.9698 107 46.5237 107.393 46.2198C107.785 45.9159 108.281 45.7786 108.773 45.8376C109.267 45.7872 109.761 45.9333 110.148 46.2443C110.535 46.5553 110.783 47.0062 110.84 47.4994Z" fill="#FFECC0"/>
</g>
<mask id="mask3_1061_8745" style="mask-type:luminance" maskUnits="userSpaceOnUse" x="127" y="35" width="20" height="16">
<path d="M131.247 50.6596L127.604 35.9115L140.318 35.8359L146.585 50.2724L131.247 50.6596Z" fill="white"/>
</mask>
<g mask="url(#mask3_1061_8745)">
<path d="M146.584 35.8359H127.602V50.6595H146.584V35.8359Z" fill="#F9C78C"/>
<path fill-rule="evenodd" clip-rule="evenodd" d="M147.528 48.2999V51.614H126.658V34.8926H147.528V48.2999Z" fill="#F9C78C"/>
<path fill-rule="evenodd" clip-rule="evenodd" d="M147.528 48.281V51.614H126.658V34.8926H147.528V48.281Z" fill="#F9C88D"/>
<path fill-rule="evenodd" clip-rule="evenodd" d="M147.528 48.2622V51.614H126.658V34.8926H147.528V48.2622Z" fill="#F9C88E"/>
<path fill-rule="evenodd" clip-rule="evenodd" d="M147.528 48.2433V51.614H126.658V34.8926H147.528V48.2433Z" fill="#F9C98F"/>
<path fill-rule="evenodd" clip-rule="evenodd" d="M147.528 48.2244V51.614H126.658V34.8926H147.528V48.2244Z" fill="#F9CA90"/>
<path fill-rule="evenodd" clip-rule="evenodd" d="M147.528 48.2149V51.614H126.658V34.8926H147.528V48.2149Z" fill="#FACB91"/>
<path fill-rule="evenodd" clip-rule="evenodd" d="M147.528 48.1866V51.614H126.658V34.8926H147.528V48.1866Z" fill="#FACB92"/>
<path fill-rule="evenodd" clip-rule="evenodd" d="M147.528 48.1677V51.614H126.658V34.8926H147.528V48.1677Z" fill="#FACC93"/>
<path fill-rule="evenodd" clip-rule="evenodd" d="M147.528 48.1583V51.614H126.658V34.8926H147.528V48.1583Z" fill="#FACD94"/>
<path fill-rule="evenodd" clip-rule="evenodd" d="M147.528 48.1394V51.614H126.658V34.8926H147.528V48.1394Z" fill="#FACE95"/>
<path fill-rule="evenodd" clip-rule="evenodd" d="M147.528 48.1111V51.614H126.658V34.8926H147.528V48.1111Z" fill="#FACE96"/>
<path fill-rule="evenodd" clip-rule="evenodd" d="M147.528 48.1016V51.614H126.658V34.8926H147.528V48.1016Z" fill="#FACF97"/>
<path fill-rule="evenodd" clip-rule="evenodd" d="M147.528 48.0828V51.614H126.658V34.8926H147.528V48.0828Z" fill="#FAD098"/>
<path fill-rule="evenodd" clip-rule="evenodd" d="M147.528 48.0639V51.614H126.658V34.8926H147.528V48.0639Z" fill="#FBD099"/>
<path fill-rule="evenodd" clip-rule="evenodd" d="M147.528 48.045V51.614H126.658V34.8926H147.528V48.045Z" fill="#FBD19A"/>
<path fill-rule="evenodd" clip-rule="evenodd" d="M147.528 48.0261V51.614H126.658V34.8926H147.528V48.0261Z" fill="#FBD29B"/>
<path fill-rule="evenodd" clip-rule="evenodd" d="M147.528 48.0072V51.614H126.658V34.8926H147.528V48.0072Z" fill="#FBD39C"/>
<path fill-rule="evenodd" clip-rule="evenodd" d="M147.528 47.9883V51.614H126.658V34.8926H147.528V47.9883Z" fill="#FBD39D"/>
<path fill-rule="evenodd" clip-rule="evenodd" d="M147.528 47.9695V51.614H126.658V34.8926H147.528V47.9695Z" fill="#FBD49E"/>
<path fill-rule="evenodd" clip-rule="evenodd" d="M147.528 47.9506V51.614H126.658V34.8926H147.528V47.9506Z" fill="#FBD59F"/>
<path fill-rule="evenodd" clip-rule="evenodd" d="M147.528 47.9317V51.614H126.658V34.8926H147.528V47.9317Z" fill="#FBD6A0"/>
<path fill-rule="evenodd" clip-rule="evenodd" d="M147.528 47.9128V51.614H126.658V34.8926H147.528V47.9128Z" fill="#FBD6A1"/>
<path fill-rule="evenodd" clip-rule="evenodd" d="M147.528 47.8939V51.614H126.658V34.8926H147.528V47.8939Z" fill="#FCD7A2"/>
<path fill-rule="evenodd" clip-rule="evenodd" d="M147.528 47.875V51.614H126.658V34.8926H147.528V47.875Z" fill="#FCD8A3"/>
<path fill-rule="evenodd" clip-rule="evenodd" d="M147.528 47.8562V51.614H126.658V34.8926H147.528V47.8562Z" fill="#FCD8A4"/>
<path fill-rule="evenodd" clip-rule="evenodd" d="M147.528 47.8373V51.614H126.658V34.8926H147.528V47.8373Z" fill="#FCD9A5"/>
<path fill-rule="evenodd" clip-rule="evenodd" d="M147.528 47.8184V51.614H126.658V34.8926H147.528V47.8184Z" fill="#FCDAA7"/>
<path fill-rule="evenodd" clip-rule="evenodd" d="M147.528 47.7995V51.614H126.658V34.8926H147.528V47.7995Z" fill="#FCDBA8"/>
<path fill-rule="evenodd" clip-rule="evenodd" d="M147.528 47.7806V51.614H126.658V34.8926H147.528V47.7806Z" fill="#FCDBA9"/>
<path fill-rule="evenodd" clip-rule="evenodd" d="M147.528 47.7617V51.614H126.658V34.8926H147.528V47.7617Z" fill="#FCDCAA"/>
<path fill-rule="evenodd" clip-rule="evenodd" d="M147.528 47.7429V51.614H126.658V34.8926H147.528V47.7429Z" fill="#FDDDAB"/>
<path fill-rule="evenodd" clip-rule="evenodd" d="M147.528 47.724V51.614H126.658V34.8926H147.528V47.724Z" fill="#FDDDAC"/>
<path fill-rule="evenodd" clip-rule="evenodd" d="M147.528 47.6943V51.6032H126.658V34.8629H142.771V29.6133C144.198 31.3099 145.439 33.1554 146.471 35.1178C148.529 38.9777 149.59 43.2913 149.557 47.666L147.528 47.6943Z" fill="#FDDEAD"/>
<path fill-rule="evenodd" clip-rule="evenodd" d="M147.528 47.6782C147.51 49.7582 147.224 51.8271 146.679 53.8342V51.606H126.658V34.8657H141.072V30.4941C142.431 32.1055 143.611 33.8593 144.592 35.7249C146.55 39.4031 147.559 43.5116 147.528 47.6782Z" fill="#FDDFAE"/>
<path fill-rule="evenodd" clip-rule="evenodd" d="M145.489 47.666C145.471 49.6341 145.202 51.5919 144.687 53.4916V51.6032H126.658V34.8629H139.382V31.3789C140.667 32.9075 141.784 34.5692 142.714 36.3358C144.567 39.8227 145.521 43.7171 145.489 47.666Z" fill="#FDE0AF"/>
<path fill-rule="evenodd" clip-rule="evenodd" d="M143.452 47.6483C143.436 49.5078 143.182 51.3577 142.697 53.1528V51.6044H126.65V34.8641H137.685V32.2676C138.9 33.7225 139.954 35.3055 140.828 36.9885C142.576 40.2678 143.478 43.9319 143.452 47.6483Z" fill="#FDE0B0"/>
<path fill-rule="evenodd" clip-rule="evenodd" d="M141.459 47.6292C141.42 51.131 140.508 54.5676 138.806 57.6281V51.6043H126.658V34.864H132.02V29.3027C137.891 34.0425 141.459 40.529 141.459 47.6292Z" fill="#FDE1B1"/>
<path fill-rule="evenodd" clip-rule="evenodd" d="M139.382 47.6118C139.339 50.892 138.483 54.1103 136.89 56.9781V51.6057H126.658V34.8654H130.594V30.4277C136.078 34.8654 139.439 40.9459 139.382 47.6118Z" fill="#FDE2B2"/>
<path fill-rule="evenodd" clip-rule="evenodd" d="M137.343 47.5924C137.309 50.6546 136.51 53.6598 135.021 56.3355V51.6146H126.658V34.8649H129.188V31.5508C134.266 35.7052 137.4 41.3703 137.343 47.5924Z" fill="#FDE3B3"/>
<path fill-rule="evenodd" clip-rule="evenodd" d="M135.304 47.571C135.269 50.414 134.529 53.2038 133.152 55.691V51.6027H126.658V34.8624H127.687V32.6719C132.444 36.5336 135.361 41.7926 135.304 47.571Z" fill="#FEE3B4"/>
<path fill-rule="evenodd" clip-rule="evenodd" d="M133.274 47.5536C133.238 50.1785 132.554 52.7538 131.283 55.0503V51.6041H126.658V34.8638L126.242 33.7969C130.631 37.3659 133.322 42.219 133.274 47.5536Z" fill="#FEE4B5"/>
<path fill-rule="evenodd" clip-rule="evenodd" d="M131.237 47.5355C131.204 49.9416 130.578 52.3024 129.415 54.4091V51.5765H126.659V34.959H124.771C128.811 38.1975 131.284 42.6446 131.237 47.5355Z" fill="#FEE5B6"/>
<path fill-rule="evenodd" clip-rule="evenodd" d="M129.19 47.516C129.165 49.7042 128.598 51.8519 127.538 53.7665V51.6043H126.651V36.082H123.338C127 39.0279 129.237 43.0689 129.19 47.516Z" fill="#FEE5B7"/>
</g>
<path fill-rule="evenodd" clip-rule="evenodd" d="M51.2812 132.58L51.404 134.78H111.625V131.844L51.2812 132.58Z" fill="#FFDEC8"/>
<g style="mix-blend-mode:multiply" opacity="0.5">
<path fill-rule="evenodd" clip-rule="evenodd" d="M55.0762 134.779L57.2944 139.33L108.747 139.274L111.173 134.779H55.0762Z" fill="#811734"/>
</g>
<path fill-rule="evenodd" clip-rule="evenodd" d="M111.627 131.844L113.468 132.184L113.449 134.78H111.627V131.844Z" fill="#FF8D90"/>
<path style="mix-blend-mode:screen" fill-rule="evenodd" clip-rule="evenodd" d="M64.8242 86.3523L67.099 115.036H77.6708L78.3504 126.168H80.4459L79.5303 117.567H91.9427L92.5279 126.168H94.9726L95.3219 112.091L107.8 109.768L108.442 86.0312L64.8242 86.3523Z" fill="url(#paint20_linear_1061_8745)"/>
<path style="mix-blend-mode:screen" fill-rule="evenodd" clip-rule="evenodd" d="M132.398 95.1345L133.474 116.246H138.76V124.904H140.922L140.422 119.022H146.227L146.161 124.904H151.107L153.882 128.785L155.147 94.6152L132.398 95.1345Z" fill="url(#paint21_linear_1061_8745)"/>
<g style="mix-blend-mode:multiply" opacity="0.5">
<path fill-rule="evenodd" clip-rule="evenodd" d="M62.418 105.982L65.3346 119.569L94.5675 116.783L95.8323 102.555L62.418 105.982Z" fill="#816090"/>
</g>
<path fill-rule="evenodd" clip-rule="evenodd" d="M62.418 105.982L95.8323 102.555L97.0971 115.348L64.3058 118.474L62.418 105.982Z" fill="url(#paint22_radial_1061_8745)"/>
<path fill-rule="evenodd" clip-rule="evenodd" d="M95.8323 102.553L83.9579 95.5664L62.418 105.981L63.6262 105.83L83.9202 96.0102L95.1433 102.619L95.8323 102.553Z" fill="url(#paint23_radial_1061_8745)"/>
<path fill-rule="evenodd" clip-rule="evenodd" d="M62.418 30.1548L89.5836 -12.0878L197.623 -20L195.028 16.011L130.965 30.1548H62.418Z" fill="url(#paint24_linear_1061_8745)"/>
<path fill-rule="evenodd" clip-rule="evenodd" d="M195.03 16.0117L184.184 23.8956V21.3935L138.763 30.1555H130.967L195.03 16.0117Z" fill="url(#paint25_linear_1061_8745)"/>
<g style="mix-blend-mode:soft-light">
<path fill-rule="evenodd" clip-rule="evenodd" d="M130.965 30.1544L69.922 18.4844L62.418 30.1544H130.965Z" fill="#FFB657"/>
</g>
<g style="mix-blend-mode:soft-light">
<path fill-rule="evenodd" clip-rule="evenodd" d="M89.5839 -12.0859L130.965 30.1566L79.7578 3.19087L89.5839 -12.0859Z" fill="#FFB657"/>
</g>
<g style="mix-blend-mode:soft-light">
<path fill-rule="evenodd" clip-rule="evenodd" d="M111.172 -13.6739L130.966 30.1548L127.605 -14.873L111.172 -13.6739Z" fill="#FFB657"/>
</g>
<g style="mix-blend-mode:soft-light">
<path fill-rule="evenodd" clip-rule="evenodd" d="M150.685 -16.5636L130.967 30.1544L169.044 -17.9043L150.685 -16.5636Z" fill="#FFB657"/>
</g>
<g style="mix-blend-mode:soft-light">
<path fill-rule="evenodd" clip-rule="evenodd" d="M197.626 -20L130.967 30.1548L195.03 5.07739L197.626 -20Z" fill="#FFB657"/>
</g>
<g style="mix-blend-mode:multiply" opacity="0.5">
<path fill-rule="evenodd" clip-rule="evenodd" d="M44.5377 147.819L35.9624 152.158L177.102 148.781L76.2109 147.165L44.5377 147.819Z" fill="#AC2A41"/>
</g>
<defs>
<radialGradient id="paint0_radial_1061_8745" cx="0" cy="0" r="1" gradientUnits="userSpaceOnUse" gradientTransform="translate(108.719 151.637) rotate(-0.630841) scale(77.0893 69.4753)">
<stop stop-color="#7C65E0"/>
<stop offset="0.99" stop-color="#954CB8"/>
</radialGradient>
<linearGradient id="paint1_linear_1061_8745" x1="1.10149" y1="161.04" x2="219.146" y2="154.685" gradientUnits="userSpaceOnUse">
<stop stop-color="#603082"/>
<stop offset="0.99" stop-color="#2A0E51"/>
</linearGradient>
<linearGradient id="paint2_linear_1061_8745" x1="108.445" y1="47.5363" x2="108.445" y2="-4.76172" gradientUnits="userSpaceOnUse">
<stop stop-color="#FFA700"/>
<stop offset="1" stop-color="#FFD328"/>
</linearGradient>
<linearGradient id="paint3_linear_1061_8745" x1="108.689" y1="144.362" x2="108.689" y2="39.9453" gradientUnits="userSpaceOnUse">
<stop stop-color="#FF6E27"/>
<stop offset="1" stop-color="#E03347"/>
</linearGradient>
<radialGradient id="paint4_radial_1061_8745" cx="0" cy="0" r="1" gradientUnits="userSpaceOnUse" gradientTransform="translate(107.879 145.031) scale(49.2154 49.2294)">
<stop stop-color="#FFD1A9"/>
<stop offset="0.99" stop-color="#F9B7A0"/>
</radialGradient>
<radialGradient id="paint5_radial_1061_8745" cx="0" cy="0" r="1" gradientUnits="userSpaceOnUse" gradientTransform="translate(40.9464 64.7227) scale(12.1198 12.1232)">
<stop stop-color="#EBD7E3"/>
<stop offset="0.98" stop-color="#BDAFD2"/>
</radialGradient>
<radialGradient id="paint6_radial_1061_8745" cx="0" cy="0" r="1" gradientUnits="userSpaceOnUse" gradientTransform="translate(81.4198 127.82) scale(44.0711 44.0837)">
<stop stop-color="#00FFFF"/>
<stop offset="0.99" stop-color="#26A9FF"/>
</radialGradient>
<linearGradient id="paint7_linear_1061_8745" x1="143" y1="147.211" x2="143" y2="90.3742" gradientUnits="userSpaceOnUse">
<stop stop-color="#6D47D3"/>
<stop offset="0.99" stop-color="#713592"/>
</linearGradient>
<radialGradient id="paint8_radial_1061_8745" cx="0" cy="0" r="1" gradientUnits="userSpaceOnUse" gradientTransform="translate(142.735 128.821) scale(26.5804 26.5881)">
<stop stop-color="#00FFFF"/>
<stop offset="0.99" stop-color="#26A9FF"/>
</radialGradient>
<radialGradient id="paint9_radial_1061_8745" cx="0" cy="0" r="1" gradientUnits="userSpaceOnUse" gradientTransform="translate(108.446 33.289) scale(49.2626 49.2767)">
<stop stop-color="#6D47D3"/>
<stop offset="0.99" stop-color="#713592"/>
</radialGradient>
<radialGradient id="paint10_radial_1061_8745" cx="0" cy="0" r="1" gradientUnits="userSpaceOnUse" gradientTransform="translate(32.8124 70.6999) scale(11.5591 14.6754)">
<stop stop-color="#6D47D3"/>
<stop offset="0.99" stop-color="#713592"/>
</radialGradient>
<radialGradient id="paint11_radial_1061_8745" cx="0" cy="0" r="1" gradientUnits="userSpaceOnUse" gradientTransform="translate(47.958 70.6999) scale(11.4045 14.4791)">
<stop stop-color="#FFD1A9"/>
<stop offset="0.99" stop-color="#F99B98"/>
</radialGradient>
<radialGradient id="paint12_radial_1061_8745" cx="0" cy="0" r="1" gradientUnits="userSpaceOnUse" gradientTransform="translate(63.102 70.6999) scale(11.2499 14.2828)">
<stop stop-color="#6D47D3"/>
<stop offset="0.99" stop-color="#713592"/>
</radialGradient>
<radialGradient id="paint13_radial_1061_8745" cx="0" cy="0" r="1" gradientUnits="userSpaceOnUse" gradientTransform="translate(78.2451 70.6999) scale(11.0953 14.0865)">
<stop stop-color="#FFD1A9"/>
<stop offset="0.99" stop-color="#F99B98"/>
</radialGradient>
<radialGradient id="paint14_radial_1061_8745" cx="0" cy="0" r="1" gradientUnits="userSpaceOnUse" gradientTransform="translate(93.3971 70.6999) scale(10.948 13.8996)">
<stop stop-color="#6D47D3"/>
<stop offset="0.99" stop-color="#713592"/>
</radialGradient>
<radialGradient id="paint15_radial_1061_8745" cx="0" cy="0" r="1" gradientUnits="userSpaceOnUse" gradientTransform="translate(108.617 70.6999) scale(10.9038 13.8435)">
<stop stop-color="#FFD1A9"/>
<stop offset="0.99" stop-color="#F99B98"/>
</radialGradient>
<radialGradient id="paint16_radial_1061_8745" cx="0" cy="0" r="1" gradientUnits="userSpaceOnUse" gradientTransform="translate(123.797 70.6999) scale(10.9995 13.965)">
<stop stop-color="#6D47D3"/>
<stop offset="0.99" stop-color="#713592"/>
</radialGradient>
<radialGradient id="paint17_radial_1061_8745" cx="0" cy="0" r="1" gradientUnits="userSpaceOnUse" gradientTransform="translate(138.942 70.6999) scale(11.1541 14.1613)">
<stop stop-color="#FFD1A9"/>
<stop offset="0.99" stop-color="#F99B98"/>
</radialGradient>
<radialGradient id="paint18_radial_1061_8745" cx="0" cy="0" r="1" gradientUnits="userSpaceOnUse" gradientTransform="translate(154.087 70.6999) scale(11.3014 14.3482)">
<stop stop-color="#6D47D3"/>
<stop offset="0.99" stop-color="#713592"/>
</radialGradient>
<radialGradient id="paint19_radial_1061_8745" cx="0" cy="0" r="1" gradientUnits="userSpaceOnUse" gradientTransform="translate(107.199 43.2598) scale(59.3563 68.2452)">
<stop stop-color="#7C65E0"/>
<stop offset="0.99" stop-color="#954CB8"/>
</radialGradient>
<linearGradient id="paint20_linear_1061_8745" x1="86.6379" y1="126.168" x2="86.6379" y2="86.0312" gradientUnits="userSpaceOnUse">
<stop stop-color="#953D5E"/>
<stop offset="1" stop-color="#86CCD9"/>
</linearGradient>
<linearGradient id="paint21_linear_1061_8745" x1="143.773" y1="128.785" x2="143.773" y2="94.6152" gradientUnits="userSpaceOnUse">
<stop stop-color="#953D5E"/>
<stop offset="1" stop-color="#86CCD9"/>
</linearGradient>
<radialGradient id="paint22_radial_1061_8745" cx="0" cy="0" r="1" gradientUnits="userSpaceOnUse" gradientTransform="translate(79.7576 110.514) scale(13.4884 13.4923)">
<stop stop-color="#7C65E0"/>
<stop offset="0.99" stop-color="#954CB8"/>
</radialGradient>
<radialGradient id="paint23_radial_1061_8745" cx="0" cy="0" r="1" gradientUnits="userSpaceOnUse" gradientTransform="translate(79.1251 100.778) scale(12.3746 12.3782)">
<stop stop-color="#7C65E0"/>
<stop offset="0.99" stop-color="#954CB8"/>
</radialGradient>
<linearGradient id="paint24_linear_1061_8745" x1="62.418" y1="5.07739" x2="197.623" y2="5.07739" gradientUnits="userSpaceOnUse">
<stop stop-color="#FF6E27"/>
<stop offset="1" stop-color="#E03347"/>
</linearGradient>
<linearGradient id="paint25_linear_1061_8745" x1="130.967" y1="23.0836" x2="195.03" y2="23.0836" gradientUnits="userSpaceOnUse">
<stop stop-color="#C73E27"/>
<stop offset="1" stop-color="#A4152C"/>
</linearGradient>
</defs>
</svg>
