<svg width="50" height="49" viewBox="0 0 50 49" fill="none" xmlns="http://www.w3.org/2000/svg">
<ellipse cx="24.9283" cy="24.5001" rx="24.9283" ry="24.5001" transform="matrix(1 0 0.00287694 0.999996 0 0)" fill="#FFD0D0"/>
<path d="M18.696 27.0516L18.696 27.0516L18.6987 27.0471C18.932 26.6557 19.1157 26.1702 19.2412 25.7182C19.3666 25.2665 19.4604 24.7528 19.4604 24.2917V21.2813C19.4604 18.4908 21.7295 16.2217 24.5199 16.2217C27.2999 16.2217 29.5794 18.5012 29.5794 21.2813V24.2917C29.5794 24.7525 29.6731 25.2654 29.7963 25.7146C29.9198 26.1651 30.099 26.6458 30.322 27.0324L30.3276 27.042L30.3333 27.0516L31.5303 29.0396C31.5303 29.0396 31.5304 29.0397 31.5304 29.0398C31.8277 29.5354 31.5842 30.1731 31.0525 30.3488L31.0489 30.35C26.805 31.768 22.227 31.7682 17.9829 30.3509C17.6126 30.225 17.4394 30.011 17.372 29.8288C17.3049 29.6478 17.2968 29.3759 17.4981 29.0411C17.4982 29.041 17.4982 29.0409 17.4983 29.0409L18.696 27.0516Z" stroke="#FF4343" stroke-width="2.38095" stroke-miterlimit="10" stroke-linecap="round"/>
<mask id="path-3-inside-1_2990_1031" fill="white">
<path d="M26.4479 15.3334C25.1882 14.9746 23.8534 14.9746 22.5938 15.3334C22.8958 14.5625 23.6458 14.0209 24.5208 14.0209C25.3958 14.0209 26.1458 14.5625 26.4479 15.3334Z"/>
</mask>
<path d="M26.4479 15.3334L25.7957 17.6233C26.6662 17.8712 27.6019 17.6041 28.2104 16.9342C28.8189 16.2643 28.9949 15.3073 28.6647 14.4646L26.4479 15.3334ZM22.5938 15.3334L20.3769 14.4646C20.0467 15.3073 20.2228 16.2643 20.8313 16.9342C21.4398 17.6041 22.3755 17.8712 23.2459 17.6233L22.5938 15.3334ZM27.1001 13.0435C25.4141 12.5633 23.6276 12.5633 21.9416 13.0435L23.2459 17.6233C24.0793 17.3859 24.9624 17.3859 25.7957 17.6233L27.1001 13.0435ZM24.8106 16.2021C24.7652 16.3179 24.6526 16.4018 24.5208 16.4018V11.6399C22.639 11.6399 21.0265 12.8072 20.3769 14.4646L24.8106 16.2021ZM24.5208 16.4018C24.389 16.4018 24.2765 16.3179 24.2311 16.2021L28.6647 14.4646C28.0152 12.8072 26.4026 11.6399 24.5208 11.6399V16.4018Z" fill="#FF4343" mask="url(#path-3-inside-1_2990_1031)"/>
<mask id="path-5-inside-2_2990_1031" fill="white">
<path d="M27.6465 31.8541C27.6465 33.5729 26.2402 34.9791 24.5215 34.9791C23.6673 34.9791 22.8757 34.625 22.3132 34.0625C21.7279 33.4763 21.3984 32.6824 21.3965 31.8541"/>
</mask>
<path d="M22.3132 34.0625L20.6283 35.7448L20.6296 35.746L22.3132 34.0625ZM25.2655 31.8541C25.2655 32.2579 24.9253 32.5982 24.5215 32.5982V37.3601C27.5552 37.3601 30.0274 34.8878 30.0274 31.8541H25.2655ZM24.5215 32.5982C24.326 32.5982 24.1323 32.5145 23.9967 32.3789L20.6296 35.746C21.619 36.7355 23.0086 37.3601 24.5215 37.3601V32.5982ZM23.998 32.3801C23.8572 32.2391 23.7779 32.0481 23.7774 31.8488L19.0155 31.8595C19.0188 33.3168 19.5986 34.7135 20.6283 35.7448L23.998 32.3801Z" fill="#FF4343" mask="url(#path-5-inside-2_2990_1031)"/>
<path d="M33.2907 24.8305L37.7111 20.1695" stroke="#FF4343" stroke-width="2" stroke-linecap="round" stroke-linejoin="round"/>
<path d="M33.1695 20.2897L37.8305 24.7101" stroke="#FF4343" stroke-width="2" stroke-linecap="round" stroke-linejoin="round"/>
</svg>
