<svg width="24" height="24" viewBox="0 0 24 24" fill="none" xmlns="http://www.w3.org/2000/svg">
<ellipse cx="11.9662" cy="12" rx="11.9662" ry="12" transform="matrix(1 0 0.00287694 0.999996 0 0)" fill="white"/>
<path d="M9.14228 13.3372L9.14229 13.3372L9.14395 13.3344C9.26626 13.1251 9.35933 12.8718 9.42192 12.6417C9.48449 12.4117 9.53302 12.1446 9.53302 11.899V10.4245C9.53302 9.14199 10.5514 8.12522 11.7712 8.12522C12.9861 8.12522 14.0094 9.14709 14.0094 10.4245V11.899C14.0094 12.1443 14.0579 12.4111 14.1193 12.6395C14.1809 12.8686 14.2715 13.1188 14.3881 13.325L14.388 13.3251L14.3952 13.3372L14.9696 14.3107C14.9697 14.3109 14.9698 14.311 14.9698 14.3111C15.0623 14.4689 14.9748 14.6529 14.8429 14.6974L14.8429 14.6974L14.8405 14.6982C12.8454 15.3784 10.6939 15.3786 8.69868 14.6988C8.57379 14.6554 8.53378 14.5905 8.5204 14.5536C8.50683 14.5162 8.49459 14.4351 8.56725 14.3117C8.56729 14.3117 8.56733 14.3116 8.56736 14.3115L9.14228 13.3372Z" stroke="#CDA92B" stroke-width="1.52388" stroke-miterlimit="10" stroke-linecap="round"/>
<mask id="path-3-inside-1_2893_1789" fill="white">
<path d="M12.6977 7.51004C12.0931 7.33432 11.4523 7.33432 10.8477 7.51004C10.9927 7.13249 11.3527 6.86719 11.7727 6.86719C12.1927 6.86719 12.5527 7.13249 12.6977 7.51004Z"/>
</mask>
<path d="M12.6977 7.51004L12.2725 8.97339C12.8284 9.13493 13.4277 8.96758 13.8195 8.54146C14.2113 8.11535 14.3279 7.50404 14.1203 6.96367L12.6977 7.51004ZM10.8477 7.51004L9.42509 6.96367C9.21755 7.50404 9.33408 8.11535 9.72587 8.54146C10.1177 8.96758 10.717 9.13493 11.2729 8.97339L10.8477 7.51004ZM13.123 6.0467C12.2406 5.79026 11.3048 5.79026 10.4224 6.0467L11.2729 8.97339C11.5998 8.87839 11.9456 8.87839 12.2725 8.97339L13.123 6.0467ZM12.2702 8.05641C12.2008 8.23714 12.0156 8.39107 11.7727 8.39107V5.3433C10.6897 5.3433 9.78451 6.02785 9.42509 6.96367L12.2702 8.05641ZM11.7727 8.39107C11.5298 8.39107 11.3446 8.23714 11.2752 8.05641L14.1203 6.96367C13.7609 6.02785 12.8557 5.3433 11.7727 5.3433V8.39107Z" fill="#CDA92B" mask="url(#path-3-inside-1_2893_1789)"/>
<mask id="path-5-inside-2_2893_1789" fill="white">
<path d="M13.2716 15.6025C13.2716 16.4444 12.5966 17.1332 11.7716 17.1332C11.3615 17.1332 10.9815 16.9597 10.7115 16.6842C10.4306 16.3971 10.2724 16.0082 10.2715 15.6025"/>
</mask>
<path d="M10.7115 16.6842L9.62235 17.75L9.62315 17.7508L10.7115 16.6842ZM11.7477 15.6025C11.7477 15.6057 11.7475 15.6075 11.7473 15.6084C11.7471 15.6094 11.7468 15.6102 11.7465 15.6111C11.7456 15.6132 11.7441 15.6154 11.7426 15.6169C11.7412 15.6184 11.7422 15.6167 11.7479 15.6142C11.7509 15.6129 11.7548 15.6116 11.7594 15.6106C11.7641 15.6096 11.7684 15.6093 11.7716 15.6093V18.657C13.467 18.657 14.7955 17.2569 14.7955 15.6025H11.7477ZM11.7716 15.6093C11.7825 15.6093 11.7903 15.6117 11.7936 15.6132C11.7952 15.6138 11.7961 15.6144 11.7968 15.6148C11.7973 15.6152 11.7984 15.616 11.7999 15.6175L9.62315 17.7508C10.1638 18.3024 10.9298 18.657 11.7716 18.657V15.6093ZM11.8007 15.6184C11.8009 15.6186 11.7995 15.6173 11.798 15.6136C11.7965 15.6099 11.7954 15.605 11.7954 15.5992L8.7476 15.6059C8.74937 16.4044 9.06046 17.1758 9.62235 17.75L11.8007 15.6184Z" fill="#CDA92B" mask="url(#path-5-inside-2_2893_1789)"/>
<path d="M15.9812 12.1619L18.1031 9.87892" stroke="#CDA92B" stroke-width="1.28006" stroke-linecap="round" stroke-linejoin="round"/>
<path d="M15.9234 9.93832L18.1608 12.1034" stroke="#CDA92B" stroke-width="1.28006" stroke-linecap="round" stroke-linejoin="round"/>
</svg>
