<svg width="245" height="244" viewBox="0 0 245 244" fill="none" xmlns="http://www.w3.org/2000/svg">
<g clip-path="url(#clip0_4566_2524)">
<path d="M172.392 36.6402C173.491 36.4231 174.499 36.5983 175.309 37.4095C182.189 44.3296 189.061 51.2536 195.933 58.1775C196.066 59.5524 194.842 60.0323 194.119 60.7902C193.146 61.8185 192.278 62.9915 190.974 63.6656C190.187 63.6771 189.742 63.102 189.263 62.6259C184.551 57.9262 179.846 53.2188 175.149 48.5038C174.617 47.9706 174.073 47.4412 173.902 46.6605C173.807 46.2301 173.811 45.7883 173.803 45.3503C173.792 44.6039 173.674 43.964 172.715 43.9221C171.734 43.8802 171.365 44.3982 171.365 45.3046C171.365 45.6169 171.35 45.933 171.301 46.2453C171.27 46.432 171.213 46.6072 171.145 46.7824C170.627 47.6012 170.027 48.321 169.042 48.5876C168.433 48.6295 167.844 48.4162 167.235 48.4467C166.684 48.4276 166.41 48.698 166.421 49.2541C166.376 49.8406 166.478 50.4195 166.52 51.0022C166.307 52.1791 165.337 52.758 164.562 53.493C163.869 53.8815 163.337 54.5632 162.489 54.6775C161.888 54.6775 161.299 54.487 160.69 54.548C158.963 55.0126 159.739 56.3418 159.713 57.3891C159.694 58.2765 160.203 58.8707 160.777 59.4686C162.109 60.8435 163.592 62.0813 164.748 63.6237C165.68 64.9796 167.011 65.9622 168.076 67.1923C168.296 67.4818 168.452 67.7941 168.475 68.1635C168.456 68.7729 168.281 69.367 168.334 69.984C168.768 72.2806 170.521 71.7321 172.031 71.6978C174.613 73.1908 176.549 75.2779 177.834 77.9743C176.903 79.5358 175.45 80.6137 174.191 81.8667C173.795 82.2589 173.297 82.5598 172.696 82.2056C172.445 81.8971 172.423 81.5391 172.461 81.1659C172.35 79.4939 171.902 79.273 169.426 79.6691C169.247 79.692 169.076 79.6691 168.905 79.6234C166.262 77.4564 164.048 74.8437 161.565 72.5091C160.462 71.2599 159.108 70.2506 158.146 68.8719C158.081 68.7043 158.039 68.5329 158.024 68.3539C158.024 67.657 158.302 66.9867 158.252 66.2859C157.921 64.0579 156.332 64.7358 154.982 64.8615C154.803 64.8806 154.632 64.8615 154.461 64.8082C153.601 64.1417 152.783 64.1455 151.89 64.812C151.038 65.4518 150.159 66.0726 149.167 66.5068C148.182 66.8305 147.28 67.3447 146.333 67.7598C143.664 68.5482 141.001 69.3784 138.164 68.7995C138.05 68.7577 137.929 68.712 137.845 68.6244C135.883 66.5601 135.814 66.5677 134.449 69.0128C132.308 69.7631 130.071 70.1782 127.93 70.9171C127.443 70.9247 127.105 70.6086 126.732 70.3687C126.234 70.0602 125.728 69.9612 125.222 70.3496C124.595 70.9209 124.861 71.6712 124.808 72.3605C124.576 73.2403 123.735 73.5602 123.169 74.1277C117.422 79.8634 111.683 85.6067 105.956 91.3576C105.69 91.6242 105.454 91.9212 105.264 92.2488C104.393 93.616 104.344 95.1585 104.309 96.7124C104.252 96.9028 104.142 97.0551 103.978 97.1694C103.514 97.4093 103.047 97.6036 102.514 97.3827C102.362 97.2189 102.252 97.0323 102.18 96.8228C101.814 93.4523 102.05 90.0741 102.039 86.6997C102.039 85.7933 102.035 84.8868 101.917 83.988C101.898 82.9902 102.621 82.4265 103.229 81.8095C105.599 79.4025 108.021 77.0412 110.371 74.619C110.55 74.3562 110.524 74.1087 110.292 73.8801C109.945 73.5564 109.611 73.2251 109.246 72.928C108.983 72.7338 108.702 72.5814 108.409 72.4329C107.667 72.033 106.903 71.6864 106.139 71.3398C104.982 70.6695 103.564 70.5934 102.491 69.7365C101.484 67.8588 101.335 67.8322 100.031 69.2908C98.772 69.7745 97.787 70.62 96.8514 71.5798C94.2539 74.2343 91.6146 76.8508 88.9791 79.4673C88.4086 80.0348 87.9066 80.7317 87.0091 80.8384C85.1646 80.2252 84.0198 78.8427 83.0729 77.2431C83.0729 76.3062 83.7993 75.8187 84.3583 75.2512C86.8303 72.749 89.3289 70.2696 91.8124 67.7751C92.2991 67.2876 92.8088 66.8077 93.0978 66.164C93.3374 65.627 93.4325 65.0748 93.0826 64.5492C92.63 63.8713 92.0748 64.3512 91.5575 64.435C90.6296 64.3854 90.1428 63.658 89.5723 63.0905C86.0317 59.5676 82.4682 56.0676 78.996 52.4761C77.8322 51.2726 77.0184 51.0593 75.7747 52.3961C62.9089 66.164 49.2558 79.1588 36.0211 92.5649C35.1426 93.4561 35.154 94.0121 36.0363 94.8767C39.6036 98.3729 43.1177 101.922 46.6393 105.464C47.2592 106.085 47.9704 106.645 48.2632 107.532C48.7082 109.479 49.4346 109.703 51.0129 108.191C53.9336 105.392 56.7403 102.475 59.6192 99.6335C60.1935 99.0661 60.6879 98.3615 61.5892 98.2396C63.5022 98.8528 64.6811 100.35 65.8867 101.812C65.959 102.783 65.1946 103.252 64.6393 103.815C62.2015 106.287 59.7333 108.728 57.2879 111.192C54.6068 113.893 54.5649 113.394 57.2651 116.075C58.775 117.637 60.3722 119.114 61.8478 120.71C62.81 121.75 63.6011 121.693 64.4263 120.626C66.0997 119.324 67.0999 117.229 69.2563 116.494C70.1538 116.612 71.0133 116.62 71.5799 115.725C72.0667 114.951 73.1506 115.329 73.6754 114.632C74.109 114.022 73.9645 113.15 74.5958 112.636C77.8588 111.185 81.0991 111.196 84.3165 112.777C84.6169 114.095 84.982 115.104 86.7657 115.188C87.5719 115.226 88.0853 116.947 89.4735 116.521C90.6182 117.084 91.2001 117.987 91.143 119.278C90.2265 121.597 90.2797 121.731 92.4132 122.671C92.5882 122.873 92.6833 123.113 92.7365 123.372C92.7517 124.416 92.9685 125.322 94.1931 125.562C95.0602 126.609 96.068 126.994 97.323 126.225C97.9049 126.137 98.4259 126.309 98.9127 126.609C99.6581 127.135 100.62 127.402 100.985 128.369C101.21 129.016 101.031 129.732 101.335 130.365C101.468 130.567 101.632 130.734 101.837 130.86C102.385 131.187 103.248 130.982 103.495 131.82C103.267 133.297 103.541 134.466 105.283 134.737C105.675 135.026 105.895 135.392 105.792 135.898C105.618 136.333 105.157 136.451 104.861 136.744C104.499 137.174 104.522 137.62 104.796 138.077C105.154 138.564 105.682 138.633 106.23 138.663C106.572 138.698 106.899 138.766 107.181 138.972C107.964 141.032 109.234 140.404 110.539 139.578C111.733 139.52 112.638 140.221 113.612 140.747C113.904 140.994 114.098 141.295 114.144 141.684C114.083 144.106 114.502 144.483 116.612 143.919C117.282 143.942 117.472 144.491 117.749 144.944C118.092 145.774 118.681 146.501 118.757 147.438C118.742 147.617 118.685 147.789 118.601 147.949C117.476 149.708 117.567 150.112 119.347 151.125C119.685 151.445 119.868 151.845 119.993 152.283C120.214 153.783 121.05 153.981 122.271 153.353C122.659 153.151 123.024 152.896 123.465 152.816C123.922 152.767 124.344 152.808 124.648 153.212C124.842 153.86 124.526 154.69 125.337 155.116C125.926 155.452 126.664 155.254 127.238 155.638C127.782 156.632 128.638 156.945 129.722 156.781C131.239 157.801 132.095 159.188 132.057 161.058C131.965 161.423 131.551 161.766 131.657 162.082C132.11 163.427 132.376 164.76 132.011 166.173C131.954 166.386 132.117 166.767 132.315 166.824C134.24 167.388 134.559 169.539 136.027 170.533C136.674 171.006 137.335 171.017 138.012 170.591C138.164 170.507 138.328 170.461 138.503 170.45C139.606 170.754 140.739 170.895 141.869 171.074C142.283 171.223 142.599 171.527 142.956 171.767C143.416 172.042 143.877 172.129 144.341 171.786C144.516 171.623 144.671 171.44 144.793 171.23C145.12 170.625 144.892 169.821 145.474 169.303C145.915 169.044 146.379 169.052 146.854 169.185C148.239 169.855 149.239 170.994 150.289 172.064C150.551 172.83 150.467 173.675 150.806 174.426C150.779 174.532 150.756 174.639 150.745 174.749C150.125 175.843 149.307 176.684 147.995 176.878C146.714 176.696 145.501 176.486 144.143 176.924C142.956 177.305 142.161 177.831 141.656 178.905C140.511 178.866 141.089 180.139 140.454 180.485C138.773 182.077 138.758 182.172 139.906 183.894C140.115 184.427 139.819 184.762 139.442 185.063L139.317 185.021C138.206 185.577 136.731 185.893 137.525 187.718C137.377 187.95 137.233 188.186 137.084 188.418C136.693 189.226 136.042 189.706 135.19 189.934C134.943 190.098 134.696 190.258 134.449 190.422C133.422 191.861 131.866 191.968 130.311 192.063C130.14 192.063 129.969 192.063 129.798 192.063C129.634 192.063 129.467 192.063 129.299 192.063C129.14 192.063 128.976 192.063 128.816 192.063C128.66 192.063 128.505 192.063 128.349 192.063C128.044 192.063 127.74 192.063 127.436 192.063C127.288 192.063 127.139 192.063 126.991 192.063C126.843 192.063 126.694 192.063 126.546 192.063C126.398 192.063 126.249 192.063 126.097 192.063C125.945 192.063 125.793 192.063 125.641 192.063C125.485 192.063 125.329 192.063 125.173 192.063C125.013 192.063 124.854 192.055 124.694 192.036C124.542 191.979 124.405 191.896 124.287 191.789C123.884 191.126 123.386 191.389 122.887 191.648C121.617 191.389 120.446 190.966 119.742 189.763C119.556 188.902 119.366 188.049 118.156 188.281C117.384 188.159 116.635 187.721 115.817 188.076C114.977 188.14 114.372 188.437 114.471 189.435C113.851 190.425 112.919 190.921 111.805 191.115C110.946 191.069 109.964 190.677 109.542 191.899C109.249 192.113 108.907 192.052 108.584 192.067C108.42 192.067 108.261 192.067 108.097 192.067C107.937 192.067 107.782 192.067 107.622 192.067C107.466 192.067 107.31 192.067 107.158 192.067C107.009 192.067 106.857 192.067 106.705 192.067C106.412 192.067 106.123 192.067 105.831 192.067C105.694 192.067 105.553 192.067 105.416 192.067C105.283 192.067 105.146 192.067 105.013 192.067C104.884 192.067 104.75 192.067 104.617 192.067C104.416 192.059 104.237 192.113 104.093 192.261H103.332C100.365 191.728 97.7794 190.578 96.1897 187.824C96.1174 186.72 95.7371 185.851 94.5201 185.6C93.9763 185.173 93.6416 184.648 93.7291 183.924C94.9043 182.934 94.851 181.704 94.562 180.333C94.2844 179.019 93.7481 178.543 92.5007 179.266C90.4889 179.327 88.5721 179.049 86.9596 177.713C86.7695 177.461 86.6858 177.168 86.6135 176.863C86.1343 174.868 85.9328 174.753 83.9628 175.309C82.7952 175.142 82.202 174.35 81.7988 173.344C82.3883 171.508 82.2324 170.031 79.9695 169.57C79.6805 169.315 79.3877 168.995 79.3763 168.644C79.3078 166.234 77.76 165.613 75.7215 165.441C74.919 165.373 74.1813 164.969 73.4701 164.581C72.7551 164.177 72.0667 163.728 71.3784 163.278C70.1005 162.143 68.8645 160.966 67.7769 159.641C67.3243 158.834 66.9174 158.003 66.5294 157.165C65.9742 154.336 65.206 151.719 61.5284 151.769C61.2356 151.772 60.9655 151.506 60.764 151.251C60.6385 151.026 60.6195 150.778 60.589 150.527C60.3684 148.699 60.0072 148.524 58.311 149.396C57.6759 149.628 57.3032 149.194 56.8924 148.84C56.6985 148.646 56.5387 148.425 56.4208 148.173C56.3524 148.01 56.3029 147.834 56.2687 147.659C56.3638 146.216 55.9797 145.168 54.2493 145.256C53.192 144.216 52.5835 142.99 52.6976 141.467C54.2074 140.016 54.2075 139.989 52.6596 138.804C51.8305 137.955 52.2831 136.992 52.4086 136.055C52.5075 135.575 52.6938 135.144 53.0779 134.821C54.693 134.181 55.2825 132.99 54.8464 131.248C54.8958 130.685 55.2419 130.277 55.5728 129.862C55.896 129.458 56.166 129.013 56.4817 128.605C57.1663 127.76 56.5273 127.242 55.9987 126.712C54.2417 124.953 52.4961 123.186 50.7162 121.449C43.4599 114.144 36.1618 106.889 28.8979 99.5878C28.2362 98.9251 27.4413 98.3539 27.1637 97.3827C27.1903 96.1906 27.6239 94.831 25.9391 94.3206C25.7908 94.2559 25.6539 94.1645 25.5322 94.0578C25.3877 93.856 25.3687 93.6236 25.3687 93.3875C25.3687 93.159 25.3572 92.9381 25.1709 92.7667C25.1709 92.5154 25.1709 92.2602 25.1709 92.0088C41.296 75.8225 57.4211 59.6248 73.5385 43.4232C74.7517 42.2045 76.0029 41.1229 77.9159 41.5761C78.7069 42.5358 79.3991 43.705 80.966 42.989C86.4728 48.4581 92.0596 53.8548 97.4485 59.442C99.0915 61.1444 100.86 61.9708 103.104 62.0013C103.64 62.0089 104.07 62.1574 104.477 62.4621C105.085 63.1705 105.77 62.8963 106.458 62.6107C107.207 62.5992 107.842 62.8239 108.272 63.4752C108.398 63.5209 108.523 63.5628 108.652 63.6085C109.828 65.8708 112.303 67.3104 114.357 66.9181C114.737 67.1695 115.118 67.4209 115.502 67.676C115.669 68.0302 115.639 68.4073 115.642 68.7805C115.65 69.6831 116.087 70.2125 117.004 70.2125C117.921 70.2125 118.354 69.6793 118.362 68.7805C118.362 68.4073 118.335 68.0302 118.502 67.676C118.807 67.2419 119.08 66.7734 119.659 66.6477C121.887 67.7598 122.02 65.8784 122.576 64.5987C122.971 64.0236 123.5 63.719 124.215 63.8027C126.261 65.2805 126.633 65.1472 127.478 62.6221C127.687 62.2222 127.987 62.1194 128.387 62.3364C130.387 61.8299 132.361 61.1939 134.464 61.2472C134.852 61.2586 135.361 61.4909 135.612 60.9235C135.955 60.5579 136.335 60.5731 136.734 60.8168C138.381 60.813 140.051 61.1748 141.667 60.5655C142.287 61.2739 143.025 61.6928 144.006 61.5176C145.873 61.708 145.599 59.9751 146.223 59.0459C146.581 58.8783 146.843 58.4746 147.318 58.585C148.007 58.3108 148.714 58.5355 149.41 58.4936C149.977 58.5089 150.311 58.288 150.258 57.6672C150.254 57.0768 149.984 56.4675 150.376 55.9038C150.391 55.7972 150.41 55.6867 150.433 55.5801C150.589 54.8984 151.049 54.6241 151.707 54.6013C152.589 54.5556 153.685 55.1421 154.274 54.1976C154.704 53.5082 154.438 52.4876 154.932 51.7258C155.449 51.1203 155.963 50.5147 156.48 49.9092C156.845 49.2122 157.199 48.5 158.157 48.5229C159.039 48.4772 160.135 49.0675 160.724 48.1192C161.154 47.4298 160.892 46.4091 161.382 45.6474C161.899 45.0418 162.413 44.4363 162.93 43.8307C163.253 43.1604 163.687 42.612 164.474 42.4711C165.151 42.4292 165.817 42.6234 166.494 42.5739C166.927 42.5625 167.304 42.4558 167.49 42.0064C167.547 41.8541 167.608 41.7018 167.661 41.5494C167.885 40.9058 167.581 40.2126 167.832 39.5728C168.213 39.1919 168.589 38.8149 168.969 38.434C170.449 38.4797 171.947 38.5597 172.404 36.6402H172.392Z" fill="black"/>
<path d="M150.004 172.145C148.753 171.531 147.95 170.408 146.969 169.486C147.114 168.344 146.908 167.277 146.281 166.299C146.106 165.693 146.136 165.061 146.072 164.444C146.045 164.086 145.973 163.732 146.064 163.374C147.292 161.066 146.935 160.593 143.961 160.574C142.078 159.272 140.645 157.489 139.036 155.894C134.959 151.853 130.882 147.808 126.866 143.702C125.478 141.234 125.771 139.909 128.167 137.83C130.163 136.908 132.061 137.239 133.586 138.694C139.047 143.897 144.364 149.248 149.586 154.69C149.715 154.823 149.772 155.014 149.837 155.193C149.879 155.364 149.886 155.539 149.875 155.718C149.783 156.271 149.597 156.823 149.856 157.375C149.977 157.573 150.13 157.737 150.327 157.863C150.822 158.091 151.289 158.023 151.746 157.771C151.966 157.634 152.195 157.512 152.442 157.421C152.784 157.31 153.138 157.268 153.495 157.253C153.944 157.234 154.389 157.242 154.838 157.234C155.45 157.261 156.055 157.12 156.667 157.181C157.002 157.276 157.207 157.554 157.466 157.756C157.979 158.099 158.47 158.053 158.937 157.661C160.953 156.423 160.451 154.865 159.5 153.247C159.337 152.405 159.287 151.567 159.565 150.737C159.614 150.623 159.675 150.512 159.767 150.428C160.299 149.948 161.151 149.594 160.653 148.646C160.154 147.701 159.371 148.223 158.675 148.372C157.758 148.296 157.264 147.583 156.694 147.012C151.769 142.099 146.851 137.175 141.934 132.25C141.306 131.622 140.709 130.97 140.245 130.209C139.169 128.434 139.283 126.72 140.58 125.326C141.983 123.818 143.911 123.525 145.752 124.526C146.6 124.987 147.27 125.658 147.939 126.332C151.605 129.999 155.298 133.644 158.926 137.35C160.744 139.205 162.779 140.812 164.657 142.602C166.635 144.487 168.574 144.38 171.552 142.541C171.704 142.449 171.868 142.381 172.035 142.328C172.762 142.305 172.803 141.89 172.591 141.334C172.56 140.884 172.686 140.465 172.815 140.042C172.971 139.616 173.157 139.208 173.526 138.919C174.728 138.492 175.127 137.719 174.751 136.451C174.287 134.886 173.534 133.873 171.704 134.364C170.571 134.261 170.001 133.347 169.301 132.65C157.778 121.137 146.269 109.612 134.757 98.0913C132.921 96.2556 132.928 96.267 131.084 98.0837C127.665 101.447 124.379 104.947 120.861 108.211C119.777 108.843 118.807 109.726 117.453 109.784C116.993 109.73 116.659 109.452 116.331 109.163C115.849 108.759 115.362 108.729 114.875 109.163C114.362 109.673 114.403 110.492 113.863 110.987C112.764 111.764 111.517 111.471 110.311 111.505C109.41 111.463 108.547 111.212 107.679 110.991C105.633 110.286 103.679 109.406 101.994 108.009C101.614 107.727 101.294 107.396 101.15 106.931C101.085 106.664 101.089 106.398 101.138 106.131C101.267 105.571 101.469 105.008 101.013 104.493C100.381 103.956 99.9782 103.233 99.4306 102.627C98.8601 102.185 98.0767 102.429 97.4986 102.018C96.9396 101.572 96.7532 100.921 96.5326 100.289C96.3007 99.2567 95.8709 98.2474 96.1828 97.1582C96.2702 96.9297 96.3805 96.705 96.5745 96.5564C97.9436 95.4977 97.3959 94.6484 96.293 93.8524C95.8063 92.6489 96.5022 91.6282 96.7874 90.5427C97.164 89.5906 97.6584 88.6956 98.0919 87.7739C98.5255 87.0808 98.8563 86.2696 99.8413 86.1896C100.716 86.8599 101.659 86.1629 102.561 86.3153V97.3296C103.044 97.7371 102.937 98.396 103.218 98.8873C103.355 99.0853 103.523 99.2605 103.72 99.4014C104.257 99.6985 104.766 100.022 104.861 100.708C104.759 102.658 106.904 102.551 107.638 103.732C108.143 104.128 108.653 104.162 109.17 103.758C109.425 103.522 109.657 103.256 109.984 103.115C110.95 102.776 111.988 103.027 112.958 102.742C114.088 102.483 115.13 102.045 115.993 101.241C122.059 95.292 128.015 89.2288 134.027 83.2303C135.21 82.0497 136.476 81.0595 138.23 80.9262C138.42 80.9071 138.61 80.9109 138.804 80.9262C140.88 81.2613 142.124 82.4458 142.451 84.5443C142.455 86.3191 141.584 87.7092 140.314 88.7984C139.028 89.8953 138.99 90.8132 140.359 91.7881C150.061 101.546 159.805 111.269 169.54 120.992C170.415 121.975 171.069 121.377 171.735 120.703C173.64 118.775 175.572 116.875 177.47 114.936C181.368 111.086 185.183 107.156 189.115 103.343C190.146 102.345 190.18 101.671 189.084 100.78C188.411 100.232 187.757 99.5995 187.548 98.6816C187.331 97.4819 187.685 96.1718 186.844 95.094C186.042 93.9324 184.901 94.4656 183.863 94.4998C183.688 94.5113 183.513 94.496 183.342 94.4465C180.683 92.3061 178.485 89.6858 176.017 87.3512C175.142 86.4333 174.233 85.5459 173.336 84.6509C173.032 84.3386 172.727 84.0263 172.53 83.6302C172.427 83.3789 172.385 83.1123 172.4 82.8419C172.431 82.5638 172.526 82.3163 172.754 82.1411C174.127 81.8821 174.671 80.591 175.633 79.8179C176.363 79.2276 177.04 78.5725 177.744 77.9479C180.079 78.961 181.6 80.8157 182.874 82.9257C182.874 83.5426 182.688 84.1482 182.737 84.769C183.342 86.7342 184.038 87.0998 186.784 86.8865C187.54 86.9399 188.008 87.4654 188.48 87.9568C190.423 89.9753 192.561 91.8072 194.333 93.9933C195.177 94.6979 195.519 96.6364 197.238 95.1663C200.84 91.613 204.396 88.0139 207.974 84.4338C209.496 82.9142 209.492 82.8952 207.895 81.2918C202.711 76.0969 197.516 70.9173 192.348 65.7072C191.754 65.1093 190.864 64.6523 190.956 63.5859C192.61 61.7844 194.268 59.9792 195.922 58.1777C203.354 65.5701 210.785 72.9587 218.209 80.3549C219.026 81.1661 219.205 82.1792 218.984 83.2837C217.106 83.7597 217.205 85.2679 217.193 86.719C214.9 89.0574 212.622 91.4149 210.31 93.7343C199.376 104.688 188.434 115.633 177.497 126.579C176.518 127.559 176.492 128.546 177.42 129.538C177.786 129.931 178.101 130.369 178.443 130.784C178.847 130.898 179.022 131.184 179.044 131.584C178.588 133.117 179.072 134.195 180.497 134.817C180.866 135.171 181.087 135.56 180.79 136.07C180.436 136.878 181.395 137.54 181.045 138.348C179.592 139.338 179.436 140.473 180.664 141.76C180.254 142.929 180.212 144.255 179.254 145.199C178.668 145.713 177.622 145.919 178.01 147.077C177.938 147.785 177.105 147.938 176.922 148.562C176.656 148.962 176.291 149.202 175.804 149.24C174.716 149.061 173.701 149.015 173.564 150.516C172.073 151.472 170.457 152.093 168.67 151.997C167.685 151.944 167.327 152.253 167.441 153.239C167.593 154.538 167.084 155.734 166.757 156.956C166.886 157.973 166.422 158.689 165.616 159.237C164.787 160.311 164.136 161.542 162.938 162.288C162.463 162.498 161.908 162.623 161.873 163.301C161.387 164.01 160.702 164.288 159.865 164.238C158.534 164.779 157.253 165.423 155.728 165.335C154.705 165.278 154.05 165.742 154.134 166.988C154.18 167.681 153.872 168.397 153.723 169.105C153.069 169.486 152.556 169.962 152.286 170.724C151.917 171.771 151.122 172.255 149.996 172.141L150.004 172.145Z" fill="black"/>
<path d="M141.66 178.915C141.435 177.41 142.154 176.968 143.58 176.607C145.193 176.195 146.638 175.731 148.151 176.713C148.235 176.839 148.216 176.946 148.091 177.029C145.984 177.787 144.029 179.063 141.66 178.915Z" fill="black"/>
<path d="M114.354 66.917C114.297 67.3169 114.141 67.6026 113.689 67.694C111.882 68.0634 108.699 65.4927 108.649 63.6074C110.631 64.571 112.764 65.2794 114.354 66.917Z" fill="black"/>
<path d="M118.496 67.6719C118.967 68.6392 119.249 69.6333 118.229 70.3988C117.461 70.9777 116.533 70.9777 115.765 70.3988C114.746 69.6333 115.023 68.6392 115.499 67.6719C116.499 68.7421 117.499 68.7383 118.499 67.6719H118.496Z" fill="black"/>
<path d="M150.003 172.145C150.794 171.486 152.057 171.364 152.038 169.825C152.026 168.995 153.057 169.125 153.73 169.105C153.183 171.116 152.179 172.876 150.806 174.437C149.383 174.079 150.254 172.914 150.003 172.145Z" fill="black"/>
<path d="M143.934 62.0206C142.892 61.9787 141.599 62.3329 141.656 60.5657C143.04 60.1506 144.429 59.7354 145.813 59.3203C146.646 61.2398 145.087 61.4912 143.93 62.0244L143.934 62.0206Z" fill="black"/>
<path d="M166.699 43.0345C165.942 43.0231 165.159 43.1487 164.486 42.6536C164.208 41.6672 164.965 41.4539 165.604 41.1531C166.296 40.8789 166.539 39.9039 167.445 39.9572C167.935 40.5285 168.239 41.1416 167.836 41.8957C167.661 42.4784 167.277 42.8555 166.699 43.0345Z" fill="black"/>
<path d="M217.205 86.7185C216.109 84.0868 216.512 83.3099 218.996 83.2832C219.258 84.8752 218.266 85.8159 217.205 86.7185Z" fill="black"/>
<path d="M149.628 58.9795C148.829 58.9948 148.027 59.0367 147.312 58.5835C148.068 57.3876 149.285 56.7173 150.373 55.8984C150.506 56.5459 150.635 57.1933 150.769 57.8408C150.59 58.4235 150.213 58.8044 149.631 58.9795H149.628Z" fill="black"/>
<path d="M180.296 134.93C177.93 134.713 177.489 133.651 178.855 131.472C179.174 131.43 179.322 131.564 179.281 131.891C179.661 132.649 180.041 133.411 180.418 134.169C180.589 134.458 180.555 134.713 180.292 134.93H180.296Z" fill="black"/>
<path d="M122.686 64.739C122.717 65.8473 122.515 66.8299 121.408 67.3973C120.503 67.862 119.857 67.7782 119.651 66.6432C120.549 65.992 121.45 65.3445 122.348 64.6933C122.477 64.5942 122.587 64.6095 122.686 64.739Z" fill="black"/>
<path d="M139.698 183.916C138.431 183.744 138.564 182.773 138.655 181.939C138.766 180.93 139.446 180.469 140.458 180.499L140.584 182.023C140.698 182.846 140.622 183.581 139.698 183.916Z" fill="black"/>
<path d="M151.886 54.3832C152.16 54.0214 152.434 53.6634 152.708 53.3016C153.4 53.0274 153.643 52.0562 154.548 52.1095C155.005 54.7108 154.392 55.4496 152.19 54.9507C151.913 54.886 151.821 54.6651 151.886 54.3832Z" fill="black"/>
<path d="M158.336 48.3047C158.61 47.9429 158.884 47.5849 159.158 47.2231C159.85 46.9489 160.093 45.9777 160.998 46.0272C161.455 48.6285 160.846 49.3673 158.64 48.8684C158.363 48.8036 158.272 48.5828 158.336 48.3009V48.3047Z" fill="black"/>
<path d="M80.9661 42.9881C79.4334 44.3668 78.6804 44.0164 77.916 41.5751C79.3041 41.2437 80.1142 42.1654 80.9661 42.9881Z" fill="black"/>
<path d="M137.53 187.728C136.674 187.324 136.595 186.661 136.906 185.865C137.386 184.643 138.473 185.187 139.321 185.031C139.127 186.197 138.055 186.779 137.53 187.728Z" fill="black"/>
<path d="M127.604 62.7358C127.771 63.8327 127.593 64.9143 126.395 65.1276C125.596 65.2685 124.402 65.3599 124.204 63.9812C124.223 63.7375 124.364 63.6118 124.6 63.5813C124.725 63.5889 124.847 63.5965 124.972 63.6042C125.946 64.2021 126.345 63.3756 126.862 62.8463C126.988 62.8044 127.113 62.7625 127.243 62.7206C127.372 62.5873 127.494 62.5987 127.608 62.7396L127.604 62.7358Z" fill="black"/>
<path d="M169.339 38.0536C169.993 37.1319 170.765 36.4388 172.012 36.6406C172.309 37.4023 172.419 38.2593 171.499 38.5182C170.818 38.7125 169.829 39.2114 169.339 38.0536Z" fill="black"/>
<path d="M173.572 150.514C172.838 149.958 173.229 149.352 173.64 148.937C174.332 148.237 175.116 148.675 175.85 148.994C175.96 149.391 175.77 149.596 175.408 149.688C174.811 149.992 174.298 150.491 173.572 150.514Z" fill="black"/>
<path d="M180.676 141.759C179.93 141.34 178.968 141.051 179.288 139.881C179.527 139.005 179.919 138.225 181.056 138.347V138.735C180.775 139.466 180.037 140.121 180.676 141.005V141.759Z" fill="black"/>
<path d="M158.336 48.3048C160.542 49.2303 161.018 48.8228 160.995 46.0311C161.12 45.9017 161.246 45.776 161.371 45.6465C161.375 45.955 161.386 46.2635 161.386 46.572C161.398 49.3636 160.66 49.8206 157.956 48.6857C158.082 48.56 158.211 48.4305 158.336 48.3048Z" fill="black"/>
<path d="M151.886 54.383C154.084 55.3161 154.567 54.9009 154.545 52.1093C154.67 51.9798 154.796 51.8541 154.921 51.7246C154.925 52.0331 154.936 52.3416 154.936 52.6501C154.948 55.4417 154.21 55.8988 151.506 54.7638C151.631 54.6381 151.761 54.5087 151.886 54.383Z" fill="black"/>
<path d="M169.339 38.0516C171.313 38.8667 171.807 38.6077 172.013 36.6387C172.138 36.6387 172.268 36.6387 172.393 36.6387C172.367 39.1218 171.595 39.5255 168.959 38.4325C169.084 38.3068 169.214 38.1773 169.339 38.0516Z" fill="black"/>
<path d="M178.021 147.075C177.127 145.746 177.405 145.331 179.265 145.197C179.31 146.13 178.31 146.366 178.021 147.075Z" fill="black"/>
<path d="M143.935 62.0191C144.771 61.2651 146.254 60.9604 145.817 59.3151C145.867 59.1056 145.958 58.9533 146.213 59.0447C146.483 60.8233 146.041 62.0572 143.935 62.0191Z" fill="black"/>
<path d="M180.676 141.004C179.383 140.01 179.908 139.321 181.056 138.734C181.391 139.568 180.809 140.25 180.676 141.004Z" fill="black"/>
<path d="M126.862 62.841C126.713 64.2997 126.227 64.9014 124.972 63.5989C125.786 63.8046 125.991 62.4906 126.862 62.841Z" fill="black"/>
<path d="M105.599 62.4453C105.695 62.8871 106.105 62.7271 106.371 62.8414C105.501 63.9154 104.869 63.7897 104.478 62.4605C104.85 62.4567 105.227 62.4491 105.599 62.4453Z" fill="black"/>
<path d="M167.837 41.8917C167.708 41.2442 167.575 40.6006 167.445 39.9531C167.571 39.8274 167.696 39.6979 167.822 39.5723C168.149 40.3416 168.579 41.1147 167.841 41.8917H167.837Z" fill="black"/>
<path d="M162.889 162.608C162.527 162.753 162.17 162.901 161.809 163.046C161.493 162.855 161.39 162.596 161.626 162.288C162.056 161.732 162.505 162.109 162.946 162.288C162.919 162.395 162.9 162.497 162.889 162.608Z" fill="black"/>
<path d="M102.199 107.649C103.804 108.937 105.701 109.691 107.527 110.582C108.238 111.667 109.021 112.357 110.166 111.069C111.414 110.776 112.79 111.431 113.962 110.559C114.525 110.148 115.141 109.984 115.829 110.129C117.137 111.306 119.305 110.81 120.214 109.097C120.416 108.716 120.457 108.255 120.777 107.927C124.584 104.069 128.406 100.227 132.19 96.3456C132.787 95.7324 133.148 95.7972 133.703 96.3761C135.141 97.8805 136.636 99.3353 138.107 100.809C148.771 111.481 159.435 122.152 170.103 132.82C170.59 133.304 171.114 133.749 171.62 134.214C173.354 135.311 174.107 137.173 173.598 139.108C173.431 139.489 173.259 139.866 173.092 140.247C172.415 140.848 171.559 141.359 171.955 142.505C170.331 144.779 166.593 145.167 164.06 142.798C158.211 137.326 152.624 131.594 146.934 125.961C144.953 123.999 142.915 123.786 141.222 125.294C139.458 126.867 139.347 128.932 141.405 131.022C147.117 136.827 152.939 142.524 158.72 148.267C159.663 148.717 160.028 149.486 159.937 150.503C159.937 151.52 159.937 152.533 159.941 153.55C159.949 154.266 159.949 154.978 159.169 155.355C158.876 155.473 158.564 155.561 158.252 155.527C156.568 155.344 155.537 156.155 154.94 157.656H153.422C152.939 155.961 151.924 155.13 150.102 155.633C149.916 155.618 149.764 155.538 149.646 155.397C144.299 150 138.956 144.6 133.597 139.211C132.137 137.741 130.338 137.577 128.417 137.988C125.637 138.807 125.242 139.432 125.565 142.444C125.679 143.499 126.242 143.876 127.257 143.625C132.84 149.208 138.423 154.792 144.006 160.379C144.284 160.607 144.569 160.828 144.565 161.239C143.979 163.048 145.33 163.563 146.527 164.176C146.573 164.937 146.619 165.699 146.664 166.461C146.771 167.737 146.25 168.727 145.291 169.519C145.261 169.694 145.196 169.862 145.105 170.014C144.219 170.78 143.31 171.496 142.028 171.351C140.697 171.469 139.381 171.511 138.263 170.586C136.236 170.056 135.152 168.495 134.156 166.834C134.529 165.231 134.072 164.054 132.429 163.486C131.973 162.763 131.699 161.993 131.844 161.121C131.619 159.423 130.71 158.097 129.539 156.921C128.904 156.821 128.619 156.372 128.448 155.816C128.413 155.637 128.391 155.454 128.406 155.275C128.455 154.613 128.63 153.904 127.858 153.512C127.086 153.12 126.63 153.771 126.074 154.098C125.458 154.255 124.972 154.079 124.633 153.527C124.405 152.941 123.88 153.257 123.492 153.15C123.211 152.944 122.792 153.097 122.545 152.796C121.906 151.413 121.104 151.276 120.126 152.476C119.948 152.552 119.796 152.518 119.678 152.362C119.526 151.996 119.373 151.63 119.218 151.265C118.681 150.187 118.301 149.079 118.457 147.849C118.499 147.719 118.541 147.59 118.586 147.46C119.214 146.196 118.868 145.419 117.445 145.183C117.175 144.79 116.905 144.398 116.639 144.006C115.468 143.602 114.783 142.623 114.011 141.755L113.574 141.058C113.27 140.727 113.163 140.277 112.912 139.927C111.946 138.579 110.588 138.48 109.33 139.634C108.546 139.736 107.804 139.649 107.143 139.18C106.778 139.154 106.413 139.127 106.047 139.1C105.359 138.179 105.051 137.192 105.561 136.076C105.804 135.574 105.344 135.307 105.18 134.938C104.701 134.279 104.355 133.57 104.321 132.74C105.275 130.52 105.165 130.329 102.8 130.181C102.13 130.002 101.723 129.552 101.503 128.912C101.141 126.357 101.05 126.296 98.7798 126.985C98.3424 126.662 97.8594 126.502 97.3156 126.563C96.4979 126.464 95.6422 126.517 94.9386 125.961C94.4899 124.742 93.4897 124.095 92.4058 123.539C92.364 123.287 92.3221 123.032 92.2803 122.781C91.3675 121.81 91.2192 120.518 90.8427 119.323C90.8389 118.15 90.1049 117.392 89.3215 116.668C88.6826 116.561 88.3973 116.12 88.2528 115.544C88.1615 114.748 88.6712 113.785 87.6405 113.252C86.8685 112.852 86.4083 113.507 85.8531 113.838C85.2332 113.998 84.7502 113.819 84.4117 113.271C81.5366 111.926 78.593 111.759 75.5809 112.76C75.2387 112.875 74.866 112.905 74.5085 112.974C74.2347 113.374 73.8924 113.648 73.3714 113.583C71.0287 112.806 70.6864 112.997 70.5913 115.164C70.4164 115.944 70.0094 116.504 69.1804 116.668C67.6743 118.089 66.1683 119.509 64.6623 120.93C62.6809 120.438 61.7567 118.645 60.3876 117.411C59.3912 116.512 58.4252 115.857 57.0409 116.375C55.0684 114.661 54.9872 112.896 56.7975 111.081C59.8172 108.034 62.8178 104.972 65.8298 101.918C65.9667 101.023 66.7083 100.569 67.2636 99.9904C70.751 96.3647 74.2499 92.7313 77.821 89.2008C80.795 86.2606 83.5674 83.0386 87.0739 80.6544C90.5613 77.2115 94.0639 73.7876 97.5171 70.3066C98.2207 69.5982 98.9053 69.0802 99.9321 69.1831C100.909 68.6537 101.761 69.0383 102.587 69.5639C103.849 70.0933 105.291 70.1809 106.397 71.1026C106.903 71.8909 107.276 72.8393 108.447 72.8431C109.219 73.5248 110.086 74.0694 110.98 74.5798C108.052 77.5999 105.12 80.6201 102.191 83.6365C101.784 84.6953 101.077 85.4532 99.9891 85.8302C98.5021 85.7845 98.5173 86.8776 98.4299 87.8944C98.2549 88.8732 97.6655 89.6616 97.2129 90.5147C96.7793 91.0517 95.7639 91.1965 95.7791 91.9239C95.8019 93.1769 95.5623 94.4032 95.5852 95.641C95.5966 96.1628 96.2469 96.159 96.5359 96.4713C96.65 96.6236 96.669 96.7874 96.5854 96.9588C96.1937 98.1509 97.0379 99.2096 96.9391 100.371C96.0758 102.245 96.2051 102.512 98.1484 102.877C99.3388 103.612 99.9397 104.812 100.586 105.977C100.67 106.975 100.548 108.175 102.203 107.661L102.199 107.649Z" fill="#FFCCBC"/>
<path d="M142.101 84.8022C141.838 82.7456 140.678 81.584 138.621 81.3212C137.404 79.5426 136.221 80.8947 135.015 81.3517C134.217 81.6564 133.654 82.2467 133.076 82.8256C127.816 88.0852 122.465 93.2572 117.365 98.6653C115.985 100.128 113.996 101.046 113.212 103.068C112.129 103.803 110.934 103.258 109.793 103.361C109.086 103.502 108.519 103.281 108.09 102.706C107.949 100.939 107.112 99.9603 105.222 100.162C104.964 100.036 104.766 99.8422 104.591 99.6213C104.146 98.7758 103.435 97.9874 104.028 96.9287L104.153 96.9705C105.876 94.8454 106.032 93.8133 104.91 92.0118C105.074 91.3606 105.648 91.033 106.074 90.6027C110.839 85.8153 115.608 81.0318 120.396 76.2673C121.762 74.9115 123.192 73.6204 124.591 72.3026C125.276 71.1677 126.314 70.6878 127.603 70.684C129.782 69.6899 132.064 69.073 134.437 68.7835C135.518 68.117 136.62 67.6943 137.853 68.4027C140.857 68.8254 143.69 67.8999 146.562 67.2829C147.836 67.8085 148.691 67.3591 149.22 66.1404C150.159 65.5158 151.217 65.0131 152.008 64.2399C153.19 63.0821 153.909 63.5239 154.617 64.6665C156.138 65.6719 157.446 66.883 158.328 68.5093C158.34 68.6083 158.351 68.7035 158.359 68.8026C158.754 70.703 159.899 71.8532 161.801 72.2493C164.212 74.6601 166.623 77.0709 169.034 79.4779C169.35 79.7483 169.779 79.8511 170.061 80.1749C170.958 81.0965 171.951 81.923 172.746 82.9399C172.757 83.1646 172.769 83.3893 172.776 83.614C173.271 84.3148 173.092 85.2669 173.659 85.941C173.818 86.1314 173.978 86.3142 174.157 86.4856C174.651 87.0188 175.317 86.996 175.96 87.0531C176.043 87.0531 176.123 87.0531 176.207 87.0531C178.622 89.4677 181.037 91.8823 183.452 94.2931C185.22 95.5538 186.806 96.9972 187.92 98.8939C188.905 99.945 189.89 101 190.666 101.826C186.353 106.286 182.033 110.754 177.709 115.221C175.998 115.076 174.735 115.838 173.583 117.049C172.202 118.5 170.829 119.967 169.331 121.3C166.821 118.832 164.292 116.383 161.804 113.892C154.563 106.625 147.341 99.3395 140.112 92.0613C139.378 90.237 141.089 89.7343 141.895 88.7441C142.473 88.1538 142.865 87.4644 143.029 86.6532C143.067 85.8534 142.504 85.3659 142.085 84.8022H142.101Z" fill="#FFCCBC"/>
<path d="M47.9557 107.544C43.7381 103.282 39.5547 98.986 35.2839 94.7776C34.4054 93.9092 34.4624 93.5017 35.3029 92.6638C47.4804 80.5336 59.6274 68.3729 71.7593 56.197C73.2615 54.6888 74.699 53.1083 76.0796 51.4858C77.0303 50.3661 77.7035 50.5489 78.6618 51.5201C82.9213 55.8276 87.2492 60.0703 91.5543 64.3359C91.9612 64.4768 92.1362 64.7472 92.0335 65.1776C91.7216 65.8212 91.1778 66.263 90.6872 66.7505C77.346 80.1109 64.001 93.4674 50.6521 106.82C50.1653 107.308 49.7242 107.864 49.0662 108.149C48.5034 108.294 48.1839 107.997 47.9557 107.536V107.544Z" fill="#FF4473"/>
<path d="M190.966 63.5884C196.827 69.4993 202.688 75.4101 208.548 81.3172C210.134 82.913 210.142 82.9168 208.495 84.5506C204.825 88.1878 201.147 91.8211 197.474 95.4545C196.272 95.2755 195.275 94.5024 194.085 94.2967C191.666 91.8783 189.247 89.4598 186.829 87.0414C186.357 87.0071 186.053 86.691 185.726 86.4054C184.707 85.2247 183.273 84.3983 182.657 82.8672C181.025 81.2296 179.394 79.5919 177.762 77.9542C176.005 75.7757 174.202 73.643 172.035 71.8529C171.563 71.8187 171.259 71.5026 170.932 71.2169C170.023 70.1734 168.753 69.4383 168.239 68.0558C168.102 67.8311 167.962 67.6064 167.825 67.3817C167.927 65.0585 166.311 64.392 164.493 63.9197C162.938 62.324 161.401 60.7091 159.823 59.14C159.294 58.6182 158.868 58.1688 159.538 57.4795C159.538 57.2053 159.656 56.9806 159.819 56.7749C160.576 56.1236 161.04 55.0496 162.257 55.0573C164.06 55.7428 163.752 53.9185 164.413 53.2444C165.06 52.5017 165.71 51.7591 166.357 51.0202C166.764 49.9424 167.441 49.1654 168.639 48.9636C170.768 49.6758 170.171 47.5697 170.871 46.8041C170.879 46.7051 170.89 46.6023 170.901 46.5033C172.476 44.9037 173.103 44.9722 174.279 46.8803C179.736 52.5588 185.3 58.1307 190.974 63.5922L190.966 63.5884Z" fill="#479CF5"/>
<path d="M83.6207 139.532C85.6325 138.043 87.0548 135.933 89.1161 134.452C91.3295 132.863 93.4516 132.768 95.7677 133.987C95.9769 134.097 96.2317 134.124 96.4637 134.189C97.559 134.615 97.905 135.636 98.3538 136.577C98.4831 136.904 98.6276 137.232 98.4641 137.59C98.4945 140.225 97.4144 142.293 95.5205 144.129C91.725 147.812 88.0627 151.632 84.347 155.395C83.7386 156.423 83.0122 157.291 81.7077 157.398C80.2245 157.988 78.6843 157.634 77.1706 157.672C75.2653 157.116 73.9951 155.985 73.7783 153.906C73.744 152.771 73.7098 151.636 73.6756 150.501C73.5159 149.271 74.3297 148.498 74.9991 147.652C77.2923 145.397 79.5361 143.101 81.8294 140.846C82.358 140.328 82.7878 139.65 83.6169 139.536L83.6207 139.532Z" fill="#FFCCBC"/>
<path d="M84.6824 123.538V126.955C83.6328 127.374 83.6936 128.482 83.2411 129.27C82.3436 130.257 81.4498 131.243 80.5523 132.23C80.3621 132.926 79.8715 133.414 79.3809 133.905C76.4031 136.88 73.4329 139.862 70.4551 142.833C69.7896 143.495 69.1354 144.204 68.0592 144.105C66.0169 144.866 64.1572 144.424 62.4002 143.267C61.5711 142.89 60.7382 142.513 60.7801 141.385C60.5253 140.498 60.2742 139.614 60.0194 138.727C59.6505 136.785 60.491 135.048 62.4078 133.806C64.0735 132.184 65.7317 130.55 67.4088 128.939C70.1242 126.33 72.8396 123.725 75.5779 121.139C77.6391 119.193 81.0885 119.246 83.2449 121.219C83.6822 122.019 83.6404 123.116 84.6863 123.538H84.6824Z" fill="#FFCCBC"/>
<path d="M89.7141 160.387C93.6122 156.708 97.4001 152.922 101.074 149.018C101.876 147.495 102.922 146.364 104.854 146.638H106.752C107.897 145.987 108.718 146.467 109.406 147.396C111.871 149.582 112.373 152.027 110.985 155.055C111.129 155.893 110.483 156.308 110.015 156.78C105.653 161.171 101.291 165.566 96.8791 169.916C95.7534 171.028 94.5022 172.041 92.7109 171.447C92.3344 171.413 91.9617 171.378 91.5852 171.344C90.3492 171.451 89.4212 171.024 88.9344 169.828C88.8165 169.71 88.6986 169.592 88.5807 169.474C87.455 168.945 86.9226 168.072 87.0557 166.819C87.0671 165.677 86.8047 164.508 87.3371 163.407C87.3562 161.792 88.4324 161.011 89.7141 160.391V160.387Z" fill="#FFCCBC"/>
<path d="M118.887 159.926C124.558 160.235 126.802 164.375 123.869 169.12C122.77 169.634 121.85 170.384 120.998 171.238C117.887 174.364 114.773 177.491 111.643 180.599C110.874 181.365 110.201 182.18 109.806 183.196C108.714 184.537 107.201 184.735 105.618 184.735C104.451 185.318 103.694 184.659 102.979 183.871L102.599 183.497C101.519 183.124 100.83 182.427 100.732 181.239C99.6362 178.112 100.979 175.755 103.15 173.686C107.341 169.695 111.608 165.788 115.529 161.522C116.237 160.117 117.302 159.469 118.891 159.922L118.887 159.926Z" fill="#FFCCBC"/>
<path d="M87.0628 80.6435C84.3703 83.5495 81.381 86.1583 78.6238 88.9804C74.8207 92.8728 71.0138 96.7651 67.2031 100.65C66.7658 101.095 66.2828 101.492 65.8188 101.91C64.2748 100.935 63.2327 99.3435 61.6012 98.4751C61.3654 97.6182 62.0614 97.2298 62.5101 96.7575C68.6825 90.2906 75.433 84.414 81.6473 77.989C82.058 77.5624 82.4573 76.9721 83.2255 77.2082C84.4805 78.3813 85.5112 79.8019 87.0628 80.6435Z" fill="black"/>
<path d="M68.0586 144.105C68.9181 143.713 69.5874 143.085 70.2492 142.422C73.6719 139.013 77.1175 135.624 80.5517 132.227C80.8141 132.364 81.0689 132.592 81.3466 132.626C83.6056 132.908 83.6018 132.897 83.6056 135.232C83.6056 136.664 83.6132 138.096 83.6208 139.528C80.9549 142.411 78.1824 145.187 75.2997 147.857C74.7748 148.101 74.2728 147.933 73.7708 147.784C73.6073 147.712 73.4704 147.602 73.3639 147.461C73.3183 143.957 73.786 144.486 70.2225 144.41C69.4962 144.395 68.7127 144.661 68.0586 144.105Z" fill="black"/>
<path d="M128.38 184.738C127.512 184.67 126.55 184.822 125.797 184.491C124.447 183.9 122.88 183.108 122.458 181.745C122.173 180.823 123.74 180.077 124.5 179.277C126.06 177.635 127.752 176.119 129.266 174.44C130.102 173.511 130.574 173.686 131.327 174.493C133.156 176.462 133.609 178.717 132.996 181.265C132.981 182.327 132.293 182.815 131.403 183.123C131.274 183.249 131.148 183.371 131.019 183.497C130.399 184.464 129.638 185.13 128.38 184.742V184.738Z" fill="#FFCCBC"/>
<path d="M83.2254 77.208C83.0657 77.307 82.8831 77.3832 82.7538 77.5127C75.8854 84.2462 69.0209 90.9835 62.1639 97.7284C61.9433 97.9455 61.7874 98.2235 61.5972 98.4749C58.4559 101.556 55.3145 104.637 52.1732 107.718C51.7701 108.114 51.386 108.533 50.9676 108.914C50.2907 109.524 49.4236 109.996 48.5869 109.71C47.5905 109.375 48.024 108.32 47.9556 107.547C48.3131 107.707 48.5831 108.111 49.0585 107.932C51.4278 106.271 53.6374 104.378 55.672 102.371C67.4616 90.7283 79.1409 78.9752 90.8239 67.222C91.3716 66.6698 92.5315 66.2546 91.9002 65.0473C91.7823 64.8112 91.6682 64.5789 91.5503 64.3427C91.8242 63.7715 92.2349 63.3754 92.889 63.6839C93.4899 63.9657 93.8436 64.4722 93.8436 65.1882C93.8436 66.3041 93.1895 67.0392 92.4707 67.7742C89.3788 70.9125 86.3059 74.0659 83.2216 77.2118L83.2254 77.208Z" fill="black"/>
<path d="M92.7138 171.447C94.3453 171.207 95.7106 170.552 96.901 169.325C101.556 164.53 106.287 159.808 110.988 155.055C112.273 155.854 112.494 157.256 111.288 158.201C107.093 161.487 104.013 165.856 100.149 169.459C99.1828 170.357 98.3613 171.45 96.8439 171.405C96.4028 171.39 96.2316 171.767 95.9654 172.029C94.5354 173.439 93.6607 173.271 92.71 171.447H92.7138Z" fill="black"/>
<path d="M109.801 183.199C109.645 182.243 110.033 181.546 110.714 180.872C114.247 177.387 117.742 173.868 121.241 170.353C121.971 169.618 122.754 169.027 123.865 169.119C119.286 173.918 114.597 178.613 109.801 183.195V183.199Z" fill="#FFCCBC"/>
<path d="M57.0293 116.364C58.0866 114.776 59.1438 115.732 60.0109 116.49C61.6196 117.895 63.1104 119.434 64.6507 120.919C63.1637 122.637 63.1561 122.644 61.5626 121.026C60.0413 119.483 58.5391 117.918 57.0293 116.364Z" fill="#FFCCBC"/>
<path d="M131.837 161.115C132.339 161.797 132.498 162.597 132.616 163.408C133.145 164.604 133.784 165.739 134.434 166.87C135.594 168.226 136.807 169.525 138.26 170.579C138.256 170.72 138.249 170.861 138.245 171.006C137.484 171.295 136.727 171.295 135.967 171.006C135.062 170.431 134.115 169.89 134.042 168.629C134.016 168.165 133.673 168.043 133.27 167.959C132.909 167.883 132.54 167.754 132.224 167.567C131.7 167.255 131.224 166.451 131.475 166.181C132.981 164.539 129.551 162.616 131.837 161.119V161.115Z" fill="black"/>
<path d="M93.9162 183.916C92.8247 182.457 93.3533 180.591 92.6992 179.022C92.9008 177.974 93.6158 178.047 94.2167 178.492C95.4907 179.433 95.0115 180.998 95.3157 182.274C95.5249 183.158 94.8404 183.752 93.9162 183.916Z" fill="black"/>
<path d="M174.271 46.8802C173.267 45.6501 172.145 45.5092 170.894 46.5032C170.886 46.1261 170.875 45.7491 170.875 45.372C170.883 43.5478 171.871 42.8698 173.621 43.4373C174.153 43.6125 174.279 43.9591 174.279 44.4275C174.279 45.2464 174.271 46.0652 174.267 46.884L174.271 46.8802Z" fill="black"/>
<path d="M73.7782 153.9C74.4741 155.549 75.8014 156.627 77.1705 157.667C75.8128 159.244 74.8164 158.052 73.8771 157.164C72.816 156.163 72.5688 155.024 73.7744 153.9H73.7782Z" fill="black"/>
<path d="M104.919 92.0203C106.018 91.906 106.254 92.7477 106.12 93.4485C105.869 94.8043 106.238 96.6096 104.162 96.979C103.481 95.1852 104.029 93.5741 104.919 92.0203Z" fill="#FFCCBC"/>
<path d="M62.4075 133.807C61.2742 135.284 60.2169 136.796 60.0192 138.727C59.4868 138.72 59.0722 138.651 58.9391 137.969C58.4447 135.421 59.7872 133.78 62.4037 133.81L62.4075 133.807Z" fill="black"/>
<path d="M88.5227 115.606C88.7851 115.956 89.0513 116.311 89.3137 116.661C88.8231 117.274 87.7165 117.198 87.667 116.92C87.2981 114.81 84.0046 116.299 84.0503 113.877C84.0503 113.671 84.2823 113.469 84.4078 113.264C84.8946 113.412 85.3814 113.561 85.872 113.709C87.1384 113.804 87.8686 114.658 88.5265 115.606H88.5227Z" fill="black"/>
<path d="M158.336 68.5182C157.001 67.3337 155.651 66.1645 154.624 64.6754C154.727 64.6754 154.833 64.6754 154.936 64.6754C156.583 64.2298 158.035 64.2641 158.731 66.195C158.868 67.0138 158.465 67.7413 158.336 68.5182Z" fill="black"/>
<path d="M128.74 155.858C129.003 156.208 129.269 156.562 129.532 156.913C128.223 157.682 127.345 157.556 127.238 155.812C126.542 155.317 125.664 155.907 124.96 155.431C124.143 154.917 123.861 154.308 124.622 153.512C125.109 153.66 125.595 153.809 126.086 153.957C127.352 154.053 128.083 154.906 128.74 155.854V155.858Z" fill="black"/>
<path d="M104.853 146.638C103.298 146.962 102.218 148.043 101.073 149.018C101.069 148.877 101.061 148.74 101.058 148.599C100.772 147.967 100.772 147.335 101.058 146.703C102.731 145.213 103.978 145.194 104.853 146.638Z" fill="black"/>
<path d="M118.886 159.927C117.574 160.06 116.525 160.745 115.525 161.526C114.616 161.431 114.665 160.768 114.768 160.147C114.878 159.481 115.327 159.009 115.985 158.913C117.107 158.75 118.236 158.689 118.886 159.93V159.927Z" fill="black"/>
<path d="M109.406 139.426C109.406 138.767 109.539 137.899 110.289 138.081C111.494 138.371 112.951 138.477 113.514 139.936C113.639 140.268 113.552 140.679 113.563 141.052C112.567 140.652 111.57 140.252 110.578 139.856C110.232 139.59 109.653 139.959 109.406 139.426Z" fill="#FFCCBC"/>
<path d="M168.235 68.0527C169.357 68.9592 170.369 69.9722 171.27 71.0958C170.681 72.6611 169.692 71.8232 168.836 71.4652C168.228 71.21 168.114 70.5245 167.84 69.9951C167.79 69.3096 167.878 68.6545 168.239 68.0565L168.235 68.0527Z" fill="black"/>
<path d="M164.489 63.9162C165.28 63.958 166.178 63.779 166.843 64.0913C168.251 64.7578 168.338 66.0261 167.821 67.3743C166.627 66.3003 165.364 65.2949 164.489 63.9123V63.9162Z" fill="#479CF5"/>
<path d="M114.004 141.748C115.278 142.034 115.826 143.169 116.632 143.999C116.198 145.347 115.221 144.882 114.532 144.452C113.521 143.816 113.16 142.849 114 141.748H114.004Z" fill="black"/>
<path d="M53.1927 134.169C53.573 133.411 53.9533 132.649 54.3336 131.892C54.2728 131.294 54.5504 131.035 55.1399 131.092C55.1741 131.275 55.1703 131.476 55.254 131.636C56.3873 133.861 55.8853 134.725 53.322 134.931C53.0596 134.714 53.0292 134.458 53.1965 134.169H53.1927Z" fill="black"/>
<path d="M99.974 85.5844C100.712 84.9294 101.446 84.2781 102.184 83.623C102.716 84.4647 102.564 85.4054 102.579 86.3233C101.678 86.7422 100.761 88.041 99.9018 86.27C99.7116 86.0186 99.685 85.7863 99.974 85.5844Z" fill="black"/>
<path d="M87.0208 177.395C85.6517 177.167 84.7655 176.257 83.9707 175.224C84.1723 174.067 85.0698 174.413 85.7429 174.486C86.4123 174.554 86.8687 175.042 86.9713 175.72C87.055 176.268 87.0094 176.839 87.0246 177.399L87.0208 177.395Z" fill="black"/>
<path d="M137.865 68.411C136.693 68.251 135.632 69.0622 134.449 68.7918C134.381 67.6759 134.643 66.7619 135.936 66.5943C137.283 66.4229 137.625 67.3751 137.865 68.411Z" fill="black"/>
<path d="M82.0736 173.32C81.0734 172.227 80.2634 171.046 80.252 169.484C83.0016 169.983 83.0891 170.17 82.0736 173.32Z" fill="black"/>
<path d="M89.7133 160.387C88.9679 161.431 87.8231 162.158 87.3363 163.403C86.2715 162.581 86.3856 161.537 87.0359 160.619C87.7509 159.614 88.7701 159.922 89.7133 160.383V160.387Z" fill="black"/>
<path d="M60.8255 150.921C60.0877 150.647 59.3499 150.373 58.6121 150.103C58.3611 149.935 58.0036 149.836 58.171 149.406C58.3459 148.168 59.1141 147.993 60.0801 148.442C61.1944 148.96 61.4568 149.832 60.8255 150.921Z" fill="black"/>
<path d="M98.0916 136.826C97.5478 135.947 97.0077 135.067 96.4639 134.183C98.7876 133.669 99.3808 134.103 99.5406 136.446C99.1717 137.013 98.7305 137.31 98.0878 136.826H98.0916Z" fill="black"/>
<path d="M81.7119 157.396C82.5904 156.729 83.4727 156.059 84.3513 155.393C84.6251 156.402 85.0738 157.472 83.815 158.146C82.8909 158.641 82.0124 158.767 81.7119 157.396Z" fill="black"/>
<path d="M161.808 72.2573C158.793 72.2877 158.336 71.8307 158.367 68.8105C159.515 69.9607 160.66 71.1071 161.808 72.2573Z" fill="#FFCCBC"/>
<path d="M98.7734 126.983C99.2907 126.202 99.903 125.68 100.918 126.133C102.257 126.727 101.702 127.916 101.804 128.902C101.496 129.058 101.238 128.925 100.983 128.757C100.877 128.658 100.781 128.548 100.702 128.422C100.348 127.558 99.264 127.668 98.7772 126.979L98.7734 126.983Z" fill="#FFCCBC"/>
<path d="M90.8312 119.318C91.9075 120.225 91.9417 121.562 92.2688 122.777C91.5005 122.735 90.6144 123.013 90.2379 121.973C89.8728 120.96 89.9413 120.05 90.8312 119.318Z" fill="black"/>
<path d="M172.755 82.9483C171.351 82.5065 170.64 81.2725 169.72 80.2785C169.872 79.1131 170.754 79.6082 171.393 79.5396C172.142 79.7529 172.705 80.1452 172.77 81.0021V82.1409C172.766 82.4075 172.758 82.6779 172.755 82.9445V82.9483Z" fill="black"/>
<path d="M104.538 132.642C104.675 133.427 105.489 134.021 105.173 134.927C103.002 134.851 102.526 134.063 103.34 131.888C103.462 131.659 103.576 131.423 103.884 131.4C104.47 131.617 104.66 132.044 104.542 132.638L104.538 132.642Z" fill="black"/>
<path d="M69.1727 116.663L70.3441 115.231C70.7206 114.675 71.158 114.218 71.9186 114.324C72.5879 114.77 73.5159 114.564 74.1206 115.189C73.2649 115.832 71.8349 115.337 71.3025 116.834C71.1313 117.314 69.8535 117.36 69.1689 116.663H69.1727Z" fill="black"/>
<path d="M168.582 49.0663C167.841 49.7176 167.095 50.3689 166.354 51.0201C165.677 50.4984 166.038 49.7557 165.943 49.1082C166.122 48.5255 166.498 48.1447 167.08 47.9695C167.765 47.92 168.419 48.0114 169.023 48.3656C169.134 48.7617 168.944 48.9673 168.582 49.0663Z" fill="black"/>
<path d="M25.499 94.7006C25.499 94.5749 25.499 94.453 25.5028 94.3273C25.5218 94.1902 25.5371 94.0531 25.5561 93.916C27.7923 94.3045 28.1041 94.8796 27.4348 97.378C26.6856 96.7001 25.712 96.2126 25.499 95.0814C25.499 94.9519 25.499 94.8263 25.499 94.6968V94.7006Z" fill="black"/>
<path d="M118.45 147.842C119.058 148.901 119.457 150.009 119.21 151.258C118.267 151.376 117.556 151.056 117.442 150.055C117.343 149.163 117.035 148.082 118.45 147.842Z" fill="black"/>
<path d="M92.3992 123.536C93.9585 123.46 94.9701 124.027 94.9929 125.753C94.7838 126.053 94.5214 126.015 94.2399 125.878C92.4144 126.05 92.1064 125.029 92.3992 123.536Z" fill="#FFCCBC"/>
<path d="M162.132 55.1425C161.383 55.8014 160.638 56.4603 159.888 57.1192C158.694 55.7443 159.261 54.7959 160.63 54.0457C161.315 53.9961 161.969 54.0875 162.573 54.4417C162.684 54.8378 162.49 55.0435 162.132 55.1425Z" fill="black"/>
<path d="M119.667 152.353C119.792 152.406 119.914 152.399 120.032 152.334C121.021 151.725 121.873 152.09 122.687 152.715C122.972 152.818 123.375 152.707 123.481 153.141C123.059 153.412 122.656 153.728 122.211 153.949C120.675 154.718 119.827 154.177 119.667 152.353Z" fill="black"/>
<path d="M88.934 169.824C89.6718 170.586 90.6911 170.853 91.5848 171.34C91.4136 172.582 90.6378 172.749 89.6794 172.3C88.5689 171.782 88.3027 170.913 88.934 169.824Z" fill="black"/>
<path d="M109.405 139.424C109.782 139.599 110.345 139.275 110.577 139.854C109.85 140.551 109.162 141.302 107.972 140.852C107.139 140.536 107.085 139.892 107.127 139.173C107.907 139.055 108.679 139.02 109.405 139.424Z" fill="black"/>
<path d="M127.615 70.6905C126.611 71.2313 125.607 71.7721 124.603 72.3091C124.051 71.4293 124.192 70.6638 124.968 69.9935C125.599 69.7079 126.234 69.7079 126.866 69.9935C127.117 70.2258 127.368 70.4582 127.619 70.6905H127.615Z" fill="black"/>
<path d="M73.7406 147.461C74.3111 147.397 74.8131 147.602 75.2999 147.861C74.7599 148.741 74.2198 149.621 73.6798 150.5C72.459 150.36 72.6187 149.43 72.6035 148.604C72.7823 148.021 73.1588 147.64 73.7406 147.465V147.461Z" fill="black"/>
<path d="M142.025 171.348C143.037 170.841 144.049 170.335 145.06 169.824C145.376 170.468 145.349 171.115 145.075 171.763L144.695 172.144C144.064 172.425 143.429 172.429 142.797 172.144C142.421 171.995 142.162 171.728 142.025 171.348Z" fill="black"/>
<path d="M109.406 147.395C108.55 147.045 107.725 146.569 106.751 146.637C106.645 145.636 106.953 145.095 108.101 145.171C109.702 145.278 109.352 146.436 109.409 147.395H109.406Z" fill="black"/>
<path d="M52.9374 141.385C53.1314 140.486 51.8422 139.644 52.8272 138.711C53.7817 138.681 54.413 138.993 54.3902 140.097C54.3712 141.088 53.8312 141.423 52.9336 141.385H52.9374Z" fill="black"/>
<path d="M145.14 169.485C145.645 168.475 146.155 167.466 146.661 166.453C147.528 167.386 148.133 168.342 146.969 169.485C146.463 169.485 145.957 169.485 145.452 169.485C145.345 169.671 145.242 169.664 145.14 169.485Z" fill="black"/>
<path d="M102.579 69.5488C101.625 69.8992 100.83 69.1337 99.9246 69.168C99.8752 68.1701 100.316 67.6788 101.347 67.7169C102.617 67.7626 102.594 68.6538 102.579 69.5488Z" fill="black"/>
<path d="M56.6533 147.883C55.7253 147.14 54.7745 146.413 54.4551 145.175C56.2768 144.589 56.6114 144.794 56.6647 146.565C56.6799 147.003 56.6571 147.441 56.6533 147.879V147.883Z" fill="black"/>
<path d="M74.1215 115.183C73.3533 114.932 72.1895 115.804 71.832 114.38C71.8739 113.313 72.8246 113.58 73.4065 113.302C73.7716 113.192 74.1367 113.081 74.5018 112.967C74.5132 113.729 74.5626 114.498 74.1215 115.183Z" fill="black"/>
<path d="M168.581 49.067C168.729 48.8346 168.874 48.5985 169.022 48.3662C169.638 47.8444 170.251 47.3265 170.867 46.8047C170.855 47.4217 170.95 48.0653 170.81 48.6518C170.521 49.8744 169.627 50.0153 168.581 49.067Z" fill="#479CF5"/>
<path d="M131.399 183.12C131.932 182.499 132.46 181.883 132.993 181.262C134.054 181.97 133.849 182.903 133.164 183.604C132.518 184.27 131.822 183.905 131.399 183.116V183.12Z" fill="black"/>
<path d="M162.133 55.14C162.281 54.9076 162.426 54.6715 162.574 54.4392C163.259 54.1535 163.517 53.2052 164.411 53.2433C164.453 54.2373 164.586 55.2999 163.445 55.8141C162.81 56.1035 162.399 55.7036 162.133 55.14Z" fill="#479CF5"/>
<path d="M105.55 136.07C105.675 137.083 106.151 138.039 106.037 139.094C105.371 139.151 104.778 139.06 104.474 138.352C104.188 137.719 104.188 137.087 104.474 136.451C104.721 136.013 105.151 136.082 105.55 136.07Z" fill="black"/>
<path d="M128.38 184.74C129.258 184.324 130.141 183.909 131.019 183.494C130.936 184.313 131.415 185.391 130.217 185.734C129.388 185.97 128.543 185.901 128.38 184.74Z" fill="black"/>
<path d="M100.723 181.242C101.347 181.996 101.971 182.747 102.59 183.501C101.959 184.144 101.172 184.137 100.659 183.55C100.073 182.88 100.046 181.996 100.719 181.242H100.723Z" fill="black"/>
<path d="M149.232 66.1523C149.216 66.876 149.441 67.7443 148.46 68.0147C147.707 68.2242 146.961 68.1671 146.577 67.2949C147.361 66.6741 148.201 66.1942 149.236 66.1523H149.232Z" fill="#FFCCBC"/>
<path d="M104.032 96.9316C103.918 97.9447 104.819 98.6302 104.88 99.5862C104.812 99.6509 104.747 99.7157 104.678 99.7804C104.222 99.7842 103.754 99.9175 103.336 99.6129C103.21 99.4872 103.081 99.3615 102.956 99.232C102.674 98.5998 102.67 97.9676 102.956 97.3315C103.203 96.8936 103.636 96.9659 104.032 96.9316Z" fill="black"/>
<path d="M101.062 128.535C101.31 128.657 101.557 128.779 101.804 128.901C102.181 129.282 102.557 129.662 102.937 130.043C103.352 130.386 103.698 130.744 103.207 131.285C102.618 131.27 102.006 131.479 101.443 131.133C101.317 131.007 101.188 130.881 101.062 130.752C100.773 130.013 100.773 129.274 101.062 128.535Z" fill="black"/>
<path d="M87.0556 166.816C87.55 167.711 87.82 168.732 88.5806 169.471C87.7706 169.391 86.7285 169.852 86.352 168.702C86.1124 167.963 86.1885 167.205 87.0556 166.816Z" fill="black"/>
<path d="M102.975 183.873C103.919 183.964 104.611 184.829 105.615 184.737C105.497 185.773 104.767 185.899 103.957 185.781C102.785 185.61 102.979 184.677 102.972 183.869L102.975 183.873Z" fill="black"/>
<path d="M117.438 145.176C118.313 144.605 119.043 145.024 119.462 145.721C119.975 146.581 119.154 147.008 118.579 147.453C118.199 146.695 117.819 145.938 117.438 145.176Z" fill="#FFCCBC"/>
<path d="M108.268 73.0302C106.507 73.4835 106.333 72.398 106.386 71.0879C107.249 71.2593 107.991 71.6782 108.664 72.2305C108.903 72.6799 108.573 72.8474 108.268 73.0302Z" fill="#FFCCBC"/>
<path d="M94.2354 125.878C94.4864 125.836 94.7374 125.794 94.9884 125.752C95.8098 125.881 96.6313 126.007 97.3082 126.556C95.4561 127.732 95.3154 127.702 94.2354 125.878Z" fill="black"/>
<path d="M167.837 69.9941C168.788 70.9691 169.529 72.584 171.267 71.0986C171.518 71.35 171.773 71.6013 172.024 71.8527C169.776 72.7896 168.286 72.1269 167.833 69.9979L167.837 69.9941Z" fill="black"/>
<path d="M60.7795 141.385C61.3195 142.013 61.8595 142.638 62.3996 143.266C61.5667 143.796 60.8137 143.738 60.3117 142.847C59.9846 142.268 59.8325 141.613 60.7833 141.385H60.7795Z" fill="black"/>
<path d="M108.27 73.0303C108.403 72.7637 108.532 72.4971 108.665 72.2305C108.943 72.3066 109.323 72.1848 109.422 72.6113C109.673 73.1369 110.057 73.5292 110.589 73.7691C111.209 73.792 111.662 73.8986 110.97 74.5575C109.627 74.8279 108.954 73.9138 108.27 73.0226V73.0303Z" fill="#FFCCBC"/>
<path d="M172.769 81.0051C172.388 80.6243 172.008 80.2472 171.632 79.8664C170.936 79.356 170.053 79.9844 169.354 79.4855C170.415 78.4115 171.521 79.0513 172.529 79.516C173.062 79.7597 173.472 80.3843 172.769 81.0051Z" fill="black"/>
<path d="M96.4906 187.755C95.6311 187.18 94.9428 186.468 94.6689 185.432C96.5515 185.204 96.6047 186.411 96.4906 187.755Z" fill="black"/>
<path d="M120.012 189.666C119.335 189.213 118.495 188.966 118.118 188.139C119.734 187.515 119.906 187.655 120.012 189.666Z" fill="black"/>
<path d="M158.732 66.1972C157.842 64.7575 156.462 64.5328 154.937 64.6776C156.891 63.6074 158.306 64.1748 158.732 66.1972Z" fill="black"/>
<path d="M111.722 190.765C111.217 191.702 110.285 191.702 109.406 191.827C109.406 189.782 110.688 190.551 111.722 190.765Z" fill="black"/>
<path d="M83.2406 129.27C83.271 128.219 82.8869 126.905 84.682 126.954C84.2636 127.766 84.1381 128.76 83.2406 129.27Z" fill="#FFCCBC"/>
<path d="M160.63 54.0449C159.66 54.8942 159.09 55.8426 159.888 57.1184C159.771 57.2403 159.653 57.3584 159.535 57.4802C158.702 55.4731 158.995 54.5515 160.63 54.0449Z" fill="black"/>
<path d="M84.6826 123.538C82.8837 123.584 83.2717 122.274 83.2412 121.219C84.1388 121.733 84.2643 122.727 84.6826 123.538Z" fill="#FFCCBC"/>
<path d="M115.901 187.729C115.395 188.235 114.889 188.742 114.384 189.248C113.878 187.904 113.992 187.789 115.901 187.729Z" fill="black"/>
<path d="M124.584 191.826C123.994 192.036 123.515 191.796 123.066 191.445C123.108 191.061 123.2 190.558 123.625 190.611C124.234 190.688 124.527 191.213 124.584 191.826Z" fill="black"/>
<path d="M169.358 79.4862C170.118 79.6119 170.97 79.1778 171.636 79.8671C170.989 79.9623 170.244 79.6005 169.723 80.2822C169.396 80.1032 169.054 79.9395 169.046 79.49C169.149 79.49 169.255 79.49 169.358 79.49V79.4862Z" fill="black"/>
<path d="M98.0918 136.826C98.6242 136.887 99.092 136.689 99.5446 136.445C99.518 137.138 99.1719 137.531 98.4683 137.584C98.3428 137.333 98.2173 137.078 98.0918 136.826Z" fill="black"/>
<path d="M101.438 131.133C102.089 131.125 102.739 131.122 103.389 131.114C103.671 131.072 103.796 131.183 103.732 131.472C103.602 131.613 103.469 131.75 103.34 131.891C102.895 131.167 101.887 131.857 101.442 131.133H101.438Z" fill="black"/>
<path d="M101.062 128.536C101.062 129.275 101.062 130.014 101.062 130.753C100.37 130.063 100.8 129.203 100.701 128.426C100.826 128.449 100.944 128.487 101.062 128.536Z" fill="black"/>
<path d="M145.139 169.484C145.242 169.484 145.349 169.484 145.451 169.484C145.326 170.242 145.763 171.095 145.071 171.762C145.067 171.114 145.059 170.467 145.056 169.823C145.056 169.705 145.082 169.591 145.136 169.484H145.139Z" fill="black"/>
<path d="M124.965 155.435C125.725 155.561 126.577 155.123 127.243 155.816C126.482 155.69 125.63 156.128 124.965 155.435Z" fill="black"/>
<path d="M135.967 171.006H138.245C137.484 171.581 136.727 171.581 135.967 171.006Z" fill="black"/>
<path d="M104.473 136.449V138.35C103.91 137.717 103.91 137.085 104.473 136.449Z" fill="black"/>
<path d="M102.955 97.3359V99.2364C102.32 98.707 102.67 97.9758 102.575 97.3359H102.955Z" fill="black"/>
<path d="M142.797 172.145H144.695C144.063 172.708 143.428 172.708 142.797 172.145Z" fill="black"/>
<path d="M110.588 73.7769C109.82 73.7731 109.432 73.3847 109.421 72.6191C109.809 73.0038 110.201 73.3923 110.588 73.7769Z" fill="#FFCCBC"/>
<path d="M126.863 69.995H124.965C125.596 69.4313 126.231 69.4313 126.863 69.995Z" fill="black"/>
<path d="M101.063 146.703C101.063 147.335 101.063 147.968 101.063 148.6C100.5 147.968 100.5 147.335 101.063 146.703Z" fill="black"/>
<path d="M149.627 58.9806C150.007 58.5997 150.388 58.2227 150.764 57.8418C150.848 58.6873 150.467 59.0643 149.627 58.9806Z" fill="black"/>
<path d="M73.7412 147.461L72.6041 148.6C72.6003 148.047 72.5927 147.495 73.3647 147.461H73.745H73.7412Z" fill="black"/>
<path d="M167.08 47.9704C166.7 48.3513 166.319 48.7283 165.943 49.1092C165.859 48.2637 166.24 47.8866 167.08 47.9704Z" fill="black"/>
<path d="M166.699 43.0333C167.08 42.6524 167.46 42.2754 167.836 41.8945C167.92 42.74 167.54 43.1171 166.699 43.0333Z" fill="black"/>
<path d="M138.245 81.3224C136.838 81.4937 135.723 82.1831 134.734 83.1771C129.053 88.8861 123.356 94.5837 117.655 100.277C117.217 100.715 116.734 101.112 116.27 101.527C114.951 101.222 115.719 100.403 115.928 99.8357C116.096 99.3863 116.582 99.0854 116.94 98.7274C121.971 93.6887 127.06 88.7033 132.004 83.5808C133.388 82.145 135.008 81.1891 136.678 80.2674C137.541 79.7913 138.42 79.9284 138.245 81.3224Z" fill="#FFCCBC"/>
<path d="M138.245 81.3211C138.161 80.6775 137.587 79.9691 137.206 80.3614C136.164 81.4354 134.605 81.344 133.555 82.418C128.037 88.0546 122.428 93.5999 116.864 99.187C116.225 99.8268 115.27 100.444 116.274 101.525C115.498 102.516 114.422 102.919 113.22 103.072C112.802 101.876 113.205 100.958 114.433 100.836C115.647 100.718 115.597 99.6326 116.179 99.0575C121.983 93.3218 127.74 87.5367 133.502 81.7591C134.422 80.8336 135.689 80.5289 136.792 79.9805C137.735 79.5121 138.682 79.9462 138.625 81.3211C138.499 81.3211 138.37 81.3211 138.245 81.3211Z" fill="#FFCCBC"/>
<path d="M169.342 121.304C170.791 118.733 173.019 116.886 175.29 115.119C175.963 114.594 176.94 114.491 177.724 115.222C175.663 117.328 173.54 119.385 171.559 121.567C170.544 122.687 169.962 122.393 169.342 121.3V121.304Z" fill="#FFCCBC"/>
<path d="M142.416 88.9807C141.42 89.8338 140.127 90.466 140.123 92.0618C139.53 91.5248 138.933 90.9916 138.256 90.3823C139.697 88.596 141.903 87.3659 142.097 84.8027C143.158 84.9932 143.592 85.6635 143.55 86.7032C142.949 87.3507 142.572 88.1124 142.413 88.9807H142.416Z" fill="#FFCCBC"/>
<path d="M173.595 139.108C173.481 137.257 172.743 135.658 171.617 134.214C172.519 133.51 173.819 133.414 174.283 134.207C175.017 135.46 175.957 136.911 175.253 138.552C174.949 139.264 174.203 139.082 173.595 139.112V139.108Z" fill="black"/>
<path d="M127.254 143.617C127.201 144.124 126.988 144.474 126.414 144.333C125.68 144.15 125.106 143.655 125.06 142.935C124.984 141.793 124.973 140.608 125.197 139.496C125.562 137.679 126.958 137.672 128.418 137.98C126.041 140.749 125.942 141.229 127.258 143.617H127.254Z" fill="#FFCCBC"/>
<path d="M187.932 98.8972C186.362 97.4424 184.719 96.0599 183.464 94.2965C183.567 94.2965 183.673 94.2965 183.776 94.2965C184.962 93.988 186.126 93.9004 187.191 94.6774C188.347 95.9228 187.86 97.4614 187.932 98.8972Z" fill="black"/>
<path d="M159.155 155.07C159.417 154.56 159.676 154.053 159.938 153.543C160.995 155.036 160.719 156.553 159.109 158.094C158.478 158.38 157.843 158.38 157.211 158.094C156.919 157.953 156.842 157.694 156.831 157.397C157.173 156.194 158.143 155.615 159.151 155.07H159.155Z" fill="black"/>
<path d="M108.269 102.589C108.779 102.848 109.289 103.107 109.802 103.366C109.787 103.69 109.726 103.994 109.41 104.17C108.779 104.455 108.144 104.455 107.513 104.17C106.817 103.815 106.497 103.031 105.539 102.882C104.531 102.726 104.398 101.69 104.474 100.753C104.835 100.464 104.497 99.9612 104.809 99.6603L104.881 99.5918C105.018 99.7251 105.158 99.8622 105.295 99.9955C106.425 100.704 107.414 101.572 108.269 102.589Z" fill="black"/>
<path d="M120.773 107.924C120.72 108.651 121.073 109.531 120.32 110.022C119.343 110.662 118.32 111.332 117.221 111.656C116.495 111.869 115.783 111.306 115.856 110.308C116.137 109.577 116.871 109.725 117.415 109.504C118.712 109.36 119.56 108.259 120.773 107.924Z" fill="#FFCCBC"/>
<path d="M96.4489 96.573C96.0268 96.5349 95.4335 96.7329 95.2281 96.3216C94.4827 94.8401 95.5096 93.3205 95.2281 91.7476C95.076 90.9021 96.2474 90.4793 97.2057 90.4945C97.2362 91.679 96.1941 92.6616 96.5744 93.9108C97.0993 94.821 96.9091 95.7008 96.4527 96.5692L96.4489 96.573Z" fill="#FFCCBC"/>
<path d="M100.317 106.027C99.56 105.014 98.7994 104.001 98.0426 102.988C97.9247 102.809 97.9247 102.63 98.0502 102.455C98.6321 101.967 99.2634 101.96 99.9213 102.268C100.283 103.019 100.61 103.792 101.439 104.169C101.72 104.801 101.724 105.433 101.439 106.069C101.435 106.336 101.427 106.606 101.424 106.873C100.709 107.044 100.606 106.416 100.317 106.027Z" fill="black"/>
<path d="M182.653 82.8633C183.897 83.8992 185.038 85.038 186.065 86.2872C185.73 87.6506 184.794 87.1365 184.041 86.8661C183.094 86.5271 182.604 85.7045 182.254 84.8018C182.204 84.1163 182.292 83.4612 182.653 82.8633Z" fill="black"/>
<path d="M159.154 155.07C158.503 155.968 157.705 156.715 156.834 157.397C156.233 157.724 155.598 157.793 154.936 157.648C154.681 155.721 155.678 155.009 157.454 155.051C158.02 155.066 158.587 155.062 159.154 155.07Z" fill="#FFCCBC"/>
<path d="M149.989 155.482C152.613 154.389 153.401 154.887 153.42 157.652C153.047 157.66 152.67 157.664 152.298 157.671C151.005 157.496 150.164 156.841 149.989 155.482Z" fill="#FFCCBC"/>
<path d="M144.333 161.084L144.002 160.371C144.778 160.238 145.5 159.743 146.348 160.253C147.63 161.023 147.626 162.119 146.276 163.411C145.253 162.95 144.774 162.036 144.337 161.084H144.333Z" fill="black"/>
<path d="M159.934 150.5C159.527 149.753 159.124 149.011 158.717 148.264C159.128 147.415 159.793 147.259 160.565 147.681C161.227 148.043 161.455 148.675 161.379 149.426C161.288 150.321 160.698 150.523 159.934 150.5Z" fill="black"/>
<path d="M117.419 109.503C117.009 109.983 116.453 110.185 115.86 110.307C115.259 110.615 114.624 110.703 113.962 110.554C113.962 109.838 113.864 109.084 114.723 108.723C115.354 108.437 115.989 108.441 116.621 108.723C116.773 109.1 117.039 109.359 117.423 109.5L117.419 109.503Z" fill="black"/>
<path d="M98.0881 102.646C98.0273 102.757 98.0121 102.871 98.0425 102.989C97.0271 103.831 96.4224 103.096 96.0154 102.33C95.5134 101.39 95.8633 100.662 96.932 100.357C97.1906 100.868 97.4492 101.378 97.7078 101.892C97.8942 102.113 98.2288 102.258 98.0881 102.646Z" fill="#FFCCBC"/>
<path d="M144.334 161.084C145.25 161.632 145.79 162.497 146.273 163.411C146.357 163.666 146.441 163.918 146.524 164.173C143.988 163.975 143.539 163.339 144.334 161.088V161.084Z" fill="#FFCCBC"/>
<path d="M194.086 94.2974C195.573 93.6309 196.489 94.6516 197.474 95.4552C196.105 97.0014 196.067 96.9862 194.086 94.2974Z" fill="#479CF5"/>
<path d="M149.989 155.48C150.575 156.402 151.434 157.038 152.298 157.67C152.165 157.811 152.035 157.952 151.902 158.093C151.271 158.378 150.636 158.378 150.004 158.093C149.879 157.967 149.75 157.841 149.624 157.712C149.339 157.08 149.339 156.447 149.624 155.811C149.628 155.671 149.635 155.53 149.639 155.389C149.757 155.419 149.871 155.446 149.989 155.476V155.48Z" fill="black"/>
<path d="M96.4494 96.574C95.8485 95.66 96.7385 94.8107 96.5711 93.9157C97.3508 93.8928 97.906 94.1061 98.0239 95.0163C98.176 96.1741 97.3812 96.5436 96.5749 96.9435C96.5331 96.8216 96.4913 96.6959 96.4494 96.574Z" fill="black"/>
<path d="M173.909 86.7028C173.784 86.5771 173.655 86.4514 173.529 86.322C173.014 85.413 173.028 84.7744 173.571 84.4062C174.56 85.1794 175.442 86.063 176.214 87.057L176.108 87.1256C175.279 87.4797 174.575 87.1903 173.906 86.7028H173.909Z" fill="#FFCCBC"/>
<path d="M110.167 111.07C110.282 112.144 109.498 112.338 108.768 112.281C107.832 112.205 107.41 111.542 107.528 110.586C108.407 110.75 109.289 110.91 110.167 111.073V111.07Z" fill="#FFCCBC"/>
<path d="M182.258 84.8027C183.345 85.7701 183.988 87.8762 186.068 86.2881C186.323 86.5394 186.574 86.7908 186.829 87.0383C184.513 88.0057 182.745 87.1412 182.258 84.8027Z" fill="black"/>
<path d="M100.317 106.027C100.686 106.309 101.055 106.591 101.424 106.873C101.682 107.132 101.941 107.391 102.199 107.65C101.979 108.59 101.348 108.423 100.751 108.137C99.7161 107.642 100.153 106.797 100.321 106.027H100.317Z" fill="#FFCCBC"/>
<path d="M99.9742 85.5835C99.9514 85.812 99.9248 86.0405 99.902 86.269C99.1794 86.5966 98.9284 87.3545 98.4226 87.88C98.0841 87.1983 97.8027 86.5356 98.3617 85.812C98.8447 85.1874 99.3733 85.2217 99.9742 85.5835Z" fill="#FFCCBC"/>
<path d="M171.948 142.501C171.271 142.436 171.164 141.971 171.312 141.457C171.56 140.593 172.183 140.193 173.085 140.242C173.355 140.703 172.815 140.985 172.83 141.389C172.974 142.036 172.518 142.291 172.073 142.55L171.948 142.501Z" fill="#FFCCBC"/>
<path d="M172.077 142.55C172.035 141.971 172.724 141.869 172.834 141.389C173.191 141.636 173.629 141.876 173.343 142.409C173.009 143.038 172.53 142.779 172.077 142.55Z" fill="black"/>
<path d="M187.191 94.6779C186.08 94.3008 184.935 94.2437 183.775 94.297C184.989 93.76 186.175 93.4363 187.191 94.6779Z" fill="black"/>
<path d="M173.572 84.4076C172.682 85.0284 173.625 85.6873 173.53 86.3233C172.332 85.6835 172.902 84.5599 172.788 83.623C173.051 83.8858 173.309 84.1448 173.572 84.4076Z" fill="#FFCCBC"/>
<path d="M98.0883 102.645C97.9628 102.393 97.8335 102.142 97.708 101.89C98.4458 102.012 99.2787 101.586 99.9214 102.271C99.2787 102.245 98.6436 102.252 98.0883 102.645Z" fill="black"/>
<path d="M104.809 99.659C104.854 100.07 104.911 100.489 104.474 100.752C104.546 99.9218 103.596 100.112 103.337 99.6133C103.828 99.6285 104.318 99.6437 104.809 99.659Z" fill="black"/>
<path d="M101.438 106.068V104.168C102.001 104.8 102.001 105.432 101.438 106.068Z" fill="black"/>
<path d="M157.215 158.094H159.113C158.481 158.657 157.846 158.657 157.215 158.094Z" fill="black"/>
<path d="M150.004 158.094H151.902C151.27 158.657 150.635 158.657 150.004 158.094Z" fill="black"/>
<path d="M107.513 104.168H109.41C108.779 104.732 108.144 104.732 107.513 104.168Z" fill="black"/>
<path d="M116.616 108.728H114.719C115.35 108.172 115.985 108.172 116.616 108.728Z" fill="black"/>
<path d="M149.627 155.816V157.717C149.064 157.085 149.064 156.452 149.627 155.816Z" fill="black"/>
<path d="M88.5237 115.606C87.6376 114.973 86.7553 114.341 85.8691 113.709C85.9566 112.73 86.5385 112.38 87.4284 112.601C88.2917 112.818 88.8698 113.393 88.847 114.341C88.8355 114.764 88.6378 115.187 88.5237 115.606Z" fill="#FFCCBC"/>
<path d="M128.741 155.859C127.68 155.474 127.022 154.526 126.087 153.962C126.209 152.869 126.874 152.584 127.81 152.915C128.627 153.208 129.217 153.726 128.92 154.758C128.818 155.113 128.799 155.494 128.741 155.859Z" fill="#FFCCBC"/>
<path d="M73.4054 113.302C72.8806 113.66 72.3558 114.018 71.8309 114.38C71.2871 114.578 71.0627 115.34 70.3439 115.229C69.8039 114.353 69.9066 113.572 70.7242 112.936C71.7321 112.152 72.5763 112.689 73.4054 113.306V113.302Z" fill="#FFCCBC"/>
<path d="M134.434 166.872C133.281 166.004 132.293 165.055 132.616 163.41C134.829 163.86 135.103 164.378 134.434 166.872Z" fill="#FFCCBC"/>
<path d="M103.732 131.474C103.618 131.356 103.504 131.234 103.39 131.116C103.238 130.758 102.838 130.507 102.933 130.046C103.717 129.692 104.527 129.326 105.158 130.259C105.839 131.261 105.371 132.015 104.534 132.643C104.264 132.255 103.998 131.862 103.728 131.474H103.732Z" fill="#FFCCBC"/>
<path d="M122.686 152.713C121.746 152.953 120.955 152.165 120.031 152.332C120.172 151.525 120.609 150.866 121.45 150.965C122.351 151.068 122.728 151.803 122.686 152.713Z" fill="#FFCCBC"/>
<path d="M108.269 102.588C106.919 102.135 106.033 101.149 105.295 99.9948C107.737 99.3435 108.254 99.7967 108.269 102.588Z" fill="#FFCCBC"/>
<path d="M142.417 88.9806C142.314 87.979 142.569 87.1563 143.554 86.7031C143.173 87.461 142.793 88.2227 142.417 88.9806Z" fill="#FFCCBC"/>
<path d="M173.91 86.7031C174.644 86.844 175.378 86.985 176.112 87.1259C175.23 87.7581 174.496 87.621 173.91 86.7031Z" fill="#FFCCBC"/>
<path d="M45.6018 92.4002C45.7273 92.145 45.8566 91.8936 45.9821 91.6385C45.8528 90.1569 46.9291 89.5857 47.9749 88.9953C51.295 85.72 54.6113 82.4408 57.939 79.1731C59.5249 77.6154 61.7345 77.4669 63.4877 78.7694C64.6781 79.2797 65.2105 80.0948 64.7009 81.3897C64.6895 82.2618 64.2483 82.9626 63.811 83.6672C62.7271 84.0366 61.8067 84.6422 61.0005 85.461C58.5323 87.9556 56.0337 90.4197 53.5693 92.9181C52.8733 93.6265 52.1051 94.3197 52.1583 95.4584C51.8921 95.7288 51.6259 95.9954 51.3597 96.2658C50.8425 97.039 50.1237 97.1075 49.3174 96.8638C48.747 96.5058 48.4959 95.5727 47.5528 95.866C47.1915 95.5917 46.834 95.3175 46.4727 95.0433C45.4497 94.4035 45.0922 93.5465 45.6056 92.4002H45.6018Z" fill="black"/>
<path d="M91.9082 65.0445C92.4102 64.8617 92.7829 64.8502 92.6992 65.5701C92.6079 66.3508 91.9728 66.7317 91.4974 67.2115C79.6166 79.1171 67.7396 91.0302 55.8207 102.901C53.9952 104.718 51.6791 105.994 49.9868 107.982C49.7015 108.317 49.3478 108.37 49.0664 107.929C49.306 107.643 49.5304 107.338 49.7928 107.076C63.5447 93.3039 77.3005 79.536 91.0601 65.7719C91.3225 65.5091 91.6267 65.2844 91.912 65.0445H91.9082Z" fill="black"/>
<path d="M68.7362 68.8566C71.5391 66.2859 74.6043 67.0399 75.5399 70.5019C75.9012 71.8425 74.9124 72.6918 74.4826 73.7506C73.8627 74.718 73.1021 75.3845 71.8433 74.996C69.4017 74.4895 68.2304 73.1984 67.987 70.7571C67.5534 69.8545 68.1239 69.3479 68.7362 68.8566Z" fill="black"/>
<path d="M52.1582 95.4503C51.7513 95.2371 51.3139 95.0352 51.7513 94.4715C52.1734 93.9269 52.5423 93.3252 53.0215 92.8377C55.638 90.1831 58.266 87.5438 60.9205 84.9311C61.7039 84.1618 62.4646 83.2135 63.807 83.6629C60.1561 87.8218 56.1286 91.6113 52.1544 95.4503H52.1582Z" fill="black"/>
<path d="M64.7005 81.3853C64.7043 80.3227 64.0768 79.5496 63.4873 78.765C63.5482 78.1214 63.9665 77.8015 64.5065 78.0566C65.4383 78.4908 65.6893 79.5039 65.8985 80.3684C66.0734 81.0997 65.4459 81.4462 64.6967 81.3853H64.7005Z" fill="#FF4473"/>
<path d="M47.9753 88.9919C47.2945 89.8602 46.4236 90.5877 45.9825 91.635C44.8758 91.3189 45.2979 90.4468 45.3778 89.7803C45.4615 89.0985 46.0699 88.9805 46.667 88.9805C47.1044 88.9805 47.5379 88.9843 47.9753 88.9881V88.9919Z" fill="#FF4473"/>
<path d="M71.8467 74.9954C72.7252 74.5803 73.6075 74.1651 74.486 73.75C74.4024 74.5688 74.8815 75.6467 73.6836 75.9894C72.8545 76.2256 72.0102 76.157 71.8467 74.9954Z" fill="#FF4473"/>
<path d="M49.0774 96.515C49.8608 96.6483 50.6291 96.6369 51.3554 96.2637C51.3668 97.1587 51.3935 98.0499 50.1194 98.0956C49.0888 98.1337 48.6476 97.6424 48.6971 96.6445C48.7846 96.4846 48.9101 96.4389 49.0774 96.5188V96.515Z" fill="#FF4473"/>
<path d="M45.6018 92.4004C45.7311 93.3335 45.9821 94.2247 46.4689 95.0435C45.6626 95.0397 44.7309 95.2339 44.5597 94.0609C44.4418 93.2535 44.5673 92.5223 45.6018 92.4042V92.4004Z" fill="#FF4473"/>
<path d="M68.7357 68.8571C68.4847 69.4894 68.2375 70.1216 67.9865 70.7576C67.2943 70.6357 67.0091 70.1939 67.184 69.5465C67.4046 68.7238 68.1234 68.8724 68.7395 68.8571H68.7357Z" fill="#FF4473"/>
<path d="M49.0776 96.5144C48.9521 96.5563 48.8266 96.5982 48.6973 96.6401C48.1686 96.5982 47.7579 96.3773 47.5449 95.8632C47.6058 95.509 47.6476 95.0938 48.1572 95.2119C48.819 95.3681 49.1612 95.8022 49.0776 96.5144Z" fill="black"/>
<path d="M195.083 85.5566C193.778 85.7813 192.881 84.9396 192.044 84.1284C189.773 81.9271 187.545 79.68 185.331 77.4216C183.574 75.6315 183.339 73.4797 184.666 71.9487C186.016 70.391 188.222 70.1929 190.196 71.6935C193.253 74.0167 195.919 76.7627 198.277 79.7981C199.277 81.0854 199.148 82.4298 198.311 83.7933C197.566 85.0082 196.558 85.6442 195.079 85.5604L195.083 85.5566Z" fill="black"/>
<path d="M177.317 66.9562C175.214 66.9219 173.609 65.3337 173.537 63.2124C173.468 61.1786 175.397 59.2857 177.393 59.3657C179.185 59.4343 181.09 61.35 181.124 63.1057C181.158 64.9491 179.173 66.9562 177.321 66.9562H177.317Z" fill="black"/>
</g>
<defs>
<clipPath id="clip0_4566_2524">
<rect width="194.718" height="156.531" fill="white" transform="translate(25.1416 35.7793)"/>
</clipPath>
</defs>
</svg>
