<svg width="107" height="136" viewBox="0 0 107 136" fill="none" xmlns="http://www.w3.org/2000/svg">
<path d="M108.917 169.764C108.815 177.243 102.647 183.36 95.2067 183.36H35.4363C27.9955 183.36 21.8072 177.243 21.6853 169.764L19.5526 31.7015C19.4307 24.223 25.4227 18.1055 32.8635 18.1055H97.3326C104.773 18.1055 110.779 24.223 110.684 31.7015L108.924 169.764H108.917Z" fill="#58575E"/>
<path d="M100.454 183.545C100.339 191.874 93.4672 198.692 85.1733 198.692H18.5782C10.2911 198.692 3.39189 191.874 3.26325 183.545L0.88679 28.0275C0.751379 19.6984 7.42713 19.644 15.7143 19.644H87.543C95.5931 19.644 102.77 8.41605 102.418 34.7915L100.454 183.545Z" fill="#424242"/>
<path d="M108.916 142.456C108.815 149.934 102.647 156.059 95.2059 156.059H35.4356C27.9947 156.059 21.8065 149.941 21.6846 142.463L19.931 28.5977C19.6737 29.666 19.5383 30.7684 19.5586 31.9184L21.6914 169.981C21.8132 177.46 28.0015 183.577 35.4423 183.577H95.2127C102.654 183.577 108.821 177.46 108.923 169.981L110.683 31.9184C110.697 30.8773 110.582 29.8634 110.372 28.8903L108.923 142.456H108.916Z" fill="#404040"/>
<path d="M59.7431 183.359L95.2072 178.283C98.4774 178.283 101.497 177.106 103.867 175.146L105.959 21.2891C103.637 19.3021 100.624 18.0977 97.3264 18.0977H64.3132C63.0607 59.1579 60.6842 139.053 59.7363 183.352L59.7431 183.359Z" fill="#21211F"/>
<path d="M100.454 169.193C100.339 177.522 93.4672 184.34 85.1733 184.34H18.5782C10.2911 184.34 3.39189 177.522 3.26325 169.193L0.88679 15.3702C0.751379 7.04107 7.42713 0.222656 15.7143 0.222656H87.543C95.8369 0.222656 102.533 7.04107 102.418 15.3702L100.454 169.193Z" fill="#58575E"/>
<path d="M87.5423 0.214844H15.7136C13.0596 0.214844 10.568 0.915739 8.4082 2.14741L10.0805 152.323C10.1685 159.59 16.1605 165.544 23.3914 165.544H79.7901C87.021 165.544 92.9994 159.597 93.0671 152.323L94.3738 1.88883C92.3291 0.820474 90 0.214844 87.5356 0.214844H87.5423Z" fill="#383836"/>
<path d="M79.7833 25.9023C82.5592 25.9023 84.8138 28.1888 84.7867 30.9787L83.6899 147.089C83.6628 149.879 81.3676 152.166 78.5917 152.166H24.4882C21.7123 152.166 19.4103 149.886 19.3765 147.089L17.975 30.9787C17.9411 28.1888 20.189 25.9023 22.9649 25.9023H79.7765H79.7833Z" fill="#FFFEF8"/>
<path d="M100.454 169.192C100.339 177.521 93.4668 184.34 85.1729 184.34H18.5778C10.2907 184.34 3.39149 177.521 3.26285 169.192L1.04889 25.6582C0.93379 26.434 0.866081 27.2233 0.886393 28.0263L3.26285 183.543C3.39149 191.872 10.2907 198.691 18.5778 198.691H85.1729C93.4668 198.691 100.339 191.872 100.454 183.543L102.417 34.7903C102.424 34.0621 102.37 33.3544 102.275 32.6535L100.454 169.185V169.192Z" fill="#404040"/>
<path opacity="0.1" d="M15.7136 0.214844C13.0596 0.214844 10.568 0.915739 8.4082 2.14741L9.72169 123.457C29.8167 105.805 67.0276 73.7612 93.9946 50.5092L94.3738 1.88883C92.3291 0.820474 90 0.214844 87.5356 0.214844H15.7068H15.7136Z" fill="#F1F2F2"/>
<path d="M40.8457 145.307C40.8457 146.572 39.8166 147.607 38.5573 147.607H25.2396C23.9668 147.607 22.9512 146.572 22.9512 145.307V136.494C22.9512 135.222 23.9668 134.188 25.2396 134.188H38.5573C39.8166 134.188 40.8457 135.222 40.8457 136.494V145.307Z" fill="#015876"/>
<path d="M60.9336 145.308C60.9336 146.573 59.9045 147.608 58.6452 147.608H45.3275C44.0614 147.608 43.0391 146.573 43.0391 145.308V136.495C43.0391 135.223 44.0614 134.195 45.3275 134.195H58.6452C59.9045 134.195 60.9336 135.223 60.9336 136.495V145.308Z" fill="#0080A5"/>
<path d="M81.0224 145.308C81.0224 146.573 80.0001 147.608 78.734 147.608H65.4163C64.1434 147.608 63.1211 146.573 63.1211 145.308V136.495C63.1211 135.223 64.1434 134.195 65.4163 134.195H78.734C79.9933 134.195 81.0224 135.223 81.0224 136.495V145.308Z" fill="#015876"/>
<path d="M40.8457 129.308C40.8457 130.573 39.8166 131.608 38.5573 131.608H25.2396C23.9668 131.608 22.9512 130.573 22.9512 129.308V120.495C22.9512 119.223 23.9668 118.195 25.2396 118.195H38.5573C39.8166 118.195 40.8457 119.223 40.8457 120.495V129.308Z" fill="#51A62F"/>
<path d="M60.9336 129.308C60.9336 130.573 59.9045 131.608 58.6452 131.608H45.3275C44.0614 131.608 43.0391 130.573 43.0391 129.308V120.495C43.0391 119.223 44.0614 118.195 45.3275 118.195H58.6452C59.9045 118.195 60.9336 119.223 60.9336 120.495V129.308Z" fill="#51A62F"/>
<path d="M81.0224 129.308C81.0224 130.573 80.0001 131.608 78.734 131.608H65.4163C64.1434 131.608 63.1211 130.573 63.1211 129.308V120.495C63.1211 119.223 64.1434 118.195 65.4163 118.195H78.734C79.9933 118.195 81.0224 119.223 81.0224 120.495V129.308Z" fill="#51A62F"/>
<path d="M40.8457 113.303C40.8457 114.568 39.8166 115.596 38.5573 115.596H25.2396C23.9668 115.596 22.9512 114.562 22.9512 113.303V104.49C22.9512 103.218 23.9668 102.184 25.2396 102.184H38.5573C39.8166 102.184 40.8457 103.211 40.8457 104.49V113.303Z" fill="#51A62F"/>
<path d="M60.9336 113.304C60.9336 114.569 59.9045 115.597 58.6452 115.597H45.3275C44.0614 115.597 43.0391 114.563 43.0391 113.304V104.491C43.0391 103.219 44.0614 102.191 45.3275 102.191H58.6452C59.9045 102.191 60.9336 103.219 60.9336 104.491V113.304Z" fill="#51A62F"/>
<path d="M81.0224 113.304C81.0224 114.569 80.0001 115.597 78.734 115.597H65.4163C64.1434 115.597 63.1211 114.563 63.1211 113.304V104.491C63.1211 103.219 64.1434 102.191 65.4163 102.191H78.734C79.9933 102.191 81.0224 103.219 81.0224 104.491V113.304Z" fill="#51A62F"/>
<path d="M40.8457 97.3056C40.8457 98.5713 39.8166 99.6056 38.5573 99.6056H25.2396C23.9668 99.6056 22.9512 98.5713 22.9512 97.3056V88.4934C22.9512 87.2277 23.9668 86.1934 25.2396 86.1934H38.5573C39.8166 86.1934 40.8457 87.2277 40.8457 88.4934V97.3056Z" fill="#51A62F"/>
<path d="M60.9336 97.3056C60.9336 98.5713 59.9045 99.6056 58.6452 99.6056H45.3275C44.0614 99.6056 43.0391 98.5713 43.0391 97.3056V88.4934C43.0391 87.2277 44.0614 86.1934 45.3275 86.1934H58.6452C59.9045 86.1934 60.9336 87.2277 60.9336 88.4934V97.3056Z" fill="#51A62F"/>
<path d="M81.0224 97.3056C81.0224 98.5713 80.0001 99.6056 78.734 99.6056H65.4163C64.1434 99.6056 63.1211 98.5713 63.1211 97.3056V88.4934C63.1211 87.2277 64.1434 86.1934 65.4163 86.1934H78.734C79.9933 86.1934 81.0224 87.2277 81.0224 88.4934V97.3056Z" fill="#51A62F"/>
<path d="M79.7843 25.9023H22.9727C20.1968 25.9023 17.9489 28.1888 17.9828 30.9787L18.5989 83.2737H84.3138L84.7945 30.9787C84.8216 28.1888 82.567 25.9023 79.7911 25.9023H79.7843Z" fill="#E6E7E8"/>
<path d="M18.632 79.4985H84.2792L84.4214 67.209H18.4492L18.632 79.4985Z" fill="#51A62F"/>
<path d="M79.7843 25.9023H22.9727C20.1968 25.9023 17.9489 28.1888 17.9828 30.9787L18.064 37.6066H84.7268L84.7878 30.9787C84.8148 28.1888 82.5602 25.9023 79.7843 25.9023Z" fill="#CECCBF"/>
<path d="M94.2181 15.0561L94.3806 1.88883C92.3359 0.820474 90.0068 0.214844 87.5423 0.214844H15.7136C13.0596 0.214844 10.568 0.915739 8.4082 2.14741L8.60454 15.0561H94.2113H94.2181Z" fill="#383836"/>
<path d="M51.3942 71.4336H22.9512V74.9993H51.3942V71.4336Z" fill="white"/>
<path opacity="0.5" d="M40.8051 29.9727H22.9512V33.5384H40.8051V29.9727Z" fill="#58575E"/>
<path opacity="0.5" d="M81.0014 29.9727H72.1523V33.5384H81.0014V29.9727Z" fill="#58575E"/>
<path d="M78.6056 71.4336H56.7773V74.9993H78.6056V71.4336Z" fill="white"/>
</svg>
