<svg width="24" height="24" viewBox="0 0 24 24" fill="none" xmlns="http://www.w3.org/2000/svg">
<path d="M10.9999 2.0498L11 5.0713C7.6077 5.55653 5 8.47394 5 12.0004C5 15.8664 8.13401 19.0004 12 19.0004C13.5723 19.0004 15.0236 18.482 16.1922 17.6068L18.3289 19.7432C16.605 21.154 14.4014 22.0004 12 22.0004C6.47715 22.0004 2 17.5233 2 12.0004C2 6.8151 5.94662 2.55157 10.9999 2.0498ZM21.9506 13.0005C21.7509 15.0115 20.9555 16.8472 19.7433 18.3287L17.6064 16.1926C18.2926 15.2764 18.7595 14.1864 18.9291 13.0004L21.9506 13.0005ZM13.0011 2.0499C17.725 2.51943 21.4815 6.27631 21.9506 11.0003L18.9291 11.0002C18.4905 7.93494 16.0661 5.51033 13.001 5.07144L13.0011 2.0499Z" fill="#DCD9D9"/>
</svg>
