<svg width="434" height="396" viewBox="0 0 434 396" fill="none" xmlns="http://www.w3.org/2000/svg">
<path d="M271.982 198.601C231.304 198.228 194.5 197.88 167.811 197.634C154.5 197.575 143.724 197.524 136.247 197.49C132.542 197.49 129.659 197.507 127.667 197.507C126.709 197.516 125.963 197.533 125.437 197.533C124.937 197.541 124.674 197.558 124.674 197.575C124.674 197.592 124.928 197.609 125.437 197.626C125.971 197.634 126.709 197.651 127.667 197.677C129.659 197.702 132.542 197.736 136.247 197.778C143.733 197.821 154.5 197.872 167.811 197.94C194.492 197.957 231.304 197.982 271.982 198.007C312.644 198.007 349.456 198.058 376.112 198.245C389.439 198.338 400.224 198.457 407.676 198.601C411.406 198.669 414.297 198.745 416.256 198.813C418.214 198.889 419.249 198.957 419.249 199.033C419.249 199.101 418.214 199.169 416.256 199.22C414.297 199.271 411.398 199.322 407.667 199.347C400.215 199.415 389.422 199.423 376.103 199.389C349.448 199.313 312.635 199.008 271.974 198.601H271.982Z" fill="#EFF5FB"/>
<path d="M271.167 207.42C231.048 200.968 194.736 195.127 168.42 190.896C155.279 188.844 144.647 187.191 137.254 186.038C133.592 185.495 130.743 185.071 128.776 184.775C127.826 184.648 127.089 184.546 126.563 184.469C126.063 184.41 125.809 184.385 125.809 184.393C125.809 184.41 126.054 184.461 126.555 184.554C127.08 184.648 127.801 184.775 128.751 184.936C130.717 185.258 133.558 185.724 137.212 186.326C144.596 187.479 155.228 189.149 168.369 191.21C194.728 195.211 231.091 200.731 271.269 206.826C311.43 212.888 347.802 218.442 374.092 222.604C387.242 224.69 397.874 226.42 405.216 227.674C408.887 228.302 411.736 228.802 413.66 229.175C415.585 229.548 416.594 229.768 416.577 229.836C416.568 229.904 415.534 229.819 413.592 229.582C411.642 229.345 408.777 228.955 405.089 228.429C397.713 227.378 387.056 225.784 373.897 223.757C347.581 219.705 311.261 213.889 271.167 207.411V207.42Z" fill="#EFF5FB"/>
<path d="M268.93 216.016C230.372 203.57 195.467 192.303 170.176 184.138C157.535 180.128 147.302 176.881 140.197 174.626C136.671 173.532 133.924 172.684 132.024 172.099C131.109 171.828 130.397 171.616 129.888 171.463C129.405 171.328 129.159 171.26 129.15 171.277C129.15 171.294 129.388 171.387 129.854 171.548C130.354 171.718 131.05 171.955 131.957 172.26C133.839 172.879 136.577 173.77 140.087 174.914C147.192 177.178 157.417 180.433 170.058 184.452C195.433 192.388 230.431 203.341 269.117 215.448C307.786 227.513 342.792 238.501 368.074 246.597C380.715 250.641 390.94 253.965 397.977 256.313C401.495 257.483 404.225 258.416 406.065 259.069C407.905 259.721 408.863 260.103 408.837 260.171C408.812 260.239 407.812 259.993 405.929 259.467C404.047 258.933 401.275 258.119 397.723 257.042C390.609 254.889 380.351 251.701 367.684 247.708C342.36 239.721 307.447 228.479 268.913 216.008L268.93 216.016Z" fill="#EFF5FB"/>
<path d="M265.318 224.156C229.268 206.03 196.653 189.633 173.007 177.747C161.18 171.871 151.608 167.115 144.961 163.817C141.655 162.206 139.086 160.951 137.305 160.087C136.441 159.68 135.779 159.366 135.305 159.137C134.855 158.925 134.618 158.832 134.609 158.84C134.609 158.857 134.821 158.984 135.262 159.213C135.728 159.459 136.381 159.798 137.221 160.239C138.984 161.129 141.536 162.427 144.817 164.088C151.464 167.395 161.027 172.16 172.854 178.043C196.61 189.726 229.387 205.835 265.597 223.648C301.808 241.418 334.576 257.56 358.222 269.388C370.049 275.297 379.595 280.121 386.166 283.504C389.455 285.191 391.999 286.522 393.711 287.446C395.424 288.37 396.306 288.887 396.272 288.947C396.238 289.006 395.288 288.616 393.516 287.811C391.745 286.997 389.142 285.776 385.81 284.173C379.137 280.969 369.523 276.272 357.679 270.405C333.974 258.688 301.333 242.308 265.326 224.165L265.318 224.156Z" fill="#EFF5FB"/>
<path d="M260.417 231.65C227.759 208.335 198.204 187.232 176.788 171.938C166.063 164.358 157.381 158.22 151.353 153.964C148.352 151.878 146.012 150.251 144.401 149.123C143.613 148.589 143.011 148.182 142.578 147.885C142.163 147.614 141.951 147.478 141.934 147.487C141.925 147.495 142.12 147.656 142.519 147.953C142.943 148.267 143.528 148.699 144.291 149.259C145.885 150.403 148.199 152.065 151.167 154.201C157.195 158.466 165.868 164.604 176.593 172.192C198.161 187.3 227.911 208.14 260.781 231.166C293.66 254.159 323.401 275.033 344.834 290.259C355.55 297.873 364.198 304.07 370.141 308.403C373.109 310.565 375.406 312.26 376.949 313.43C378.492 314.6 379.281 315.245 379.23 315.304C379.188 315.363 378.314 314.829 376.695 313.761C375.076 312.693 372.71 311.09 369.675 309.013C363.605 304.85 354.881 298.763 344.122 291.192C322.613 276.058 293.041 254.973 260.417 231.641V231.65Z" fill="#EFF5FB"/>
<path d="M254.364 238.314C225.877 210.396 200.095 185.139 181.409 166.826C172.041 157.737 164.461 150.378 159.188 145.266C156.56 142.757 154.516 140.798 153.1 139.45C152.414 138.806 151.88 138.305 151.498 137.958C151.133 137.627 150.938 137.458 150.93 137.466C150.922 137.475 151.091 137.661 151.43 138.017C151.795 138.39 152.303 138.899 152.973 139.569C154.364 140.942 156.373 142.926 158.967 145.478C164.232 150.59 171.812 157.958 181.172 167.055C200.027 185.198 226.047 210.234 254.796 237.907C283.554 265.538 309.557 290.599 328.26 308.853C337.62 317.975 345.157 325.394 350.32 330.557C352.906 333.143 354.898 335.161 356.229 336.543C357.561 337.925 358.239 338.679 358.188 338.73C358.137 338.781 357.357 338.128 355.933 336.831C354.508 335.534 352.423 333.601 349.769 331.091C344.453 326.072 336.806 318.747 327.412 309.667C308.616 291.498 282.808 266.25 254.364 238.331V238.314Z" fill="#EFF5FB"/>
<path d="M247.311 243.992C223.69 212.157 202.308 183.348 186.81 162.466C179.027 152.089 172.728 143.678 168.353 137.845C166.166 134.971 164.462 132.733 163.283 131.19C162.707 130.452 162.266 129.884 161.944 129.469C161.638 129.087 161.477 128.892 161.46 128.901C161.443 128.909 161.588 129.121 161.867 129.52C162.173 129.935 162.588 130.528 163.139 131.283C164.292 132.843 165.962 135.107 168.099 138.015C172.474 143.856 178.764 152.258 186.539 162.644C202.232 183.39 223.885 212.012 247.802 243.636C271.736 275.234 293.373 303.874 308.896 324.696C316.662 335.107 322.911 343.56 327.175 349.435C329.312 352.369 330.948 354.666 332.042 356.235C333.135 357.803 333.678 358.651 333.618 358.694C333.559 358.736 332.898 357.973 331.694 356.481C330.49 354.989 328.752 352.767 326.531 349.885C322.088 344.128 315.73 335.76 307.913 325.374C292.287 304.62 270.88 275.819 247.294 243.984L247.311 243.992Z" fill="#EFF5FB"/>
<path d="M239.416 248.555C221.264 213.557 204.834 181.891 192.922 158.932C186.919 147.512 182.07 138.262 178.695 131.844C177 128.673 175.677 126.206 174.77 124.502C174.321 123.688 173.973 123.052 173.727 122.603C173.49 122.179 173.354 121.967 173.346 121.967C173.329 121.967 173.43 122.204 173.642 122.637C173.871 123.094 174.193 123.739 174.609 124.57C175.491 126.282 176.771 128.775 178.416 131.963C181.781 138.389 186.631 147.639 192.625 159.067C204.749 181.916 221.485 213.438 239.967 248.275C258.475 283.078 275.177 314.617 287.131 337.525C293.109 348.979 297.899 358.263 301.163 364.706C302.791 367.928 304.045 370.437 304.868 372.15C305.69 373.862 306.089 374.778 306.021 374.812C305.953 374.846 305.427 373.99 304.478 372.336C303.537 370.683 302.172 368.224 300.451 365.045C297 358.695 292.074 349.471 286.046 338.042C273.99 315.193 257.534 283.527 239.416 248.538V248.555Z" fill="#EFF5FB"/>
<path d="M230.88 251.861C218.68 214.557 207.642 180.797 199.638 156.32C195.586 144.129 192.296 134.269 190.024 127.418C188.871 124.036 187.972 121.399 187.345 119.576C187.031 118.703 186.794 118.024 186.624 117.541C186.455 117.083 186.361 116.854 186.344 116.854C186.327 116.854 186.395 117.1 186.531 117.567C186.683 118.058 186.895 118.737 187.167 119.627C187.76 121.458 188.617 124.103 189.71 127.503C191.982 134.353 195.263 144.222 199.308 156.414C207.54 180.814 218.909 214.472 231.465 251.675C244.047 288.843 255.382 322.519 263.437 346.944C267.464 359.153 270.677 369.055 272.847 375.914C273.933 379.339 274.755 382.01 275.289 383.824C275.823 385.639 276.069 386.605 275.993 386.631C275.925 386.656 275.535 385.732 274.874 383.951C274.212 382.171 273.271 379.543 272.084 376.143C269.71 369.352 266.362 359.492 262.284 347.292C254.119 322.9 243.047 289.14 230.88 251.844V251.861Z" fill="#EFF5FB"/>
<path d="M221.9 253.827C215.957 215.141 210.582 180.134 206.682 154.751C204.672 142.101 203.045 131.86 201.917 124.746C201.332 121.228 200.874 118.489 200.56 116.599C200.399 115.692 200.272 114.988 200.179 114.488C200.086 114.013 200.035 113.767 200.018 113.776C200.001 113.776 200.018 114.021 200.086 114.505C200.153 115.013 200.255 115.717 200.382 116.633C200.671 118.532 201.078 121.27 201.612 124.797C202.739 131.91 204.359 142.152 206.36 154.802C210.497 180.143 216.211 215.107 222.519 253.734C228.861 292.343 234.541 327.316 238.5 352.657C240.484 365.324 242.036 375.591 243.053 382.687C243.562 386.239 243.935 388.995 244.164 390.868C244.393 392.742 244.477 393.734 244.401 393.743C244.325 393.751 244.104 392.784 243.74 390.928C243.375 389.071 242.884 386.333 242.265 382.797C241.035 375.726 239.34 365.485 237.305 352.827C233.227 327.502 227.818 292.496 221.909 253.818L221.9 253.827Z" fill="#EFF5FB"/>
<path d="M212.712 254.431C213.077 215.33 213.407 179.942 213.653 154.287C213.713 141.493 213.755 131.133 213.789 123.935C213.78 120.374 213.772 117.602 213.763 115.686C213.747 114.762 213.738 114.049 213.73 113.541C213.721 113.057 213.704 112.812 213.687 112.812C213.67 112.812 213.653 113.057 213.636 113.541C213.628 114.049 213.611 114.762 213.585 115.686C213.56 117.602 213.526 120.374 213.484 123.935C213.45 131.124 213.399 141.485 213.331 154.287C213.331 179.942 213.331 215.33 213.331 254.431C213.357 293.516 213.331 328.912 213.153 354.533C213.068 367.344 212.941 377.713 212.805 384.877C212.738 388.463 212.661 391.244 212.585 393.126C212.509 395.017 212.432 396 212.365 396C212.288 396 212.22 395.008 212.17 393.126C212.11 391.235 212.068 388.455 212.025 384.877C211.958 377.713 211.932 367.344 211.966 354.525C212.025 328.904 212.331 293.507 212.721 254.423L212.712 254.431Z" fill="#EFF5FB"/>
<path d="M203.53 253.658C210.219 215.082 216.264 180.177 220.647 154.87C222.767 142.237 224.488 132.012 225.683 124.908C226.251 121.389 226.684 118.642 226.989 116.752C227.124 115.836 227.226 115.132 227.302 114.624C227.37 114.14 227.396 113.895 227.379 113.895C227.362 113.895 227.303 114.132 227.209 114.607C227.116 115.107 226.98 115.811 226.811 116.718C226.48 118.608 225.997 121.338 225.369 124.848C224.174 131.953 222.444 142.178 220.316 154.802C216.171 180.143 210.456 215.099 204.14 253.734C197.858 292.352 192.11 327.316 187.786 352.598C185.632 365.239 183.835 375.464 182.538 382.526C181.893 386.053 181.368 388.791 180.986 390.648C180.605 392.496 180.367 393.463 180.299 393.454C180.223 393.446 180.316 392.454 180.562 390.58C180.808 388.707 181.215 385.951 181.758 382.407C182.843 375.32 184.496 365.069 186.599 352.42C190.795 327.113 196.823 292.199 203.538 253.649L203.53 253.658Z" fill="#EFF5FB"/>
<path d="M194.591 251.514C207.512 214.431 219.212 180.882 227.681 156.558C231.844 144.409 235.218 134.566 237.558 127.733C238.694 124.341 239.576 121.696 240.187 119.873C240.466 118.992 240.687 118.313 240.848 117.822C240.992 117.355 241.06 117.118 241.043 117.109C241.026 117.109 240.933 117.338 240.763 117.788C240.585 118.271 240.339 118.941 240.026 119.814C239.39 121.628 238.457 124.256 237.27 127.631C234.922 134.464 231.539 144.299 227.368 156.448C219.127 180.848 207.758 214.507 195.184 251.701C182.654 288.886 171.25 322.544 162.849 346.86C158.643 359.018 155.201 368.844 152.759 375.618C151.539 379.001 150.572 381.629 149.894 383.401C149.216 385.173 148.826 386.089 148.749 386.072C148.681 386.046 148.927 385.088 149.478 383.274C150.03 381.459 150.877 378.797 151.996 375.381C154.226 368.539 157.541 358.67 161.687 346.495C169.979 322.146 181.645 288.572 194.599 251.523L194.591 251.514Z" fill="#EFF5FB"/>
<path d="M186.122 248.039C204.952 213.371 221.993 182.002 234.337 159.263C240.441 147.894 245.384 138.687 248.809 132.294C250.488 129.115 251.785 126.639 252.692 124.935C253.116 124.104 253.447 123.468 253.676 123.011C253.896 122.578 253.998 122.349 253.981 122.341C253.964 122.341 253.837 122.544 253.591 122.968C253.337 123.418 252.989 124.045 252.531 124.859C251.607 126.554 250.259 129.005 248.538 132.159C245.104 138.551 240.153 147.75 234.04 159.119C221.908 181.968 205.164 213.481 186.664 248.31C168.199 283.138 151.429 314.643 139.152 337.382C133.014 348.751 128.004 357.933 124.485 364.258C122.73 367.42 121.348 369.862 120.382 371.506C119.424 373.151 118.881 373.999 118.822 373.965C118.754 373.931 119.161 373.024 120.009 371.311C120.848 369.607 122.12 367.106 123.79 363.901C127.113 357.483 131.997 348.242 138.093 336.848C150.267 314.05 167.283 282.663 186.13 248.03L186.122 248.039Z" fill="#EFF5FB"/>
<path d="M178.324 243.334C202.555 211.922 224.488 183.503 240.384 162.901C248.26 152.583 254.636 144.232 259.07 138.441C261.241 135.55 262.928 133.304 264.098 131.752C264.649 130.998 265.081 130.413 265.386 129.997C265.675 129.599 265.81 129.387 265.802 129.378C265.793 129.37 265.624 129.556 265.31 129.938C264.988 130.345 264.539 130.904 263.954 131.642C262.758 133.176 261.037 135.398 258.816 138.255C254.382 144.054 247.998 152.396 240.113 162.706C224.411 183.444 202.75 212.058 178.816 243.681C154.916 275.305 133.228 303.902 117.4 324.521C109.489 334.83 103.046 343.147 98.5441 348.862C96.2973 351.719 94.5339 353.923 93.313 355.407C92.1006 356.891 91.4309 357.645 91.3715 357.603C91.3122 357.56 91.8633 356.721 92.9739 355.161C94.0845 353.601 95.7463 351.329 97.9082 348.404C102.232 342.571 108.565 334.169 116.433 323.834C132.169 303.147 154.076 274.703 178.324 243.325V243.334Z" fill="#EFF5FB"/>
<path d="M171.387 237.517C200.408 210.116 226.665 185.317 245.707 167.335C255.161 158.322 262.808 151.031 268.124 145.961C270.735 143.435 272.77 141.468 274.177 140.111C274.847 139.45 275.364 138.941 275.729 138.568C276.076 138.221 276.246 138.034 276.237 138.026C276.229 138.017 276.034 138.178 275.661 138.509C275.279 138.865 274.745 139.348 274.041 139.993C272.617 141.332 270.548 143.265 267.903 145.758C262.587 150.819 254.932 158.111 245.478 167.114C226.614 185.258 200.586 210.285 171.828 237.941C143.104 265.606 117.051 290.616 98.0765 308.615C88.5894 317.619 80.8828 324.868 75.5076 329.836C72.82 332.32 70.7259 334.237 69.2846 335.525C67.8433 336.805 67.0633 337.458 67.0124 337.407C66.9616 337.356 67.6398 336.61 68.9879 335.237C70.3359 333.863 72.3452 331.863 74.9565 329.302C80.1791 324.181 87.784 316.839 97.2287 307.801C116.118 289.718 142.358 264.902 171.387 237.526V237.517Z" fill="#EFF5FB"/>
<path d="M165.471 230.743C198.57 208.013 228.524 187.445 250.236 172.532C261.029 165.046 269.77 158.984 275.832 154.77C278.825 152.667 281.148 151.023 282.759 149.895C283.53 149.344 284.124 148.912 284.548 148.606C284.946 148.31 285.15 148.157 285.141 148.14C285.133 148.132 284.912 148.259 284.497 148.53C284.064 148.818 283.454 149.225 282.665 149.751C281.038 150.862 278.689 152.464 275.662 154.524C269.592 158.729 260.851 164.783 250.05 172.269C228.481 187.369 198.723 208.2 165.836 231.218C132.983 254.253 103.208 275.059 81.5542 290.006C70.7276 297.475 61.9357 303.486 55.8314 307.598C52.7793 309.65 50.3969 311.235 48.7606 312.286C47.1328 313.338 46.251 313.863 46.2087 313.804C46.1663 313.745 46.9547 313.109 48.5147 311.956C50.0662 310.803 52.3808 309.124 55.3736 306.987C61.3592 302.714 70.0663 296.593 80.859 289.073C102.445 274.041 132.381 253.439 165.488 230.743H165.471Z" fill="#EFF5FB"/>
<path d="M160.73 223.155C197.118 205.681 230.056 189.87 253.922 178.407C265.8 172.633 275.414 167.954 282.095 164.715C285.393 163.087 287.954 161.815 289.725 160.934C290.573 160.501 291.226 160.171 291.701 159.925C292.142 159.696 292.362 159.569 292.362 159.552C292.362 159.535 292.116 159.636 291.659 159.84C291.184 160.06 290.514 160.366 289.649 160.772C287.869 161.62 285.283 162.85 281.959 164.435C275.279 167.674 265.664 172.345 253.778 178.11C230.014 189.785 197.237 205.885 161.018 223.681C124.825 241.493 92.031 257.576 68.2073 269.081C56.3039 274.838 46.6387 279.45 39.941 282.587C36.5921 284.156 33.9808 285.36 32.2004 286.148C30.4199 286.945 29.4619 287.326 29.4365 287.259C29.4026 287.191 30.2928 286.682 32.0138 285.775C33.7349 284.868 36.2869 283.562 39.5934 281.9C46.1979 278.577 55.7952 273.838 67.6731 268.039C91.4375 256.432 124.358 240.586 160.747 223.155H160.73Z" fill="#EFF5FB"/>
<path d="M157.288 214.947C196.084 203.197 231.192 192.557 256.644 184.85C269.318 180.941 279.577 177.779 286.707 175.583C290.226 174.473 292.973 173.599 294.863 173.006C295.77 172.709 296.474 172.48 296.974 172.311C297.449 172.149 297.687 172.056 297.687 172.048C297.687 172.031 297.432 172.09 296.949 172.226C296.44 172.37 295.728 172.573 294.812 172.836C292.913 173.404 290.158 174.227 286.614 175.286C279.484 177.474 269.225 180.628 256.542 184.528C231.167 192.463 196.16 203.409 157.474 215.498C118.822 227.614 83.7987 238.534 58.398 246.291C45.6977 250.174 35.4051 253.269 28.2665 255.354C24.6972 256.397 21.9248 257.186 20.0342 257.703C18.1435 258.22 17.1431 258.449 17.1177 258.381C17.0922 258.313 18.0503 257.94 19.8985 257.304C21.7468 256.669 24.4852 255.761 28.0206 254.617C35.0914 252.336 45.3416 249.106 58.025 245.172C83.3917 237.304 118.5 226.639 157.288 214.922V214.947Z" fill="#EFF5FB"/>
<path d="M155.228 206.317C195.466 200.578 231.879 195.389 258.272 191.625C271.43 189.683 282.079 188.115 289.472 187.021C293.134 186.453 295.983 186.012 297.95 185.707C298.9 185.546 299.629 185.427 300.146 185.342C300.638 185.258 300.892 185.198 300.892 185.19C300.892 185.173 300.629 185.19 300.129 185.258C299.603 185.325 298.866 185.419 297.916 185.537C295.949 185.809 293.092 186.207 289.421 186.724C282.028 187.809 271.371 189.369 258.213 191.302C231.854 195.296 195.491 200.815 155.313 206.902C115.16 213.024 78.7803 218.509 52.43 222.324C39.2549 224.232 28.5809 225.732 21.1964 226.716C17.4999 227.208 14.6343 227.572 12.6843 227.793C10.7343 228.013 9.70842 228.098 9.69146 228.022C9.68298 227.954 10.6919 227.733 12.6164 227.386C14.5495 227.038 17.3981 226.555 21.0777 225.961C28.4283 224.774 39.0769 223.138 52.252 221.171C78.5937 217.237 115.008 212.015 155.228 206.309V206.317Z" fill="#EFF5FB"/>
<path d="M154.592 197.491C195.271 197.822 232.083 198.119 258.764 198.33C272.075 198.373 282.85 198.415 290.328 198.441C294.033 198.424 296.916 198.415 298.908 198.415C299.866 198.398 300.612 198.39 301.138 198.381C301.638 198.373 301.901 198.356 301.901 198.339C301.901 198.322 301.647 198.305 301.138 198.297C300.604 198.288 299.866 198.271 298.908 198.246C296.916 198.22 294.033 198.195 290.328 198.152C282.842 198.119 272.066 198.076 258.764 198.025C232.083 198.042 195.271 198.059 154.592 198.085C113.931 198.135 77.1187 198.127 50.4632 197.974C37.1355 197.898 26.3512 197.788 18.8989 197.661C15.1685 197.593 12.2774 197.525 10.319 197.457C8.36051 197.389 7.32617 197.313 7.32617 197.245C7.32617 197.177 8.36051 197.11 10.319 197.05C12.2859 196.991 15.177 196.949 18.9074 196.906C26.3597 196.83 37.1525 196.804 50.4717 196.83C77.1271 196.872 113.939 197.135 154.601 197.5L154.592 197.491Z" fill="#EFF5FB"/>
<path d="M155.397 188.665C195.525 195.066 231.845 200.865 258.161 205.062C271.303 207.096 281.943 208.741 289.327 209.886C292.99 210.428 295.838 210.844 297.814 211.132C298.763 211.259 299.501 211.361 300.027 211.429C300.527 211.488 300.781 211.514 300.781 211.497C300.781 211.48 300.535 211.429 300.035 211.336C299.51 211.242 298.78 211.115 297.839 210.954C295.872 210.632 293.032 210.174 289.378 209.581C281.994 208.436 271.353 206.783 258.212 204.74C231.854 200.772 195.482 195.295 155.295 189.25C115.126 183.23 78.7544 177.728 52.4465 173.591C39.2969 171.522 28.6567 169.809 21.3146 168.563C17.6436 167.944 14.7949 167.444 12.8703 167.079C10.9458 166.715 9.93689 166.486 9.94537 166.418C9.95384 166.35 10.9882 166.435 12.9382 166.672C14.8882 166.91 17.7538 167.291 21.4418 167.817C28.8178 168.86 39.4749 170.437 52.6415 172.455C78.9663 176.473 115.287 182.247 155.397 188.673V188.665Z" fill="#EFF5FB"/>
<path d="M157.62 180.068C196.196 192.471 231.109 203.688 256.416 211.818C269.057 215.812 279.299 219.05 286.404 221.297C289.931 222.382 292.678 223.23 294.577 223.815C295.492 224.086 296.205 224.298 296.713 224.442C297.196 224.578 297.442 224.646 297.451 224.629C297.451 224.612 297.213 224.519 296.747 224.358C296.247 224.188 295.552 223.951 294.645 223.645C292.754 223.035 290.024 222.145 286.514 221C279.409 218.745 269.176 215.506 256.535 211.496C231.151 203.586 196.136 192.675 157.433 180.619C118.747 168.597 83.7325 157.66 58.4336 149.588C45.7842 145.553 35.5595 142.246 28.5141 139.906C24.9871 138.736 22.2572 137.812 20.4174 137.159C18.5776 136.507 17.6196 136.134 17.645 136.066C17.6705 135.998 18.6709 136.244 20.5531 136.769C22.4352 137.295 25.2076 138.109 28.7599 139.186C35.8731 141.331 46.1402 144.502 58.8067 148.486C84.1395 156.447 119.07 167.639 157.62 180.059V180.068Z" fill="#EFF5FB"/>
<path d="M161.229 171.921C197.304 189.996 229.945 206.359 253.599 218.22C265.435 224.079 275.015 228.827 281.662 232.116C284.969 233.727 287.546 234.973 289.318 235.838C290.183 236.245 290.844 236.559 291.319 236.788C291.777 237 292.005 237.093 292.014 237.084C292.014 237.067 291.802 236.94 291.361 236.711C290.895 236.465 290.242 236.135 289.394 235.694C287.631 234.804 285.079 233.515 281.798 231.853C275.151 228.555 265.57 223.807 253.743 217.932C229.97 206.283 197.177 190.208 160.941 172.447C124.705 154.719 91.9201 138.619 68.2575 126.825C56.4219 120.933 46.867 116.117 40.2964 112.743C37.0069 111.056 34.4634 109.725 32.7508 108.809C31.0382 107.885 30.1565 107.368 30.1904 107.309C30.2243 107.249 31.1739 107.639 32.9458 108.445C34.7178 109.25 37.3206 110.471 40.661 112.073C47.3333 115.27 56.956 119.958 68.8086 125.808C92.5305 137.499 125.189 153.837 161.229 171.938V171.921Z" fill="#EFF5FB"/>
<path d="M166.113 164.426C198.797 187.707 228.377 208.767 249.819 224.036C260.552 231.599 269.242 237.729 275.279 241.985C278.288 244.07 280.62 245.69 282.239 246.817C283.028 247.351 283.63 247.758 284.062 248.055C284.477 248.326 284.689 248.462 284.706 248.453C284.715 248.445 284.52 248.284 284.121 247.987C283.697 247.673 283.112 247.25 282.349 246.682C280.756 245.537 278.441 243.875 275.465 241.747C269.437 237.491 260.747 231.361 250.022 223.782C228.437 208.699 198.661 187.894 165.749 164.909C132.836 141.959 103.078 121.119 81.6197 105.918C70.8948 98.3216 62.2386 92.1241 56.2869 87.8087C53.311 85.6467 51.0135 83.9511 49.4704 82.7896C47.9274 81.6196 47.1389 80.9753 47.1813 80.9244C47.2237 80.865 48.097 81.3992 49.7248 82.4589C51.3441 83.5272 53.718 85.1211 56.7532 87.1982C62.8236 91.3526 71.5646 97.4314 82.3234 104.994C103.85 120.102 133.455 141.153 166.105 164.443L166.113 164.426Z" fill="#EFF5FB"/>
<path d="M172.16 157.745C200.68 185.63 226.496 210.861 245.208 229.148C254.585 238.228 262.181 245.579 267.454 250.683C270.083 253.192 272.134 255.142 273.55 256.499C274.237 257.143 274.771 257.635 275.153 257.991C275.517 258.322 275.712 258.491 275.721 258.474C275.729 258.466 275.56 258.279 275.22 257.923C274.856 257.55 274.339 257.041 273.677 256.372C272.287 254.998 270.269 253.023 267.675 250.471C262.401 245.367 254.822 238.008 245.445 228.919C226.564 210.793 200.511 185.791 171.727 158.16C142.935 130.564 116.899 105.536 98.1703 87.3079C88.8019 78.1939 81.2563 70.7839 76.0762 65.6292C73.4903 63.0518 71.4895 61.034 70.1584 59.6521C68.8273 58.2701 68.1491 57.5155 68.1999 57.4647C68.2508 57.4138 69.0308 58.0666 70.4551 59.3638C71.8879 60.661 73.9651 62.594 76.6273 65.095C81.9516 70.1057 89.5989 77.4223 99.0097 86.494C117.831 104.637 143.664 129.86 172.151 157.745H172.16Z" fill="#EFF5FB"/>
<path d="M179.212 152.055C202.874 183.865 224.29 212.649 239.814 233.514C247.614 243.882 253.922 252.284 258.305 258.109C260.501 260.983 262.205 263.221 263.383 264.764C263.96 265.502 264.409 266.07 264.723 266.477C265.028 266.858 265.189 267.053 265.206 267.045C265.223 267.036 265.079 266.824 264.799 266.426C264.494 266.011 264.078 265.426 263.527 264.663C262.374 263.103 260.704 260.839 258.559 257.939C254.184 252.106 247.877 243.704 240.085 233.327C224.367 212.598 202.679 184.001 178.712 152.403C154.735 120.838 133.065 92.2161 117.507 71.4106C109.724 61.0079 103.468 52.5636 99.1946 46.6882C97.0581 43.7548 95.4133 41.4657 94.3196 39.8972C93.2259 38.3287 92.6833 37.4894 92.7427 37.447C92.802 37.4046 93.4633 38.1676 94.6672 39.6598C95.8711 41.152 97.6176 43.3732 99.8389 46.2474C104.29 51.9956 110.666 60.3635 118.491 70.7324C134.142 91.47 155.592 120.245 179.212 152.055Z" fill="#EFF5FB"/>
<path d="M187.097 147.495C205.299 182.468 221.764 214.117 233.71 237.059C239.721 248.47 244.596 257.712 247.97 264.13C249.666 267.3 250.988 269.759 251.904 271.463C252.353 272.277 252.701 272.904 252.947 273.362C253.184 273.786 253.32 273.998 253.328 273.998C253.345 273.998 253.244 273.761 253.023 273.328C252.794 272.871 252.472 272.226 252.057 271.395C251.175 269.683 249.886 267.199 248.241 264.002C244.867 257.584 240.001 248.335 233.998 236.915C221.84 214.083 205.07 182.578 186.537 147.766C167.987 112.989 151.234 81.4669 139.254 58.5758C133.26 47.1302 128.453 37.8466 125.189 31.4117C123.553 28.1899 122.298 25.6804 121.475 23.9678C120.653 22.2552 120.246 21.3396 120.314 21.3057C120.382 21.2717 120.907 22.128 121.857 23.7813C122.807 25.4345 124.163 27.8932 125.893 31.0641C129.352 37.4142 134.286 46.63 140.331 58.0501C152.421 80.8904 168.919 112.531 187.08 147.504L187.097 147.495Z" fill="#EFF5FB"/>
<path d="M195.636 144.179C207.886 181.466 218.967 215.218 227.005 239.677C231.074 251.861 234.372 261.721 236.661 268.571C237.823 271.954 238.722 274.591 239.349 276.405C239.663 277.278 239.9 277.956 240.07 278.431C240.239 278.889 240.333 279.118 240.35 279.109C240.366 279.109 240.299 278.864 240.163 278.397C240.01 277.906 239.798 277.227 239.527 276.337C238.934 274.506 238.077 271.861 236.967 268.461C234.686 261.61 231.397 251.742 227.335 239.559C219.069 215.167 207.658 181.525 195.051 144.34C182.418 107.189 171.04 73.5217 162.952 49.1045C158.908 36.8959 155.678 27.0019 153.507 20.1515C152.422 16.7263 151.591 14.0557 151.057 12.2414C150.523 10.427 150.277 9.46052 150.345 9.43508C150.413 9.40965 150.803 10.3338 151.464 12.1142C152.125 13.8946 153.075 16.5229 154.262 19.9141C156.644 26.7052 160.002 36.5568 164.105 48.7485C172.304 73.1317 183.418 106.875 195.636 144.154V144.179Z" fill="#EFF5FB"/>
<path d="M204.607 142.196C210.601 180.873 216.027 215.88 219.961 241.247C221.987 253.896 223.632 264.129 224.768 271.242C225.361 274.761 225.819 277.499 226.141 279.39C226.302 280.297 226.43 281.001 226.523 281.501C226.616 281.976 226.667 282.222 226.684 282.213C226.701 282.213 226.684 281.967 226.616 281.484C226.548 280.975 226.447 280.272 226.319 279.356C226.031 277.465 225.616 274.719 225.082 271.192C223.946 264.078 222.318 253.845 220.3 241.196C216.129 215.863 210.372 180.907 204.005 142.281C197.612 103.679 191.89 68.7154 187.896 43.3826C185.895 30.7161 184.335 20.4575 183.31 13.3613C182.792 9.80892 182.419 7.05351 182.19 5.17983C181.962 3.30615 181.877 2.3142 181.945 2.30572C182.021 2.29724 182.25 3.26376 182.614 5.12048C182.979 6.9772 183.479 9.71566 184.098 13.2511C185.336 20.3219 187.048 30.5551 189.1 43.213C193.204 68.5289 198.664 103.535 204.624 142.204L204.607 142.196Z" fill="#EFF5FB"/>
<path d="M213.795 141.586C213.481 180.687 213.193 216.075 212.99 241.73C212.947 254.524 212.922 264.884 212.896 272.082C212.913 275.643 212.922 278.415 212.93 280.331C212.947 281.256 212.956 281.968 212.964 282.476C212.981 282.96 212.99 283.206 213.007 283.206C213.024 283.206 213.041 282.96 213.058 282.476C213.066 281.968 213.083 281.256 213.108 280.331C213.134 278.415 213.159 275.643 213.202 272.082C213.227 264.893 213.27 254.532 213.312 241.73C213.278 216.075 213.236 180.687 213.185 141.586C213.108 102.501 213.091 67.1049 213.236 41.4838C213.303 28.6732 213.414 18.3044 213.541 11.1403C213.609 7.55407 213.676 4.77322 213.744 2.89106C213.812 0.991949 213.888 0 213.965 0C214.041 0 214.109 0.991949 214.168 2.87411C214.228 4.76474 214.278 7.54559 214.321 11.1234C214.406 18.2875 214.44 28.6563 214.423 41.4753C214.397 67.0964 214.143 102.493 213.795 141.577V141.586Z" fill="#EFF5FB"/>
<path d="M222.969 142.349C216.339 180.933 210.328 215.846 205.979 241.154C203.876 253.786 202.172 264.019 200.985 271.124C200.426 274.651 199.993 277.39 199.688 279.28C199.552 280.196 199.451 280.9 199.374 281.408C199.307 281.892 199.281 282.137 199.298 282.137C199.315 282.137 199.374 281.9 199.468 281.425C199.561 280.925 199.697 280.221 199.866 279.314C200.197 277.424 200.68 274.694 201.29 271.175C202.477 264.07 204.19 253.846 206.31 241.213C210.421 215.872 216.093 180.899 222.359 142.264C228.59 103.638 234.288 68.6734 238.578 43.383C240.714 30.7335 242.503 20.5088 243.783 13.455C244.427 9.92805 244.945 7.18959 245.326 5.33287C245.708 3.48462 245.937 2.50963 246.013 2.52658C246.089 2.53506 245.996 3.52701 245.75 5.40069C245.504 7.27437 245.106 10.0298 244.572 13.5737C243.495 20.6614 241.859 30.9116 239.773 43.5695C235.61 68.8769 229.633 103.807 222.969 142.366V142.349Z" fill="#EFF5FB"/>
<path d="M231.915 144.476C219.045 181.568 207.396 215.142 198.952 239.474C194.806 251.632 191.448 261.475 189.108 268.309C187.981 271.7 187.099 274.345 186.497 276.168C186.217 277.05 185.997 277.728 185.844 278.22C185.7 278.686 185.641 278.923 185.649 278.932C185.666 278.932 185.759 278.703 185.929 278.254C186.107 277.77 186.353 277.101 186.667 276.227C187.302 274.413 188.227 271.785 189.414 268.411C191.754 261.577 195.119 251.734 199.274 239.585C207.481 215.176 218.807 181.501 231.321 144.298C243.801 107.096 255.153 73.429 263.53 49.1051C267.718 36.9389 271.152 27.1127 273.577 20.3386C274.789 16.9473 275.755 14.3276 276.434 12.5556C277.112 10.7837 277.502 9.86804 277.57 9.885C277.638 9.91043 277.392 10.8685 276.841 12.6828C276.29 14.4971 275.45 17.1593 274.34 20.576C272.118 27.4179 268.82 37.2865 264.683 49.4697C256.425 73.836 244.802 107.418 231.898 144.485L231.915 144.476Z" fill="#EFF5FB"/>
<path d="M240.383 147.944C221.604 182.628 204.605 214.023 192.286 236.778C186.199 248.156 181.273 257.372 177.848 263.764C176.178 266.944 174.881 269.419 173.982 271.132C173.558 271.963 173.236 272.599 172.998 273.056C172.778 273.489 172.676 273.718 172.693 273.726C172.71 273.726 172.837 273.523 173.083 273.099C173.338 272.649 173.685 272.022 174.143 271.208C175.067 269.512 176.407 267.054 178.128 263.9C181.553 257.507 186.487 248.3 192.583 236.922C204.69 214.065 221.383 182.526 239.841 147.672C258.255 112.827 274.983 81.2966 287.234 58.5411C293.355 47.1634 298.357 37.973 301.867 31.6483C303.622 28.4859 304.995 26.0357 305.953 24.391C306.912 22.7462 307.446 21.8899 307.513 21.9238C307.581 21.9577 307.174 22.8734 306.335 24.5775C305.496 26.2816 304.224 28.7827 302.571 31.9959C299.256 38.4139 294.381 47.6636 288.302 59.0668C276.153 81.8731 259.179 113.285 240.383 147.944Z" fill="#EFF5FB"/>
<path d="M248.191 152.632C224.003 184.069 202.104 212.522 186.241 233.141C178.382 243.467 172.014 251.827 167.589 257.626C165.418 260.517 163.731 262.764 162.57 264.315C162.019 265.07 161.586 265.655 161.281 266.07C160.993 266.469 160.857 266.681 160.866 266.689C160.874 266.698 161.044 266.511 161.349 266.13C161.671 265.723 162.12 265.155 162.705 264.425C163.892 262.891 165.622 260.67 167.835 257.804C172.26 252.005 178.627 243.645 186.504 233.327C202.18 212.564 223.799 183.925 247.691 152.276C271.548 120.627 293.193 91.9959 308.997 71.36C316.898 61.042 323.333 52.7165 327.818 47.0022C330.065 44.145 331.828 41.9322 333.041 40.4485C334.253 38.9648 334.923 38.2103 334.982 38.2527C335.042 38.2951 334.491 39.1344 333.388 40.6944C332.286 42.2544 330.624 44.535 328.463 47.4515C324.139 53.293 317.822 61.6949 309.972 72.0467C294.27 92.7505 272.396 121.22 248.191 152.632Z" fill="#EFF5FB"/>
<path d="M255.142 158.439C226.155 185.875 199.932 210.707 180.916 228.706C171.479 237.727 163.841 245.035 158.533 250.105C155.922 252.64 153.896 254.607 152.488 255.964C151.818 256.625 151.301 257.142 150.937 257.507C150.589 257.855 150.42 258.041 150.428 258.058C150.437 258.066 150.631 257.905 150.996 257.575C151.378 257.219 151.912 256.727 152.607 256.091C154.031 254.751 156.091 252.81 158.745 250.317C164.052 245.247 171.7 237.948 181.145 228.935C199.983 210.775 225.977 185.714 254.701 158.024C283.392 130.326 309.411 105.281 328.36 87.2648C337.83 78.2525 345.537 70.9952 350.895 66.01C353.574 63.5174 355.668 61.6013 357.109 60.3127C358.551 59.0324 359.331 58.3796 359.382 58.4305C359.432 58.4814 358.754 59.2275 357.406 60.6009C356.058 61.9744 354.049 63.9752 351.446 66.5441C346.232 71.665 338.635 79.024 329.199 88.0787C310.335 106.18 284.121 131.038 255.134 158.439H255.142Z" fill="#EFF5FB"/>
<path d="M261.061 165.214C227.988 187.987 198.06 208.589 176.372 223.527C165.588 231.031 156.864 237.101 150.802 241.323C147.818 243.434 145.495 245.079 143.884 246.207C143.112 246.766 142.527 247.19 142.104 247.495C141.705 247.792 141.502 247.945 141.519 247.962C141.527 247.97 141.747 247.843 142.163 247.572C142.595 247.283 143.206 246.876 143.994 246.351C145.614 245.24 147.97 243.629 150.989 241.569C157.051 237.355 165.792 231.285 176.576 223.79C198.127 208.665 227.86 187.8 260.713 164.74C293.533 141.67 323.283 120.823 344.919 105.85C355.737 98.3638 364.52 92.3443 370.616 88.2239C373.668 86.1637 376.051 84.5868 377.679 83.527C379.306 82.4757 380.188 81.9501 380.231 82.0094C380.273 82.0688 379.484 82.7046 377.933 83.8577C376.381 85.0107 374.075 86.6894 371.083 88.8343C365.105 93.1158 356.407 99.2456 345.623 106.774C324.063 121.84 294.143 142.467 261.07 165.206L261.061 165.214Z" fill="#EFF5FB"/>
<path d="M265.817 172.793C229.445 190.309 196.541 206.163 172.684 217.66C160.814 223.45 151.2 228.139 144.528 231.386C141.238 233.022 138.669 234.294 136.906 235.176C136.058 235.608 135.405 235.947 134.93 236.185C134.49 236.414 134.269 236.541 134.278 236.558C134.278 236.575 134.523 236.473 134.973 236.269C135.448 236.049 136.117 235.735 136.982 235.337C138.763 234.48 141.348 233.251 144.672 231.666C151.344 228.419 160.958 223.739 172.836 217.956C196.584 206.257 229.344 190.114 265.537 172.276C301.705 154.421 334.482 138.295 358.28 126.765C370.183 121 379.831 116.371 386.529 113.225C389.878 111.648 392.489 110.445 394.27 109.648C396.05 108.851 397 108.469 397.034 108.528C397.068 108.596 396.177 109.105 394.465 110.012C392.744 110.919 390.192 112.233 386.894 113.895C380.289 117.227 370.709 121.975 358.831 127.791C335.084 139.423 302.18 155.311 265.817 172.793Z" fill="#EFF5FB"/>
<path d="M269.27 181.001C230.491 192.803 195.392 203.477 169.957 211.217C157.291 215.143 147.032 218.314 139.91 220.518C136.392 221.637 133.653 222.502 131.763 223.104C130.856 223.401 130.152 223.638 129.652 223.799C129.177 223.96 128.939 224.053 128.939 224.07C128.939 224.087 129.194 224.028 129.677 223.892C130.186 223.748 130.898 223.545 131.814 223.273C133.713 222.705 136.468 221.874 140.003 220.806C147.125 218.61 157.384 215.44 170.059 211.523C195.425 203.562 230.415 192.565 269.084 180.425C307.719 168.258 342.726 157.296 368.126 149.505C380.818 145.605 391.111 142.502 398.241 140.408C401.802 139.356 404.582 138.568 406.465 138.051C408.355 137.533 409.356 137.296 409.381 137.364C409.406 137.432 408.448 137.805 406.6 138.441C404.752 139.076 402.014 139.992 398.487 141.137C391.424 143.426 381.174 146.673 368.499 150.615C343.141 158.517 308.05 169.225 269.279 180.984L269.27 181.001Z" fill="#EFF5FB"/>
<path d="M271.345 189.622C231.116 195.412 194.711 200.643 168.318 204.442C155.16 206.4 144.512 207.986 137.119 209.079C133.456 209.647 130.616 210.097 128.649 210.402C127.699 210.563 126.97 210.682 126.453 210.766C125.961 210.851 125.707 210.911 125.707 210.919C125.707 210.936 125.97 210.919 126.462 210.851C126.987 210.783 127.725 210.69 128.674 210.563C130.641 210.283 133.498 209.885 137.17 209.368C144.563 208.274 155.211 206.697 168.369 204.747C194.72 200.72 231.074 195.158 271.252 189.02C311.396 182.848 347.768 177.32 374.118 173.471C387.293 171.546 397.967 170.029 405.343 169.037C409.031 168.545 411.905 168.172 413.855 167.952C415.805 167.731 416.831 167.646 416.848 167.714C416.857 167.782 415.856 168.002 413.923 168.359C411.99 168.706 409.141 169.189 405.47 169.791C398.12 170.987 387.471 172.64 374.305 174.615C347.971 178.583 311.566 183.848 271.345 189.605V189.622Z" fill="#EFF5FB"/>
<path d="M343.436 321.779C346.446 320.516 348.591 317.405 348.608 313.75C348.625 308.952 344.996 305.052 340.502 305.026C336.009 305.009 332.346 308.876 332.321 313.674C332.304 317.371 334.466 320.516 337.51 321.779C324.979 323.67 325.547 337.286 325.547 337.286L355.178 337.422C355.178 337.422 355.856 323.653 343.436 321.779Z" fill="#EFF5FB"/>
<path d="M203.104 240.756C205.046 239.586 207.106 238.696 209.234 238.094L210.497 232.024L220.756 231.846L222.231 237.865C224.385 238.391 226.479 239.213 228.454 240.315L233.634 236.916L241.019 244.046L237.806 249.345C238.976 251.286 239.866 253.346 240.468 255.483L246.538 256.746L246.716 267.005L240.697 268.48C240.171 270.625 239.349 272.728 238.247 274.703L241.646 279.892L234.525 287.276L229.226 284.063C227.284 285.233 225.224 286.123 223.088 286.725L221.824 292.795L211.566 292.973L210.09 286.954C207.937 286.428 205.843 285.606 203.868 284.504L198.687 287.904L191.303 280.773L194.516 275.475C193.346 273.533 192.456 271.473 191.854 269.336L185.784 268.073L185.605 257.814L191.625 256.339C192.151 254.194 192.973 252.092 194.075 250.116L190.675 244.928L197.797 237.543L203.096 240.756H203.104ZM208.573 254.423C204.351 258.798 204.469 265.767 208.844 269.989C213.219 274.211 220.188 274.084 224.41 269.718C228.632 265.343 228.514 258.374 224.139 254.152C219.764 249.93 212.795 250.057 208.573 254.423Z" fill="#E6F3FF"/>
<path d="M208.572 254.422C208.572 254.422 209.149 253.609 210.624 252.625C212.074 251.659 214.6 250.59 217.805 250.929C219.382 251.107 221.112 251.625 222.688 252.659C224.248 253.702 225.715 255.186 226.631 257.102C227.114 258.043 227.453 259.094 227.631 260.188C227.826 261.281 227.86 262.434 227.691 263.579C227.411 265.877 226.326 268.14 224.638 269.921C222.917 271.676 220.696 272.837 218.407 273.202C217.271 273.405 216.118 273.422 215.016 273.261C213.914 273.117 212.854 272.82 211.896 272.371C209.937 271.523 208.411 270.099 207.309 268.581C206.215 267.047 205.639 265.334 205.401 263.765C204.952 260.578 205.936 258.009 206.843 256.534C207.775 255.024 208.564 254.422 208.564 254.422C208.623 254.473 207.902 255.143 207.055 256.652C206.224 258.136 205.351 260.645 205.842 263.698C206.097 265.198 206.665 266.826 207.733 268.276C208.793 269.709 210.268 271.048 212.125 271.837C213.04 272.261 214.049 272.532 215.092 272.659C216.135 272.803 217.22 272.786 218.297 272.591C220.459 272.244 222.553 271.141 224.181 269.488C225.775 267.801 226.809 265.673 227.08 263.503C227.241 262.417 227.216 261.332 227.038 260.298C226.868 259.264 226.563 258.263 226.105 257.364C225.249 255.533 223.867 254.109 222.392 253.1C220.9 252.091 219.263 251.574 217.746 251.37C214.677 250.989 212.201 251.955 210.751 252.837C209.267 253.736 208.623 254.482 208.572 254.431V254.422Z" fill="#E6F3FF"/>
<path d="M203.104 240.756C203.104 240.756 202.985 240.705 202.764 240.578C202.519 240.434 202.179 240.239 201.747 239.993C200.823 239.442 199.483 238.653 197.754 237.636L197.881 237.619C196.067 239.518 193.684 242.019 190.802 245.037L190.819 244.842C191.853 246.411 193.006 248.149 194.235 250.014L194.295 250.107L194.244 250.209C193.235 252.032 192.387 254.109 191.836 256.39L191.811 256.508L191.692 256.542C189.818 257.009 187.783 257.509 185.672 258.034L185.842 257.814C185.91 261.044 185.978 264.469 186.045 268.073L185.85 267.835C187.733 268.225 189.801 268.649 191.921 269.09L192.073 269.124L192.116 269.277C192.684 271.26 193.557 273.363 194.761 275.338L194.846 275.483L194.761 275.627C193.769 277.271 192.675 279.086 191.556 280.934L191.514 280.586C193.837 282.825 196.338 285.233 198.907 287.7L198.542 287.666C200.153 286.606 201.925 285.444 203.722 284.266L203.875 284.164L204.036 284.249C205.842 285.258 207.962 286.123 210.183 286.665L210.361 286.708L210.403 286.886C210.87 288.768 211.37 290.828 211.887 292.905L211.582 292.668C214.829 292.609 218.313 292.549 221.84 292.481L221.535 292.727C221.934 290.811 222.366 288.742 222.798 286.657L222.841 286.47L223.027 286.419C225.045 285.851 227.139 284.961 229.081 283.791L229.25 283.689L229.411 283.791C231.192 284.868 232.955 285.945 234.71 287.004L234.32 287.055C236.728 284.563 239.102 282.104 241.45 279.679L241.417 280.069C240.272 278.323 239.144 276.593 238.025 274.881L237.923 274.72L238.017 274.558C239.102 272.608 239.916 270.531 240.442 268.412L240.484 268.234L240.662 268.191C242.697 267.691 244.706 267.199 246.681 266.716L246.453 267.013C246.393 263.511 246.334 260.095 246.283 256.754L246.512 257.034C244.452 256.602 242.434 256.178 240.442 255.762L240.272 255.728L240.23 255.567C239.619 253.388 238.72 251.354 237.601 249.497L237.517 249.353L237.601 249.209C238.703 247.394 239.78 245.631 240.823 243.918L240.865 244.24C238.271 241.731 235.829 239.357 233.498 237.102L233.795 237.127C231.972 238.314 230.251 239.433 228.606 240.51L228.487 240.586L228.369 240.519C226.3 239.365 224.231 238.585 222.205 238.077L222.086 238.043L222.061 237.924C221.535 235.737 221.052 233.761 220.603 231.896L220.789 232.04C216.813 232.091 213.43 232.134 210.53 232.176L210.666 232.066C210.149 234.491 209.717 236.474 209.36 238.128L209.344 238.187L209.284 238.204C207.114 238.806 205.588 239.518 204.596 240.01C204.121 240.256 203.756 240.451 203.494 240.586C203.248 240.722 203.129 240.781 203.129 240.773C203.129 240.773 203.248 240.688 203.468 240.544C203.706 240.4 204.062 240.179 204.553 239.925C205.537 239.399 207.054 238.662 209.233 238.017L209.165 238.094C209.496 236.432 209.903 234.44 210.386 232.015L210.412 231.905H210.522C213.422 231.837 216.804 231.761 220.781 231.676H220.925L220.959 231.82C221.425 233.677 221.908 235.652 222.451 237.839L222.298 237.687C224.358 238.187 226.469 238.975 228.581 240.137H228.343C229.988 239.06 231.701 237.933 233.515 236.737L233.676 236.636L233.812 236.771C236.152 239.018 238.602 241.383 241.205 243.884L241.357 244.028L241.247 244.207C240.204 245.928 239.144 247.691 238.042 249.514V249.234C239.187 251.125 240.111 253.21 240.747 255.432L240.535 255.228C242.519 255.644 244.545 256.059 246.605 256.483L246.834 256.534V256.763C246.902 260.095 246.961 263.52 247.029 267.021V267.259L246.8 267.318C244.816 267.801 242.815 268.302 240.781 268.802L241.001 268.581C240.467 270.752 239.645 272.88 238.525 274.881V274.558C239.636 276.271 240.772 278.001 241.917 279.739L242.052 279.951L241.883 280.129C239.543 282.553 237.169 285.021 234.761 287.513L234.583 287.691L234.371 287.564C232.616 286.504 230.853 285.428 229.072 284.351H229.394C227.402 285.555 225.257 286.462 223.188 287.047L223.409 286.809C222.976 288.895 222.544 290.964 222.146 292.88L222.095 293.126H221.84C218.313 293.194 214.829 293.253 211.582 293.304H211.336L211.277 293.066C210.768 290.989 210.268 288.929 209.801 287.047L210.022 287.267C207.741 286.708 205.579 285.818 203.722 284.783H204.036C202.239 285.945 200.467 287.106 198.848 288.166L198.653 288.293L198.483 288.132C195.923 285.656 193.43 283.24 191.107 280.993L190.946 280.841L191.065 280.646C192.184 278.806 193.286 276.992 194.286 275.355V275.635C193.065 273.609 192.167 271.455 191.599 269.429L191.794 269.616C189.674 269.166 187.605 268.734 185.723 268.344L185.528 268.302V268.107C185.469 264.503 185.418 261.078 185.367 257.848V257.67L185.537 257.628C187.648 257.119 189.683 256.627 191.565 256.169L191.412 256.322C191.989 254.007 192.862 251.905 193.896 250.056V250.252C192.684 248.378 191.548 246.631 190.522 245.054L190.454 244.944L190.539 244.851C193.455 241.858 195.872 239.391 197.703 237.509L197.762 237.449L197.83 237.492C199.526 238.543 200.831 239.357 201.739 239.925C202.162 240.196 202.493 240.408 202.739 240.561C202.968 240.705 203.078 240.781 203.078 240.79L203.104 240.756Z" fill="#E6F3FF"/>
<path d="M265.361 275.406C266.523 274.702 267.761 274.176 269.032 273.812L269.787 270.175L275.925 270.064L276.807 273.668C278.095 273.981 279.35 274.473 280.529 275.134L283.632 273.1L288.049 277.364L286.124 280.535C286.828 281.697 287.362 282.934 287.718 284.206L291.355 284.961L291.466 291.099L287.862 291.981C287.549 293.269 287.057 294.524 286.396 295.702L288.43 298.806L284.166 303.223L280.995 301.298C279.833 302.002 278.596 302.527 277.324 302.892L276.569 306.529L270.431 306.639L269.549 303.036C268.261 302.722 267.006 302.231 265.827 301.569L262.724 303.604L258.307 299.34L260.232 296.169C259.528 295.007 258.994 293.769 258.638 292.498L255.001 291.743L254.891 285.605L258.494 284.723C258.808 283.435 259.299 282.18 259.961 281.001L257.926 277.898L262.19 273.481L265.361 275.406ZM268.634 283.587C266.107 286.207 266.184 290.378 268.795 292.905C271.415 295.431 275.586 295.355 278.112 292.744C280.639 290.124 280.563 285.953 277.951 283.426C275.332 280.9 271.16 280.976 268.634 283.587Z" fill="#EFF5FB"/>
<path d="M268.63 283.586C268.63 283.586 268.977 283.102 269.859 282.509C270.724 281.932 272.241 281.288 274.158 281.492C275.099 281.602 276.133 281.907 277.083 282.526C278.015 283.145 278.897 284.035 279.448 285.188C279.736 285.756 279.94 286.383 280.05 287.036C280.169 287.689 280.186 288.376 280.084 289.063C279.914 290.436 279.27 291.793 278.253 292.861C277.227 293.912 275.887 294.607 274.522 294.819C273.844 294.938 273.149 294.946 272.496 294.853C271.835 294.768 271.199 294.59 270.631 294.319C269.461 293.81 268.545 292.963 267.884 292.055C267.231 291.131 266.883 290.114 266.748 289.173C266.476 287.265 267.07 285.731 267.612 284.84C268.172 283.942 268.647 283.577 268.647 283.577C268.681 283.611 268.248 284.01 267.74 284.917C267.239 285.807 266.722 287.308 267.01 289.13C267.163 290.029 267.502 291.004 268.138 291.869C268.774 292.725 269.656 293.531 270.766 293.997C271.317 294.251 271.919 294.412 272.538 294.489C273.166 294.573 273.81 294.565 274.454 294.446C275.751 294.234 277.006 293.573 277.981 292.589C278.939 291.581 279.55 290.309 279.711 289.003C279.804 288.359 279.796 287.706 279.685 287.087C279.584 286.468 279.397 285.866 279.126 285.332C278.617 284.238 277.786 283.382 276.904 282.78C276.014 282.178 275.031 281.865 274.124 281.746C272.284 281.517 270.809 282.093 269.935 282.619C269.045 283.162 268.664 283.603 268.63 283.569V283.586Z" fill="#EFF5FB"/>
<path d="M265.359 275.405C265.359 275.405 265.292 275.371 265.156 275.295C265.003 275.21 264.808 275.092 264.546 274.947C263.994 274.617 263.189 274.151 262.155 273.532H262.231C261.146 274.659 259.721 276.151 257.992 277.966V277.847C258.619 278.788 259.315 279.831 260.052 280.942L260.086 281.001L260.052 281.06C259.45 282.154 258.941 283.4 258.611 284.765L258.594 284.842L258.518 284.858C257.398 285.138 256.178 285.435 254.914 285.749L255.016 285.613C255.058 287.546 255.092 289.598 255.135 291.751L255.016 291.607C256.144 291.836 257.381 292.09 258.653 292.353L258.746 292.37L258.772 292.463C259.111 293.65 259.637 294.905 260.357 296.092L260.408 296.177L260.357 296.262C259.764 297.245 259.103 298.33 258.441 299.441L258.416 299.229C259.806 300.569 261.307 302.01 262.841 303.485L262.621 303.468C263.588 302.832 264.647 302.137 265.724 301.433L265.817 301.374L265.911 301.425C266.996 302.027 268.259 302.544 269.59 302.866L269.7 302.892L269.726 303.002C270.006 304.129 270.302 305.359 270.616 306.605L270.429 306.461C272.371 306.427 274.457 306.385 276.568 306.351L276.39 306.503C276.627 305.359 276.881 304.121 277.144 302.866L277.17 302.756L277.28 302.722C278.492 302.383 279.738 301.849 280.9 301.145L281.002 301.086L281.095 301.145C282.163 301.789 283.223 302.434 284.266 303.07L284.028 303.104C285.47 301.611 286.894 300.136 288.293 298.686L288.268 298.915C287.581 297.873 286.903 296.838 286.233 295.812L286.173 295.719L286.224 295.617C286.877 294.447 287.36 293.21 287.674 291.938L287.7 291.828L287.81 291.802C289.031 291.505 290.226 291.209 291.413 290.92L291.277 291.098C291.243 289.004 291.209 286.953 291.176 284.96L291.311 285.13C290.082 284.875 288.869 284.621 287.674 284.367L287.572 284.35L287.547 284.248C287.182 282.942 286.64 281.722 285.978 280.611L285.928 280.526L285.978 280.441C286.64 279.356 287.284 278.305 287.903 277.271L287.928 277.466C286.377 275.965 284.91 274.541 283.52 273.193L283.698 273.209C282.604 273.922 281.578 274.591 280.586 275.236L280.518 275.278L280.451 275.236C279.213 274.541 277.975 274.074 276.763 273.769L276.686 273.752L276.669 273.676C276.356 272.362 276.067 271.183 275.796 270.064L275.906 270.149C273.524 270.183 271.498 270.208 269.768 270.234L269.853 270.166C269.539 271.616 269.285 272.803 269.073 273.794V273.828L269.031 273.837C267.733 274.201 266.818 274.625 266.224 274.914C265.944 275.058 265.724 275.176 265.563 275.261C265.41 275.346 265.342 275.38 265.342 275.371C265.342 275.371 265.41 275.321 265.546 275.236C265.69 275.151 265.902 275.024 266.19 274.863C266.775 274.549 267.691 274.108 268.997 273.718L268.954 273.761C269.158 272.769 269.395 271.573 269.683 270.123L269.7 270.056H269.768C271.506 270.013 273.532 269.971 275.906 269.92H275.991L276.017 270.005C276.296 271.115 276.585 272.294 276.915 273.608L276.822 273.515C278.06 273.82 279.323 274.286 280.586 274.981H280.442C281.426 274.337 282.452 273.659 283.537 272.947L283.63 272.887L283.715 272.972C285.114 274.32 286.58 275.727 288.14 277.228L288.234 277.313L288.166 277.423C287.547 278.457 286.903 279.509 286.25 280.602V280.433C286.936 281.56 287.488 282.815 287.869 284.146L287.742 284.028C288.929 284.274 290.141 284.528 291.379 284.782L291.515 284.808V284.943C291.557 286.936 291.591 288.987 291.633 291.081V291.226L291.498 291.26C290.311 291.548 289.115 291.845 287.894 292.15L288.03 292.014C287.708 293.311 287.216 294.591 286.546 295.787V295.592C287.208 296.618 287.886 297.652 288.573 298.695L288.658 298.822L288.556 298.932C287.157 300.382 285.733 301.857 284.291 303.349L284.19 303.46L284.062 303.383C283.011 302.747 281.951 302.103 280.892 301.459H281.086C279.9 302.179 278.611 302.722 277.373 303.07L277.509 302.926C277.246 304.172 276.992 305.41 276.754 306.563L276.72 306.707H276.568C274.457 306.749 272.371 306.783 270.429 306.817H270.285L270.251 306.673C269.946 305.427 269.649 304.197 269.37 303.07L269.505 303.205C268.14 302.866 266.843 302.341 265.733 301.722H265.919C264.842 302.417 263.783 303.112 262.816 303.748L262.697 303.824L262.596 303.722C261.061 302.239 259.569 300.789 258.187 299.449L258.094 299.356L258.161 299.238C258.831 298.135 259.493 297.05 260.086 296.067V296.236C259.357 295.024 258.823 293.735 258.484 292.523L258.602 292.633C257.331 292.37 256.093 292.107 254.974 291.87L254.855 291.845V291.726C254.821 289.572 254.787 287.521 254.762 285.588V285.477L254.863 285.452C256.127 285.147 257.348 284.85 258.475 284.579L258.382 284.672C258.73 283.29 259.255 282.027 259.874 280.925V281.043C259.153 279.924 258.467 278.873 257.856 277.932L257.814 277.864L257.865 277.813C259.611 276.024 261.053 274.541 262.155 273.421L262.189 273.387L262.231 273.413C263.248 274.04 264.028 274.532 264.571 274.871C264.825 275.032 265.02 275.159 265.173 275.253C265.309 275.337 265.376 275.388 265.376 275.388L265.359 275.405Z" fill="#EFF5FB"/>
<path d="M365.785 207.931L325.668 223.058L337.762 255.131L377.879 240.004L365.785 207.931Z" fill="#E6F3FF"/>
<path d="M365.797 207.92C365.797 207.92 365.73 207.945 365.602 207.996C365.467 208.047 365.289 208.123 365.043 208.216C364.543 208.411 363.814 208.691 362.872 209.047C360.965 209.776 358.192 210.828 354.674 212.176C347.629 214.846 337.624 218.636 325.729 223.155L325.797 223.011C329.401 232.557 333.529 243.494 337.904 255.075L337.743 255.008C352.597 249.412 366.399 244.215 377.862 239.899L377.803 240.035C374.182 230.37 371.181 222.358 369.078 216.754C368.036 213.948 367.213 211.752 366.654 210.243C366.374 209.497 366.162 208.92 366.018 208.522C365.874 208.132 365.806 207.92 365.806 207.92C365.806 207.92 365.882 208.106 366.035 208.488C366.187 208.878 366.399 209.446 366.688 210.183C367.256 211.684 368.095 213.863 369.155 216.652C371.283 222.265 374.326 230.277 377.998 239.95L378.031 240.043L377.938 240.077C366.476 244.41 352.682 249.615 337.828 255.228L337.709 255.27L337.667 255.152C333.301 243.57 329.18 232.625 325.585 223.079L325.543 222.977L325.645 222.934C337.582 218.458 347.629 214.685 354.699 212.04C358.218 210.726 360.999 209.692 362.898 208.979C363.839 208.632 364.568 208.36 365.06 208.174C365.297 208.089 365.484 208.021 365.611 207.97C365.738 207.928 365.797 207.911 365.797 207.911V207.92Z" fill="#E6F3FF"/>
<path d="M365.117 210.494L327.816 224.559L338.388 252.594L375.688 238.529L365.117 210.494Z" fill="#D8EAFB"/>
<path d="M338.396 252.574L344.848 230.234L357.032 238.094L360.304 230.209L375.692 238.509L338.396 252.574Z" fill="#E6F3FF"/>
<path d="M355.539 223.764C356.149 225.384 355.336 227.198 353.708 227.809C352.088 228.419 350.274 227.605 349.664 225.977C349.053 224.358 349.867 222.544 351.495 221.933C353.114 221.323 354.929 222.137 355.539 223.764Z" fill="#E6F3FF"/>
<path d="M101.848 226.003L38.4102 230.473L41.9834 281.191L105.421 276.721L101.848 226.003Z" fill="#E6F3FF"/>
<path d="M101.859 225.994C101.859 225.994 101.748 226.011 101.553 226.028C101.341 226.045 101.053 226.07 100.663 226.104C99.8747 226.164 98.7217 226.248 97.221 226.367C94.2028 226.588 89.8111 226.918 84.2324 227.325C73.0921 228.131 57.2548 229.275 38.4332 230.64L38.5858 230.462C39.6541 245.553 40.8834 262.857 42.1806 281.17L41.9856 281.001C65.4702 279.356 87.3015 277.83 105.428 276.558L105.284 276.719C104.241 261.441 103.376 248.784 102.774 239.932C102.477 235.507 102.249 232.031 102.088 229.648C102.011 228.47 101.952 227.563 101.918 226.935C101.884 226.316 101.867 225.994 101.867 225.994C101.867 225.994 101.901 226.299 101.952 226.901C102.003 227.52 102.071 228.419 102.155 229.58C102.333 231.954 102.588 235.413 102.918 239.822C103.563 248.699 104.487 261.391 105.597 276.694V276.846L105.453 276.855C87.327 278.143 65.5041 279.687 42.0195 281.357L41.833 281.374L41.816 281.187C40.5358 262.866 39.315 245.562 38.2637 230.471V230.31L38.4163 230.301C57.2887 229.004 73.1684 227.91 84.3342 227.147C89.8959 226.774 94.2791 226.477 97.2888 226.274C98.7725 226.181 99.9171 226.104 100.706 226.053C101.087 226.028 101.375 226.011 101.579 226.003C101.774 225.994 101.867 225.994 101.867 225.994H101.859Z" fill="#E6F3FF"/>
<path d="M99.8069 229.351L40.8262 233.507L43.9496 277.84L102.93 273.684L99.8069 229.351Z" fill="#D8EAFB"/>
<path d="M43.959 277.839L62.6195 248.826L76.5915 265.172L84.595 255.337L102.942 273.676L43.959 277.839Z" fill="#E6F3FF"/>
<path d="M80.5606 244.171C80.7387 246.74 78.8056 248.962 76.2452 249.14C73.6763 249.318 71.455 247.385 71.277 244.824C71.099 242.255 73.032 240.034 75.5924 239.856C78.1613 239.678 80.3826 241.611 80.5606 244.171Z" fill="#E6F3FF"/>
<path d="M152.938 81.7721C153.506 83.171 164.332 110.318 164.332 110.318L176.253 106.088L188.91 116.253L176.888 93.7518L166.265 97.2448L152.946 81.7637L152.938 81.7721Z" fill="#E6F3FF"/>
<path d="M182.367 50.9795C182.367 51.9969 182.299 71.6408 182.299 71.6408L190.429 71.9969L195.542 81.5179L193.77 64.4683L186.589 63.9766L182.358 50.9795H182.367Z" fill="#E6F3FF"/>
<path d="M274.76 78.9072C274.302 80.0772 264.679 110.098 264.679 110.098L258.337 105.334L241.652 119.128L257.464 92.0569L263.424 96.0586L274.768 78.9072H274.76Z" fill="#E6F3FF"/>
<path d="M101.395 124.366L58.5465 119.253C55.5877 118.897 53.4681 116.21 53.8242 113.251L60.895 53.9372C61.2511 50.9783 63.9387 48.8587 66.8976 49.2148L94.0702 52.4535L112.519 76.6418L107.398 119.635C107.042 122.594 104.354 124.713 101.395 124.357V124.366Z" fill="#EFF5FB"/>
<path d="M94.0716 52.4619L92.0792 69.1555C91.7486 71.9109 93.7155 74.412 96.4709 74.7341L112.52 76.6502L94.0716 52.4619Z" fill="#B6D7F7"/>
<path d="M92.1214 70.6472C92.1214 70.6472 91.4262 74.6743 95.8773 76.548C96.0468 76.6158 96.2164 76.6751 96.3944 76.726C98.4461 77.3534 111.952 81.4484 111.986 81.1347C112.028 80.7955 112.52 76.6497 112.52 76.6497L96.4707 74.7336C96.4707 74.7336 92.4775 74.1147 92.1214 70.6387V70.6472Z" fill="#A9CFF2"/>
<path d="M88.5708 68.0458C88.5454 68.2577 84.0859 67.9016 78.609 67.2488C73.132 66.596 68.7149 65.8923 68.7403 65.6803C68.7658 65.4684 73.2253 65.8245 78.7022 66.4773C84.1791 67.1301 88.5963 67.8338 88.5708 68.0458Z" fill="#A1CBF1"/>
<path d="M100.242 79.0076C100.217 79.2196 92.8914 78.5244 83.8791 77.4477C74.8668 76.3709 67.584 75.3281 67.6094 75.1162C67.6349 74.9042 74.96 75.5994 83.9724 76.6761C92.9847 77.7529 100.267 78.7957 100.242 79.0076Z" fill="#A1CBF1"/>
<path d="M102.244 87.2409C102.218 87.4529 94.2319 86.6814 84.4142 85.5114C74.5879 84.3414 66.6524 83.2138 66.6778 83.0018C66.7032 82.7899 74.6812 83.5614 84.5074 84.7314C94.3252 85.9014 102.269 87.029 102.244 87.2409Z" fill="#A1CBF1"/>
<path d="M101.365 94.6765C101.339 94.8884 93.353 94.1169 83.5353 92.9469C73.709 91.7769 65.7735 90.6493 65.7989 90.4374C65.8243 90.2254 73.8023 90.9969 83.6285 92.1669C93.4463 93.3369 101.39 94.4645 101.365 94.6765Z" fill="#A1CBF1"/>
<path d="M100.472 102.111C100.447 102.323 92.4604 101.551 82.6427 100.381C72.8165 99.2115 64.8809 98.0839 64.9063 97.8719C64.9317 97.66 72.9097 98.4315 82.7359 99.6015C92.5537 100.771 100.498 101.899 100.472 102.111Z" fill="#A1CBF1"/>
<path d="M99.5817 109.546C99.5563 109.758 91.5698 108.986 81.7521 107.816C71.9258 106.646 63.9903 105.518 64.0157 105.307C64.0411 105.095 72.0191 105.866 81.8453 107.036C91.6631 108.206 99.6071 109.334 99.5817 109.546Z" fill="#A1CBF1"/>
<path d="M328.513 69.7585L320.084 95.3945L358.123 107.901L366.552 82.2652L328.513 69.7585Z" fill="#C2E2FF"/>
<path d="M366.535 82.5855C366.535 82.5855 366.383 82.6702 366.069 82.8144C365.721 82.9585 365.272 83.1535 364.704 83.3909C363.475 83.8911 361.762 84.5948 359.659 85.4596C355.352 87.1891 349.452 89.563 342.923 92.1828L342.788 92.2421L342.703 92.1149C342.644 92.0217 342.576 91.9199 342.508 91.8097C338.625 85.8411 335.106 80.432 332.538 76.4812C331.291 74.5312 330.282 72.9458 329.553 71.8097C329.223 71.2755 328.96 70.8516 328.756 70.5295C328.578 70.2327 328.485 70.0801 328.502 70.0716C328.519 70.0632 328.621 70.2073 328.824 70.4871C329.036 70.8008 329.324 71.2162 329.68 71.7249C330.427 72.844 331.478 74.4125 332.767 76.3285C335.361 80.2624 338.905 85.6461 342.822 91.5978C342.889 91.6995 342.957 91.8013 343.017 91.903L342.796 91.8352C349.341 89.2493 355.259 86.9178 359.575 85.2137C361.694 84.3913 363.424 83.73 364.661 83.2468C365.238 83.0348 365.704 82.8568 366.052 82.7296C366.374 82.6109 366.544 82.56 366.544 82.5685L366.535 82.5855Z" fill="#E6F3FF"/>
<path d="M320.075 95.7266C320.024 95.6418 324.034 93.0644 329.045 89.9784C334.055 86.8838 338.15 84.4506 338.201 84.5354C338.252 84.6201 334.242 87.1975 329.231 90.2836C324.229 93.3696 320.126 95.8114 320.075 95.7266Z" fill="#E6F3FF"/>
<path d="M350.951 88.3693C351.045 88.3354 352.723 92.7526 354.699 98.238C356.674 103.723 358.2 108.191 358.107 108.225C358.014 108.259 356.335 103.842 354.36 98.3566C352.384 92.8713 350.858 88.4032 350.951 88.3693Z" fill="#E6F3FF"/>
<path d="M17.8929 117.973C20.9027 116.709 23.0476 113.598 23.0646 109.944C23.0816 105.145 19.4529 101.245 14.9595 101.22C10.466 101.203 6.80343 105.069 6.778 109.868C6.76104 113.564 8.92298 116.709 11.9667 117.973C-0.564113 119.863 0.00392515 133.479 0.00392515 133.479L29.6352 133.615C29.6352 133.615 30.3135 119.846 17.8844 117.973H17.8929Z" fill="#EFF5FB"/>
<path d="M33.0058 173.935C33.9214 173.384 34.8879 172.968 35.8883 172.68L36.4818 169.823L41.3059 169.738L42.0011 172.57C43.01 172.816 43.9935 173.206 44.9261 173.723L47.3678 172.129L50.8354 175.478L49.3263 177.971C49.8774 178.886 50.2928 179.853 50.5811 180.853L53.4382 181.447L53.523 186.271L50.6913 186.966C50.4454 187.975 50.0554 188.958 49.5382 189.891L51.1321 192.333L47.7833 195.8L45.2907 194.291C44.375 194.842 43.4085 195.258 42.4081 195.546L41.8146 198.403L36.9905 198.488L36.2953 195.656C35.2864 195.41 34.3029 195.02 33.3703 194.503L30.9286 196.097L27.461 192.748L28.9701 190.256C28.4191 189.34 28.0036 188.373 27.7154 187.373L24.8582 186.779L24.7734 181.955L27.6052 181.26C27.851 180.251 28.241 179.268 28.7582 178.335L27.1643 175.893L30.5132 172.426L33.0058 173.935ZM35.5747 180.361C33.5908 182.422 33.6501 185.694 35.7018 187.678C37.762 189.662 41.0346 189.603 43.0185 187.551C45.0024 185.491 44.9431 182.218 42.8913 180.234C40.8311 178.25 37.5586 178.31 35.5747 180.361Z" fill="#EFF5FB"/>
<path d="M35.5834 180.361C35.5834 180.361 35.8547 179.979 36.5499 179.513C37.2282 179.064 38.4151 178.555 39.9242 178.716C40.6703 178.801 41.4757 179.038 42.2218 179.53C42.9509 180.022 43.6462 180.717 44.0785 181.624C44.3075 182.065 44.4601 182.565 44.5533 183.074C44.6466 183.591 44.6635 184.125 44.5788 184.668C44.4516 185.753 43.9344 186.813 43.1459 187.652C42.3405 188.474 41.2892 189.025 40.2125 189.195C39.6784 189.288 39.1358 189.297 38.6186 189.22C38.1014 189.153 37.6012 189.009 37.1519 188.805C36.2362 188.407 35.5156 187.737 34.9984 187.025C34.4812 186.304 34.2099 185.499 34.0997 184.761C33.8878 183.26 34.3541 182.056 34.778 181.361C35.2188 180.649 35.5919 180.369 35.5919 180.369C35.6173 180.395 35.2782 180.708 34.8797 181.421C34.4897 182.116 34.0743 183.294 34.3117 184.736C34.4304 185.439 34.7017 186.211 35.2019 186.889C35.7021 187.567 36.3973 188.195 37.2706 188.559C37.7029 188.754 38.1777 188.89 38.661 188.949C39.1527 189.017 39.6614 189.009 40.1701 188.915C41.1875 188.754 42.171 188.229 42.934 187.457C43.6801 186.669 44.1718 185.66 44.299 184.642C44.3753 184.134 44.3668 183.625 44.282 183.133C44.2057 182.641 44.0616 182.175 43.8412 181.751C43.4427 180.886 42.7899 180.225 42.0947 179.742C41.391 179.267 40.6194 179.021 39.9073 178.928C38.466 178.75 37.3045 179.199 36.6177 179.615C35.9225 180.039 35.6173 180.386 35.5919 180.361H35.5834Z" fill="#EFF5FB"/>
<path d="M33.006 173.934C33.006 173.934 32.9552 173.909 32.8449 173.849C32.7262 173.782 32.5736 173.688 32.3702 173.57C31.9378 173.315 31.3104 172.942 30.488 172.459H30.5474C29.6911 173.349 28.5719 174.519 27.2154 175.944V175.85C27.7156 176.588 28.2498 177.402 28.8348 178.284L28.8602 178.326L28.8348 178.368C28.36 179.225 27.9615 180.2 27.6987 181.276L27.6817 181.336L27.6224 181.353C26.7406 181.573 25.7826 181.81 24.7907 182.056L24.867 181.955C24.9009 183.472 24.9263 185.083 24.9602 186.779L24.867 186.668C25.7487 186.847 26.7237 187.05 27.7241 187.253L27.8004 187.27L27.8174 187.338C28.0802 188.271 28.4956 189.263 29.0637 190.187L29.1061 190.255L29.0637 190.323C28.5974 191.094 28.0802 191.95 27.5545 192.815L27.5376 192.654C28.6313 193.705 29.8097 194.841 31.0137 196.003L30.8441 195.986C31.6071 195.486 32.438 194.943 33.2773 194.384L33.3452 194.333L33.4215 194.375C34.2693 194.85 35.2697 195.257 36.3125 195.511L36.3973 195.528L36.4143 195.613C36.6347 196.503 36.8721 197.47 37.1095 198.445L36.9653 198.334C38.4914 198.309 40.1277 198.275 41.7894 198.25L41.6453 198.368C41.8318 197.47 42.0353 196.495 42.2388 195.511L42.2557 195.426L42.3405 195.401C43.2901 195.13 44.2735 194.714 45.1892 194.163L45.2655 194.112L45.3418 194.155C46.1811 194.663 47.012 195.164 47.8344 195.664L47.6479 195.689C48.7839 194.519 49.8946 193.358 50.9968 192.222L50.9798 192.408C50.4457 191.586 49.9115 190.772 49.3859 189.966L49.335 189.89L49.3774 189.814C49.8861 188.898 50.2676 187.923 50.5135 186.923L50.5304 186.838L50.6152 186.821C51.5733 186.584 52.5143 186.355 53.4469 186.126L53.3367 186.262C53.3113 184.617 53.2859 183.006 53.2604 181.437L53.3706 181.565C52.4041 181.361 51.4546 181.166 50.5135 180.971L50.4372 180.954L50.4118 180.878C50.1235 179.852 49.6996 178.894 49.1739 178.021L49.1315 177.953L49.1739 177.885C49.6911 177.029 50.1998 176.206 50.6915 175.392L50.7085 175.545C49.4876 174.367 48.3431 173.247 47.2409 172.188L47.385 172.205C46.5287 172.764 45.7233 173.29 44.9433 173.799L44.8925 173.832L44.8331 173.799C43.8581 173.256 42.8916 172.891 41.9336 172.646L41.8742 172.629L41.8573 172.569C41.6114 171.543 41.3825 170.611 41.1705 169.738L41.2553 169.805C39.3901 169.831 37.7962 169.848 36.4312 169.865L36.499 169.814C36.2532 170.95 36.0497 171.891 35.8886 172.662V172.688H35.8547C34.8373 172.976 34.1167 173.307 33.6504 173.536C33.4299 173.654 33.2604 173.739 33.1332 173.807C33.0145 173.875 32.9636 173.9 32.9636 173.892C32.9636 173.892 33.023 173.849 33.1247 173.782C33.2349 173.714 33.4045 173.612 33.6334 173.485C34.0912 173.239 34.8119 172.891 35.8377 172.586L35.8038 172.62C35.9649 171.84 36.1514 170.899 36.3803 169.763V169.712H36.4482C37.8132 169.678 39.3986 169.644 41.2723 169.61H41.3401L41.357 169.678C41.5775 170.551 41.8064 171.476 42.0607 172.51L41.9929 172.442C42.9594 172.679 43.9599 173.044 44.9518 173.595H44.8416C45.6131 173.086 46.4185 172.561 47.2748 171.993L47.3511 171.942L47.419 172.001C48.5211 173.061 49.6742 174.172 50.895 175.342L50.9628 175.409L50.912 175.494C50.4202 176.308 49.92 177.131 49.4029 177.987V177.851C49.9455 178.741 50.3778 179.725 50.6746 180.768L50.5728 180.674C51.5054 180.869 52.4635 181.064 53.43 181.268L53.5402 181.293V181.404C53.5741 182.972 53.5996 184.583 53.6335 186.228V186.338L53.5233 186.363C52.5907 186.592 51.6496 186.821 50.6915 187.058L50.7933 186.957C50.5389 187.974 50.1574 188.975 49.6318 189.916V189.763C50.1574 190.568 50.6831 191.382 51.2257 192.196L51.2935 192.298L51.2087 192.383C50.1065 193.527 48.9874 194.68 47.8598 195.85L47.775 195.935L47.6733 195.876C46.8509 195.376 46.0201 194.875 45.1807 194.367H45.3333C44.4007 194.935 43.3918 195.359 42.4168 195.63L42.5186 195.52C42.3151 196.503 42.1116 197.47 41.9251 198.377L41.8996 198.496H41.781C40.1192 198.529 38.4829 198.555 36.9569 198.58H36.8382L36.8127 198.47C36.5753 197.495 36.338 196.529 36.1175 195.638L36.2193 195.74C35.1425 195.477 34.1251 195.062 33.2604 194.57H33.4045C32.5567 195.121 31.7258 195.664 30.9628 196.164L30.8695 196.223L30.7932 196.147C29.5893 194.986 28.4193 193.85 27.3256 192.79L27.2493 192.713L27.3002 192.62C27.8259 191.755 28.343 190.899 28.8178 190.128V190.263C28.2413 189.314 27.8259 188.296 27.5545 187.347L27.6478 187.432C26.6474 187.22 25.6809 187.016 24.7907 186.83L24.6974 186.813V186.719C24.672 185.024 24.6465 183.413 24.6211 181.895V181.81L24.7059 181.794C25.6978 181.556 26.6559 181.319 27.5376 181.107L27.4698 181.175C27.7411 180.089 28.1565 179.097 28.6398 178.233V178.326C28.0717 177.444 27.5376 176.622 27.0543 175.884L27.0204 175.833L27.0628 175.791C28.4363 174.384 29.5724 173.222 30.4371 172.34L30.4626 172.315L30.4965 172.332C31.2934 172.824 31.9039 173.205 32.3362 173.476C32.5397 173.604 32.6923 173.705 32.811 173.773C32.9128 173.841 32.9721 173.875 32.9721 173.883L33.006 173.934Z" fill="#EFF5FB"/>
<path d="M413.092 334.507C414.007 333.956 414.974 333.541 415.974 333.252L416.568 330.395L421.392 330.311L422.087 333.142C423.096 333.388 424.079 333.778 425.012 334.295L427.454 332.701L430.921 336.05L429.412 338.543C429.963 339.459 430.379 340.425 430.667 341.425L433.524 342.019L433.609 346.843L430.777 347.538C430.531 348.547 430.141 349.531 429.624 350.463L431.218 352.905L427.869 356.373L425.377 354.863C424.461 355.414 423.494 355.83 422.494 356.118L421.901 358.975L417.076 359.06L416.381 356.228C415.372 355.983 414.389 355.593 413.456 355.075L411.015 356.669L407.547 353.32L409.056 350.828C408.505 349.912 408.09 348.946 407.801 347.945L404.944 347.352L404.859 342.528L407.691 341.832C407.937 340.824 408.327 339.84 408.844 338.907L407.25 336.466L410.599 332.998L413.092 334.507ZM415.661 340.934C413.677 342.994 413.736 346.267 415.788 348.25C417.848 350.234 421.121 350.175 423.104 348.123C425.088 346.071 425.029 342.79 422.977 340.807C420.917 338.823 417.644 338.882 415.661 340.934Z" fill="#EFF5FB"/>
<path d="M415.662 340.934C415.662 340.934 415.933 340.553 416.628 340.086C417.306 339.637 418.493 339.128 420.002 339.289C420.748 339.374 421.554 339.611 422.3 340.103C423.029 340.595 423.724 341.29 424.157 342.197C424.386 342.638 424.538 343.138 424.631 343.647C424.725 344.164 424.742 344.698 424.657 345.241C424.53 346.326 424.013 347.386 423.224 348.225C422.419 349.048 421.367 349.599 420.291 349.768C419.757 349.862 419.214 349.87 418.697 349.794C418.18 349.726 417.679 349.582 417.23 349.378C416.314 348.98 415.594 348.31 415.077 347.598C414.559 346.877 414.288 346.072 414.178 345.334C413.966 343.834 414.432 342.63 414.856 341.934C415.297 341.222 415.67 340.943 415.67 340.943C415.695 340.968 415.356 341.282 414.958 341.994C414.568 342.689 414.152 343.867 414.39 345.309C414.508 346.012 414.78 346.784 415.28 347.462C415.78 348.14 416.475 348.768 417.349 349.132C417.781 349.327 418.256 349.463 418.739 349.522C419.231 349.59 419.74 349.582 420.248 349.489C421.266 349.327 422.249 348.802 423.012 348.03C423.758 347.242 424.25 346.233 424.377 345.216C424.453 344.707 424.445 344.198 424.36 343.706C424.284 343.215 424.14 342.748 423.919 342.324C423.521 341.46 422.868 340.798 422.173 340.315C421.469 339.84 420.698 339.594 419.985 339.501C418.544 339.323 417.383 339.773 416.696 340.188C416.001 340.612 415.695 340.959 415.67 340.934H415.662Z" fill="#EFF5FB"/>
<circle cx="213.386" cy="181.238" r="115.582" fill="#E6F3FF"/>
<mask id="mask0_5234_1589" style="mask-type:alpha" maskUnits="userSpaceOnUse" x="100" y="65" width="232" height="232">
<circle cx="216.386" cy="181.237" r="115.582" fill="#E6F3FF"/>
</mask>
<g mask="url(#mask0_5234_1589)">
<path d="M255.193 175.27H266.578V180.269H255.193C253.812 180.269 252.693 179.15 252.693 177.77C252.693 176.389 253.812 175.27 255.193 175.27Z" stroke="#003366" stroke-width="0.925645"/>
<path fill-rule="evenodd" clip-rule="evenodd" d="M212.652 88.9082C212.497 88.9082 212.342 88.9086 212.188 88.9095C256.451 89.1579 292.257 125.117 292.257 169.439V303.658H302.439V170.365C302.439 125.378 265.97 88.9082 220.982 88.9082H212.652Z" fill="#D8EAFB"/>
<path d="M261.437 207.678L258.943 206.819L259.274 205.856L262.775 207.062L260.666 213.188L259.659 212.842L261.437 207.678ZM253.523 204.777C254.347 204.375 255.202 204.327 256.089 204.632C256.976 204.938 257.623 205.503 258.03 206.329C258.43 207.158 258.477 208.016 258.172 208.903C257.867 209.79 257.302 210.434 256.478 210.836C255.647 211.242 254.788 211.292 253.901 210.986C253.014 210.681 252.371 210.114 251.971 209.284C251.564 208.459 251.513 207.602 251.818 206.715C252.123 205.828 252.692 205.182 253.523 204.777ZM257.087 206.767C256.809 206.208 256.364 205.823 255.751 205.613C255.139 205.402 254.554 205.432 253.997 205.704C253.432 205.979 253.041 206.432 252.824 207.062C252.607 207.692 252.638 208.287 252.915 208.846C253.185 209.408 253.626 209.795 254.239 210.006C254.851 210.217 255.44 210.185 256.005 209.909C256.562 209.638 256.948 209.187 257.165 208.557C257.382 207.927 257.356 207.33 257.087 206.767ZM249.097 202.225C250.019 202.542 250.679 203.109 251.076 203.925C251.472 204.746 251.516 205.606 251.206 206.505C250.897 207.403 250.334 208.052 249.518 208.449C248.701 208.853 247.831 208.896 246.909 208.579C246.355 208.388 245.889 208.081 245.513 207.658C245.131 207.232 244.886 206.75 244.778 206.21L245.828 206.004C245.887 206.363 246.044 206.685 246.298 206.969C246.545 207.256 246.861 207.466 247.246 207.599C247.9 207.824 248.502 207.799 249.053 207.526C249.599 207.25 249.981 206.794 250.2 206.158C250.419 205.522 250.398 204.928 250.138 204.375C249.872 203.82 249.413 203.43 248.759 203.205C248.374 203.072 247.994 203.039 247.619 203.106C247.241 203.178 246.922 203.339 246.66 203.588L245.956 202.788C246.368 202.427 246.856 202.194 247.421 202.088C247.978 201.986 248.537 202.032 249.097 202.225ZM240.966 199.552L242.165 199.965L243.577 203.711L244.581 200.797L245.587 201.143L243.478 207.27L242.471 206.923L243.417 204.175L240.143 206.122L238.944 205.709L242.448 203.577L240.966 199.552ZM238.976 199.944L236.262 199.01L236.594 198.047L240.314 199.328L238.204 205.454L234.528 204.188L234.86 203.226L237.529 204.145L238.077 202.552L235.627 201.708L235.955 200.754L238.406 201.598L238.976 199.944ZM231.156 203.027C230.316 202.738 229.72 202.203 229.369 201.423C229.012 200.641 228.982 199.818 229.279 198.955C229.574 198.097 230.104 197.467 230.87 197.065C231.627 196.666 232.425 196.612 233.266 196.901L235.673 197.73L233.563 203.856L231.156 203.027ZM232.934 197.864C232.357 197.665 231.819 197.701 231.32 197.974C230.816 198.244 230.459 198.682 230.25 199.289C230.039 199.902 230.05 200.467 230.283 200.984C230.509 201.506 230.91 201.866 231.488 202.065L232.888 202.547L234.335 198.346L232.934 197.864Z" fill="#003366"/>
<path d="M169.377 241.163L171.966 240.661L172.161 241.66L168.526 242.366L167.291 236.005L168.336 235.802L169.377 241.163ZM177.681 239.721C177.169 240.48 176.452 240.95 175.531 241.128C174.611 241.307 173.767 241.141 173.002 240.629C172.241 240.111 171.771 239.391 171.592 238.47C171.414 237.549 171.581 236.709 172.093 235.95C172.611 235.183 173.33 234.71 174.251 234.531C175.172 234.353 176.012 234.523 176.773 235.041C177.539 235.553 178.011 236.269 178.19 237.19C178.368 238.11 178.199 238.954 177.681 239.721ZM173.6 239.778C174.12 240.123 174.698 240.234 175.334 240.111C175.97 239.987 176.461 239.669 176.808 239.155C177.159 238.634 177.272 238.047 177.145 237.392C177.018 236.738 176.694 236.238 176.175 235.893C175.66 235.54 175.084 235.426 174.448 235.549C173.812 235.673 173.318 235.995 172.967 236.516C172.62 237.029 172.51 237.613 172.637 238.267C172.764 238.922 173.085 239.425 173.6 239.778ZM182.791 239.719C181.834 239.905 180.979 239.744 180.227 239.236C179.473 238.723 179.006 237.999 178.825 237.066C178.644 236.133 178.807 235.291 179.315 234.538C179.821 233.78 180.553 233.308 181.51 233.122C182.086 233.01 182.642 233.044 183.18 233.222C183.723 233.4 184.177 233.695 184.54 234.109L183.733 234.812C183.503 234.53 183.206 234.33 182.844 234.212C182.486 234.086 182.108 234.062 181.708 234.14C181.029 234.272 180.52 234.594 180.179 235.106C179.845 235.617 179.741 236.203 179.87 236.863C179.998 237.524 180.313 238.028 180.814 238.377C181.322 238.725 181.915 238.833 182.593 238.701C182.993 238.624 183.339 238.462 183.631 238.217C183.921 237.966 184.118 237.667 184.22 237.32L185.23 237.662C185.054 238.18 184.747 238.626 184.311 239C183.879 239.367 183.372 239.606 182.791 239.719ZM191.169 237.97L189.924 238.212L186.829 235.673L187.416 238.699L186.371 238.902L185.136 232.541L186.181 232.338L186.735 235.191L188.598 231.869L189.843 231.627L187.873 235.225L191.169 237.97ZM192.697 236.636L195.514 236.09L195.708 237.089L191.846 237.839L190.612 231.478L194.428 230.737L194.622 231.737L191.851 232.275L192.172 233.929L194.716 233.435L194.908 234.425L192.364 234.919L192.697 236.636ZM197.929 230.058C198.801 229.888 199.585 230.054 200.279 230.554C200.979 231.053 201.416 231.751 201.59 232.647C201.763 233.538 201.619 234.348 201.157 235.079C200.701 235.803 200.036 236.249 199.164 236.418L196.665 236.903L195.43 230.543L197.929 230.058ZM198.97 235.419C199.569 235.302 200.017 235.002 200.313 234.517C200.614 234.031 200.704 233.473 200.582 232.843C200.458 232.207 200.166 231.723 199.706 231.391C199.25 231.052 198.723 230.941 198.123 231.057L196.669 231.339L197.516 235.701L198.97 235.419Z" fill="#003366"/>
<path d="M153.056 255.932C152.105 255.717 151.387 255.226 150.903 254.459C150.419 253.685 150.282 252.835 150.492 251.908C150.701 250.981 151.19 250.275 151.957 249.791C152.726 249.3 153.586 249.162 154.537 249.377C155.109 249.506 155.605 249.76 156.025 250.14C156.451 250.521 156.748 250.974 156.914 251.499L155.893 251.818C155.795 251.467 155.604 251.165 155.32 250.911C155.043 250.652 154.706 250.478 154.308 250.388C153.634 250.236 153.038 250.326 152.52 250.658C152.008 250.992 151.678 251.486 151.53 252.143C151.382 252.799 151.467 253.387 151.786 253.908C152.111 254.431 152.61 254.768 153.285 254.921C153.682 255.01 154.063 255.002 154.429 254.895C154.796 254.781 155.097 254.587 155.33 254.31L156.116 255.029C155.747 255.433 155.287 255.718 154.737 255.885C154.194 256.047 153.634 256.062 153.056 255.932ZM161.43 257.7L160.193 257.421L158.38 253.851L157.701 256.858L156.663 256.623L158.091 250.303L159.129 250.538L158.489 253.373L161.531 251.08L162.768 251.359L159.517 253.861L161.43 257.7ZM163.366 257.093L166.165 257.726L165.941 258.719L162.103 257.852L163.531 251.532L167.323 252.388L167.099 253.382L164.345 252.76L163.974 254.403L166.502 254.974L166.28 255.958L163.751 255.387L163.366 257.093ZM170.802 253.174C171.668 253.37 172.319 253.836 172.754 254.573C173.194 255.312 173.314 256.127 173.113 257.017C172.913 257.902 172.455 258.586 171.738 259.07C171.029 259.549 170.241 259.69 169.374 259.494L166.891 258.934L168.319 252.613L170.802 253.174ZM169.598 258.501C170.194 258.636 170.725 258.541 171.191 258.216C171.662 257.892 171.969 257.417 172.11 256.791C172.253 256.159 172.18 255.599 171.892 255.11C171.612 254.616 171.173 254.302 170.577 254.167L169.133 253.841L168.154 258.175L169.598 258.501Z" fill="#003366"/>
<path d="M192.085 262.711L194.659 263.292L194.434 264.285L190.823 263.47L192.25 257.149L193.288 257.384L192.085 262.711ZM200.269 264.73C199.494 265.219 198.649 265.361 197.734 265.154C196.819 264.947 196.114 264.456 195.619 263.68C195.131 262.899 194.99 262.051 195.197 261.136C195.404 260.221 195.894 259.519 196.669 259.03C197.451 258.536 198.3 258.392 199.215 258.599C200.13 258.806 200.831 259.299 201.319 260.08C201.814 260.856 201.959 261.702 201.752 262.617C201.545 263.532 201.051 264.236 200.269 264.73ZM196.509 263.141C196.846 263.666 197.331 264 197.963 264.143C198.595 264.286 199.173 264.192 199.697 263.861C200.228 263.525 200.567 263.032 200.714 262.382C200.861 261.732 200.766 261.145 200.429 260.619C200.099 260.089 199.618 259.753 198.986 259.61C198.354 259.468 197.773 259.564 197.241 259.899C196.718 260.23 196.382 260.721 196.235 261.371C196.088 262.021 196.18 262.611 196.509 263.141ZM204.947 266.783C203.996 266.569 203.279 266.077 202.794 265.31C202.311 264.537 202.174 263.686 202.383 262.759C202.593 261.832 203.081 261.127 203.848 260.642C204.617 260.151 205.477 260.014 206.428 260.228C207 260.358 207.496 260.612 207.916 260.992C208.343 261.373 208.639 261.825 208.805 262.35L207.784 262.67C207.686 262.319 207.495 262.016 207.211 261.762C206.934 261.504 206.597 261.329 206.2 261.24C205.525 261.087 204.929 261.177 204.412 261.509C203.9 261.843 203.57 262.338 203.421 262.994C203.273 263.65 203.359 264.239 203.677 264.76C204.002 265.282 204.502 265.62 205.176 265.772C205.573 265.862 205.955 265.853 206.321 265.746C206.688 265.633 206.988 265.438 207.221 265.162L208.008 265.88C207.638 266.284 207.178 266.569 206.628 266.736C206.086 266.898 205.525 266.914 204.947 266.783ZM213.322 268.552L212.085 268.272L210.272 264.703L209.593 267.709L208.554 267.475L209.982 261.154L211.02 261.389L210.38 264.224L213.422 261.931L214.659 262.211L211.408 264.713L213.322 268.552ZM215.257 267.945L218.056 268.577L217.832 269.57L213.995 268.704L215.422 262.383L219.214 263.24L218.99 264.233L216.236 263.611L215.865 265.254L218.393 265.825L218.171 266.809L215.643 266.238L215.257 267.945ZM222.693 264.026C223.56 264.221 224.21 264.688 224.645 265.425C225.086 266.163 225.205 266.978 225.004 267.869C224.804 268.754 224.346 269.438 223.629 269.921C222.92 270.4 222.132 270.542 221.265 270.346L218.782 269.785L220.21 263.465L222.693 264.026ZM221.49 269.353C222.086 269.487 222.616 269.392 223.082 269.067C223.554 268.743 223.86 268.268 224.002 267.642C224.144 267.01 224.072 266.45 223.784 265.961C223.503 265.467 223.065 265.153 222.469 265.019L221.024 264.692L220.045 269.026L221.49 269.353Z" fill="#003366"/>
<path d="M242.997 274.744L245.571 275.325L245.346 276.319L241.735 275.503L243.162 269.183L244.201 269.417L242.997 274.744ZM251.181 276.763C250.406 277.253 249.561 277.394 248.646 277.187C247.731 276.981 247.026 276.489 246.531 275.713C246.043 274.932 245.902 274.084 246.109 273.17C246.316 272.255 246.806 271.552 247.581 271.063C248.363 270.569 249.212 270.426 250.127 270.632C251.042 270.839 251.743 271.333 252.231 272.113C252.726 272.89 252.871 273.735 252.664 274.65C252.457 275.565 251.963 276.269 251.181 276.763ZM247.421 275.174C247.758 275.699 248.243 276.033 248.875 276.176C249.507 276.319 250.085 276.225 250.609 275.894C251.14 275.558 251.479 275.066 251.626 274.416C251.773 273.765 251.678 273.178 251.341 272.653C251.011 272.123 250.531 271.786 249.899 271.644C249.266 271.501 248.685 271.597 248.154 271.933C247.63 272.263 247.294 272.754 247.147 273.404C247.001 274.054 247.092 274.644 247.421 275.174ZM255.86 278.817C254.909 278.602 254.191 278.111 253.706 277.343C253.223 276.57 253.086 275.72 253.295 274.793C253.505 273.866 253.993 273.16 254.76 272.675C255.529 272.185 256.389 272.047 257.34 272.262C257.912 272.391 258.408 272.645 258.828 273.025C259.255 273.406 259.551 273.859 259.717 274.383L258.696 274.703C258.598 274.352 258.407 274.049 258.123 273.795C257.846 273.537 257.509 273.363 257.112 273.273C256.438 273.121 255.842 273.21 255.324 273.543C254.812 273.876 254.482 274.371 254.334 275.027C254.185 275.683 254.271 276.272 254.59 276.793C254.914 277.316 255.414 277.653 256.088 277.805C256.485 277.895 256.867 277.886 257.233 277.779C257.6 277.666 257.9 277.471 258.133 277.195L258.92 277.914C258.55 278.317 258.091 278.602 257.54 278.769C256.998 278.931 256.437 278.947 255.86 278.817ZM264.234 280.585L262.997 280.305L261.184 276.736L260.505 279.742L259.466 279.508L260.894 273.188L261.932 273.422L261.292 276.257L264.334 273.965L265.571 274.244L262.32 276.746L264.234 280.585Z" fill="#003366"/>
<path d="M214.734 231.904L217.324 231.401L217.518 232.4L213.883 233.106L212.648 226.745L213.693 226.542L214.734 231.904ZM223.039 230.461C222.526 231.221 221.81 231.69 220.889 231.869C219.968 232.047 219.125 231.881 218.359 231.37C217.598 230.851 217.129 230.131 216.95 229.21C216.771 228.29 216.938 227.449 217.451 226.69C217.968 225.923 218.687 225.45 219.608 225.272C220.529 225.093 221.37 225.263 222.13 225.781C222.896 226.293 223.368 227.009 223.547 227.93C223.726 228.851 223.556 229.694 223.039 230.461ZM218.958 230.518C219.477 230.863 220.055 230.974 220.691 230.851C221.327 230.727 221.819 230.409 222.165 229.895C222.517 229.374 222.629 228.787 222.502 228.133C222.375 227.478 222.052 226.979 221.532 226.633C221.017 226.28 220.442 226.166 219.806 226.289C219.17 226.413 218.676 226.735 218.324 227.256C217.978 227.769 217.868 228.353 217.995 229.008C218.122 229.662 218.443 230.165 218.958 230.518ZM228.148 230.459C227.191 230.645 226.336 230.484 225.584 229.977C224.83 229.463 224.363 228.739 224.182 227.807C224.001 226.874 224.164 226.031 224.672 225.279C225.179 224.52 225.91 224.048 226.868 223.862C227.443 223.751 228 223.784 228.537 223.963C229.081 224.14 229.534 224.435 229.897 224.849L229.091 225.552C228.86 225.27 228.564 225.07 228.201 224.952C227.844 224.826 227.465 224.803 227.065 224.88C226.387 225.012 225.877 225.334 225.537 225.846C225.202 226.358 225.099 226.943 225.227 227.604C225.355 228.264 225.67 228.769 226.172 229.118C226.679 229.465 227.272 229.573 227.951 229.442C228.35 229.364 228.696 229.203 228.988 228.957C229.279 228.706 229.475 228.407 229.578 228.06L230.587 228.402C230.411 228.92 230.105 229.366 229.668 229.74C229.236 230.107 228.73 230.347 228.148 230.459ZM236.526 228.711L235.281 228.952L232.186 226.413L232.774 229.439L231.729 229.642L230.494 223.281L231.539 223.078L232.093 225.931L233.956 222.609L235.201 222.367L233.231 225.965L236.526 228.711ZM238.055 227.377L240.872 226.83L241.066 227.829L237.204 228.579L235.969 222.218L239.785 221.477L239.979 222.477L237.208 223.015L237.529 224.669L240.073 224.175L240.266 225.165L237.721 225.659L238.055 227.377ZM243.286 220.798C244.159 220.628 244.942 220.794 245.636 221.294C246.337 221.793 246.774 222.491 246.948 223.387C247.121 224.278 246.976 225.088 246.515 225.819C246.058 226.543 245.393 226.989 244.521 227.159L242.022 227.644L240.787 221.283L243.286 220.798ZM244.327 226.159C244.927 226.043 245.374 225.742 245.67 225.257C245.972 224.771 246.061 224.213 245.939 223.583C245.816 222.947 245.524 222.463 245.063 222.131C244.608 221.792 244.08 221.681 243.48 221.797L242.026 222.08L242.873 226.441L244.327 226.159Z" fill="#003366"/>
<path d="M217.927 192.866L215.433 192.008L215.764 191.045L219.265 192.25L217.156 198.377L216.149 198.03L217.927 192.866ZM210.013 189.965C210.837 189.564 211.692 189.515 212.579 189.821C213.466 190.126 214.113 190.692 214.521 191.517C214.92 192.347 214.968 193.205 214.662 194.092C214.357 194.979 213.792 195.623 212.969 196.025C212.137 196.43 211.278 196.48 210.391 196.175C209.504 195.869 208.861 195.302 208.461 194.473C208.054 193.647 208.003 192.791 208.308 191.904C208.614 191.017 209.182 190.371 210.013 189.965ZM213.577 191.956C213.299 191.397 212.854 191.012 212.242 190.801C211.629 190.59 211.044 190.62 210.487 190.892C209.922 191.167 209.532 191.62 209.315 192.25C209.098 192.881 209.128 193.475 209.405 194.034C209.675 194.597 210.116 194.984 210.729 195.195C211.341 195.406 211.93 195.373 212.495 195.098C213.052 194.826 213.439 194.375 213.656 193.745C213.873 193.115 213.846 192.519 213.577 191.956ZM205.587 187.413C206.509 187.731 207.169 188.297 207.567 189.113C207.963 189.935 208.006 190.795 207.696 191.693C207.387 192.592 206.824 193.24 206.009 193.638C205.191 194.042 204.321 194.085 203.399 193.767C202.845 193.576 202.38 193.269 202.003 192.846C201.621 192.421 201.376 191.938 201.268 191.399L202.318 191.192C202.377 191.552 202.534 191.874 202.789 192.157C203.036 192.444 203.352 192.654 203.737 192.787C204.39 193.012 204.992 192.988 205.544 192.714C206.089 192.438 206.471 191.983 206.69 191.347C206.909 190.711 206.888 190.116 206.628 189.563C206.363 189.008 205.903 188.618 205.25 188.393C204.864 188.261 204.484 188.228 204.109 188.294C203.731 188.367 203.412 188.528 203.15 188.777L202.446 187.976C202.858 187.616 203.346 187.382 203.911 187.277C204.468 187.175 205.027 187.22 205.587 187.413ZM197.456 184.741L198.655 185.154L200.067 188.9L201.071 185.985L202.077 186.332L199.968 192.458L198.961 192.112L199.908 189.364L196.633 191.31L195.434 190.897L198.939 188.766L197.456 184.741ZM195.466 185.132L192.753 184.198L193.084 183.235L196.804 184.516L194.694 190.643L191.018 189.377L191.35 188.414L194.019 189.333L194.568 187.74L192.117 186.897L192.446 185.943L194.896 186.786L195.466 185.132ZM187.646 188.216C186.806 187.927 186.21 187.392 185.859 186.612C185.502 185.829 185.472 185.007 185.769 184.143C186.065 183.285 186.595 182.655 187.36 182.253C188.117 181.855 188.916 181.8 189.756 182.089L192.163 182.918L190.053 189.045L187.646 188.216ZM189.424 183.052C188.847 182.853 188.309 182.89 187.81 183.162C187.306 183.432 186.95 183.871 186.741 184.478C186.53 185.09 186.541 185.655 186.774 186.173C186.999 186.694 187.4 187.054 187.978 187.253L189.378 187.735L190.825 183.534L189.424 183.052Z" fill="#003366"/>
<path d="M176.268 178.669L173.773 177.81L174.105 176.847L177.606 178.053L175.496 184.179L174.49 183.833L176.268 178.669Z" fill="#003366"/>
<path d="M168.354 175.768C169.177 175.366 170.033 175.318 170.92 175.623C171.806 175.929 172.454 176.494 172.861 177.32C173.261 178.149 173.308 179.007 173.003 179.894C172.697 180.781 172.133 181.425 171.309 181.827C170.478 182.233 169.619 182.283 168.732 181.977C167.845 181.672 167.201 181.104 166.802 180.275C166.394 179.449 166.343 178.593 166.649 177.706C166.954 176.819 167.522 176.173 168.354 175.768ZM171.917 177.758C171.64 177.199 171.195 176.814 170.582 176.603C169.969 176.392 169.385 176.423 168.828 176.694C168.263 176.97 167.872 177.423 167.655 178.053C167.438 178.683 167.468 179.278 167.746 179.836C168.015 180.399 168.456 180.786 169.069 180.997C169.682 181.208 170.271 181.176 170.835 180.9C171.392 180.629 171.779 180.178 171.996 179.548C172.213 178.917 172.187 178.321 171.917 177.758Z" fill="#003366"/>
<path d="M163.927 173.216C164.849 173.533 165.509 174.1 165.907 174.915C166.303 175.737 166.346 176.597 166.037 177.496C165.727 178.394 165.165 179.042 164.349 179.44C163.531 179.844 162.661 179.887 161.74 179.57C161.185 179.379 160.72 179.072 160.344 178.648C159.961 178.223 159.716 177.741 159.608 177.201L160.658 176.995C160.717 177.354 160.874 177.676 161.129 177.959C161.376 178.247 161.692 178.457 162.077 178.589C162.731 178.814 163.333 178.79 163.884 178.516C164.429 178.241 164.811 177.785 165.03 177.149C165.249 176.513 165.229 175.919 164.969 175.366C164.703 174.811 164.243 174.421 163.59 174.196C163.205 174.063 162.825 174.03 162.449 174.097C162.072 174.169 161.752 174.33 161.49 174.579L160.787 173.779C161.198 173.418 161.686 173.185 162.251 173.079C162.809 172.977 163.367 173.023 163.927 173.216Z" fill="#003366"/>
<path d="M155.797 170.543L156.996 170.956L158.408 174.702L159.411 171.788L160.418 172.134L158.308 178.261L157.302 177.914L158.248 175.166L154.974 177.113L153.775 176.7L157.279 174.568L155.797 170.543Z" fill="#003366"/>
<path d="M153.806 170.935L151.093 170.001L151.425 169.038L155.144 170.319L153.035 176.445L149.359 175.179L149.69 174.217L152.36 175.136L152.908 173.543L150.458 172.699L150.786 171.745L153.237 172.589L153.806 170.935Z" fill="#003366"/>
<path d="M291.791 169.439V303.195H131.654V169.439C131.654 125.219 167.502 89.371 211.723 89.371C255.943 89.371 291.791 125.219 291.791 169.439Z" stroke="#003366" stroke-width="0.925645"/>
<circle cx="157.575" cy="218.406" r="4.62822" stroke="#003366" stroke-width="0.925645"/>
<circle cx="157.111" cy="205.539" r="3.23976" stroke="#003366" stroke-width="0.925645"/>
<circle cx="157.111" cy="205.54" r="0.462822" stroke="#003366" stroke-width="0.925645"/>
<path d="M266.797 218.035V205.076L149.24 165.736V177.307L258.929 215.46M266.797 218.035L258.929 215.46M266.797 218.035V224.978L158.96 247.531M258.929 215.46L149.24 238.399V245.342M149.24 245.342V257.838L266.334 283.293V271.723L158.96 247.531M149.24 245.342L158.96 247.531" stroke="#003366" stroke-width="0.925645"/>
<circle cx="206.167" cy="169.439" r="3.23976" stroke="#003366" stroke-width="0.925645"/>
<circle cx="207.093" cy="169.439" r="2.31411" stroke="#003366" stroke-width="0.925645"/>
<circle cx="256.617" cy="177.307" r="0.925645" stroke="#003366" stroke-width="0.925645"/>
<circle cx="262.172" cy="177.307" r="0.925645" stroke="#003366" stroke-width="0.925645"/>
<path d="M281.608 168.051V303.195H137.207V168.051C137.207 128.176 169.532 95.8505 209.407 95.8505C249.282 95.8505 281.608 128.176 281.608 168.051Z" stroke="#003366" stroke-width="0.925645"/>
<path d="M144.613 303.195V280.98M144.613 191.192V204.614M144.613 224.053V258.302" stroke="#003366" stroke-width="0.925645" stroke-linecap="round"/>
<path d="M266.797 164.809V303.193H149.24V164.809C149.24 132.346 175.556 106.03 208.019 106.03C240.481 106.03 266.797 132.346 266.797 164.809Z" stroke="#003366" stroke-width="0.925645"/>
<path d="M155.26 218.803C155.26 217.861 156.002 217.086 156.943 217.045L172.158 216.386C173.543 216.326 174.698 217.433 174.698 218.819V218.819C174.698 220.207 173.539 221.315 172.153 221.252L156.939 220.56C156 220.517 155.26 219.743 155.26 218.803V218.803Z" fill="#003366"/>
</g>
</svg>
