<svg width="1440" height="854" viewBox="0 0 1440 854" fill="none" xmlns="http://www.w3.org/2000/svg">
<rect width="1440" height="854" fill="white"/>
<rect width="1440" height="514" fill="url(#paint0_linear_1917_4647)"/>
<path fill-rule="evenodd" clip-rule="evenodd" d="M1414.61 161.686C1417.61 164.687 1419.29 168.757 1419.29 173H1403.29L1400 173H1387.29L1374.59 173L1373.18 173L1360 173C1360 169.505 1361.39 166.154 1363.86 163.683C1366.33 161.212 1369.68 159.824 1373.18 159.824C1375.87 159.824 1378.48 160.649 1380.67 162.159C1382.65 160.949 1384.94 160.294 1387.29 160.294C1389.05 160.294 1390.76 160.656 1392.34 161.339C1395.3 158.556 1399.22 157 1403.29 157C1407.54 157 1411.61 158.686 1414.61 161.686Z" fill="white"/>
<path fill-rule="evenodd" clip-rule="evenodd" d="M160.106 277.423C167.42 284.737 171.529 294.657 171.529 305H132.529L93.5293 305C93.5293 305 93.5293 305 93.5293 305L91.2353 305H59.1176L27 305C27 296.482 30.3838 288.313 36.407 282.289C42.4303 276.266 50.5995 272.882 59.1177 272.882C65.6856 272.882 72.0461 274.894 77.3754 278.576C82.1998 275.627 87.7826 274.029 93.5302 274.029C97.8012 274.029 101.981 274.912 105.827 276.575C113.047 269.792 122.593 266 132.529 266C142.873 266 152.793 270.109 160.106 277.423Z" fill="white"/>
<path fill-rule="evenodd" clip-rule="evenodd" d="M409.35 92.8378C412.666 96.1539 414.529 100.652 414.529 105.341H396.847L379.164 105.341C379.164 105.341 379.164 105.341 379.164 105.341H379.164L365.122 105.341V105.341H363.562L349 105.341C349 101.479 350.534 97.7752 353.265 95.0442C355.996 92.3133 359.7 90.7791 363.562 90.7791C366.54 90.7791 369.424 91.6912 371.84 93.3606C374.027 92.0235 376.558 91.2992 379.164 91.2992C381.101 91.2992 382.996 91.6993 384.74 92.4536C388.013 89.3782 392.341 87.6588 396.847 87.6588C401.536 87.6588 406.034 89.5217 409.35 92.8378Z" fill="white"/>
<path fill-rule="evenodd" clip-rule="evenodd" d="M1058.9 225.105C1059.57 225.784 1060.22 226.489 1060.84 227.218C1063.01 227.486 1065.11 228.062 1067.1 228.922C1072.42 223.922 1079.46 221.127 1086.78 221.127C1094.41 221.127 1101.72 224.156 1107.11 229.547C1112.5 234.937 1115.53 242.249 1115.53 249.873H1086.78L1058.04 249.873C1058.04 249.873 1058.04 249.873 1058.04 249.873L1056.35 249.873H1032.67L1009 249.873C1009 249.749 1009 249.624 1009 249.5H1000C1000 240.35 1003.63 231.575 1010.1 225.105C1016.57 218.635 1025.35 215 1034.5 215C1043.65 215 1052.43 218.635 1058.9 225.105Z" fill="white"/>
<defs>
<linearGradient id="paint0_linear_1917_4647" x1="720" y1="0" x2="720" y2="514" gradientUnits="userSpaceOnUse">
<stop stop-color="#CDE6FF"/>
<stop offset="1" stop-color="#CDE6FF" stop-opacity="0"/>
</linearGradient>
</defs>
</svg>
