<svg width="18" height="16" viewBox="0 0 18 16" fill="none" xmlns="http://www.w3.org/2000/svg">
<path d="M16.3636 8.99376V14.4H17.1818V16H0.818182V14.4H1.63636V8.99376C0.649645 8.348 0 7.24816 0 6C0 5.33829 0.183625 4.70097 0.518089 4.15797L2.73706 0.4C2.88322 0.15248 3.15332 0 3.44563 0H14.5544C14.8466 0 15.1168 0.15248 15.2629 0.4L17.4743 4.14538C17.8164 4.70097 18 5.33829 18 6C18 7.24816 17.3504 8.348 16.3636 8.99376ZM14.7273 9.578C14.5929 9.59256 14.4565 9.6 14.3182 9.6C13.288 9.6 12.3373 9.1824 11.6591 8.49056C10.9809 9.1824 10.0302 9.6 9 9.6C7.96983 9.6 7.0191 9.1824 6.34091 8.49056C5.66272 9.1824 4.712 9.6 3.68182 9.6C3.54355 9.6 3.40705 9.59256 3.27273 9.578V14.4H14.7273V9.578ZM3.91799 1.6L1.92762 4.97057C1.73789 5.27874 1.63636 5.63112 1.63636 6C1.63636 7.10456 2.55215 8 3.68182 8C4.52533 8 5.27291 7.49624 5.58146 6.7436C5.85605 6.07378 6.82576 6.07378 7.10035 6.7436C7.40888 7.49624 8.15645 8 9 8C9.84354 8 10.5911 7.49624 10.8997 6.7436C11.1742 6.07378 12.1439 6.07378 12.4185 6.7436C12.7271 7.49624 13.4746 8 14.3182 8C15.4478 8 16.3636 7.10456 16.3636 6C16.3636 5.63112 16.2621 5.27874 16.0648 4.95797L14.082 1.6H3.91799Z" fill="#8B8B8B"/>
</svg>
