<svg width="32" height="32" viewBox="0 0 32 32" fill="none" xmlns="http://www.w3.org/2000/svg">
<ellipse cx="15.9549" cy="15.6808" rx="15.9549" ry="15.6808" transform="matrix(1 0 0.00287694 0.999996 0 0)" fill="#FFD0D0"/>
<path d="M11.9688 17.314L11.9688 17.314L11.9705 17.3111C12.1199 17.0606 12.2374 16.7499 12.3178 16.4605C12.398 16.1715 12.458 15.8427 12.458 15.5475V13.6208C12.458 11.8348 13.9103 10.3825 15.6963 10.3825C17.4756 10.3825 18.9345 11.8415 18.9345 13.6208V15.5475C18.9345 15.8425 18.9945 16.1708 19.0733 16.4583C19.1524 16.7466 19.2671 17.0542 19.4098 17.3017L19.4134 17.3079L19.4171 17.314L20.1832 18.5863C20.1832 18.5865 20.1833 18.5866 20.1834 18.5867C20.3734 18.9039 20.2176 19.3119 19.8773 19.4243L19.875 19.4251C17.1588 20.3326 14.2288 20.3328 11.5125 19.4256C11.2754 19.3451 11.1646 19.2081 11.1214 19.0915C11.0785 18.9756 11.0733 18.8015 11.2022 18.5872L11.9688 17.314Z" stroke="#FF4343" stroke-width="1.52388" stroke-miterlimit="10" stroke-linecap="round"/>
<mask id="path-3-inside-1_3118_8314" fill="white">
<path d="M16.9297 9.81364C16.1234 9.58403 15.2691 9.58403 14.4629 9.81364C14.6562 9.32029 15.1363 8.9736 15.6963 8.9736C16.2563 8.9736 16.7363 9.32029 16.9297 9.81364Z"/>
</mask>
<path d="M16.9297 9.81364L16.5123 11.2792C17.0694 11.4379 17.6682 11.267 18.0577 10.8382C18.4472 10.4094 18.5599 9.79693 18.3485 9.25762L16.9297 9.81364ZM14.4629 9.81364L13.0441 9.25762C12.8327 9.79693 12.9454 10.4094 13.3349 10.8382C13.7243 11.267 14.3232 11.4379 14.8803 11.2792L14.4629 9.81364ZM17.3471 8.34804C16.268 8.04071 15.1246 8.04071 14.0455 8.34804L14.8803 11.2792C15.4137 11.1273 15.9789 11.1273 16.5123 11.2792L17.3471 8.34804ZM15.8817 10.3697C15.8527 10.4438 15.7806 10.4975 15.6963 10.4975V7.44972C14.4919 7.44972 13.4598 8.19681 13.0441 9.25762L15.8817 10.3697ZM15.6963 10.4975C15.6119 10.4975 15.5399 10.4438 15.5109 10.3697L18.3485 9.25762C17.9328 8.19681 16.9007 7.44972 15.6963 7.44972V10.4975Z" fill="#FF4343" mask="url(#path-3-inside-1_3118_8314)"/>
<mask id="path-5-inside-2_3118_8314" fill="white">
<path d="M17.6975 20.3878C17.6975 21.4879 16.7974 22.3879 15.6974 22.3879C15.1507 22.3879 14.644 22.1613 14.284 21.8013C13.9094 21.4261 13.6985 20.918 13.6973 20.3878"/>
</mask>
<path d="M14.284 21.8013L13.2056 22.878L13.2064 22.8788L14.284 21.8013ZM16.1736 20.3878C16.1736 20.6463 15.9558 20.8641 15.6974 20.8641V23.9118C17.639 23.9118 19.2213 22.3295 19.2213 20.3878H16.1736ZM15.6974 20.8641C15.5722 20.8641 15.4483 20.8105 15.3615 20.7237L13.2064 22.8788C13.8397 23.5121 14.7291 23.9118 15.6974 23.9118V20.8641ZM15.3623 20.7245C15.2722 20.6342 15.2214 20.512 15.2211 20.3844L12.1734 20.3913C12.1755 21.324 12.5466 22.218 13.2056 22.878L15.3623 20.7245Z" fill="#FF4343" mask="url(#path-5-inside-2_3118_8314)"/>
<path d="M21.3077 15.8923L24.1369 12.9091" stroke="#FF4343" stroke-width="1.28006" stroke-linecap="round" stroke-linejoin="round"/>
<path d="M21.2306 12.9861L24.2138 15.8153" stroke="#FF4343" stroke-width="1.28006" stroke-linecap="round" stroke-linejoin="round"/>
</svg>
