<svg width="644" height="644" viewBox="0 0 644 644" fill="none" xmlns="http://www.w3.org/2000/svg">
<path d="M496.63 202.606L499.615 193.304C500.93 189.18 504.534 186.412 508.552 186.412H582.847C588.067 186.412 592.31 191.006 592.31 196.674V356.94C592.31 362.608 588.067 367.202 582.847 367.202H358.705C353.485 367.202 349.242 362.608 349.242 356.94V219.741C349.242 214.074 353.485 209.479 358.705 209.479H487.693C491.73 209.479 495.316 206.711 496.63 202.587V202.606Z" fill="#F4F3F3"/>
<path opacity="0.12" d="M502.112 212.058L504.929 203.283C506.168 199.404 509.547 196.787 513.359 196.787H583.391C588.311 196.787 592.31 201.118 592.31 206.447V357.504C592.31 362.852 588.311 367.164 583.391 367.164H372.129C367.21 367.164 363.211 362.833 363.211 357.504V228.215C363.211 222.867 367.21 218.555 372.129 218.555H493.701C497.493 218.555 500.873 215.956 502.131 212.058H502.112Z" fill="white"/>
<path d="M566.702 355.623H511.258C510.226 355.623 509.381 354.776 509.381 353.74C509.381 352.704 510.226 351.857 511.258 351.857H566.702C570.289 351.857 573.199 348.938 573.199 345.342V301.222C573.199 300.186 574.044 299.339 575.076 299.339C576.109 299.339 576.954 300.186 576.954 301.222V345.342C576.954 351.01 572.354 355.623 566.702 355.623Z" fill="white"/>
<path d="M58.3356 274.124H143.276C147.069 274.124 150.448 277.231 151.706 281.864L154.523 292.333C155.762 296.966 159.16 300.073 162.953 300.073H284.543C289.462 300.073 293.461 305.232 293.461 311.616V465.931C293.461 472.296 289.462 477.474 284.543 477.474H58.3356C53.0784 477.474 48.8164 472.314 48.8164 465.931V285.649C48.8164 279.284 53.0784 274.105 58.3356 274.105V274.124Z" fill="#F4F3F3"/>
<path opacity="0.12" d="M145.116 301.711L142.112 291.241C140.779 286.609 137.174 283.502 133.118 283.502H58.3356C53.0784 283.502 48.8164 288.661 48.8164 295.045V475.327C48.8164 481.692 53.0784 486.87 58.3356 486.87H283.923C289.18 486.87 293.443 481.711 293.443 475.327V321.012C293.443 314.647 289.18 309.469 283.923 309.469H154.109C150.054 309.469 146.449 306.362 145.116 301.73V301.711Z" fill="white"/>
<path opacity="0.12" d="M139.577 312.349L136.742 302.482C135.484 298.113 132.086 295.176 128.256 295.176H57.7911C52.8344 295.176 48.8164 300.053 48.8164 306.06V475.985C48.8164 481.992 52.8344 486.869 57.7911 486.869H270.424C275.38 486.869 279.398 481.992 279.398 475.985V330.539C279.398 324.532 275.38 319.655 270.424 319.655H148.064C144.234 319.655 140.835 316.718 139.577 312.349Z" fill="#B4A7A7"/>
<path d="M66.1652 340.37C65.2452 340.37 64.4941 339.523 64.4941 338.487V312.351C64.4941 308.811 67.0664 305.93 70.2207 305.93H105.218C106.138 305.93 106.889 306.777 106.889 307.813C106.889 308.848 106.138 309.696 105.218 309.696H70.2207C68.9064 309.696 67.855 310.882 67.855 312.351V338.487C67.855 339.523 67.1039 340.37 66.1839 340.37H66.1652Z" fill="#20C594"/>
<g filter="url(#filter0_d_4334_1712)">
<path d="M386.248 107.022L130.292 191.819C124.03 193.894 120.63 200.667 122.699 206.948L207.249 463.653C209.318 469.933 216.071 473.343 222.333 471.268L478.29 386.47C484.552 384.396 487.952 377.623 485.883 371.342L401.333 114.637C399.264 108.357 392.511 104.947 386.248 107.022Z" fill="white"/>
</g>
<path d="M381.533 134.976L150.357 211.563L226.722 443.415L457.898 366.827L381.533 134.976Z" fill="#F4F3F3"/>
<path d="M238.449 326.694L211.225 393.347L217.796 415.878L257.225 436.531C303.85 427.456 397.853 408.743 400.857 406.49C404.612 403.673 434.653 377.388 435.592 372.694C436.343 368.939 444.667 340.463 448.735 326.694L412.123 263.796H358.612L332.327 299.469L323.878 317.306L288.204 336.082L274.123 331.388L257.225 326.694H238.449Z" fill="#BFECDE"/>
<path opacity="0.47" d="M224.779 445.367L207.486 392.867L232.777 331.725C236.269 323.27 245.488 318.92 254.219 321.651L301.045 336.244C303.805 337.111 306.79 335.962 308.273 333.476L347.251 268.417C355.531 254.596 372.917 248.984 387.675 255.349L430.615 273.878L431.009 275.083L461.294 367.013L458.628 367.898L224.779 445.385V445.367ZM213.494 393.093L228.365 438.23L454.178 363.398L426.052 278.04L385.459 260.527C373.255 255.255 358.93 259.906 352.095 271.317L313.117 336.376C310.282 341.103 304.65 343.268 299.392 341.63L252.566 327.036C246.633 325.191 240.362 328.128 237.997 333.891L213.513 393.093H213.494Z" fill="#20C594"/>
<path opacity="0.47" d="M301.947 264.577C289.368 264.577 277.633 256.574 273.484 243.958C268.302 228.234 276.844 211.193 292.541 205.996C308.218 200.798 325.21 209.366 330.392 225.109C335.574 240.851 327.031 257.873 311.335 263.071C308.218 264.106 305.064 264.596 301.966 264.596L301.947 264.577ZM301.91 210.12C299.394 210.12 296.822 210.515 294.287 211.362C281.557 215.58 274.61 229.402 278.816 242.188C283.022 254.955 296.822 261.922 309.551 257.704C322.281 253.486 329.228 239.664 325.022 226.879C321.643 216.635 312.124 210.138 301.91 210.138V210.12Z" fill="#20C594"/>
<path d="M562.815 206.411H363.006C356.411 206.411 351.064 211.773 351.064 218.387V418.78C351.064 425.395 356.411 430.756 363.006 430.756H562.815C569.41 430.756 574.756 425.395 574.756 418.78V218.387C574.756 211.773 569.41 206.411 562.815 206.411Z" fill="white"/>
<path opacity="0.39" d="M555.586 225.524H369.99V411.663H555.586V225.524Z" fill="#5CCDAB"/>
<path opacity="0.47" d="M558.648 413.283H367.42V370.218L400.465 331.842C405.253 326.287 413.345 325.326 419.297 329.582L449.713 351.369C451.253 352.48 453.337 352.386 454.782 351.143L498.511 313.407C508.049 305.159 522.355 305.272 531.762 313.652L558.648 337.547V413.283ZM373.053 407.634H553.016V340.089L528.026 317.87C520.703 311.354 509.588 311.279 502.172 317.681L458.444 355.436C455.026 358.374 450.088 358.6 446.427 355.982L416.011 334.196C412.444 331.635 407.581 332.218 404.727 335.551L373.053 372.346V407.653V407.634Z" fill="white"/>
<path opacity="0.47" d="M474.214 302.087C461.259 302.087 450.707 291.504 450.707 278.511C450.707 265.518 461.259 254.936 474.214 254.936C487.169 254.936 497.721 265.518 497.721 278.511C497.721 291.504 487.169 302.087 474.214 302.087ZM474.214 260.585C464.357 260.585 456.34 268.626 456.34 278.511C456.34 288.397 464.357 296.438 474.214 296.438C484.071 296.438 492.088 288.397 492.088 278.511C492.088 268.626 484.071 260.585 474.214 260.585Z" fill="white"/>
<path d="M371.374 321.362L258.428 363.805C252.252 366.125 249.122 373.028 251.436 379.221L293.755 492.498C296.068 498.692 302.951 501.831 309.126 499.511L422.072 457.068C428.248 454.747 431.379 447.845 429.065 441.651L386.746 328.375C384.432 322.181 377.55 319.041 371.374 321.362Z" fill="white"/>
<path d="M375.26 333.086L263 375.271L305.062 487.859L417.322 445.674L375.26 333.086Z" fill="#599AF2"/>
<path opacity="0.47" d="M303.298 490.711L293.084 463.369L304.537 432.299C306.358 427.366 311.54 424.673 316.61 426.029L339.929 432.299C340.661 432.506 341.45 432.167 341.806 431.49L359.737 398.706C363.886 391.117 373.086 387.747 381.141 390.835L403.221 399.346L420.851 446.516L303.317 490.692L303.298 490.711ZM299.092 463.369L306.584 483.443L413.566 443.24L398.809 403.733L379.095 396.126C373.65 394.036 367.454 396.314 364.656 401.436L346.726 434.201C345.111 437.158 341.713 438.626 338.446 437.741L315.126 431.471C312.892 430.868 310.602 432.054 309.794 434.239L299.073 463.351L299.092 463.369Z" fill="white"/>
<path opacity="0.47" d="M338.051 399.836C331.498 399.836 325.302 395.806 322.88 389.309C319.745 380.93 324.007 371.552 332.362 368.408C340.717 365.263 350.067 369.537 353.203 377.917C356.338 386.296 352.076 395.674 343.721 398.819C341.862 399.515 339.947 399.854 338.07 399.854L338.051 399.836ZM338.013 373.021C336.793 373.021 335.535 373.247 334.315 373.699C328.87 375.751 326.091 381.852 328.137 387.313C330.184 392.774 336.267 395.561 341.712 393.509C347.157 391.456 349.936 385.355 347.889 379.894C346.312 375.657 342.275 373.021 337.995 373.021H338.013Z" fill="white"/>
<path d="M349.018 532.338C405.366 532.338 451.044 486.525 451.044 430.013C451.044 373.501 405.366 327.689 349.018 327.689C292.671 327.689 246.992 373.501 246.992 430.013C246.992 486.525 292.671 532.338 349.018 532.338Z" fill="#20C594"/>
<path d="M469.669 397.435H228.385C188.317 397.435 155.836 430.011 155.836 470.196C155.836 510.38 188.317 542.956 228.385 542.956H469.669C509.736 542.956 542.217 510.38 542.217 470.196C542.217 430.011 509.736 397.435 469.669 397.435Z" fill="#20C594"/>
<path d="M389.381 502.539C441.129 480.177 465.004 419.976 442.707 368.076C420.41 316.177 360.384 292.232 308.636 314.594C256.888 336.957 233.013 397.158 255.31 449.057C277.607 500.957 337.632 524.901 389.381 502.539Z" fill="#20C594"/>
<g opacity="0.35">
<path d="M469.669 397.435H228.385C188.317 397.435 155.836 430.011 155.836 470.196C155.836 510.38 188.317 542.956 228.385 542.956H469.669C509.736 542.956 542.217 510.38 542.217 470.196C542.217 430.011 509.736 397.435 469.669 397.435Z" fill="#20C594"/>
<path d="M389.381 502.539C441.129 480.177 465.004 419.976 442.707 368.076C420.41 316.177 360.384 292.232 308.636 314.594C256.888 336.957 233.013 397.158 255.31 449.057C277.607 500.957 337.632 524.901 389.381 502.539Z" fill="#20C594"/>
</g>
<path d="M325.154 423.799C323.933 423.799 322.732 423.329 321.812 422.387C319.991 420.542 320.028 417.548 321.868 415.721L349.243 388.718L376.186 415.74C378.026 417.585 378.026 420.561 376.186 422.406C374.346 424.251 371.379 424.251 369.539 422.406L349.168 401.975L328.421 422.425C327.501 423.329 326.318 423.781 325.135 423.781L325.154 423.799Z" fill="white"/>
<path d="M349.018 461.252C346.427 461.252 344.324 459.143 344.324 456.544V395.364C344.324 392.766 346.427 390.657 349.018 390.657C351.609 390.657 353.712 392.766 353.712 395.364V456.525C353.712 459.124 351.609 461.233 349.018 461.233V461.252Z" fill="white"/>
<path d="M393.382 490.289H303.954C297.552 490.289 292.332 485.054 292.332 478.633V446.037C292.332 443.438 294.435 441.329 297.026 441.329C299.617 441.329 301.72 443.438 301.72 446.037V478.633C301.72 479.875 302.734 480.873 303.954 480.873H393.382C394.997 480.873 396.33 479.555 396.33 477.917V446.037C396.33 443.438 398.432 441.329 401.023 441.329C403.614 441.329 405.717 443.438 405.717 446.037V477.917C405.717 484.734 400.179 490.289 393.382 490.289Z" fill="white"/>
<defs>
<filter id="filter0_d_4334_1712" x="122.094" y="95.4141" width="364.395" height="376.462" filterUnits="userSpaceOnUse" color-interpolation-filters="sRGB">
<feFlood flood-opacity="0" result="BackgroundImageFix"/>
<feColorMatrix in="SourceAlpha" type="matrix" values="0 0 0 0 0 0 0 0 0 0 0 0 0 0 0 0 0 0 127 0" result="hardAlpha"/>
<feOffset dy="-11"/>
<feComposite in2="hardAlpha" operator="out"/>
<feColorMatrix type="matrix" values="0 0 0 0 0 0 0 0 0 0 0 0 0 0 0 0 0 0 0.08 0"/>
<feBlend mode="normal" in2="BackgroundImageFix" result="effect1_dropShadow_4334_1712"/>
<feBlend mode="normal" in="SourceGraphic" in2="effect1_dropShadow_4334_1712" result="shape"/>
</filter>
</defs>
</svg>
