<svg width="22" height="22" viewBox="0 0 22 22" fill="none" xmlns="http://www.w3.org/2000/svg">
<g clip-path="url(#clip0_55_5417)">
<path d="M8.08821 2.75H13.4804L15.2778 4.58333H18.8725C19.1109 4.58333 19.3395 4.67991 19.508 4.85182C19.6765 5.02373 19.7712 5.25688 19.7712 5.5V18.3333C19.7712 18.5764 19.6765 18.8096 19.508 18.9815C19.3395 19.1534 19.1109 19.25 18.8725 19.25H2.69606C2.45771 19.25 2.22912 19.1534 2.06058 18.9815C1.89205 18.8096 1.79736 18.5764 1.79736 18.3333V5.5C1.79736 5.25688 1.89205 5.02373 2.06058 4.85182C2.22912 4.67991 2.45771 4.58333 2.69606 4.58333H6.29083L8.08821 2.75ZM10.7843 17.4167C12.2144 17.4167 13.5859 16.8372 14.5971 15.8058C15.6084 14.7743 16.1765 13.3754 16.1765 11.9167C16.1765 10.458 15.6084 9.05903 14.5971 8.02758C13.5859 6.99613 12.2144 6.41667 10.7843 6.41667C9.3542 6.41667 7.98269 6.99613 6.97146 8.02758C5.96024 9.05903 5.39214 10.458 5.39214 11.9167C5.39214 13.3754 5.96024 14.7743 6.97146 15.8058C7.98269 16.8372 9.3542 17.4167 10.7843 17.4167ZM10.7843 15.5833C9.8309 15.5833 8.91656 15.197 8.24241 14.5094C7.56825 13.8218 7.18952 12.8891 7.18952 11.9167C7.18952 10.9442 7.56825 10.0116 8.24241 9.32394C8.91656 8.63631 9.8309 8.25 10.7843 8.25C11.7377 8.25 12.652 8.63631 13.3262 9.32394C14.0003 10.0116 14.3791 10.9442 14.3791 11.9167C14.3791 12.8891 14.0003 13.8218 13.3262 14.5094C12.652 15.197 11.7377 15.5833 10.7843 15.5833Z" fill="#003366"/>
</g>
<defs>
<clipPath id="clip0_55_5417">
<rect width="21.5686" height="22" fill="white"/>
</clipPath>
</defs>
</svg>
